<svg viewBox="-80 -535.3579973185173 650 430.7159946370346" xmlns="http://www.w3.org/2000/svg" tabindex="0" style="width: 100%; height: 100%; cursor: crosshair;"><g id="zoom"><rect id="canvas-handle" x="-5000" y="-5000" width="10000" height="10000" fill="none"/><g class="edge"><path stroke="rgba(0,0,0,0)" stroke-width="4" fill="none" d="M360 -490 L 360 -360" style="cursor: pointer;"/><path stroke="#738694" stroke-width="1" fill="none" d="M360 -490 L 360 -360" stroke-dasharray="0" marker-end="" style="pointer-events: none;"/></g><g transform="translate(360 -425)" class="EdgeLabel"><g class="edge-handle"><rect class="EdgeLabel__outline" x="-18.44686508178711" y="-4.3227479457855225" rx="3" stroke="#738694" stroke-width=".8px" fill="white" width="36.89373016357422" height="8.645495891571045"/><text text-anchor="middle" dy="1.4113739728927612" class="EdgeLabel__text" fill="#738694" pointer-events="none" style="font-size: 5px; font-family: sans-serif;">Contract award</text></g></g><g class="edge"><path stroke="rgba(0,0,0,0)" stroke-width="4" fill="none" d="M310 -360 L 360 -360" style="cursor: pointer;"/><path stroke="#738694" stroke-width="1" fill="none" d="M310 -360 L 360 -360" stroke-dasharray="0" marker-end="" style="pointer-events: none;"/></g><g transform="translate(335 -360)" class="EdgeLabel"><g class="edge-handle"><rect class="EdgeLabel__outline" x="-14.936450004577637" y="-4.3227479457855225" rx="3" stroke="#738694" stroke-width=".8px" fill="white" width="29.872900009155273" height="8.645495891571045"/><text text-anchor="middle" dy="1.4113739728927612" class="EdgeLabel__text" fill="#738694" pointer-events="none" style="font-size: 5px; font-family: sans-serif;">Directorship</text></g></g><g class="edge"><path stroke="rgba(0,0,0,0)" stroke-width="4" fill="none" d="M360 -360 L 360 -300" style="cursor: pointer;"/><path stroke="#738694" stroke-width="1" fill="none" d="M360 -360 L 360 -300" stroke-dasharray="0" marker-end="" style="pointer-events: none;"/></g><g transform="translate(360 -330)" class="EdgeLabel"><g class="edge-handle"><rect class="EdgeLabel__outline" x="-7.892693996429443" y="-4.3227479457855225" rx="3" stroke="#738694" stroke-width=".8px" fill="white" width="15.785387992858887" height="8.645495891571045"/><text text-anchor="middle" dy="1.4113739728927612" class="EdgeLabel__text" fill="#738694" pointer-events="none" style="font-size: 5px; font-family: sans-serif;">100%</text></g></g><g class="edge"><path stroke="rgba(0,0,0,0)" stroke-width="4" fill="none" d="M360 -300 L 360 -240" style="cursor: pointer;"/><path stroke="#738694" stroke-width="1" fill="none" d="M360 -300 L 360 -240" stroke-dasharray="0" marker-end="" style="pointer-events: none;"/></g><g transform="translate(360 -270)" class="EdgeLabel"><g class="edge-handle"><rect class="EdgeLabel__outline" x="-7.892693996429443" y="-4.3227479457855225" rx="3" stroke="#738694" stroke-width=".8px" fill="white" width="15.785387992858887" height="8.645495891571045"/><text text-anchor="middle" dy="1.4113739728927612" class="EdgeLabel__text" fill="#738694" pointer-events="none" style="font-size: 5px; font-family: sans-serif;">100%</text></g></g><g class="edge"><path stroke="rgba(0,0,0,0)" stroke-width="4" fill="none" d="M260 -280 L 360 -240" style="cursor: pointer;"/><path stroke="#738694" stroke-width="1" fill="none" d="M260 -280 L 360 -240" stroke-dasharray="0" marker-end="" style="pointer-events: none;"/></g><g transform="translate(310 -260)" class="EdgeLabel"><g class="edge-handle"><rect class="EdgeLabel__outline" x="-14.936450004577637" y="-4.3227479457855225" rx="3" stroke="#738694" stroke-width=".8px" fill="white" width="29.872900009155273" height="8.645495891571045"/><text text-anchor="middle" dy="1.4113739728927612" class="EdgeLabel__text" fill="#738694" pointer-events="none" style="font-size: 5px; font-family: sans-serif;">Directorship</text></g></g><g class="edge"><path stroke="rgba(0,0,0,0)" stroke-width="4" fill="none" d="M260 -280 L 360 -300" style="cursor: pointer;"/><path stroke="#738694" stroke-width="1" fill="none" d="M260 -280 L 360 -300" stroke-dasharray="0" marker-end="" style="pointer-events: none;"/></g><g transform="translate(310 -290)" class="EdgeLabel"><g class="edge-handle"><rect class="EdgeLabel__outline" x="-7.892693996429443" y="-4.3227479457855225" rx="3" stroke="#738694" stroke-width=".8px" fill="white" width="15.785387992858887" height="8.645495891571045"/><text text-anchor="middle" dy="1.4113739728927612" class="EdgeLabel__text" fill="#738694" pointer-events="none" style="font-size: 5px; font-family: sans-serif;">100%</text></g></g><g class="edge"><path stroke="rgba(0,0,0,0)" stroke-width="4" fill="none" d="M450 -240 L 360 -240" style="cursor: pointer;"/><path stroke="#738694" stroke-width="1" fill="none" d="M450 -240 L 360 -240" stroke-dasharray="0" marker-end="" style="pointer-events: none;"/></g><g transform="translate(405 -240)" class="EdgeLabel"><g class="edge-handle"><rect class="EdgeLabel__outline" x="-18.44686508178711" y="-4.3227479457855225" rx="3" stroke="#738694" stroke-width=".8px" fill="white" width="36.89373016357422" height="8.645495891571045"/><text text-anchor="middle" dy="1.4113739728927612" class="EdgeLabel__text" fill="#738694" pointer-events="none" style="font-size: 5px; font-family: sans-serif;">Contract award</text></g></g><g class="edge"><path stroke="rgba(0,0,0,0)" stroke-width="4" fill="none" d="M450 -240 L 540 -240" style="cursor: pointer;"/><path stroke="#738694" stroke-width="1" fill="none" d="M450 -240 L 540 -240" stroke-dasharray="0" marker-end="" style="pointer-events: none;"/></g><g transform="translate(495 -240)" class="EdgeLabel"><g class="edge-handle"><rect class="EdgeLabel__outline" x="-18.44686508178711" y="-4.3227479457855225" rx="3" stroke="#738694" stroke-width=".8px" fill="white" width="36.89373016357422" height="8.645495891571045"/><text text-anchor="middle" dy="1.4113739728927612" class="EdgeLabel__text" fill="#738694" pointer-events="none" style="font-size: 5px; font-family: sans-serif;">Contract award</text></g></g><g class="edge"><path stroke="rgba(0,0,0,0)" stroke-width="4" fill="none" d="M30 -490 L -10 -280" style="cursor: pointer;"/><path stroke="#738694" stroke-width="1" fill="none" d="M30 -490 L -10 -280" stroke-dasharray="0" marker-end="" style="pointer-events: none;"/></g><g transform="translate(10 -385)" class="EdgeLabel"><g class="edge-handle"><rect class="EdgeLabel__outline" x="-18.44686508178711" y="-4.3227479457855225" rx="3" stroke="#738694" stroke-width=".8px" fill="white" width="36.89373016357422" height="8.645495891571045"/><text text-anchor="middle" dy="1.4113739728927612" class="EdgeLabel__text" fill="#738694" pointer-events="none" style="font-size: 5px; font-family: sans-serif;">Contract award</text></g></g><g class="edge"><path stroke="rgba(0,0,0,0)" stroke-width="4" fill="none" d="M70 -320 L -10 -280" style="cursor: pointer;"/><path stroke="#738694" stroke-width="1" fill="none" d="M70 -320 L -10 -280" stroke-dasharray="0" marker-end="" style="pointer-events: none;"/></g><g transform="translate(30 -300)" class="EdgeLabel"><g class="edge-handle"><rect class="EdgeLabel__outline" x="-14.936450004577637" y="-4.3227479457855225" rx="3" stroke="#738694" stroke-width=".8px" fill="white" width="29.872900009155273" height="8.645495891571045"/><text text-anchor="middle" dy="1.4113739728927612" class="EdgeLabel__text" fill="#738694" pointer-events="none" style="font-size: 5px; font-family: sans-serif;">Directorship</text></g></g><g class="edge"><path stroke="rgba(0,0,0,0)" stroke-width="4" fill="none" d="M80 -280 L -10 -280" style="cursor: pointer;"/><path stroke="#738694" stroke-width="1" fill="none" d="M80 -280 L -10 -280" stroke-dasharray="0" marker-end="" style="pointer-events: none;"/></g><g transform="translate(35 -280)" class="EdgeLabel"><g class="edge-handle"><rect class="EdgeLabel__outline" x="-7.892693996429443" y="-4.3227479457855225" rx="3" stroke="#738694" stroke-width=".8px" fill="white" width="15.785387992858887" height="8.645495891571045"/><text text-anchor="middle" dy="1.4113739728927612" class="EdgeLabel__text" fill="#738694" pointer-events="none" style="font-size: 5px; font-family: sans-serif;">100%</text></g></g><g class="edge"><path stroke="rgba(0,0,0,0)" stroke-width="4" fill="none" d="M210 -350 L 210 -280" style="cursor: pointer;"/><path stroke="#738694" stroke-width="1" fill="none" d="M210 -350 L 210 -280" stroke-dasharray="0" marker-end="" style="pointer-events: none;"/></g><g transform="translate(210 -315)" class="EdgeLabel"><g class="edge-handle"><rect class="EdgeLabel__outline" x="-6.5020751953125" y="-4.3227479457855225" rx="3" stroke="#738694" stroke-width=".8px" fill="white" width="13.004150390625" height="8.645495891571045"/><text text-anchor="middle" dy="1.4113739728927612" class="EdgeLabel__text" fill="#738694" pointer-events="none" style="font-size: 5px; font-family: sans-serif;">15%</text></g></g><g class="edge"><path stroke="rgba(0,0,0,0)" stroke-width="4" fill="none" d="M260 -340 L 210 -280" style="cursor: pointer;"/><path stroke="#738694" stroke-width="1" fill="none" d="M260 -340 L 210 -280" stroke-dasharray="0" marker-end="" style="pointer-events: none;"/></g><g transform="translate(235 -310)" class="EdgeLabel"><g class="edge-handle"><rect class="EdgeLabel__outline" x="-6.5020751953125" y="-4.3227479457855225" rx="3" stroke="#738694" stroke-width=".8px" fill="white" width="13.004150390625" height="8.645495891571045"/><text text-anchor="middle" dy="1.4113739728927612" class="EdgeLabel__text" fill="#738694" pointer-events="none" style="font-size: 5px; font-family: sans-serif;">40%</text></g></g><g class="edge"><path stroke="rgba(0,0,0,0)" stroke-width="4" fill="none" d="M140 -340 L 80 -280" style="cursor: pointer;"/><path stroke="#738694" stroke-width="1" fill="none" d="M140 -340 L 80 -280" stroke-dasharray="0" marker-end="" style="pointer-events: none;"/></g><g transform="translate(110 -310)" class="EdgeLabel"><g class="edge-handle"><rect class="EdgeLabel__outline" x="-14.145288467407227" y="-4.3227479457855225" rx="3" stroke="#738694" stroke-width=".8px" fill="white" width="28.290576934814453" height="8.645495891571045"/><text text-anchor="middle" dy="1.4113739728927612" class="EdgeLabel__text" fill="#738694" pointer-events="none" style="font-size: 5px; font-family: sans-serif;">33.33333%</text></g></g><g class="edge"><path stroke="rgba(0,0,0,0)" stroke-width="4" fill="none" d="M210 -280 L 140 -340" style="cursor: pointer;"/><path stroke="#738694" stroke-width="1" fill="none" d="M210 -280 L 140 -340" stroke-dasharray="0" marker-end="" style="pointer-events: none;"/></g><g transform="translate(175 -310)" class="EdgeLabel"><g class="edge-handle"><rect class="EdgeLabel__outline" x="-7.892693996429443" y="-4.3227479457855225" rx="3" stroke="#738694" stroke-width=".8px" fill="white" width="15.785387992858887" height="8.645495891571045"/><text text-anchor="middle" dy="1.4113739728927612" class="EdgeLabel__text" fill="#738694" pointer-events="none" style="font-size: 5px; font-family: sans-serif;">100%</text></g></g><g class="edge"><path stroke="rgba(0,0,0,0)" stroke-width="4" fill="none" d="M210 -280 L 140 -290" style="cursor: pointer;"/><path stroke="#738694" stroke-width="1" fill="none" d="M210 -280 L 140 -290" stroke-dasharray="0" marker-end="" style="pointer-events: none;"/></g><g transform="translate(175 -285)" class="EdgeLabel"><g class="edge-handle"><rect class="EdgeLabel__outline" x="-7.892693996429443" y="-4.3227479457855225" rx="3" stroke="#738694" stroke-width=".8px" fill="white" width="15.785387992858887" height="8.645495891571045"/><text text-anchor="middle" dy="1.4113739728927612" class="EdgeLabel__text" fill="#738694" pointer-events="none" style="font-size: 5px; font-family: sans-serif;">100%</text></g></g><g class="edge"><path stroke="rgba(0,0,0,0)" stroke-width="4" fill="none" d="M210 -280 L 140 -250" style="cursor: pointer;"/><path stroke="#738694" stroke-width="1" fill="none" d="M210 -280 L 140 -250" stroke-dasharray="0" marker-end="" style="pointer-events: none;"/></g><g transform="translate(175 -265)" class="EdgeLabel"><g class="edge-handle"><rect class="EdgeLabel__outline" x="-7.892693996429443" y="-4.3227479457855225" rx="3" stroke="#738694" stroke-width=".8px" fill="white" width="15.785387992858887" height="8.645495891571045"/><text text-anchor="middle" dy="1.4113739728927612" class="EdgeLabel__text" fill="#738694" pointer-events="none" style="font-size: 5px; font-family: sans-serif;">100%</text></g></g><g class="edge"><path stroke="rgba(0,0,0,0)" stroke-width="4" fill="none" d="M140 -290 L 80 -280" style="cursor: pointer;"/><path stroke="#738694" stroke-width="1" fill="none" d="M140 -290 L 80 -280" stroke-dasharray="0" marker-end="" style="pointer-events: none;"/></g><g transform="translate(110 -285)" class="EdgeLabel"><g class="edge-handle"><rect class="EdgeLabel__outline" x="-14.145288467407227" y="-4.3227479457855225" rx="3" stroke="#738694" stroke-width=".8px" fill="white" width="28.290576934814453" height="8.645495891571045"/><text text-anchor="middle" dy="1.4113739728927612" class="EdgeLabel__text" fill="#738694" pointer-events="none" style="font-size: 5px; font-family: sans-serif;">33.33333%</text></g></g><g class="edge"><path stroke="rgba(0,0,0,0)" stroke-width="4" fill="none" d="M140 -250 L 80 -280" style="cursor: pointer;"/><path stroke="#738694" stroke-width="1" fill="none" d="M140 -250 L 80 -280" stroke-dasharray="0" marker-end="" style="pointer-events: none;"/></g><g transform="translate(110 -265)" class="EdgeLabel"><g class="edge-handle"><rect class="EdgeLabel__outline" x="-14.145288467407227" y="-4.3227479457855225" rx="3" stroke="#738694" stroke-width=".8px" fill="white" width="28.290576934814453" height="8.645495891571045"/><text text-anchor="middle" dy="1.4113739728927612" class="EdgeLabel__text" fill="#738694" pointer-events="none" style="font-size: 5px; font-family: sans-serif;">33.33333%</text></g></g><g class="edge"><path stroke="rgba(0,0,0,0)" stroke-width="4" fill="none" d="M-50 -490 L -10 -280" style="cursor: pointer;"/><path stroke="#738694" stroke-width="1" fill="none" d="M-50 -490 L -10 -280" stroke-dasharray="0" marker-end="" style="pointer-events: none;"/></g><g transform="translate(-30 -385)" class="EdgeLabel"><g class="edge-handle"><rect class="EdgeLabel__outline" x="-18.44686508178711" y="-4.3227479457855225" rx="3" stroke="#738694" stroke-width=".8px" fill="white" width="36.89373016357422" height="8.645495891571045"/><text text-anchor="middle" dy="1.4113739728927612" class="EdgeLabel__text" fill="#738694" pointer-events="none" style="font-size: 5px; font-family: sans-serif;">Contract award</text></g></g><g class="edge"><path stroke="rgba(0,0,0,0)" stroke-width="4" fill="none" d="M210 -200 L 210 -280" style="cursor: pointer;"/><path stroke="#738694" stroke-width="1" fill="none" d="M210 -200 L 210 -280" stroke-dasharray="0" marker-end="" style="pointer-events: none;"/></g><g transform="translate(210 -240)" class="EdgeLabel"><g class="edge-handle"><rect class="EdgeLabel__outline" x="-18.44686508178711" y="-4.3227479457855225" rx="3" stroke="#738694" stroke-width=".8px" fill="white" width="36.89373016357422" height="8.645495891571045"/><text text-anchor="middle" dy="1.4113739728927612" class="EdgeLabel__text" fill="#738694" pointer-events="none" style="font-size: 5px; font-family: sans-serif;">Contract award</text></g></g><g class="edge"><path stroke="rgba(0,0,0,0)" stroke-width="4" fill="none" d="M210 -200 L 210 -150" style="cursor: pointer;"/><path stroke="#738694" stroke-width="1" fill="none" d="M210 -200 L 210 -150" stroke-dasharray="0" marker-end="" style="pointer-events: none;"/></g><g transform="translate(210 -175)" class="EdgeLabel"><g class="edge-handle"><rect class="EdgeLabel__outline" x="-23.970775604248047" y="-4.3227479457855225" rx="3" stroke="#738694" stroke-width=".8px" fill="white" width="47.941551208496094" height="8.645495891571045"/><text text-anchor="middle" dy="1.4113739728927612" class="EdgeLabel__text" fill="#738694" pointer-events="none" style="font-size: 5px; font-family: sans-serif;">Personal Guarantee</text></g></g><g class="edge"><path stroke="rgba(0,0,0,0)" stroke-width="4" fill="none" d="M260 -280 L 210 -280" style="cursor: pointer;"/><path stroke="#738694" stroke-width="1" fill="none" d="M260 -280 L 210 -280" stroke-dasharray="0" marker-end="" style="pointer-events: none;"/></g><g transform="translate(235 -280)" class="EdgeLabel"><g class="edge-handle"><rect class="EdgeLabel__outline" x="-6.5020751953125" y="-4.3227479457855225" rx="3" stroke="#738694" stroke-width=".8px" fill="white" width="13.004150390625" height="8.645495891571045"/><text text-anchor="middle" dy="1.4113739728927612" class="EdgeLabel__text" fill="#738694" pointer-events="none" style="font-size: 5px; font-family: sans-serif;">45%</text></g></g><g class="edge"><path stroke="rgba(0,0,0,0)" stroke-width="4" fill="none" d="M260 -340 L 260 -410" style="cursor: pointer;"/><path stroke="#738694" stroke-width="1" fill="none" d="M260 -340 L 260 -410" stroke-dasharray="0" marker-end="" style="pointer-events: none;"/></g><g transform="translate(260 -375)" class="EdgeLabel"><g class="edge-handle"><rect class="EdgeLabel__outline" x="-13.549086570739746" y="-4.3227479457855225" rx="3" stroke="#738694" stroke-width=".8px" fill="white" width="27.098173141479492" height="8.645495891571045"/><text text-anchor="middle" dy="1.4113739728927612" class="EdgeLabel__text" fill="#738694" pointer-events="none" style="font-size: 5px; font-family: sans-serif;">Ownership</text></g></g><g class="edge"><path stroke="rgba(0,0,0,0)" stroke-width="4" fill="none" d="M290 -490 L 260 -410" style="cursor: pointer;"/><path stroke="#738694" stroke-width="1" fill="none" d="M290 -490 L 260 -410" stroke-dasharray="0" marker-end="" style="pointer-events: none;"/></g><g transform="translate(275 -450)" class="EdgeLabel"><g class="edge-handle"><rect class="EdgeLabel__outline" x="-18.44686508178711" y="-4.3227479457855225" rx="3" stroke="#738694" stroke-width=".8px" fill="white" width="36.89373016357422" height="8.645495891571045"/><text text-anchor="middle" dy="1.4113739728927612" class="EdgeLabel__text" fill="#738694" pointer-events="none" style="font-size: 5px; font-family: sans-serif;">Contract award</text></g></g><g class="edge"><path stroke="rgba(0,0,0,0)" stroke-width="4" fill="none" d="M80 -200 L 80 -280" style="cursor: pointer;"/><path stroke="#738694" stroke-width="1" fill="none" d="M80 -200 L 80 -280" stroke-dasharray="0" marker-end="" style="pointer-events: none;"/></g><g transform="translate(80 -240)" class="EdgeLabel"><g class="edge-handle"><rect class="EdgeLabel__outline" x="-18.44686508178711" y="-4.3227479457855225" rx="3" stroke="#738694" stroke-width=".8px" fill="white" width="36.89373016357422" height="8.645495891571045"/><text text-anchor="middle" dy="1.4113739728927612" class="EdgeLabel__text" fill="#738694" pointer-events="none" style="font-size: 5px; font-family: sans-serif;">Contract award</text></g></g><g class="edge"><path stroke="rgba(0,0,0,0)" stroke-width="4" fill="none" d="M80 -200 L 80 -150" style="cursor: pointer;"/><path stroke="#738694" stroke-width="1" fill="none" d="M80 -200 L 80 -150" stroke-dasharray="0" marker-end="" style="pointer-events: none;"/></g><g transform="translate(80 -175)" class="EdgeLabel"><g class="edge-handle"><rect class="EdgeLabel__outline" x="-18.44686508178711" y="-4.3227479457855225" rx="3" stroke="#738694" stroke-width=".8px" fill="white" width="36.89373016357422" height="8.645495891571045"/><text text-anchor="middle" dy="1.4113739728927612" class="EdgeLabel__text" fill="#738694" pointer-events="none" style="font-size: 5px; font-family: sans-serif;">Contract award</text></g></g><g class="edge"><path stroke="rgba(0,0,0,0)" stroke-width="4" fill="none" d="M440 -490 L 440 -300" style="cursor: pointer;"/><path stroke="#738694" stroke-width="1" fill="none" d="M440 -490 L 440 -300" stroke-dasharray="0" marker-end="" style="pointer-events: none;"/></g><g transform="translate(440 -395)" class="EdgeLabel"><g class="edge-handle"><rect class="EdgeLabel__outline" x="-18.44686508178711" y="-4.3227479457855225" rx="3" stroke="#738694" stroke-width=".8px" fill="white" width="36.89373016357422" height="8.645495891571045"/><text text-anchor="middle" dy="1.4113739728927612" class="EdgeLabel__text" fill="#738694" pointer-events="none" style="font-size: 5px; font-family: sans-serif;">Contract award</text></g></g><g class="edge"><path stroke="rgba(0,0,0,0)" stroke-width="4" fill="none" d="M440 -300 L 360 -300" style="cursor: pointer;"/><path stroke="#738694" stroke-width="1" fill="none" d="M440 -300 L 360 -300" stroke-dasharray="0" marker-end="" style="pointer-events: none;"/></g><g transform="translate(400 -300)" class="EdgeLabel"><g class="edge-handle"><rect class="EdgeLabel__outline" x="-12.272664070129395" y="-4.3227479457855225" rx="3" stroke="#738694" stroke-width=".8px" fill="white" width="24.54532814025879" height="8.645495891571045"/><text text-anchor="middle" dy="1.4113739728927612" class="EdgeLabel__text" fill="#738694" pointer-events="none" style="font-size: 5px; font-family: sans-serif;">Other link</text></g></g><g class="edge"><path stroke="rgba(0,0,0,0)" stroke-width="4" fill="none" d="M240 -490 L 260 -410" style="cursor: pointer;"/><path stroke="#738694" stroke-width="1" fill="none" d="M240 -490 L 260 -410" stroke-dasharray="0" marker-end="" style="pointer-events: none;"/></g><g transform="translate(250 -450)" class="EdgeLabel"><g class="edge-handle"><rect class="EdgeLabel__outline" x="-18.44686508178711" y="-4.3227479457855225" rx="3" stroke="#738694" stroke-width=".8px" fill="white" width="36.89373016357422" height="8.645495891571045"/><text text-anchor="middle" dy="1.4113739728927612" class="EdgeLabel__text" fill="#738694" pointer-events="none" style="font-size: 5px; font-family: sans-serif;">Contract award</text></g></g><g class="edge"><path stroke="rgba(0,0,0,0)" stroke-width="4" fill="none" d="M190 -410 L 260 -410" style="cursor: pointer;"/><path stroke="#738694" stroke-width="1" fill="none" d="M190 -410 L 260 -410" stroke-dasharray="0" marker-end="" style="pointer-events: none;"/></g><g transform="translate(225 -410)" class="EdgeLabel"><g class="edge-handle"><rect class="EdgeLabel__outline" x="-15.353755950927734" y="-4.3227479457855225" rx="3" stroke="#738694" stroke-width=".8px" fill="white" width="30.70751190185547" height="8.645495891571045"/><text text-anchor="middle" dy="1.4113739728927612" class="EdgeLabel__text" fill="#738694" pointer-events="none" style="font-size: 5px; font-family: sans-serif;">Membership</text></g></g><g class="edge"><path stroke="rgba(0,0,0,0)" stroke-width="4" fill="none" d="M140 -490 L 190 -410" style="cursor: pointer;"/><path stroke="#738694" stroke-width="1" fill="none" d="M140 -490 L 190 -410" stroke-dasharray="0" marker-end="" style="pointer-events: none;"/></g><g transform="translate(165 -450)" class="EdgeLabel"><g class="edge-handle"><rect class="EdgeLabel__outline" x="-18.44686508178711" y="-4.3227479457855225" rx="3" stroke="#738694" stroke-width=".8px" fill="white" width="36.89373016357422" height="8.645495891571045"/><text text-anchor="middle" dy="1.4113739728927612" class="EdgeLabel__text" fill="#738694" pointer-events="none" style="font-size: 5px; font-family: sans-serif;">Contract award</text></g></g><g class="vertex" transform="translate(210 -150)" style="cursor: pointer; pointer-events: auto;"><circle class="handle" r="10" fill="#008075" stroke="none"/><text x="0" y="15" text-anchor="middle" alignment-baseline="middle" filter="url(#solid)" pointer-events="none" fill="#008075" style="font-size: 5px; font-family: sans-serif; font-weight: bold;">Janis Timma</text><g transform="scale(0.5)translate(-12 -12)" fill="#FFFFFF" pointer-events="none"><path d="M12 11a3 3 0 100-6 3 3 0 000 6zm0 1a4 4 0 110-8 4 4 0 010 8z"/><path d="M12 23c6.075 0 11-4.925 11-11S18.075 1 12 1 1 5.925 1 12s4.925 11 11 11zm0 1C5.373 24 0 18.627 0 12S5.373 0 12 0s12 5.373 12 12-5.373 12-12 12z"/><path d="M6.26 22.541L6 22.399V16a4 4 0 014-4h4a4 4 0 014 4v6.399l-.26.142A11.946 11.946 0 0112 24c-2.022 0-3.984-.5-5.74-1.459zm.74-.74C8.541 22.589 10.245 23 12 23s3.459-.41 5-1.2V16a3 3 0 00-3-3h-4a3 3 0 00-3 3v5.8z"/></g></g><g class="vertex" transform="translate(360 -360)" style="cursor: pointer; pointer-events: auto;"><circle class="handle" r="10" fill="#A66321" stroke="none"/><text x="0" y="15" text-anchor="middle" alignment-baseline="middle" filter="url(#solid)" pointer-events="none" fill="#A66321" style="font-size: 5px; font-family: sans-serif; font-weight: bold;">SIA PROSPECTUM</text><g transform="scale(0.5)translate(-12 -12)" fill="#FFFFFF" pointer-events="none"><path d="M1 5v18h7V5H1zm0-1h8v20H1a1 1 0 01-1-1V5a1 1 0 011-1z"/><path d="M9 22v1h6v-1H9zm-1-1h8v3H8v-3z"/><path d="M9 1v20h6V1H9zm0-1h6a1 1 0 011 1v21H8V1a1 1 0 011-1z"/><path d="M11 3v1h2V3h-2zm0-1h2a1 1 0 011 1v1a1 1 0 01-1 1h-2a1 1 0 01-1-1V3a1 1 0 011-1zM11 7v1h2V7h-2zm0-1h2a1 1 0 011 1v1a1 1 0 01-1 1h-2a1 1 0 01-1-1V7a1 1 0 011-1zM11 11v1h2v-1h-2zm0-1h2a1 1 0 011 1v1a1 1 0 01-1 1h-2a1 1 0 01-1-1v-1a1 1 0 011-1zM3 8h1V7H3v1zm0-2h1a1 1 0 011 1v1a1 1 0 01-1 1H3a1 1 0 01-1-1V7a1 1 0 011-1zM7 8h1V7H7v1zm0-2h1a1 1 0 011 1v1a1 1 0 01-1 1H7a1 1 0 01-1-1V7a1 1 0 011-1zM3 12h1v-1H3v1zm0-2h1a1 1 0 011 1v1a1 1 0 01-1 1H3a1 1 0 01-1-1v-1a1 1 0 011-1zM7 12h1v-1H7v1zm0-2h1a1 1 0 011 1v1a1 1 0 01-1 1H7a1 1 0 01-1-1v-1a1 1 0 011-1zM3 16h1v-1H3v1zm0-2h1a1 1 0 011 1v1a1 1 0 01-1 1H3a1 1 0 01-1-1v-1a1 1 0 011-1zM7 16h1v-1H7v1zm0-2h1a1 1 0 011 1v1a1 1 0 01-1 1H7a1 1 0 01-1-1v-1a1 1 0 011-1zM3 20h1v-1H3v1zm0-2h1a1 1 0 011 1v1a1 1 0 01-1 1H3a1 1 0 01-1-1v-1a1 1 0 011-1zM7 20h1v-1H7v1zm0-2h1a1 1 0 011 1v1a1 1 0 01-1 1H7a1 1 0 01-1-1v-1a1 1 0 011-1zM16 20h1v-1h-1v1zm0-2h1a1 1 0 011 1v1a1 1 0 01-1 1h-1a1 1 0 01-1-1v-1a1 1 0 011-1zM20 20h1v-1h-1v1zm0-2h1a1 1 0 011 1v1a1 1 0 01-1 1h-1a1 1 0 01-1-1v-1a1 1 0 011-1zM20 16h1v-1h-1v1zm0-2h1a1 1 0 011 1v1a1 1 0 01-1 1h-1a1 1 0 01-1-1v-1a1 1 0 011-1zM16 16h1v-1h-1v1zm0-2h1a1 1 0 011 1v1a1 1 0 01-1 1h-1a1 1 0 01-1-1v-1a1 1 0 011-1zM16 12h1v-1h-1v1zm0-2h1a1 1 0 011 1v1a1 1 0 01-1 1h-1a1 1 0 01-1-1v-1a1 1 0 011-1zM20 12h1v-1h-1v1zm0-2h1a1 1 0 011 1v1a1 1 0 01-1 1h-1a1 1 0 01-1-1v-1a1 1 0 011-1zM20 8h1V7h-1v1zm0-2h1a1 1 0 011 1v1a1 1 0 01-1 1h-1a1 1 0 01-1-1V7a1 1 0 011-1zM16 8h1V7h-1v1zm0-2h1a1 1 0 011 1v1a1 1 0 01-1 1h-1a1 1 0 01-1-1V7a1 1 0 011-1zM11 15v1h2v-1h-2zm0-1h2a1 1 0 011 1v1a1 1 0 01-1 1h-2a1 1 0 01-1-1v-1a1 1 0 011-1zM11 19v2h2v-2h-2zm0-1h2a1 1 0 011 1v3h-4v-3a1 1 0 011-1z"/><path d="M16 5v18h7V5h-7zm0-1h7a1 1 0 011 1v18a1 1 0 01-1 1h-8V5a1 1 0 011-1z"/></g></g><g class="vertex" transform="translate(360 -490)" style="cursor: pointer; pointer-events: auto;"><circle class="handle" r="10" fill="#A82A2A" stroke="none"/><text x="0" y="15" text-anchor="middle" alignment-baseline="middle" filter="url(#solid)" pointer-events="none" fill="#A82A2A" style="font-size: 5px; font-family: sans-serif; font-weight: bold;">E. Fon Trompowsky Quarter</text><g transform="scale(0.5)translate(-12 -12)" fill="#FFFFFF" pointer-events="none"><path d="M17 21v-6l1-1v7a1 1 0 01-1 1H3a1 1 0 01-1-1V1a1 1 0 011-1h14a1 1 0 011 1v9l-1 1V1H3v20h14z"/><path d="M4.917 3.5a.5.5 0 01.5-.5h9.166a.5.5 0 110 1H5.417a.5.5 0 01-.5-.5zM4.917 6.5a.5.5 0 01.5-.5h9.166a.5.5 0 110 1H5.417a.5.5 0 01-.5-.5zM4.917 9.5a.5.5 0 01.5-.5h9.166a.5.5 0 110 1H5.417a.5.5 0 01-.5-.5zM6.415 16.282c-.103.224-.21.464-.344.77l-.267.612a59.71 59.71 0 01-.058.13.497.497 0 01-.66.254.503.503 0 01-.253-.661l.055-.124.267-.613c.137-.311.246-.556.352-.786.437-.95.774-1.554 1.106-1.906.608-.645 1.326-.452 1.638.463.108.317.191.635.263.986.047.226.085.443.148.82.142.811.338.825 1.338.825h3.526c.262 0 .474.212.474.474a.49.49 0 01-.474.49c-2.675.092-4.107.138-4.296.138-1.002 0-1.336-.518-1.553-1.754-.184-1.057-.21-1.177-.372-1.656a3.157 3.157 0 00-.015-.042c-.225.268-.512.793-.875 1.58z"/><path d="M15 23v-2h1v2a1 1 0 01-1 1H1a1 1 0 01-1-1V3a1 1 0 011-1h2v1H1v20h14z"/><path d="M13.293 14l7.5-7.5a1 1 0 011.414 0L23.5 7.793a1 1 0 010 1.414l-7.5 7.5a1 1 0 01-.707.293H13v-2.293a1 1 0 01.293-.707zM14 16h1.293l7.5-7.5L21.5 7.207l-7.5 7.5V16z"/></g></g><g class="vertex" transform="translate(260 -280)" style="cursor: pointer; pointer-events: auto;"><circle class="handle" r="10" fill="#0E5A8A" stroke="none"/><text x="0" y="15" text-anchor="middle" alignment-baseline="middle" filter="url(#solid)" pointer-events="none" fill="#0E5A8A" style="font-size: 5px; font-family: sans-serif; font-weight: bold;">Alvis Krasovskis</text><g transform="scale(0.5)translate(-12 -12)" fill="#FFFFFF" pointer-events="none"><path d="M12 11a3 3 0 100-6 3 3 0 000 6zm0 1a4 4 0 110-8 4 4 0 010 8z"/><path d="M12 23c6.075 0 11-4.925 11-11S18.075 1 12 1 1 5.925 1 12s4.925 11 11 11zm0 1C5.373 24 0 18.627 0 12S5.373 0 12 0s12 5.373 12 12-5.373 12-12 12z"/><path d="M6.26 22.541L6 22.399V16a4 4 0 014-4h4a4 4 0 014 4v6.399l-.26.142A11.946 11.946 0 0112 24c-2.022 0-3.984-.5-5.74-1.459zm.74-.74C8.541 22.589 10.245 23 12 23s3.459-.41 5-1.2V16a3 3 0 00-3-3h-4a3 3 0 00-3 3v5.8z"/></g></g><g class="vertex" transform="translate(360 -300)" style="cursor: pointer; pointer-events: auto;"><circle class="handle" r="10" fill="#A66321" stroke="none"/><text x="0" y="15" text-anchor="middle" alignment-baseline="middle" filter="url(#solid)" pointer-events="none" fill="#A66321" style="font-size: 5px; font-family: sans-serif; font-weight: bold;">SIA Realto Capital</text><g transform="scale(0.5)translate(-12 -12)" fill="#FFFFFF" pointer-events="none"><path d="M1 5v18h7V5H1zm0-1h8v20H1a1 1 0 01-1-1V5a1 1 0 011-1z"/><path d="M9 22v1h6v-1H9zm-1-1h8v3H8v-3z"/><path d="M9 1v20h6V1H9zm0-1h6a1 1 0 011 1v21H8V1a1 1 0 011-1z"/><path d="M11 3v1h2V3h-2zm0-1h2a1 1 0 011 1v1a1 1 0 01-1 1h-2a1 1 0 01-1-1V3a1 1 0 011-1zM11 7v1h2V7h-2zm0-1h2a1 1 0 011 1v1a1 1 0 01-1 1h-2a1 1 0 01-1-1V7a1 1 0 011-1zM11 11v1h2v-1h-2zm0-1h2a1 1 0 011 1v1a1 1 0 01-1 1h-2a1 1 0 01-1-1v-1a1 1 0 011-1zM3 8h1V7H3v1zm0-2h1a1 1 0 011 1v1a1 1 0 01-1 1H3a1 1 0 01-1-1V7a1 1 0 011-1zM7 8h1V7H7v1zm0-2h1a1 1 0 011 1v1a1 1 0 01-1 1H7a1 1 0 01-1-1V7a1 1 0 011-1zM3 12h1v-1H3v1zm0-2h1a1 1 0 011 1v1a1 1 0 01-1 1H3a1 1 0 01-1-1v-1a1 1 0 011-1zM7 12h1v-1H7v1zm0-2h1a1 1 0 011 1v1a1 1 0 01-1 1H7a1 1 0 01-1-1v-1a1 1 0 011-1zM3 16h1v-1H3v1zm0-2h1a1 1 0 011 1v1a1 1 0 01-1 1H3a1 1 0 01-1-1v-1a1 1 0 011-1zM7 16h1v-1H7v1zm0-2h1a1 1 0 011 1v1a1 1 0 01-1 1H7a1 1 0 01-1-1v-1a1 1 0 011-1zM3 20h1v-1H3v1zm0-2h1a1 1 0 011 1v1a1 1 0 01-1 1H3a1 1 0 01-1-1v-1a1 1 0 011-1zM7 20h1v-1H7v1zm0-2h1a1 1 0 011 1v1a1 1 0 01-1 1H7a1 1 0 01-1-1v-1a1 1 0 011-1zM16 20h1v-1h-1v1zm0-2h1a1 1 0 011 1v1a1 1 0 01-1 1h-1a1 1 0 01-1-1v-1a1 1 0 011-1zM20 20h1v-1h-1v1zm0-2h1a1 1 0 011 1v1a1 1 0 01-1 1h-1a1 1 0 01-1-1v-1a1 1 0 011-1zM20 16h1v-1h-1v1zm0-2h1a1 1 0 011 1v1a1 1 0 01-1 1h-1a1 1 0 01-1-1v-1a1 1 0 011-1zM16 16h1v-1h-1v1zm0-2h1a1 1 0 011 1v1a1 1 0 01-1 1h-1a1 1 0 01-1-1v-1a1 1 0 011-1zM16 12h1v-1h-1v1zm0-2h1a1 1 0 011 1v1a1 1 0 01-1 1h-1a1 1 0 01-1-1v-1a1 1 0 011-1zM20 12h1v-1h-1v1zm0-2h1a1 1 0 011 1v1a1 1 0 01-1 1h-1a1 1 0 01-1-1v-1a1 1 0 011-1zM20 8h1V7h-1v1zm0-2h1a1 1 0 011 1v1a1 1 0 01-1 1h-1a1 1 0 01-1-1V7a1 1 0 011-1zM16 8h1V7h-1v1zm0-2h1a1 1 0 011 1v1a1 1 0 01-1 1h-1a1 1 0 01-1-1V7a1 1 0 011-1zM11 15v1h2v-1h-2zm0-1h2a1 1 0 011 1v1a1 1 0 01-1 1h-2a1 1 0 01-1-1v-1a1 1 0 011-1zM11 19v2h2v-2h-2zm0-1h2a1 1 0 011 1v3h-4v-3a1 1 0 011-1z"/><path d="M16 5v18h7V5h-7zm0-1h7a1 1 0 011 1v18a1 1 0 01-1 1h-8V5a1 1 0 011-1z"/></g></g><g class="vertex" transform="translate(310 -360)" style="cursor: pointer; pointer-events: auto;"><circle class="handle" r="10" fill="#0E5A8A" stroke="none"/><text x="0" y="15" text-anchor="middle" alignment-baseline="middle" filter="url(#solid)" pointer-events="none" fill="#0E5A8A" style="font-size: 5px; font-family: sans-serif; font-weight: bold;">Agnese Rutka</text><g transform="scale(0.5)translate(-12 -12)" fill="#FFFFFF" pointer-events="none"><path d="M12 11a3 3 0 100-6 3 3 0 000 6zm0 1a4 4 0 110-8 4 4 0 010 8z"/><path d="M12 23c6.075 0 11-4.925 11-11S18.075 1 12 1 1 5.925 1 12s4.925 11 11 11zm0 1C5.373 24 0 18.627 0 12S5.373 0 12 0s12 5.373 12 12-5.373 12-12 12z"/><path d="M6.26 22.541L6 22.399V16a4 4 0 014-4h4a4 4 0 014 4v6.399l-.26.142A11.946 11.946 0 0112 24c-2.022 0-3.984-.5-5.74-1.459zm.74-.74C8.541 22.589 10.245 23 12 23s3.459-.41 5-1.2V16a3 3 0 00-3-3h-4a3 3 0 00-3 3v5.8z"/></g></g><g class="vertex" transform="translate(360 -240)" style="cursor: pointer; pointer-events: auto;"><circle class="handle" r="10" fill="#A66321" stroke="none"/><text x="0" y="15" text-anchor="middle" alignment-baseline="middle" filter="url(#solid)" pointer-events="none" fill="#A66321" style="font-size: 5px; font-family: sans-serif; font-weight: bold;">SIA Trompovska Kvartāls</text><g transform="scale(0.5)translate(-12 -12)" fill="#FFFFFF" pointer-events="none"><path d="M1 5v18h7V5H1zm0-1h8v20H1a1 1 0 01-1-1V5a1 1 0 011-1z"/><path d="M9 22v1h6v-1H9zm-1-1h8v3H8v-3z"/><path d="M9 1v20h6V1H9zm0-1h6a1 1 0 011 1v21H8V1a1 1 0 011-1z"/><path d="M11 3v1h2V3h-2zm0-1h2a1 1 0 011 1v1a1 1 0 01-1 1h-2a1 1 0 01-1-1V3a1 1 0 011-1zM11 7v1h2V7h-2zm0-1h2a1 1 0 011 1v1a1 1 0 01-1 1h-2a1 1 0 01-1-1V7a1 1 0 011-1zM11 11v1h2v-1h-2zm0-1h2a1 1 0 011 1v1a1 1 0 01-1 1h-2a1 1 0 01-1-1v-1a1 1 0 011-1zM3 8h1V7H3v1zm0-2h1a1 1 0 011 1v1a1 1 0 01-1 1H3a1 1 0 01-1-1V7a1 1 0 011-1zM7 8h1V7H7v1zm0-2h1a1 1 0 011 1v1a1 1 0 01-1 1H7a1 1 0 01-1-1V7a1 1 0 011-1zM3 12h1v-1H3v1zm0-2h1a1 1 0 011 1v1a1 1 0 01-1 1H3a1 1 0 01-1-1v-1a1 1 0 011-1zM7 12h1v-1H7v1zm0-2h1a1 1 0 011 1v1a1 1 0 01-1 1H7a1 1 0 01-1-1v-1a1 1 0 011-1zM3 16h1v-1H3v1zm0-2h1a1 1 0 011 1v1a1 1 0 01-1 1H3a1 1 0 01-1-1v-1a1 1 0 011-1zM7 16h1v-1H7v1zm0-2h1a1 1 0 011 1v1a1 1 0 01-1 1H7a1 1 0 01-1-1v-1a1 1 0 011-1zM3 20h1v-1H3v1zm0-2h1a1 1 0 011 1v1a1 1 0 01-1 1H3a1 1 0 01-1-1v-1a1 1 0 011-1zM7 20h1v-1H7v1zm0-2h1a1 1 0 011 1v1a1 1 0 01-1 1H7a1 1 0 01-1-1v-1a1 1 0 011-1zM16 20h1v-1h-1v1zm0-2h1a1 1 0 011 1v1a1 1 0 01-1 1h-1a1 1 0 01-1-1v-1a1 1 0 011-1zM20 20h1v-1h-1v1zm0-2h1a1 1 0 011 1v1a1 1 0 01-1 1h-1a1 1 0 01-1-1v-1a1 1 0 011-1zM20 16h1v-1h-1v1zm0-2h1a1 1 0 011 1v1a1 1 0 01-1 1h-1a1 1 0 01-1-1v-1a1 1 0 011-1zM16 16h1v-1h-1v1zm0-2h1a1 1 0 011 1v1a1 1 0 01-1 1h-1a1 1 0 01-1-1v-1a1 1 0 011-1zM16 12h1v-1h-1v1zm0-2h1a1 1 0 011 1v1a1 1 0 01-1 1h-1a1 1 0 01-1-1v-1a1 1 0 011-1zM20 12h1v-1h-1v1zm0-2h1a1 1 0 011 1v1a1 1 0 01-1 1h-1a1 1 0 01-1-1v-1a1 1 0 011-1zM20 8h1V7h-1v1zm0-2h1a1 1 0 011 1v1a1 1 0 01-1 1h-1a1 1 0 01-1-1V7a1 1 0 011-1zM16 8h1V7h-1v1zm0-2h1a1 1 0 011 1v1a1 1 0 01-1 1h-1a1 1 0 01-1-1V7a1 1 0 011-1zM11 15v1h2v-1h-2zm0-1h2a1 1 0 011 1v1a1 1 0 01-1 1h-2a1 1 0 01-1-1v-1a1 1 0 011-1zM11 19v2h2v-2h-2zm0-1h2a1 1 0 011 1v3h-4v-3a1 1 0 011-1z"/><path d="M16 5v18h7V5h-7zm0-1h7a1 1 0 011 1v18a1 1 0 01-1 1h-8V5a1 1 0 011-1z"/></g></g><g class="vertex" transform="translate(450 -240)" style="cursor: pointer; pointer-events: auto;"><circle class="handle" r="10" fill="#5C255C" stroke="none"/><text x="0" y="15" text-anchor="middle" alignment-baseline="middle" filter="url(#solid)" pointer-events="none" fill="#5C255C" style="font-size: 5px; font-family: sans-serif; font-weight: bold;">Pledge 100191647</text><g transform="scale(0.5)translate(-12 -12)" fill="#FFFFFF" pointer-events="none"><path d="M17 21v-6l1-1v7a1 1 0 01-1 1H3a1 1 0 01-1-1V1a1 1 0 011-1h14a1 1 0 011 1v9l-1 1V1H3v20h14z"/><path d="M4.917 3.5a.5.5 0 01.5-.5h9.166a.5.5 0 110 1H5.417a.5.5 0 01-.5-.5zM4.917 6.5a.5.5 0 01.5-.5h9.166a.5.5 0 110 1H5.417a.5.5 0 01-.5-.5zM4.917 9.5a.5.5 0 01.5-.5h9.166a.5.5 0 110 1H5.417a.5.5 0 01-.5-.5zM6.415 16.282c-.103.224-.21.464-.344.77l-.267.612a59.71 59.71 0 01-.058.13.497.497 0 01-.66.254.503.503 0 01-.253-.661l.055-.124.267-.613c.137-.311.246-.556.352-.786.437-.95.774-1.554 1.106-1.906.608-.645 1.326-.452 1.638.463.108.317.191.635.263.986.047.226.085.443.148.82.142.811.338.825 1.338.825h3.526c.262 0 .474.212.474.474a.49.49 0 01-.474.49c-2.675.092-4.107.138-4.296.138-1.002 0-1.336-.518-1.553-1.754-.184-1.057-.21-1.177-.372-1.656a3.157 3.157 0 00-.015-.042c-.225.268-.512.793-.875 1.58z"/><path d="M15 23v-2h1v2a1 1 0 01-1 1H1a1 1 0 01-1-1V3a1 1 0 011-1h2v1H1v20h14z"/><path d="M13.293 14l7.5-7.5a1 1 0 011.414 0L23.5 7.793a1 1 0 010 1.414l-7.5 7.5a1 1 0 01-.707.293H13v-2.293a1 1 0 01.293-.707zM14 16h1.293l7.5-7.5L21.5 7.207l-7.5 7.5V16z"/></g></g><g class="vertex" transform="translate(540 -240)" style="cursor: pointer; pointer-events: auto;"><circle class="handle" r="10" fill="#A66321" stroke="none"/><text x="0" y="15" text-anchor="middle" alignment-baseline="middle" filter="url(#solid)" pointer-events="none" fill="#A66321" style="font-size: 5px; font-family: sans-serif; font-weight: bold;">AS BlueOrange Bank</text><g transform="scale(0.5)translate(-12 -12)" fill="#FFFFFF" pointer-events="none"><path d="M1 5v18h7V5H1zm0-1h8v20H1a1 1 0 01-1-1V5a1 1 0 011-1z"/><path d="M9 22v1h6v-1H9zm-1-1h8v3H8v-3z"/><path d="M9 1v20h6V1H9zm0-1h6a1 1 0 011 1v21H8V1a1 1 0 011-1z"/><path d="M11 3v1h2V3h-2zm0-1h2a1 1 0 011 1v1a1 1 0 01-1 1h-2a1 1 0 01-1-1V3a1 1 0 011-1zM11 7v1h2V7h-2zm0-1h2a1 1 0 011 1v1a1 1 0 01-1 1h-2a1 1 0 01-1-1V7a1 1 0 011-1zM11 11v1h2v-1h-2zm0-1h2a1 1 0 011 1v1a1 1 0 01-1 1h-2a1 1 0 01-1-1v-1a1 1 0 011-1zM3 8h1V7H3v1zm0-2h1a1 1 0 011 1v1a1 1 0 01-1 1H3a1 1 0 01-1-1V7a1 1 0 011-1zM7 8h1V7H7v1zm0-2h1a1 1 0 011 1v1a1 1 0 01-1 1H7a1 1 0 01-1-1V7a1 1 0 011-1zM3 12h1v-1H3v1zm0-2h1a1 1 0 011 1v1a1 1 0 01-1 1H3a1 1 0 01-1-1v-1a1 1 0 011-1zM7 12h1v-1H7v1zm0-2h1a1 1 0 011 1v1a1 1 0 01-1 1H7a1 1 0 01-1-1v-1a1 1 0 011-1zM3 16h1v-1H3v1zm0-2h1a1 1 0 011 1v1a1 1 0 01-1 1H3a1 1 0 01-1-1v-1a1 1 0 011-1zM7 16h1v-1H7v1zm0-2h1a1 1 0 011 1v1a1 1 0 01-1 1H7a1 1 0 01-1-1v-1a1 1 0 011-1zM3 20h1v-1H3v1zm0-2h1a1 1 0 011 1v1a1 1 0 01-1 1H3a1 1 0 01-1-1v-1a1 1 0 011-1zM7 20h1v-1H7v1zm0-2h1a1 1 0 011 1v1a1 1 0 01-1 1H7a1 1 0 01-1-1v-1a1 1 0 011-1zM16 20h1v-1h-1v1zm0-2h1a1 1 0 011 1v1a1 1 0 01-1 1h-1a1 1 0 01-1-1v-1a1 1 0 011-1zM20 20h1v-1h-1v1zm0-2h1a1 1 0 011 1v1a1 1 0 01-1 1h-1a1 1 0 01-1-1v-1a1 1 0 011-1zM20 16h1v-1h-1v1zm0-2h1a1 1 0 011 1v1a1 1 0 01-1 1h-1a1 1 0 01-1-1v-1a1 1 0 011-1zM16 16h1v-1h-1v1zm0-2h1a1 1 0 011 1v1a1 1 0 01-1 1h-1a1 1 0 01-1-1v-1a1 1 0 011-1zM16 12h1v-1h-1v1zm0-2h1a1 1 0 011 1v1a1 1 0 01-1 1h-1a1 1 0 01-1-1v-1a1 1 0 011-1zM20 12h1v-1h-1v1zm0-2h1a1 1 0 011 1v1a1 1 0 01-1 1h-1a1 1 0 01-1-1v-1a1 1 0 011-1zM20 8h1V7h-1v1zm0-2h1a1 1 0 011 1v1a1 1 0 01-1 1h-1a1 1 0 01-1-1V7a1 1 0 011-1zM16 8h1V7h-1v1zm0-2h1a1 1 0 011 1v1a1 1 0 01-1 1h-1a1 1 0 01-1-1V7a1 1 0 011-1zM11 15v1h2v-1h-2zm0-1h2a1 1 0 011 1v1a1 1 0 01-1 1h-2a1 1 0 01-1-1v-1a1 1 0 011-1zM11 19v2h2v-2h-2zm0-1h2a1 1 0 011 1v3h-4v-3a1 1 0 011-1z"/><path d="M16 5v18h7V5h-7zm0-1h7a1 1 0 011 1v18a1 1 0 01-1 1h-8V5a1 1 0 011-1z"/></g></g><g class="vertex" transform="translate(30 -490)" style="cursor: pointer; pointer-events: auto;"><circle class="handle" r="10" fill="#A82A2A" stroke="none"/><text x="0" y="15" text-anchor="middle" alignment-baseline="middle" filter="url(#solid)" pointer-events="none" fill="#A82A2A" style="font-size: 5px; font-family: sans-serif; font-weight: bold;">Biomass boiler house</text><g transform="scale(0.5)translate(-12 -12)" fill="#FFFFFF" pointer-events="none"><path d="M17 21v-6l1-1v7a1 1 0 01-1 1H3a1 1 0 01-1-1V1a1 1 0 011-1h14a1 1 0 011 1v9l-1 1V1H3v20h14z"/><path d="M4.917 3.5a.5.5 0 01.5-.5h9.166a.5.5 0 110 1H5.417a.5.5 0 01-.5-.5zM4.917 6.5a.5.5 0 01.5-.5h9.166a.5.5 0 110 1H5.417a.5.5 0 01-.5-.5zM4.917 9.5a.5.5 0 01.5-.5h9.166a.5.5 0 110 1H5.417a.5.5 0 01-.5-.5zM6.415 16.282c-.103.224-.21.464-.344.77l-.267.612a59.71 59.71 0 01-.058.13.497.497 0 01-.66.254.503.503 0 01-.253-.661l.055-.124.267-.613c.137-.311.246-.556.352-.786.437-.95.774-1.554 1.106-1.906.608-.645 1.326-.452 1.638.463.108.317.191.635.263.986.047.226.085.443.148.82.142.811.338.825 1.338.825h3.526c.262 0 .474.212.474.474a.49.49 0 01-.474.49c-2.675.092-4.107.138-4.296.138-1.002 0-1.336-.518-1.553-1.754-.184-1.057-.21-1.177-.372-1.656a3.157 3.157 0 00-.015-.042c-.225.268-.512.793-.875 1.58z"/><path d="M15 23v-2h1v2a1 1 0 01-1 1H1a1 1 0 01-1-1V3a1 1 0 011-1h2v1H1v20h14z"/><path d="M13.293 14l7.5-7.5a1 1 0 011.414 0L23.5 7.793a1 1 0 010 1.414l-7.5 7.5a1 1 0 01-.707.293H13v-2.293a1 1 0 01.293-.707zM14 16h1.293l7.5-7.5L21.5 7.207l-7.5 7.5V16z"/></g></g><g class="vertex" transform="translate(-10 -280)" style="cursor: pointer; pointer-events: auto;"><circle class="handle" r="10" fill="#A66321" stroke="none"/><text x="0" y="15" text-anchor="middle" alignment-baseline="middle" filter="url(#solid)" pointer-events="none" fill="#A66321" style="font-size: 5px; font-family: sans-serif; font-weight: bold;">SIA Olaines BIOenergija</text><g transform="scale(0.5)translate(-12 -12)" fill="#FFFFFF" pointer-events="none"><path d="M1 5v18h7V5H1zm0-1h8v20H1a1 1 0 01-1-1V5a1 1 0 011-1z"/><path d="M9 22v1h6v-1H9zm-1-1h8v3H8v-3z"/><path d="M9 1v20h6V1H9zm0-1h6a1 1 0 011 1v21H8V1a1 1 0 011-1z"/><path d="M11 3v1h2V3h-2zm0-1h2a1 1 0 011 1v1a1 1 0 01-1 1h-2a1 1 0 01-1-1V3a1 1 0 011-1zM11 7v1h2V7h-2zm0-1h2a1 1 0 011 1v1a1 1 0 01-1 1h-2a1 1 0 01-1-1V7a1 1 0 011-1zM11 11v1h2v-1h-2zm0-1h2a1 1 0 011 1v1a1 1 0 01-1 1h-2a1 1 0 01-1-1v-1a1 1 0 011-1zM3 8h1V7H3v1zm0-2h1a1 1 0 011 1v1a1 1 0 01-1 1H3a1 1 0 01-1-1V7a1 1 0 011-1zM7 8h1V7H7v1zm0-2h1a1 1 0 011 1v1a1 1 0 01-1 1H7a1 1 0 01-1-1V7a1 1 0 011-1zM3 12h1v-1H3v1zm0-2h1a1 1 0 011 1v1a1 1 0 01-1 1H3a1 1 0 01-1-1v-1a1 1 0 011-1zM7 12h1v-1H7v1zm0-2h1a1 1 0 011 1v1a1 1 0 01-1 1H7a1 1 0 01-1-1v-1a1 1 0 011-1zM3 16h1v-1H3v1zm0-2h1a1 1 0 011 1v1a1 1 0 01-1 1H3a1 1 0 01-1-1v-1a1 1 0 011-1zM7 16h1v-1H7v1zm0-2h1a1 1 0 011 1v1a1 1 0 01-1 1H7a1 1 0 01-1-1v-1a1 1 0 011-1zM3 20h1v-1H3v1zm0-2h1a1 1 0 011 1v1a1 1 0 01-1 1H3a1 1 0 01-1-1v-1a1 1 0 011-1zM7 20h1v-1H7v1zm0-2h1a1 1 0 011 1v1a1 1 0 01-1 1H7a1 1 0 01-1-1v-1a1 1 0 011-1zM16 20h1v-1h-1v1zm0-2h1a1 1 0 011 1v1a1 1 0 01-1 1h-1a1 1 0 01-1-1v-1a1 1 0 011-1zM20 20h1v-1h-1v1zm0-2h1a1 1 0 011 1v1a1 1 0 01-1 1h-1a1 1 0 01-1-1v-1a1 1 0 011-1zM20 16h1v-1h-1v1zm0-2h1a1 1 0 011 1v1a1 1 0 01-1 1h-1a1 1 0 01-1-1v-1a1 1 0 011-1zM16 16h1v-1h-1v1zm0-2h1a1 1 0 011 1v1a1 1 0 01-1 1h-1a1 1 0 01-1-1v-1a1 1 0 011-1zM16 12h1v-1h-1v1zm0-2h1a1 1 0 011 1v1a1 1 0 01-1 1h-1a1 1 0 01-1-1v-1a1 1 0 011-1zM20 12h1v-1h-1v1zm0-2h1a1 1 0 011 1v1a1 1 0 01-1 1h-1a1 1 0 01-1-1v-1a1 1 0 011-1zM20 8h1V7h-1v1zm0-2h1a1 1 0 011 1v1a1 1 0 01-1 1h-1a1 1 0 01-1-1V7a1 1 0 011-1zM16 8h1V7h-1v1zm0-2h1a1 1 0 011 1v1a1 1 0 01-1 1h-1a1 1 0 01-1-1V7a1 1 0 011-1zM11 15v1h2v-1h-2zm0-1h2a1 1 0 011 1v1a1 1 0 01-1 1h-2a1 1 0 01-1-1v-1a1 1 0 011-1zM11 19v2h2v-2h-2zm0-1h2a1 1 0 011 1v3h-4v-3a1 1 0 011-1z"/><path d="M16 5v18h7V5h-7zm0-1h7a1 1 0 011 1v18a1 1 0 01-1 1h-8V5a1 1 0 011-1z"/></g></g><g class="vertex" transform="translate(70 -320)" style="cursor: pointer; pointer-events: auto;"><circle class="handle" r="10" fill="#0E5A8A" stroke="none"/><text x="0" y="15" text-anchor="middle" alignment-baseline="middle" filter="url(#solid)" pointer-events="none" fill="#0E5A8A" style="font-size: 5px; font-family: sans-serif; font-weight: bold;">Kaspars Freimanis</text><g transform="scale(0.5)translate(-12 -12)" fill="#FFFFFF" pointer-events="none"><path d="M12 11a3 3 0 100-6 3 3 0 000 6zm0 1a4 4 0 110-8 4 4 0 010 8z"/><path d="M12 23c6.075 0 11-4.925 11-11S18.075 1 12 1 1 5.925 1 12s4.925 11 11 11zm0 1C5.373 24 0 18.627 0 12S5.373 0 12 0s12 5.373 12 12-5.373 12-12 12z"/><path d="M6.26 22.541L6 22.399V16a4 4 0 014-4h4a4 4 0 014 4v6.399l-.26.142A11.946 11.946 0 0112 24c-2.022 0-3.984-.5-5.74-1.459zm.74-.74C8.541 22.589 10.245 23 12 23s3.459-.41 5-1.2V16a3 3 0 00-3-3h-4a3 3 0 00-3 3v5.8z"/></g></g><g class="vertex" transform="translate(80 -280)" style="cursor: pointer; pointer-events: auto;"><circle class="handle" r="10" fill="#A66321" stroke="none"/><text x="0" y="15" text-anchor="middle" alignment-baseline="middle" filter="url(#solid)" pointer-events="none" fill="#A66321" style="font-size: 5px; font-family: sans-serif; font-weight: bold;">SIA ETO</text><g transform="scale(0.5)translate(-12 -12)" fill="#FFFFFF" pointer-events="none"><path d="M1 5v18h7V5H1zm0-1h8v20H1a1 1 0 01-1-1V5a1 1 0 011-1z"/><path d="M9 22v1h6v-1H9zm-1-1h8v3H8v-3z"/><path d="M9 1v20h6V1H9zm0-1h6a1 1 0 011 1v21H8V1a1 1 0 011-1z"/><path d="M11 3v1h2V3h-2zm0-1h2a1 1 0 011 1v1a1 1 0 01-1 1h-2a1 1 0 01-1-1V3a1 1 0 011-1zM11 7v1h2V7h-2zm0-1h2a1 1 0 011 1v1a1 1 0 01-1 1h-2a1 1 0 01-1-1V7a1 1 0 011-1zM11 11v1h2v-1h-2zm0-1h2a1 1 0 011 1v1a1 1 0 01-1 1h-2a1 1 0 01-1-1v-1a1 1 0 011-1zM3 8h1V7H3v1zm0-2h1a1 1 0 011 1v1a1 1 0 01-1 1H3a1 1 0 01-1-1V7a1 1 0 011-1zM7 8h1V7H7v1zm0-2h1a1 1 0 011 1v1a1 1 0 01-1 1H7a1 1 0 01-1-1V7a1 1 0 011-1zM3 12h1v-1H3v1zm0-2h1a1 1 0 011 1v1a1 1 0 01-1 1H3a1 1 0 01-1-1v-1a1 1 0 011-1zM7 12h1v-1H7v1zm0-2h1a1 1 0 011 1v1a1 1 0 01-1 1H7a1 1 0 01-1-1v-1a1 1 0 011-1zM3 16h1v-1H3v1zm0-2h1a1 1 0 011 1v1a1 1 0 01-1 1H3a1 1 0 01-1-1v-1a1 1 0 011-1zM7 16h1v-1H7v1zm0-2h1a1 1 0 011 1v1a1 1 0 01-1 1H7a1 1 0 01-1-1v-1a1 1 0 011-1zM3 20h1v-1H3v1zm0-2h1a1 1 0 011 1v1a1 1 0 01-1 1H3a1 1 0 01-1-1v-1a1 1 0 011-1zM7 20h1v-1H7v1zm0-2h1a1 1 0 011 1v1a1 1 0 01-1 1H7a1 1 0 01-1-1v-1a1 1 0 011-1zM16 20h1v-1h-1v1zm0-2h1a1 1 0 011 1v1a1 1 0 01-1 1h-1a1 1 0 01-1-1v-1a1 1 0 011-1zM20 20h1v-1h-1v1zm0-2h1a1 1 0 011 1v1a1 1 0 01-1 1h-1a1 1 0 01-1-1v-1a1 1 0 011-1zM20 16h1v-1h-1v1zm0-2h1a1 1 0 011 1v1a1 1 0 01-1 1h-1a1 1 0 01-1-1v-1a1 1 0 011-1zM16 16h1v-1h-1v1zm0-2h1a1 1 0 011 1v1a1 1 0 01-1 1h-1a1 1 0 01-1-1v-1a1 1 0 011-1zM16 12h1v-1h-1v1zm0-2h1a1 1 0 011 1v1a1 1 0 01-1 1h-1a1 1 0 01-1-1v-1a1 1 0 011-1zM20 12h1v-1h-1v1zm0-2h1a1 1 0 011 1v1a1 1 0 01-1 1h-1a1 1 0 01-1-1v-1a1 1 0 011-1zM20 8h1V7h-1v1zm0-2h1a1 1 0 011 1v1a1 1 0 01-1 1h-1a1 1 0 01-1-1V7a1 1 0 011-1zM16 8h1V7h-1v1zm0-2h1a1 1 0 011 1v1a1 1 0 01-1 1h-1a1 1 0 01-1-1V7a1 1 0 011-1zM11 15v1h2v-1h-2zm0-1h2a1 1 0 011 1v1a1 1 0 01-1 1h-2a1 1 0 01-1-1v-1a1 1 0 011-1zM11 19v2h2v-2h-2zm0-1h2a1 1 0 011 1v3h-4v-3a1 1 0 011-1z"/><path d="M16 5v18h7V5h-7zm0-1h7a1 1 0 011 1v18a1 1 0 01-1 1h-8V5a1 1 0 011-1z"/></g></g><g class="vertex" transform="translate(210 -280)" style="cursor: pointer; pointer-events: auto;"><circle class="handle" r="10" fill="#A66321" stroke="none"/><text x="0" y="15" text-anchor="middle" alignment-baseline="middle" filter="url(#solid)" pointer-events="none" fill="#A66321" style="font-size: 5px; font-family: sans-serif; font-weight: bold;">SIA Olaines Enerģija</text><g transform="scale(0.5)translate(-12 -12)" fill="#FFFFFF" pointer-events="none"><path d="M1 5v18h7V5H1zm0-1h8v20H1a1 1 0 01-1-1V5a1 1 0 011-1z"/><path d="M9 22v1h6v-1H9zm-1-1h8v3H8v-3z"/><path d="M9 1v20h6V1H9zm0-1h6a1 1 0 011 1v21H8V1a1 1 0 011-1z"/><path d="M11 3v1h2V3h-2zm0-1h2a1 1 0 011 1v1a1 1 0 01-1 1h-2a1 1 0 01-1-1V3a1 1 0 011-1zM11 7v1h2V7h-2zm0-1h2a1 1 0 011 1v1a1 1 0 01-1 1h-2a1 1 0 01-1-1V7a1 1 0 011-1zM11 11v1h2v-1h-2zm0-1h2a1 1 0 011 1v1a1 1 0 01-1 1h-2a1 1 0 01-1-1v-1a1 1 0 011-1zM3 8h1V7H3v1zm0-2h1a1 1 0 011 1v1a1 1 0 01-1 1H3a1 1 0 01-1-1V7a1 1 0 011-1zM7 8h1V7H7v1zm0-2h1a1 1 0 011 1v1a1 1 0 01-1 1H7a1 1 0 01-1-1V7a1 1 0 011-1zM3 12h1v-1H3v1zm0-2h1a1 1 0 011 1v1a1 1 0 01-1 1H3a1 1 0 01-1-1v-1a1 1 0 011-1zM7 12h1v-1H7v1zm0-2h1a1 1 0 011 1v1a1 1 0 01-1 1H7a1 1 0 01-1-1v-1a1 1 0 011-1zM3 16h1v-1H3v1zm0-2h1a1 1 0 011 1v1a1 1 0 01-1 1H3a1 1 0 01-1-1v-1a1 1 0 011-1zM7 16h1v-1H7v1zm0-2h1a1 1 0 011 1v1a1 1 0 01-1 1H7a1 1 0 01-1-1v-1a1 1 0 011-1zM3 20h1v-1H3v1zm0-2h1a1 1 0 011 1v1a1 1 0 01-1 1H3a1 1 0 01-1-1v-1a1 1 0 011-1zM7 20h1v-1H7v1zm0-2h1a1 1 0 011 1v1a1 1 0 01-1 1H7a1 1 0 01-1-1v-1a1 1 0 011-1zM16 20h1v-1h-1v1zm0-2h1a1 1 0 011 1v1a1 1 0 01-1 1h-1a1 1 0 01-1-1v-1a1 1 0 011-1zM20 20h1v-1h-1v1zm0-2h1a1 1 0 011 1v1a1 1 0 01-1 1h-1a1 1 0 01-1-1v-1a1 1 0 011-1zM20 16h1v-1h-1v1zm0-2h1a1 1 0 011 1v1a1 1 0 01-1 1h-1a1 1 0 01-1-1v-1a1 1 0 011-1zM16 16h1v-1h-1v1zm0-2h1a1 1 0 011 1v1a1 1 0 01-1 1h-1a1 1 0 01-1-1v-1a1 1 0 011-1zM16 12h1v-1h-1v1zm0-2h1a1 1 0 011 1v1a1 1 0 01-1 1h-1a1 1 0 01-1-1v-1a1 1 0 011-1zM20 12h1v-1h-1v1zm0-2h1a1 1 0 011 1v1a1 1 0 01-1 1h-1a1 1 0 01-1-1v-1a1 1 0 011-1zM20 8h1V7h-1v1zm0-2h1a1 1 0 011 1v1a1 1 0 01-1 1h-1a1 1 0 01-1-1V7a1 1 0 011-1zM16 8h1V7h-1v1zm0-2h1a1 1 0 011 1v1a1 1 0 01-1 1h-1a1 1 0 01-1-1V7a1 1 0 011-1zM11 15v1h2v-1h-2zm0-1h2a1 1 0 011 1v1a1 1 0 01-1 1h-2a1 1 0 01-1-1v-1a1 1 0 011-1zM11 19v2h2v-2h-2zm0-1h2a1 1 0 011 1v3h-4v-3a1 1 0 011-1z"/><path d="M16 5v18h7V5h-7zm0-1h7a1 1 0 011 1v18a1 1 0 01-1 1h-8V5a1 1 0 011-1z"/></g></g><g class="vertex" transform="translate(210 -350)" style="cursor: pointer; pointer-events: auto;"><circle class="handle" r="10" fill="#0E5A8A" stroke="none"/><text x="0" y="15" text-anchor="middle" alignment-baseline="middle" filter="url(#solid)" pointer-events="none" fill="#0E5A8A" style="font-size: 5px; font-family: sans-serif; font-weight: bold;">Armands Kovaldins</text><g transform="scale(0.5)translate(-12 -12)" fill="#FFFFFF" pointer-events="none"><path d="M12 11a3 3 0 100-6 3 3 0 000 6zm0 1a4 4 0 110-8 4 4 0 010 8z"/><path d="M12 23c6.075 0 11-4.925 11-11S18.075 1 12 1 1 5.925 1 12s4.925 11 11 11zm0 1C5.373 24 0 18.627 0 12S5.373 0 12 0s12 5.373 12 12-5.373 12-12 12z"/><path d="M6.26 22.541L6 22.399V16a4 4 0 014-4h4a4 4 0 014 4v6.399l-.26.142A11.946 11.946 0 0112 24c-2.022 0-3.984-.5-5.74-1.459zm.74-.74C8.541 22.589 10.245 23 12 23s3.459-.41 5-1.2V16a3 3 0 00-3-3h-4a3 3 0 00-3 3v5.8z"/></g></g><g class="vertex" transform="translate(260 -340)" style="cursor: pointer; pointer-events: auto;"><circle class="handle" r="10" fill="#0E5A8A" stroke="none"/><text x="0" y="15" text-anchor="middle" alignment-baseline="middle" filter="url(#solid)" pointer-events="none" fill="#0E5A8A" style="font-size: 5px; font-family: sans-serif; font-weight: bold;">Gatis Krasovskis</text><g transform="scale(0.5)translate(-12 -12)" fill="#FFFFFF" pointer-events="none"><path d="M12 11a3 3 0 100-6 3 3 0 000 6zm0 1a4 4 0 110-8 4 4 0 010 8z"/><path d="M12 23c6.075 0 11-4.925 11-11S18.075 1 12 1 1 5.925 1 12s4.925 11 11 11zm0 1C5.373 24 0 18.627 0 12S5.373 0 12 0s12 5.373 12 12-5.373 12-12 12z"/><path d="M6.26 22.541L6 22.399V16a4 4 0 014-4h4a4 4 0 014 4v6.399l-.26.142A11.946 11.946 0 0112 24c-2.022 0-3.984-.5-5.74-1.459zm.74-.74C8.541 22.589 10.245 23 12 23s3.459-.41 5-1.2V16a3 3 0 00-3-3h-4a3 3 0 00-3 3v5.8z"/></g></g><g class="vertex" transform="translate(140 -340)" style="cursor: pointer; pointer-events: auto;"><circle class="handle" r="10" fill="#A66321" stroke="none"/><text x="0" y="15" text-anchor="middle" alignment-baseline="middle" filter="url(#solid)" pointer-events="none" fill="#A66321" style="font-size: 5px; font-family: sans-serif; font-weight: bold;">SIA ENERGOAPGĀDES TĪKLI 1</text><g transform="scale(0.5)translate(-12 -12)" fill="#FFFFFF" pointer-events="none"><path d="M1 5v18h7V5H1zm0-1h8v20H1a1 1 0 01-1-1V5a1 1 0 011-1z"/><path d="M9 22v1h6v-1H9zm-1-1h8v3H8v-3z"/><path d="M9 1v20h6V1H9zm0-1h6a1 1 0 011 1v21H8V1a1 1 0 011-1z"/><path d="M11 3v1h2V3h-2zm0-1h2a1 1 0 011 1v1a1 1 0 01-1 1h-2a1 1 0 01-1-1V3a1 1 0 011-1zM11 7v1h2V7h-2zm0-1h2a1 1 0 011 1v1a1 1 0 01-1 1h-2a1 1 0 01-1-1V7a1 1 0 011-1zM11 11v1h2v-1h-2zm0-1h2a1 1 0 011 1v1a1 1 0 01-1 1h-2a1 1 0 01-1-1v-1a1 1 0 011-1zM3 8h1V7H3v1zm0-2h1a1 1 0 011 1v1a1 1 0 01-1 1H3a1 1 0 01-1-1V7a1 1 0 011-1zM7 8h1V7H7v1zm0-2h1a1 1 0 011 1v1a1 1 0 01-1 1H7a1 1 0 01-1-1V7a1 1 0 011-1zM3 12h1v-1H3v1zm0-2h1a1 1 0 011 1v1a1 1 0 01-1 1H3a1 1 0 01-1-1v-1a1 1 0 011-1zM7 12h1v-1H7v1zm0-2h1a1 1 0 011 1v1a1 1 0 01-1 1H7a1 1 0 01-1-1v-1a1 1 0 011-1zM3 16h1v-1H3v1zm0-2h1a1 1 0 011 1v1a1 1 0 01-1 1H3a1 1 0 01-1-1v-1a1 1 0 011-1zM7 16h1v-1H7v1zm0-2h1a1 1 0 011 1v1a1 1 0 01-1 1H7a1 1 0 01-1-1v-1a1 1 0 011-1zM3 20h1v-1H3v1zm0-2h1a1 1 0 011 1v1a1 1 0 01-1 1H3a1 1 0 01-1-1v-1a1 1 0 011-1zM7 20h1v-1H7v1zm0-2h1a1 1 0 011 1v1a1 1 0 01-1 1H7a1 1 0 01-1-1v-1a1 1 0 011-1zM16 20h1v-1h-1v1zm0-2h1a1 1 0 011 1v1a1 1 0 01-1 1h-1a1 1 0 01-1-1v-1a1 1 0 011-1zM20 20h1v-1h-1v1zm0-2h1a1 1 0 011 1v1a1 1 0 01-1 1h-1a1 1 0 01-1-1v-1a1 1 0 011-1zM20 16h1v-1h-1v1zm0-2h1a1 1 0 011 1v1a1 1 0 01-1 1h-1a1 1 0 01-1-1v-1a1 1 0 011-1zM16 16h1v-1h-1v1zm0-2h1a1 1 0 011 1v1a1 1 0 01-1 1h-1a1 1 0 01-1-1v-1a1 1 0 011-1zM16 12h1v-1h-1v1zm0-2h1a1 1 0 011 1v1a1 1 0 01-1 1h-1a1 1 0 01-1-1v-1a1 1 0 011-1zM20 12h1v-1h-1v1zm0-2h1a1 1 0 011 1v1a1 1 0 01-1 1h-1a1 1 0 01-1-1v-1a1 1 0 011-1zM20 8h1V7h-1v1zm0-2h1a1 1 0 011 1v1a1 1 0 01-1 1h-1a1 1 0 01-1-1V7a1 1 0 011-1zM16 8h1V7h-1v1zm0-2h1a1 1 0 011 1v1a1 1 0 01-1 1h-1a1 1 0 01-1-1V7a1 1 0 011-1zM11 15v1h2v-1h-2zm0-1h2a1 1 0 011 1v1a1 1 0 01-1 1h-2a1 1 0 01-1-1v-1a1 1 0 011-1zM11 19v2h2v-2h-2zm0-1h2a1 1 0 011 1v3h-4v-3a1 1 0 011-1z"/><path d="M16 5v18h7V5h-7zm0-1h7a1 1 0 011 1v18a1 1 0 01-1 1h-8V5a1 1 0 011-1z"/></g></g><g class="vertex" transform="translate(140 -290)" style="cursor: pointer; pointer-events: auto;"><circle class="handle" r="10" fill="#A66321" stroke="none"/><text x="0" y="15" text-anchor="middle" alignment-baseline="middle" filter="url(#solid)" pointer-events="none" fill="#A66321" style="font-size: 5px; font-family: sans-serif; font-weight: bold;">SIA ENERGOAPGĀDES TĪKLI 2</text><g transform="scale(0.5)translate(-12 -12)" fill="#FFFFFF" pointer-events="none"><path d="M1 5v18h7V5H1zm0-1h8v20H1a1 1 0 01-1-1V5a1 1 0 011-1z"/><path d="M9 22v1h6v-1H9zm-1-1h8v3H8v-3z"/><path d="M9 1v20h6V1H9zm0-1h6a1 1 0 011 1v21H8V1a1 1 0 011-1z"/><path d="M11 3v1h2V3h-2zm0-1h2a1 1 0 011 1v1a1 1 0 01-1 1h-2a1 1 0 01-1-1V3a1 1 0 011-1zM11 7v1h2V7h-2zm0-1h2a1 1 0 011 1v1a1 1 0 01-1 1h-2a1 1 0 01-1-1V7a1 1 0 011-1zM11 11v1h2v-1h-2zm0-1h2a1 1 0 011 1v1a1 1 0 01-1 1h-2a1 1 0 01-1-1v-1a1 1 0 011-1zM3 8h1V7H3v1zm0-2h1a1 1 0 011 1v1a1 1 0 01-1 1H3a1 1 0 01-1-1V7a1 1 0 011-1zM7 8h1V7H7v1zm0-2h1a1 1 0 011 1v1a1 1 0 01-1 1H7a1 1 0 01-1-1V7a1 1 0 011-1zM3 12h1v-1H3v1zm0-2h1a1 1 0 011 1v1a1 1 0 01-1 1H3a1 1 0 01-1-1v-1a1 1 0 011-1zM7 12h1v-1H7v1zm0-2h1a1 1 0 011 1v1a1 1 0 01-1 1H7a1 1 0 01-1-1v-1a1 1 0 011-1zM3 16h1v-1H3v1zm0-2h1a1 1 0 011 1v1a1 1 0 01-1 1H3a1 1 0 01-1-1v-1a1 1 0 011-1zM7 16h1v-1H7v1zm0-2h1a1 1 0 011 1v1a1 1 0 01-1 1H7a1 1 0 01-1-1v-1a1 1 0 011-1zM3 20h1v-1H3v1zm0-2h1a1 1 0 011 1v1a1 1 0 01-1 1H3a1 1 0 01-1-1v-1a1 1 0 011-1zM7 20h1v-1H7v1zm0-2h1a1 1 0 011 1v1a1 1 0 01-1 1H7a1 1 0 01-1-1v-1a1 1 0 011-1zM16 20h1v-1h-1v1zm0-2h1a1 1 0 011 1v1a1 1 0 01-1 1h-1a1 1 0 01-1-1v-1a1 1 0 011-1zM20 20h1v-1h-1v1zm0-2h1a1 1 0 011 1v1a1 1 0 01-1 1h-1a1 1 0 01-1-1v-1a1 1 0 011-1zM20 16h1v-1h-1v1zm0-2h1a1 1 0 011 1v1a1 1 0 01-1 1h-1a1 1 0 01-1-1v-1a1 1 0 011-1zM16 16h1v-1h-1v1zm0-2h1a1 1 0 011 1v1a1 1 0 01-1 1h-1a1 1 0 01-1-1v-1a1 1 0 011-1zM16 12h1v-1h-1v1zm0-2h1a1 1 0 011 1v1a1 1 0 01-1 1h-1a1 1 0 01-1-1v-1a1 1 0 011-1zM20 12h1v-1h-1v1zm0-2h1a1 1 0 011 1v1a1 1 0 01-1 1h-1a1 1 0 01-1-1v-1a1 1 0 011-1zM20 8h1V7h-1v1zm0-2h1a1 1 0 011 1v1a1 1 0 01-1 1h-1a1 1 0 01-1-1V7a1 1 0 011-1zM16 8h1V7h-1v1zm0-2h1a1 1 0 011 1v1a1 1 0 01-1 1h-1a1 1 0 01-1-1V7a1 1 0 011-1zM11 15v1h2v-1h-2zm0-1h2a1 1 0 011 1v1a1 1 0 01-1 1h-2a1 1 0 01-1-1v-1a1 1 0 011-1zM11 19v2h2v-2h-2zm0-1h2a1 1 0 011 1v3h-4v-3a1 1 0 011-1z"/><path d="M16 5v18h7V5h-7zm0-1h7a1 1 0 011 1v18a1 1 0 01-1 1h-8V5a1 1 0 011-1z"/></g></g><g class="vertex" transform="translate(140 -250)" style="cursor: pointer; pointer-events: auto;"><circle class="handle" r="10" fill="#A66321" stroke="none"/><text x="0" y="15" text-anchor="middle" alignment-baseline="middle" filter="url(#solid)" pointer-events="none" fill="#A66321" style="font-size: 5px; font-family: sans-serif; font-weight: bold;">SIA ENERGOAPGĀDES TĪKLI 3</text><g transform="scale(0.5)translate(-12 -12)" fill="#FFFFFF" pointer-events="none"><path d="M1 5v18h7V5H1zm0-1h8v20H1a1 1 0 01-1-1V5a1 1 0 011-1z"/><path d="M9 22v1h6v-1H9zm-1-1h8v3H8v-3z"/><path d="M9 1v20h6V1H9zm0-1h6a1 1 0 011 1v21H8V1a1 1 0 011-1z"/><path d="M11 3v1h2V3h-2zm0-1h2a1 1 0 011 1v1a1 1 0 01-1 1h-2a1 1 0 01-1-1V3a1 1 0 011-1zM11 7v1h2V7h-2zm0-1h2a1 1 0 011 1v1a1 1 0 01-1 1h-2a1 1 0 01-1-1V7a1 1 0 011-1zM11 11v1h2v-1h-2zm0-1h2a1 1 0 011 1v1a1 1 0 01-1 1h-2a1 1 0 01-1-1v-1a1 1 0 011-1zM3 8h1V7H3v1zm0-2h1a1 1 0 011 1v1a1 1 0 01-1 1H3a1 1 0 01-1-1V7a1 1 0 011-1zM7 8h1V7H7v1zm0-2h1a1 1 0 011 1v1a1 1 0 01-1 1H7a1 1 0 01-1-1V7a1 1 0 011-1zM3 12h1v-1H3v1zm0-2h1a1 1 0 011 1v1a1 1 0 01-1 1H3a1 1 0 01-1-1v-1a1 1 0 011-1zM7 12h1v-1H7v1zm0-2h1a1 1 0 011 1v1a1 1 0 01-1 1H7a1 1 0 01-1-1v-1a1 1 0 011-1zM3 16h1v-1H3v1zm0-2h1a1 1 0 011 1v1a1 1 0 01-1 1H3a1 1 0 01-1-1v-1a1 1 0 011-1zM7 16h1v-1H7v1zm0-2h1a1 1 0 011 1v1a1 1 0 01-1 1H7a1 1 0 01-1-1v-1a1 1 0 011-1zM3 20h1v-1H3v1zm0-2h1a1 1 0 011 1v1a1 1 0 01-1 1H3a1 1 0 01-1-1v-1a1 1 0 011-1zM7 20h1v-1H7v1zm0-2h1a1 1 0 011 1v1a1 1 0 01-1 1H7a1 1 0 01-1-1v-1a1 1 0 011-1zM16 20h1v-1h-1v1zm0-2h1a1 1 0 011 1v1a1 1 0 01-1 1h-1a1 1 0 01-1-1v-1a1 1 0 011-1zM20 20h1v-1h-1v1zm0-2h1a1 1 0 011 1v1a1 1 0 01-1 1h-1a1 1 0 01-1-1v-1a1 1 0 011-1zM20 16h1v-1h-1v1zm0-2h1a1 1 0 011 1v1a1 1 0 01-1 1h-1a1 1 0 01-1-1v-1a1 1 0 011-1zM16 16h1v-1h-1v1zm0-2h1a1 1 0 011 1v1a1 1 0 01-1 1h-1a1 1 0 01-1-1v-1a1 1 0 011-1zM16 12h1v-1h-1v1zm0-2h1a1 1 0 011 1v1a1 1 0 01-1 1h-1a1 1 0 01-1-1v-1a1 1 0 011-1zM20 12h1v-1h-1v1zm0-2h1a1 1 0 011 1v1a1 1 0 01-1 1h-1a1 1 0 01-1-1v-1a1 1 0 011-1zM20 8h1V7h-1v1zm0-2h1a1 1 0 011 1v1a1 1 0 01-1 1h-1a1 1 0 01-1-1V7a1 1 0 011-1zM16 8h1V7h-1v1zm0-2h1a1 1 0 011 1v1a1 1 0 01-1 1h-1a1 1 0 01-1-1V7a1 1 0 011-1zM11 15v1h2v-1h-2zm0-1h2a1 1 0 011 1v1a1 1 0 01-1 1h-2a1 1 0 01-1-1v-1a1 1 0 011-1zM11 19v2h2v-2h-2zm0-1h2a1 1 0 011 1v3h-4v-3a1 1 0 011-1z"/><path d="M16 5v18h7V5h-7zm0-1h7a1 1 0 011 1v18a1 1 0 01-1 1h-8V5a1 1 0 011-1z"/></g></g><g class="vertex" transform="translate(-50 -490)" style="cursor: pointer; pointer-events: auto;"><circle class="handle" r="10" fill="#A82A2A" stroke="none"/><text x="0" y="15" text-anchor="middle" alignment-baseline="middle" filter="url(#solid)" pointer-events="none" fill="#A82A2A" style="font-size: 5px; font-family: sans-serif; font-weight: bold;">energy production plant</text><g transform="scale(0.5)translate(-12 -12)" fill="#FFFFFF" pointer-events="none"><path d="M17 21v-6l1-1v7a1 1 0 01-1 1H3a1 1 0 01-1-1V1a1 1 0 011-1h14a1 1 0 011 1v9l-1 1V1H3v20h14z"/><path d="M4.917 3.5a.5.5 0 01.5-.5h9.166a.5.5 0 110 1H5.417a.5.5 0 01-.5-.5zM4.917 6.5a.5.5 0 01.5-.5h9.166a.5.5 0 110 1H5.417a.5.5 0 01-.5-.5zM4.917 9.5a.5.5 0 01.5-.5h9.166a.5.5 0 110 1H5.417a.5.5 0 01-.5-.5zM6.415 16.282c-.103.224-.21.464-.344.77l-.267.612a59.71 59.71 0 01-.058.13.497.497 0 01-.66.254.503.503 0 01-.253-.661l.055-.124.267-.613c.137-.311.246-.556.352-.786.437-.95.774-1.554 1.106-1.906.608-.645 1.326-.452 1.638.463.108.317.191.635.263.986.047.226.085.443.148.82.142.811.338.825 1.338.825h3.526c.262 0 .474.212.474.474a.49.49 0 01-.474.49c-2.675.092-4.107.138-4.296.138-1.002 0-1.336-.518-1.553-1.754-.184-1.057-.21-1.177-.372-1.656a3.157 3.157 0 00-.015-.042c-.225.268-.512.793-.875 1.58z"/><path d="M15 23v-2h1v2a1 1 0 01-1 1H1a1 1 0 01-1-1V3a1 1 0 011-1h2v1H1v20h14z"/><path d="M13.293 14l7.5-7.5a1 1 0 011.414 0L23.5 7.793a1 1 0 010 1.414l-7.5 7.5a1 1 0 01-.707.293H13v-2.293a1 1 0 01.293-.707zM14 16h1.293l7.5-7.5L21.5 7.207l-7.5 7.5V16z"/></g></g><g class="vertex" transform="translate(210 -200)" style="cursor: pointer; pointer-events: auto;"><circle class="handle" r="10" fill="#A82A2A" stroke="none"/><text x="0" y="15" text-anchor="middle" alignment-baseline="middle" filter="url(#solid)" pointer-events="none" fill="#A82A2A" style="font-size: 5px; font-family: sans-serif; font-weight: bold;">CROWDESTATE Olaines Enerģija</text><g transform="scale(0.5)translate(-12 -12)" fill="#FFFFFF" pointer-events="none"><path d="M17 21v-6l1-1v7a1 1 0 01-1 1H3a1 1 0 01-1-1V1a1 1 0 011-1h14a1 1 0 011 1v9l-1 1V1H3v20h14z"/><path d="M4.917 3.5a.5.5 0 01.5-.5h9.166a.5.5 0 110 1H5.417a.5.5 0 01-.5-.5zM4.917 6.5a.5.5 0 01.5-.5h9.166a.5.5 0 110 1H5.417a.5.5 0 01-.5-.5zM4.917 9.5a.5.5 0 01.5-.5h9.166a.5.5 0 110 1H5.417a.5.5 0 01-.5-.5zM6.415 16.282c-.103.224-.21.464-.344.77l-.267.612a59.71 59.71 0 01-.058.13.497.497 0 01-.66.254.503.503 0 01-.253-.661l.055-.124.267-.613c.137-.311.246-.556.352-.786.437-.95.774-1.554 1.106-1.906.608-.645 1.326-.452 1.638.463.108.317.191.635.263.986.047.226.085.443.148.82.142.811.338.825 1.338.825h3.526c.262 0 .474.212.474.474a.49.49 0 01-.474.49c-2.675.092-4.107.138-4.296.138-1.002 0-1.336-.518-1.553-1.754-.184-1.057-.21-1.177-.372-1.656a3.157 3.157 0 00-.015-.042c-.225.268-.512.793-.875 1.58z"/><path d="M15 23v-2h1v2a1 1 0 01-1 1H1a1 1 0 01-1-1V3a1 1 0 011-1h2v1H1v20h14z"/><path d="M13.293 14l7.5-7.5a1 1 0 011.414 0L23.5 7.793a1 1 0 010 1.414l-7.5 7.5a1 1 0 01-.707.293H13v-2.293a1 1 0 01.293-.707zM14 16h1.293l7.5-7.5L21.5 7.207l-7.5 7.5V16z"/></g></g><g class="vertex" transform="translate(260 -410)" style="cursor: pointer; pointer-events: auto;"><circle class="handle" r="10" fill="#A66321" stroke="none"/><text x="0" y="15" text-anchor="middle" alignment-baseline="middle" filter="url(#solid)" pointer-events="none" fill="#A66321" style="font-size: 5px; font-family: sans-serif; font-weight: bold;">Banderi S.IDE</text><g transform="scale(0.5)translate(-12 -12)" fill="#FFFFFF" pointer-events="none"><path d="M1 5v18h7V5H1zm0-1h8v20H1a1 1 0 01-1-1V5a1 1 0 011-1z"/><path d="M9 22v1h6v-1H9zm-1-1h8v3H8v-3z"/><path d="M9 1v20h6V1H9zm0-1h6a1 1 0 011 1v21H8V1a1 1 0 011-1z"/><path d="M11 3v1h2V3h-2zm0-1h2a1 1 0 011 1v1a1 1 0 01-1 1h-2a1 1 0 01-1-1V3a1 1 0 011-1zM11 7v1h2V7h-2zm0-1h2a1 1 0 011 1v1a1 1 0 01-1 1h-2a1 1 0 01-1-1V7a1 1 0 011-1zM11 11v1h2v-1h-2zm0-1h2a1 1 0 011 1v1a1 1 0 01-1 1h-2a1 1 0 01-1-1v-1a1 1 0 011-1zM3 8h1V7H3v1zm0-2h1a1 1 0 011 1v1a1 1 0 01-1 1H3a1 1 0 01-1-1V7a1 1 0 011-1zM7 8h1V7H7v1zm0-2h1a1 1 0 011 1v1a1 1 0 01-1 1H7a1 1 0 01-1-1V7a1 1 0 011-1zM3 12h1v-1H3v1zm0-2h1a1 1 0 011 1v1a1 1 0 01-1 1H3a1 1 0 01-1-1v-1a1 1 0 011-1zM7 12h1v-1H7v1zm0-2h1a1 1 0 011 1v1a1 1 0 01-1 1H7a1 1 0 01-1-1v-1a1 1 0 011-1zM3 16h1v-1H3v1zm0-2h1a1 1 0 011 1v1a1 1 0 01-1 1H3a1 1 0 01-1-1v-1a1 1 0 011-1zM7 16h1v-1H7v1zm0-2h1a1 1 0 011 1v1a1 1 0 01-1 1H7a1 1 0 01-1-1v-1a1 1 0 011-1zM3 20h1v-1H3v1zm0-2h1a1 1 0 011 1v1a1 1 0 01-1 1H3a1 1 0 01-1-1v-1a1 1 0 011-1zM7 20h1v-1H7v1zm0-2h1a1 1 0 011 1v1a1 1 0 01-1 1H7a1 1 0 01-1-1v-1a1 1 0 011-1zM16 20h1v-1h-1v1zm0-2h1a1 1 0 011 1v1a1 1 0 01-1 1h-1a1 1 0 01-1-1v-1a1 1 0 011-1zM20 20h1v-1h-1v1zm0-2h1a1 1 0 011 1v1a1 1 0 01-1 1h-1a1 1 0 01-1-1v-1a1 1 0 011-1zM20 16h1v-1h-1v1zm0-2h1a1 1 0 011 1v1a1 1 0 01-1 1h-1a1 1 0 01-1-1v-1a1 1 0 011-1zM16 16h1v-1h-1v1zm0-2h1a1 1 0 011 1v1a1 1 0 01-1 1h-1a1 1 0 01-1-1v-1a1 1 0 011-1zM16 12h1v-1h-1v1zm0-2h1a1 1 0 011 1v1a1 1 0 01-1 1h-1a1 1 0 01-1-1v-1a1 1 0 011-1zM20 12h1v-1h-1v1zm0-2h1a1 1 0 011 1v1a1 1 0 01-1 1h-1a1 1 0 01-1-1v-1a1 1 0 011-1zM20 8h1V7h-1v1zm0-2h1a1 1 0 011 1v1a1 1 0 01-1 1h-1a1 1 0 01-1-1V7a1 1 0 011-1zM16 8h1V7h-1v1zm0-2h1a1 1 0 011 1v1a1 1 0 01-1 1h-1a1 1 0 01-1-1V7a1 1 0 011-1zM11 15v1h2v-1h-2zm0-1h2a1 1 0 011 1v1a1 1 0 01-1 1h-2a1 1 0 01-1-1v-1a1 1 0 011-1zM11 19v2h2v-2h-2zm0-1h2a1 1 0 011 1v3h-4v-3a1 1 0 011-1z"/><path d="M16 5v18h7V5h-7zm0-1h7a1 1 0 011 1v18a1 1 0 01-1 1h-8V5a1 1 0 011-1z"/></g></g><g class="vertex" transform="translate(290 -490)" style="cursor: pointer; pointer-events: auto;"><circle class="handle" r="10" fill="#A82A2A" stroke="none"/><text x="0" y="15" text-anchor="middle" alignment-baseline="middle" filter="url(#solid)" pointer-events="none" fill="#A82A2A" style="font-size: 5px; font-family: sans-serif; font-weight: bold;">ELVI Grocery stores</text><g transform="scale(0.5)translate(-12 -12)" fill="#FFFFFF" pointer-events="none"><path d="M17 21v-6l1-1v7a1 1 0 01-1 1H3a1 1 0 01-1-1V1a1 1 0 011-1h14a1 1 0 011 1v9l-1 1V1H3v20h14z"/><path d="M4.917 3.5a.5.5 0 01.5-.5h9.166a.5.5 0 110 1H5.417a.5.5 0 01-.5-.5zM4.917 6.5a.5.5 0 01.5-.5h9.166a.5.5 0 110 1H5.417a.5.5 0 01-.5-.5zM4.917 9.5a.5.5 0 01.5-.5h9.166a.5.5 0 110 1H5.417a.5.5 0 01-.5-.5zM6.415 16.282c-.103.224-.21.464-.344.77l-.267.612a59.71 59.71 0 01-.058.13.497.497 0 01-.66.254.503.503 0 01-.253-.661l.055-.124.267-.613c.137-.311.246-.556.352-.786.437-.95.774-1.554 1.106-1.906.608-.645 1.326-.452 1.638.463.108.317.191.635.263.986.047.226.085.443.148.82.142.811.338.825 1.338.825h3.526c.262 0 .474.212.474.474a.49.49 0 01-.474.49c-2.675.092-4.107.138-4.296.138-1.002 0-1.336-.518-1.553-1.754-.184-1.057-.21-1.177-.372-1.656a3.157 3.157 0 00-.015-.042c-.225.268-.512.793-.875 1.58z"/><path d="M15 23v-2h1v2a1 1 0 01-1 1H1a1 1 0 01-1-1V3a1 1 0 011-1h2v1H1v20h14z"/><path d="M13.293 14l7.5-7.5a1 1 0 011.414 0L23.5 7.793a1 1 0 010 1.414l-7.5 7.5a1 1 0 01-.707.293H13v-2.293a1 1 0 01.293-.707zM14 16h1.293l7.5-7.5L21.5 7.207l-7.5 7.5V16z"/></g></g><g class="vertex" transform="translate(80 -150)" style="cursor: pointer; pointer-events: auto;"><circle class="handle" r="10" fill="#A66321" stroke="none"/><text x="0" y="15" text-anchor="middle" alignment-baseline="middle" filter="url(#solid)" pointer-events="none" fill="#A66321" style="font-size: 5px; font-family: sans-serif; font-weight: bold;">CROWDESTATE COLLATERAL AGENT O…</text><g transform="scale(0.5)translate(-12 -12)" fill="#FFFFFF" pointer-events="none"><path d="M1 5v18h7V5H1zm0-1h8v20H1a1 1 0 01-1-1V5a1 1 0 011-1z"/><path d="M9 22v1h6v-1H9zm-1-1h8v3H8v-3z"/><path d="M9 1v20h6V1H9zm0-1h6a1 1 0 011 1v21H8V1a1 1 0 011-1z"/><path d="M11 3v1h2V3h-2zm0-1h2a1 1 0 011 1v1a1 1 0 01-1 1h-2a1 1 0 01-1-1V3a1 1 0 011-1zM11 7v1h2V7h-2zm0-1h2a1 1 0 011 1v1a1 1 0 01-1 1h-2a1 1 0 01-1-1V7a1 1 0 011-1zM11 11v1h2v-1h-2zm0-1h2a1 1 0 011 1v1a1 1 0 01-1 1h-2a1 1 0 01-1-1v-1a1 1 0 011-1zM3 8h1V7H3v1zm0-2h1a1 1 0 011 1v1a1 1 0 01-1 1H3a1 1 0 01-1-1V7a1 1 0 011-1zM7 8h1V7H7v1zm0-2h1a1 1 0 011 1v1a1 1 0 01-1 1H7a1 1 0 01-1-1V7a1 1 0 011-1zM3 12h1v-1H3v1zm0-2h1a1 1 0 011 1v1a1 1 0 01-1 1H3a1 1 0 01-1-1v-1a1 1 0 011-1zM7 12h1v-1H7v1zm0-2h1a1 1 0 011 1v1a1 1 0 01-1 1H7a1 1 0 01-1-1v-1a1 1 0 011-1zM3 16h1v-1H3v1zm0-2h1a1 1 0 011 1v1a1 1 0 01-1 1H3a1 1 0 01-1-1v-1a1 1 0 011-1zM7 16h1v-1H7v1zm0-2h1a1 1 0 011 1v1a1 1 0 01-1 1H7a1 1 0 01-1-1v-1a1 1 0 011-1zM3 20h1v-1H3v1zm0-2h1a1 1 0 011 1v1a1 1 0 01-1 1H3a1 1 0 01-1-1v-1a1 1 0 011-1zM7 20h1v-1H7v1zm0-2h1a1 1 0 011 1v1a1 1 0 01-1 1H7a1 1 0 01-1-1v-1a1 1 0 011-1zM16 20h1v-1h-1v1zm0-2h1a1 1 0 011 1v1a1 1 0 01-1 1h-1a1 1 0 01-1-1v-1a1 1 0 011-1zM20 20h1v-1h-1v1zm0-2h1a1 1 0 011 1v1a1 1 0 01-1 1h-1a1 1 0 01-1-1v-1a1 1 0 011-1zM20 16h1v-1h-1v1zm0-2h1a1 1 0 011 1v1a1 1 0 01-1 1h-1a1 1 0 01-1-1v-1a1 1 0 011-1zM16 16h1v-1h-1v1zm0-2h1a1 1 0 011 1v1a1 1 0 01-1 1h-1a1 1 0 01-1-1v-1a1 1 0 011-1zM16 12h1v-1h-1v1zm0-2h1a1 1 0 011 1v1a1 1 0 01-1 1h-1a1 1 0 01-1-1v-1a1 1 0 011-1zM20 12h1v-1h-1v1zm0-2h1a1 1 0 011 1v1a1 1 0 01-1 1h-1a1 1 0 01-1-1v-1a1 1 0 011-1zM20 8h1V7h-1v1zm0-2h1a1 1 0 011 1v1a1 1 0 01-1 1h-1a1 1 0 01-1-1V7a1 1 0 011-1zM16 8h1V7h-1v1zm0-2h1a1 1 0 011 1v1a1 1 0 01-1 1h-1a1 1 0 01-1-1V7a1 1 0 011-1zM11 15v1h2v-1h-2zm0-1h2a1 1 0 011 1v1a1 1 0 01-1 1h-2a1 1 0 01-1-1v-1a1 1 0 011-1zM11 19v2h2v-2h-2zm0-1h2a1 1 0 011 1v3h-4v-3a1 1 0 011-1z"/><path d="M16 5v18h7V5h-7zm0-1h7a1 1 0 011 1v18a1 1 0 01-1 1h-8V5a1 1 0 011-1z"/></g></g><g class="vertex" transform="translate(80 -200)" style="cursor: pointer; pointer-events: auto;"><circle class="handle" r="10" fill="#5C255C" stroke="none"/><text x="0" y="15" text-anchor="middle" alignment-baseline="middle" filter="url(#solid)" pointer-events="none" fill="#5C255C" style="font-size: 5px; font-family: sans-serif; font-weight: bold;">Pledge 100185828</text><g transform="scale(0.5)translate(-12 -12)" fill="#FFFFFF" pointer-events="none"><path d="M17 21v-6l1-1v7a1 1 0 01-1 1H3a1 1 0 01-1-1V1a1 1 0 011-1h14a1 1 0 011 1v9l-1 1V1H3v20h14z"/><path d="M4.917 3.5a.5.5 0 01.5-.5h9.166a.5.5 0 110 1H5.417a.5.5 0 01-.5-.5zM4.917 6.5a.5.5 0 01.5-.5h9.166a.5.5 0 110 1H5.417a.5.5 0 01-.5-.5zM4.917 9.5a.5.5 0 01.5-.5h9.166a.5.5 0 110 1H5.417a.5.5 0 01-.5-.5zM6.415 16.282c-.103.224-.21.464-.344.77l-.267.612a59.71 59.71 0 01-.058.13.497.497 0 01-.66.254.503.503 0 01-.253-.661l.055-.124.267-.613c.137-.311.246-.556.352-.786.437-.95.774-1.554 1.106-1.906.608-.645 1.326-.452 1.638.463.108.317.191.635.263.986.047.226.085.443.148.82.142.811.338.825 1.338.825h3.526c.262 0 .474.212.474.474a.49.49 0 01-.474.49c-2.675.092-4.107.138-4.296.138-1.002 0-1.336-.518-1.553-1.754-.184-1.057-.21-1.177-.372-1.656a3.157 3.157 0 00-.015-.042c-.225.268-.512.793-.875 1.58z"/><path d="M15 23v-2h1v2a1 1 0 01-1 1H1a1 1 0 01-1-1V3a1 1 0 011-1h2v1H1v20h14z"/><path d="M13.293 14l7.5-7.5a1 1 0 011.414 0L23.5 7.793a1 1 0 010 1.414l-7.5 7.5a1 1 0 01-.707.293H13v-2.293a1 1 0 01.293-.707zM14 16h1.293l7.5-7.5L21.5 7.207l-7.5 7.5V16z"/></g></g><g class="vertex" transform="translate(440 -300)" style="cursor: pointer; pointer-events: auto;"><circle class="handle" r="10" fill="#A66321" stroke="none"/><text x="0" y="15" text-anchor="middle" alignment-baseline="middle" filter="url(#solid)" pointer-events="none" fill="#A66321" style="font-size: 5px; font-family: sans-serif; font-weight: bold;">AB Projekti</text><g transform="scale(0.5)translate(-12 -12)" fill="#FFFFFF" pointer-events="none"><path d="M1 5v18h7V5H1zm0-1h8v20H1a1 1 0 01-1-1V5a1 1 0 011-1z"/><path d="M9 22v1h6v-1H9zm-1-1h8v3H8v-3z"/><path d="M9 1v20h6V1H9zm0-1h6a1 1 0 011 1v21H8V1a1 1 0 011-1z"/><path d="M11 3v1h2V3h-2zm0-1h2a1 1 0 011 1v1a1 1 0 01-1 1h-2a1 1 0 01-1-1V3a1 1 0 011-1zM11 7v1h2V7h-2zm0-1h2a1 1 0 011 1v1a1 1 0 01-1 1h-2a1 1 0 01-1-1V7a1 1 0 011-1zM11 11v1h2v-1h-2zm0-1h2a1 1 0 011 1v1a1 1 0 01-1 1h-2a1 1 0 01-1-1v-1a1 1 0 011-1zM3 8h1V7H3v1zm0-2h1a1 1 0 011 1v1a1 1 0 01-1 1H3a1 1 0 01-1-1V7a1 1 0 011-1zM7 8h1V7H7v1zm0-2h1a1 1 0 011 1v1a1 1 0 01-1 1H7a1 1 0 01-1-1V7a1 1 0 011-1zM3 12h1v-1H3v1zm0-2h1a1 1 0 011 1v1a1 1 0 01-1 1H3a1 1 0 01-1-1v-1a1 1 0 011-1zM7 12h1v-1H7v1zm0-2h1a1 1 0 011 1v1a1 1 0 01-1 1H7a1 1 0 01-1-1v-1a1 1 0 011-1zM3 16h1v-1H3v1zm0-2h1a1 1 0 011 1v1a1 1 0 01-1 1H3a1 1 0 01-1-1v-1a1 1 0 011-1zM7 16h1v-1H7v1zm0-2h1a1 1 0 011 1v1a1 1 0 01-1 1H7a1 1 0 01-1-1v-1a1 1 0 011-1zM3 20h1v-1H3v1zm0-2h1a1 1 0 011 1v1a1 1 0 01-1 1H3a1 1 0 01-1-1v-1a1 1 0 011-1zM7 20h1v-1H7v1zm0-2h1a1 1 0 011 1v1a1 1 0 01-1 1H7a1 1 0 01-1-1v-1a1 1 0 011-1zM16 20h1v-1h-1v1zm0-2h1a1 1 0 011 1v1a1 1 0 01-1 1h-1a1 1 0 01-1-1v-1a1 1 0 011-1zM20 20h1v-1h-1v1zm0-2h1a1 1 0 011 1v1a1 1 0 01-1 1h-1a1 1 0 01-1-1v-1a1 1 0 011-1zM20 16h1v-1h-1v1zm0-2h1a1 1 0 011 1v1a1 1 0 01-1 1h-1a1 1 0 01-1-1v-1a1 1 0 011-1zM16 16h1v-1h-1v1zm0-2h1a1 1 0 011 1v1a1 1 0 01-1 1h-1a1 1 0 01-1-1v-1a1 1 0 011-1zM16 12h1v-1h-1v1zm0-2h1a1 1 0 011 1v1a1 1 0 01-1 1h-1a1 1 0 01-1-1v-1a1 1 0 011-1zM20 12h1v-1h-1v1zm0-2h1a1 1 0 011 1v1a1 1 0 01-1 1h-1a1 1 0 01-1-1v-1a1 1 0 011-1zM20 8h1V7h-1v1zm0-2h1a1 1 0 011 1v1a1 1 0 01-1 1h-1a1 1 0 01-1-1V7a1 1 0 011-1zM16 8h1V7h-1v1zm0-2h1a1 1 0 011 1v1a1 1 0 01-1 1h-1a1 1 0 01-1-1V7a1 1 0 011-1zM11 15v1h2v-1h-2zm0-1h2a1 1 0 011 1v1a1 1 0 01-1 1h-2a1 1 0 01-1-1v-1a1 1 0 011-1zM11 19v2h2v-2h-2zm0-1h2a1 1 0 011 1v3h-4v-3a1 1 0 011-1z"/><path d="M16 5v18h7V5h-7zm0-1h7a1 1 0 011 1v18a1 1 0 01-1 1h-8V5a1 1 0 011-1z"/></g></g><g class="vertex" transform="translate(440 -490)" style="cursor: pointer; pointer-events: auto;"><circle class="handle" r="10" fill="#A82A2A" stroke="none"/><text x="0" y="15" text-anchor="middle" alignment-baseline="middle" filter="url(#solid)" pointer-events="none" fill="#A82A2A" style="font-size: 5px; font-family: sans-serif; font-weight: bold;">Construction company working c…</text><g transform="scale(0.5)translate(-12 -12)" fill="#FFFFFF" pointer-events="none"><path d="M17 21v-6l1-1v7a1 1 0 01-1 1H3a1 1 0 01-1-1V1a1 1 0 011-1h14a1 1 0 011 1v9l-1 1V1H3v20h14z"/><path d="M4.917 3.5a.5.5 0 01.5-.5h9.166a.5.5 0 110 1H5.417a.5.5 0 01-.5-.5zM4.917 6.5a.5.5 0 01.5-.5h9.166a.5.5 0 110 1H5.417a.5.5 0 01-.5-.5zM4.917 9.5a.5.5 0 01.5-.5h9.166a.5.5 0 110 1H5.417a.5.5 0 01-.5-.5zM6.415 16.282c-.103.224-.21.464-.344.77l-.267.612a59.71 59.71 0 01-.058.13.497.497 0 01-.66.254.503.503 0 01-.253-.661l.055-.124.267-.613c.137-.311.246-.556.352-.786.437-.95.774-1.554 1.106-1.906.608-.645 1.326-.452 1.638.463.108.317.191.635.263.986.047.226.085.443.148.82.142.811.338.825 1.338.825h3.526c.262 0 .474.212.474.474a.49.49 0 01-.474.49c-2.675.092-4.107.138-4.296.138-1.002 0-1.336-.518-1.553-1.754-.184-1.057-.21-1.177-.372-1.656a3.157 3.157 0 00-.015-.042c-.225.268-.512.793-.875 1.58z"/><path d="M15 23v-2h1v2a1 1 0 01-1 1H1a1 1 0 01-1-1V3a1 1 0 011-1h2v1H1v20h14z"/><path d="M13.293 14l7.5-7.5a1 1 0 011.414 0L23.5 7.793a1 1 0 010 1.414l-7.5 7.5a1 1 0 01-.707.293H13v-2.293a1 1 0 01.293-.707zM14 16h1.293l7.5-7.5L21.5 7.207l-7.5 7.5V16z"/></g></g><g class="vertex" transform="translate(240 -490)" style="cursor: pointer; pointer-events: auto;"><circle class="handle" r="10" fill="#A82A2A" stroke="none"/><text x="0" y="15" text-anchor="middle" alignment-baseline="middle" filter="url(#solid)" pointer-events="none" fill="#A82A2A" style="font-size: 5px; font-family: sans-serif; font-weight: bold;">Shopping mall equipment</text><g transform="scale(0.5)translate(-12 -12)" fill="#FFFFFF" pointer-events="none"><path d="M17 21v-6l1-1v7a1 1 0 01-1 1H3a1 1 0 01-1-1V1a1 1 0 011-1h14a1 1 0 011 1v9l-1 1V1H3v20h14z"/><path d="M4.917 3.5a.5.5 0 01.5-.5h9.166a.5.5 0 110 1H5.417a.5.5 0 01-.5-.5zM4.917 6.5a.5.5 0 01.5-.5h9.166a.5.5 0 110 1H5.417a.5.5 0 01-.5-.5zM4.917 9.5a.5.5 0 01.5-.5h9.166a.5.5 0 110 1H5.417a.5.5 0 01-.5-.5zM6.415 16.282c-.103.224-.21.464-.344.77l-.267.612a59.71 59.71 0 01-.058.13.497.497 0 01-.66.254.503.503 0 01-.253-.661l.055-.124.267-.613c.137-.311.246-.556.352-.786.437-.95.774-1.554 1.106-1.906.608-.645 1.326-.452 1.638.463.108.317.191.635.263.986.047.226.085.443.148.82.142.811.338.825 1.338.825h3.526c.262 0 .474.212.474.474a.49.49 0 01-.474.49c-2.675.092-4.107.138-4.296.138-1.002 0-1.336-.518-1.553-1.754-.184-1.057-.21-1.177-.372-1.656a3.157 3.157 0 00-.015-.042c-.225.268-.512.793-.875 1.58z"/><path d="M15 23v-2h1v2a1 1 0 01-1 1H1a1 1 0 01-1-1V3a1 1 0 011-1h2v1H1v20h14z"/><path d="M13.293 14l7.5-7.5a1 1 0 011.414 0L23.5 7.793a1 1 0 010 1.414l-7.5 7.5a1 1 0 01-.707.293H13v-2.293a1 1 0 01.293-.707zM14 16h1.293l7.5-7.5L21.5 7.207l-7.5 7.5V16z"/></g></g><g class="vertex" transform="translate(140 -490)" style="cursor: pointer; pointer-events: auto;"><circle class="handle" r="10" fill="#A82A2A" stroke="none"/><text x="0" y="15" text-anchor="middle" alignment-baseline="middle" filter="url(#solid)" pointer-events="none" fill="#A82A2A" style="font-size: 5px; font-family: sans-serif; font-weight: bold;">Purchase of the shop</text><g transform="scale(0.5)translate(-12 -12)" fill="#FFFFFF" pointer-events="none"><path d="M17 21v-6l1-1v7a1 1 0 01-1 1H3a1 1 0 01-1-1V1a1 1 0 011-1h14a1 1 0 011 1v9l-1 1V1H3v20h14z"/><path d="M4.917 3.5a.5.5 0 01.5-.5h9.166a.5.5 0 110 1H5.417a.5.5 0 01-.5-.5zM4.917 6.5a.5.5 0 01.5-.5h9.166a.5.5 0 110 1H5.417a.5.5 0 01-.5-.5zM4.917 9.5a.5.5 0 01.5-.5h9.166a.5.5 0 110 1H5.417a.5.5 0 01-.5-.5zM6.415 16.282c-.103.224-.21.464-.344.77l-.267.612a59.71 59.71 0 01-.058.13.497.497 0 01-.66.254.503.503 0 01-.253-.661l.055-.124.267-.613c.137-.311.246-.556.352-.786.437-.95.774-1.554 1.106-1.906.608-.645 1.326-.452 1.638.463.108.317.191.635.263.986.047.226.085.443.148.82.142.811.338.825 1.338.825h3.526c.262 0 .474.212.474.474a.49.49 0 01-.474.49c-2.675.092-4.107.138-4.296.138-1.002 0-1.336-.518-1.553-1.754-.184-1.057-.21-1.177-.372-1.656a3.157 3.157 0 00-.015-.042c-.225.268-.512.793-.875 1.58z"/><path d="M15 23v-2h1v2a1 1 0 01-1 1H1a1 1 0 01-1-1V3a1 1 0 011-1h2v1H1v20h14z"/><path d="M13.293 14l7.5-7.5a1 1 0 011.414 0L23.5 7.793a1 1 0 010 1.414l-7.5 7.5a1 1 0 01-.707.293H13v-2.293a1 1 0 01.293-.707zM14 16h1.293l7.5-7.5L21.5 7.207l-7.5 7.5V16z"/></g></g><g class="vertex" transform="translate(190 -410)" style="cursor: pointer; pointer-events: auto;"><circle class="handle" r="10" fill="#A66321" stroke="none"/><text x="0" y="15" text-anchor="middle" alignment-baseline="middle" filter="url(#solid)" pointer-events="none" fill="#A66321" style="font-size: 5px; font-family: sans-serif; font-weight: bold;">Baltijas Delikateses</text><g transform="scale(0.5)translate(-12 -12)" fill="#FFFFFF" pointer-events="none"><path d="M1 5v18h7V5H1zm0-1h8v20H1a1 1 0 01-1-1V5a1 1 0 011-1z"/><path d="M9 22v1h6v-1H9zm-1-1h8v3H8v-3z"/><path d="M9 1v20h6V1H9zm0-1h6a1 1 0 011 1v21H8V1a1 1 0 011-1z"/><path d="M11 3v1h2V3h-2zm0-1h2a1 1 0 011 1v1a1 1 0 01-1 1h-2a1 1 0 01-1-1V3a1 1 0 011-1zM11 7v1h2V7h-2zm0-1h2a1 1 0 011 1v1a1 1 0 01-1 1h-2a1 1 0 01-1-1V7a1 1 0 011-1zM11 11v1h2v-1h-2zm0-1h2a1 1 0 011 1v1a1 1 0 01-1 1h-2a1 1 0 01-1-1v-1a1 1 0 011-1zM3 8h1V7H3v1zm0-2h1a1 1 0 011 1v1a1 1 0 01-1 1H3a1 1 0 01-1-1V7a1 1 0 011-1zM7 8h1V7H7v1zm0-2h1a1 1 0 011 1v1a1 1 0 01-1 1H7a1 1 0 01-1-1V7a1 1 0 011-1zM3 12h1v-1H3v1zm0-2h1a1 1 0 011 1v1a1 1 0 01-1 1H3a1 1 0 01-1-1v-1a1 1 0 011-1zM7 12h1v-1H7v1zm0-2h1a1 1 0 011 1v1a1 1 0 01-1 1H7a1 1 0 01-1-1v-1a1 1 0 011-1zM3 16h1v-1H3v1zm0-2h1a1 1 0 011 1v1a1 1 0 01-1 1H3a1 1 0 01-1-1v-1a1 1 0 011-1zM7 16h1v-1H7v1zm0-2h1a1 1 0 011 1v1a1 1 0 01-1 1H7a1 1 0 01-1-1v-1a1 1 0 011-1zM3 20h1v-1H3v1zm0-2h1a1 1 0 011 1v1a1 1 0 01-1 1H3a1 1 0 01-1-1v-1a1 1 0 011-1zM7 20h1v-1H7v1zm0-2h1a1 1 0 011 1v1a1 1 0 01-1 1H7a1 1 0 01-1-1v-1a1 1 0 011-1zM16 20h1v-1h-1v1zm0-2h1a1 1 0 011 1v1a1 1 0 01-1 1h-1a1 1 0 01-1-1v-1a1 1 0 011-1zM20 20h1v-1h-1v1zm0-2h1a1 1 0 011 1v1a1 1 0 01-1 1h-1a1 1 0 01-1-1v-1a1 1 0 011-1zM20 16h1v-1h-1v1zm0-2h1a1 1 0 011 1v1a1 1 0 01-1 1h-1a1 1 0 01-1-1v-1a1 1 0 011-1zM16 16h1v-1h-1v1zm0-2h1a1 1 0 011 1v1a1 1 0 01-1 1h-1a1 1 0 01-1-1v-1a1 1 0 011-1zM16 12h1v-1h-1v1zm0-2h1a1 1 0 011 1v1a1 1 0 01-1 1h-1a1 1 0 01-1-1v-1a1 1 0 011-1zM20 12h1v-1h-1v1zm0-2h1a1 1 0 011 1v1a1 1 0 01-1 1h-1a1 1 0 01-1-1v-1a1 1 0 011-1zM20 8h1V7h-1v1zm0-2h1a1 1 0 011 1v1a1 1 0 01-1 1h-1a1 1 0 01-1-1V7a1 1 0 011-1zM16 8h1V7h-1v1zm0-2h1a1 1 0 011 1v1a1 1 0 01-1 1h-1a1 1 0 01-1-1V7a1 1 0 011-1zM11 15v1h2v-1h-2zm0-1h2a1 1 0 011 1v1a1 1 0 01-1 1h-2a1 1 0 01-1-1v-1a1 1 0 011-1zM11 19v2h2v-2h-2zm0-1h2a1 1 0 011 1v3h-4v-3a1 1 0 011-1z"/><path d="M16 5v18h7V5h-7zm0-1h7a1 1 0 011 1v18a1 1 0 01-1 1h-8V5a1 1 0 011-1z"/></g></g><rect id="selection" stroke="black" stroke-width="0.5px" stroke-dasharray="2" fill-opacity="0"/></g><defs><pattern id="grid" width="10" height="10" patternUnits="userSpaceOnUse"><path d="M 10 0 L 0 0 0 10" fill="none" stroke="#E1E8ED" stroke-width="0.5"/></pattern><marker id="arrow" viewBox="0 0 10 10" refX="29" refY="5" markerWidth="5" markerHeight="5" orient="auto-start-reverse" fill="#738694"><path d="M 0 0 L 10 5 L 0 10 z"/></marker><marker id="arrow-unselected" viewBox="0 0 10 10" refX="29" refY="5" markerWidth="5" markerHeight="5" orient="auto-start-reverse" fill="#BFCCD6"><path d="M 0 0 L 10 5 L 0 10 z"/></marker><filter x="0" y="0" width="1" height="1" id="solid"><feFlood flood-color="#ffffff"/><feComposite in="SourceGraphic"/></filter></defs></svg>