<svg viewBox="-600 -30.116396823474332 770 510.23279364694866" xmlns="http://www.w3.org/2000/svg" tabindex="0" style="width: 100%; height: 100%; cursor: crosshair;"><g id="zoom"><rect id="canvas-handle" x="-5000" y="-5000" width="10000" height="10000" fill="none"/><g class="edge"><path stroke="rgba(0,0,0,0)" stroke-width="4" fill="none" d="M-150 250 Q -199.25629935841778 250.5863295376235 -250 250" style="cursor: pointer;"/><path stroke="#738694" stroke-width="1" fill="none" d="M-150 250 Q -199.25629935841778 250.5863295376235 -250 250" stroke-dasharray="0" marker-end="" style="pointer-events: none;"/></g><g transform="translate(-199.6281496792089 250.29316476881175)" class="EdgeLabel"><g class="edge-handle"><rect class="EdgeLabel__outline" x="-15.353755950927734" y="-4.3227479457855225" rx="3" stroke="#738694" stroke-width=".8px" fill="white" width="30.70751190185547" height="8.645495891571045"/><text text-anchor="middle" dy="1.4113739728927612" class="EdgeLabel__text" fill="#738694" pointer-events="none" style="font-size: 5px; font-family: sans-serif;">Membership</text></g></g><g class="edge"><path stroke="rgba(0,0,0,0)" stroke-width="4" fill="none" d="M-170 170 L -10 240" style="cursor: pointer;"/><path stroke="#738694" stroke-width="1" fill="none" d="M-170 170 L -10 240" stroke-dasharray="0" marker-end="" style="pointer-events: none;"/></g><g transform="translate(-90 205)" class="EdgeLabel"><g class="edge-handle"><rect class="EdgeLabel__outline" x="-13.96108341217041" y="-4.3227479457855225" rx="3" stroke="#738694" stroke-width=".8px" fill="white" width="27.92216682434082" height="8.645495891571045"/><text text-anchor="middle" dy="1.4113739728927612" class="EdgeLabel__text" fill="#738694" pointer-events="none" style="font-size: 5px; font-family: sans-serif;">11.73469%</text></g></g><g class="edge"><path stroke="rgba(0,0,0,0)" stroke-width="4" fill="none" d="M-150 250 L -10 240" style="cursor: pointer;"/><path stroke="#738694" stroke-width="1" fill="none" d="M-150 250 L -10 240" stroke-dasharray="0" marker-end="" style="pointer-events: none;"/></g><g transform="translate(-80 245)" class="EdgeLabel"><g class="edge-handle"><rect class="EdgeLabel__outline" x="-15.353755950927734" y="-4.3227479457855225" rx="3" stroke="#738694" stroke-width=".8px" fill="white" width="30.70751190185547" height="8.645495891571045"/><text text-anchor="middle" dy="1.4113739728927612" class="EdgeLabel__text" fill="#738694" pointer-events="none" style="font-size: 5px; font-family: sans-serif;">Membership</text></g></g><g class="edge"><path stroke="rgba(0,0,0,0)" stroke-width="4" fill="none" d="M20 70 L 120 190" style="cursor: pointer;"/><path stroke="#738694" stroke-width="1" fill="none" d="M20 70 L 120 190" stroke-dasharray="0" marker-end="" style="pointer-events: none;"/></g><g transform="translate(70 130)" class="EdgeLabel"><g class="edge-handle"><rect class="EdgeLabel__outline" x="-7.892693996429443" y="-4.3227479457855225" rx="3" stroke="#738694" stroke-width=".8px" fill="white" width="15.785387992858887" height="8.645495891571045"/><text text-anchor="middle" dy="1.4113739728927612" class="EdgeLabel__text" fill="#738694" pointer-events="none" style="font-size: 5px; font-family: sans-serif;">100%</text></g></g><g class="edge"><path stroke="rgba(0,0,0,0)" stroke-width="4" fill="none" d="M-170 170 L 120 190" style="cursor: pointer;"/><path stroke="#738694" stroke-width="1" fill="none" d="M-170 170 L 120 190" stroke-dasharray="0" marker-end="" style="pointer-events: none;"/></g><g transform="translate(-25 180)" class="EdgeLabel"><g class="edge-handle"><rect class="EdgeLabel__outline" x="-14.936450004577637" y="-4.3227479457855225" rx="3" stroke="#738694" stroke-width=".8px" fill="white" width="29.872900009155273" height="8.645495891571045"/><text text-anchor="middle" dy="1.4113739728927612" class="EdgeLabel__text" fill="#738694" pointer-events="none" style="font-size: 5px; font-family: sans-serif;">Directorship</text></g></g><g class="edge"><path stroke="rgba(0,0,0,0)" stroke-width="4" fill="none" d="M80 300 L -10 240" style="cursor: pointer;"/><path stroke="#738694" stroke-width="1" fill="none" d="M80 300 L -10 240" stroke-dasharray="0" marker-end="" style="pointer-events: none;"/></g><g transform="translate(35 270)" class="EdgeLabel"><g class="edge-handle"><rect class="EdgeLabel__outline" x="-6.5020751953125" y="-4.3227479457855225" rx="3" stroke="#738694" stroke-width=".8px" fill="white" width="13.004150390625" height="8.645495891571045"/><text text-anchor="middle" dy="1.4113739728927612" class="EdgeLabel__text" fill="#738694" pointer-events="none" style="font-size: 5px; font-family: sans-serif;">50%</text></g></g><g class="edge"><path stroke="rgba(0,0,0,0)" stroke-width="4" fill="none" d="M120 190 L -10 240" style="cursor: pointer;"/><path stroke="#738694" stroke-width="1" fill="none" d="M120 190 L -10 240" stroke-dasharray="0" marker-end="" style="pointer-events: none;"/></g><g transform="translate(55 215)" class="EdgeLabel"><g class="edge-handle"><rect class="EdgeLabel__outline" x="-14.145288467407227" y="-4.3227479457855225" rx="3" stroke="#738694" stroke-width=".8px" fill="white" width="28.290576934814453" height="8.645495891571045"/><text text-anchor="middle" dy="1.4113739728927612" class="EdgeLabel__text" fill="#738694" pointer-events="none" style="font-size: 5px; font-family: sans-serif;">38.26531%</text></g></g><g class="edge"><path stroke="rgba(0,0,0,0)" stroke-width="4" fill="none" d="M140 250 L 80 300" style="cursor: pointer;"/><path stroke="#738694" stroke-width="1" fill="none" d="M140 250 L 80 300" stroke-dasharray="0" marker-end="" style="pointer-events: none;"/></g><g transform="translate(110 275)" class="EdgeLabel"><g class="edge-handle"><rect class="EdgeLabel__outline" x="-13.549086570739746" y="-4.3227479457855225" rx="3" stroke="#738694" stroke-width=".8px" fill="white" width="27.098173141479492" height="8.645495891571045"/><text text-anchor="middle" dy="1.4113739728927612" class="EdgeLabel__text" fill="#738694" pointer-events="none" style="font-size: 5px; font-family: sans-serif;">Ownership</text></g></g><g class="edge"><path stroke="rgba(0,0,0,0)" stroke-width="4" fill="none" d="M-150 250 L -80 420" style="cursor: pointer;"/><path stroke="#738694" stroke-width="1" fill="none" d="M-150 250 L -80 420" stroke-dasharray="0" marker-end="" style="pointer-events: none;"/></g><g transform="translate(-115 335)" class="EdgeLabel"><g class="edge-handle"><rect class="EdgeLabel__outline" x="-6.5020751953125" y="-4.3227479457855225" rx="3" stroke="#738694" stroke-width=".8px" fill="white" width="13.004150390625" height="8.645495891571045"/><text text-anchor="middle" dy="1.4113739728927612" class="EdgeLabel__text" fill="#738694" pointer-events="none" style="font-size: 5px; font-family: sans-serif;">25%</text></g></g><g class="edge"><path stroke="rgba(0,0,0,0)" stroke-width="4" fill="none" d="M-150 340 L -80 420" style="cursor: pointer;"/><path stroke="#738694" stroke-width="1" fill="none" d="M-150 340 L -80 420" stroke-dasharray="0" marker-end="" style="pointer-events: none;"/></g><g transform="translate(-115 380)" class="EdgeLabel"><g class="edge-handle"><rect class="EdgeLabel__outline" x="-6.5020751953125" y="-4.3227479457855225" rx="3" stroke="#738694" stroke-width=".8px" fill="white" width="13.004150390625" height="8.645495891571045"/><text text-anchor="middle" dy="1.4113739728927612" class="EdgeLabel__text" fill="#738694" pointer-events="none" style="font-size: 5px; font-family: sans-serif;">25%</text></g></g><g class="edge"><path stroke="rgba(0,0,0,0)" stroke-width="4" fill="none" d="M-160 400 L -80 420" style="cursor: pointer;"/><path stroke="#738694" stroke-width="1" fill="none" d="M-160 400 L -80 420" stroke-dasharray="0" marker-end="" style="pointer-events: none;"/></g><g transform="translate(-120 410)" class="EdgeLabel"><g class="edge-handle"><rect class="EdgeLabel__outline" x="-12.570464134216309" y="-4.3227479457855225" rx="3" stroke="#738694" stroke-width=".8px" fill="white" width="25.140928268432617" height="8.645495891571045"/><text text-anchor="middle" dy="1.4113739728927612" class="EdgeLabel__text" fill="#738694" pointer-events="none" style="font-size: 5px; font-family: sans-serif;">35.0211%</text></g></g><g class="edge"><path stroke="rgba(0,0,0,0)" stroke-width="4" fill="none" d="M-160 450 L -80 420" style="cursor: pointer;"/><path stroke="#738694" stroke-width="1" fill="none" d="M-160 450 L -80 420" stroke-dasharray="0" marker-end="" style="pointer-events: none;"/></g><g transform="translate(-120 435)" class="EdgeLabel"><g class="edge-handle"><rect class="EdgeLabel__outline" x="-12.757264137268066" y="-4.3227479457855225" rx="3" stroke="#738694" stroke-width=".8px" fill="white" width="25.514528274536133" height="8.645495891571045"/><text text-anchor="middle" dy="1.4113739728927612" class="EdgeLabel__text" fill="#738694" pointer-events="none" style="font-size: 5px; font-family: sans-serif;">14.9789%</text></g></g><g class="edge"><path stroke="rgba(0,0,0,0)" stroke-width="4" fill="none" d="M20 320 L -80 420" style="cursor: pointer;"/><path stroke="#738694" stroke-width="1" fill="none" d="M20 320 L -80 420" stroke-dasharray="0" marker-end="" style="pointer-events: none;"/></g><g transform="translate(-30 370)" class="EdgeLabel"><g class="edge-handle"><rect class="EdgeLabel__outline" x="-14.936450004577637" y="-4.3227479457855225" rx="3" stroke="#738694" stroke-width=".8px" fill="white" width="29.872900009155273" height="8.645495891571045"/><text text-anchor="middle" dy="1.4113739728927612" class="EdgeLabel__text" fill="#738694" pointer-events="none" style="font-size: 5px; font-family: sans-serif;">Directorship</text></g></g><g class="edge"><path stroke="rgba(0,0,0,0)" stroke-width="4" fill="none" d="M-150 250 L -60 370" style="cursor: pointer;"/><path stroke="#738694" stroke-width="1" fill="none" d="M-150 250 L -60 370" stroke-dasharray="0" marker-end="" style="pointer-events: none;"/></g><g transform="translate(-105 310)" class="EdgeLabel"><g class="edge-handle"><rect class="EdgeLabel__outline" x="-6.5020751953125" y="-4.3227479457855225" rx="3" stroke="#738694" stroke-width=".8px" fill="white" width="13.004150390625" height="8.645495891571045"/><text text-anchor="middle" dy="1.4113739728927612" class="EdgeLabel__text" fill="#738694" pointer-events="none" style="font-size: 5px; font-family: sans-serif;">25%</text></g></g><g class="edge"><path stroke="rgba(0,0,0,0)" stroke-width="4" fill="none" d="M-150 340 L -60 370" style="cursor: pointer;"/><path stroke="#738694" stroke-width="1" fill="none" d="M-150 340 L -60 370" stroke-dasharray="0" marker-end="" style="pointer-events: none;"/></g><g transform="translate(-105 355)" class="EdgeLabel"><g class="edge-handle"><rect class="EdgeLabel__outline" x="-6.5020751953125" y="-4.3227479457855225" rx="3" stroke="#738694" stroke-width=".8px" fill="white" width="13.004150390625" height="8.645495891571045"/><text text-anchor="middle" dy="1.4113739728927612" class="EdgeLabel__text" fill="#738694" pointer-events="none" style="font-size: 5px; font-family: sans-serif;">65%</text></g></g><g class="edge"><path stroke="rgba(0,0,0,0)" stroke-width="4" fill="none" d="M-70 320 L -60 370" style="cursor: pointer;"/><path stroke="#738694" stroke-width="1" fill="none" d="M-70 320 L -60 370" stroke-dasharray="0" marker-end="" style="pointer-events: none;"/></g><g transform="translate(-65 345)" class="EdgeLabel"><g class="edge-handle"><rect class="EdgeLabel__outline" x="-6.5020751953125" y="-4.3227479457855225" rx="3" stroke="#738694" stroke-width=".8px" fill="white" width="13.004150390625" height="8.645495891571045"/><text text-anchor="middle" dy="1.4113739728927612" class="EdgeLabel__text" fill="#738694" pointer-events="none" style="font-size: 5px; font-family: sans-serif;">10%</text></g></g><g class="edge"><path stroke="rgba(0,0,0,0)" stroke-width="4" fill="none" d="M-80 420 L -10 420" style="cursor: pointer;"/><path stroke="#738694" stroke-width="1" fill="none" d="M-80 420 L -10 420" stroke-dasharray="0" marker-end="" style="pointer-events: none;"/></g><g transform="translate(-45 420)" class="EdgeLabel"><g class="edge-handle"><rect class="EdgeLabel__outline" x="-12.757264137268066" y="-4.3227479457855225" rx="3" stroke="#738694" stroke-width=".8px" fill="white" width="25.514528274536133" height="8.645495891571045"/><text text-anchor="middle" dy="1.4113739728927612" class="EdgeLabel__text" fill="#738694" pointer-events="none" style="font-size: 5px; font-family: sans-serif;">0.01587%</text></g></g><g class="edge"><path stroke="rgba(0,0,0,0)" stroke-width="4" fill="none" d="M-60 370 L -10 420" style="cursor: pointer;"/><path stroke="#738694" stroke-width="1" fill="none" d="M-60 370 L -10 420" stroke-dasharray="0" marker-end="" style="pointer-events: none;"/></g><g transform="translate(-35 395)" class="EdgeLabel"><g class="edge-handle"><rect class="EdgeLabel__outline" x="-14.145288467407227" y="-4.3227479457855225" rx="3" stroke="#738694" stroke-width=".8px" fill="white" width="28.290576934814453" height="8.645495891571045"/><text text-anchor="middle" dy="1.4113739728927612" class="EdgeLabel__text" fill="#738694" pointer-events="none" style="font-size: 5px; font-family: sans-serif;">52.37264%</text></g></g><g class="edge"><path stroke="rgba(0,0,0,0)" stroke-width="4" fill="none" d="M60 420 L -10 420" style="cursor: pointer;"/><path stroke="#738694" stroke-width="1" fill="none" d="M60 420 L -10 420" stroke-dasharray="0" marker-end="" style="pointer-events: none;"/></g><g transform="translate(25 420)" class="EdgeLabel"><g class="edge-handle"><rect class="EdgeLabel__outline" x="-14.145288467407227" y="-4.3227479457855225" rx="3" stroke="#738694" stroke-width=".8px" fill="white" width="28.290576934814453" height="8.645495891571045"/><text text-anchor="middle" dy="1.4113739728927612" class="EdgeLabel__text" fill="#738694" pointer-events="none" style="font-size: 5px; font-family: sans-serif;">26.18632%</text></g></g><g class="edge"><path stroke="rgba(0,0,0,0)" stroke-width="4" fill="none" d="M20 320 L 20 380" style="cursor: pointer;"/><path stroke="#738694" stroke-width="1" fill="none" d="M20 320 L 20 380" stroke-dasharray="0" marker-end="" style="pointer-events: none;"/></g><g transform="translate(20 350)" class="EdgeLabel"><g class="edge-handle"><rect class="EdgeLabel__outline" x="-7.892693996429443" y="-4.3227479457855225" rx="3" stroke="#738694" stroke-width=".8px" fill="white" width="15.785387992858887" height="8.645495891571045"/><text text-anchor="middle" dy="1.4113739728927612" class="EdgeLabel__text" fill="#738694" pointer-events="none" style="font-size: 5px; font-family: sans-serif;">100%</text></g></g><g class="edge"><path stroke="rgba(0,0,0,0)" stroke-width="4" fill="none" d="M20 380 L -10 420" style="cursor: pointer;"/><path stroke="#738694" stroke-width="1" fill="none" d="M20 380 L -10 420" stroke-dasharray="0" marker-end="" style="pointer-events: none;"/></g><g transform="translate(5 400)" class="EdgeLabel"><g class="edge-handle"><rect class="EdgeLabel__outline" x="-14.145288467407227" y="-4.3227479457855225" rx="3" stroke="#738694" stroke-width=".8px" fill="white" width="28.290576934814453" height="8.645495891571045"/><text text-anchor="middle" dy="1.4113739728927612" class="EdgeLabel__text" fill="#738694" pointer-events="none" style="font-size: 5px; font-family: sans-serif;">21.42517%</text></g></g><g class="edge"><path stroke="rgba(0,0,0,0)" stroke-width="4" fill="none" d="M-170 170 L -170 100" style="cursor: pointer;"/><path stroke="#738694" stroke-width="1" fill="none" d="M-170 170 L -170 100" stroke-dasharray="0" marker-end="" style="pointer-events: none;"/></g><g transform="translate(-170 135)" class="EdgeLabel"><g class="edge-handle"><rect class="EdgeLabel__outline" x="-7.995977401733398" y="-4.3227479457855225" rx="3" stroke="#738694" stroke-width=".8px" fill="white" width="15.991954803466797" height="8.645495891571045"/><text text-anchor="middle" dy="1.4113739728927612" class="EdgeLabel__text" fill="#738694" pointer-events="none" style="font-size: 5px; font-family: sans-serif;">75%+</text></g></g><g class="edge"><path stroke="rgba(0,0,0,0)" stroke-width="4" fill="none" d="M-170 10 L -170 100" style="cursor: pointer;"/><path stroke="#738694" stroke-width="1" fill="none" d="M-170 10 L -170 100" stroke-dasharray="0" marker-end="" style="pointer-events: none;"/></g><g transform="translate(-170 55)" class="EdgeLabel"><g class="edge-handle"><rect class="EdgeLabel__outline" x="-18.44686508178711" y="-4.3227479457855225" rx="3" stroke="#738694" stroke-width=".8px" fill="white" width="36.89373016357422" height="8.645495891571045"/><text text-anchor="middle" dy="1.4113739728927612" class="EdgeLabel__text" fill="#738694" pointer-events="none" style="font-size: 5px; font-family: sans-serif;">Contract award</text></g></g><g class="edge"><path stroke="rgba(0,0,0,0)" stroke-width="4" fill="none" d="M-170 170 L 20 160" style="cursor: pointer;"/><path stroke="#738694" stroke-width="1" fill="none" d="M-170 170 L 20 160" stroke-dasharray="0" marker-end="" style="pointer-events: none;"/></g><g transform="translate(-75 165)" class="EdgeLabel"><g class="edge-handle"><rect class="EdgeLabel__outline" x="-14.936450004577637" y="-4.3227479457855225" rx="3" stroke="#738694" stroke-width=".8px" fill="white" width="29.872900009155273" height="8.645495891571045"/><text text-anchor="middle" dy="1.4113739728927612" class="EdgeLabel__text" fill="#738694" pointer-events="none" style="font-size: 5px; font-family: sans-serif;">Directorship</text></g></g><g class="edge"><path stroke="rgba(0,0,0,0)" stroke-width="4" fill="none" d="M-150 250 Q -22.25241095918099 178.7173704299521 20 160" style="cursor: pointer;"/><path stroke="#738694" stroke-width="1" fill="none" d="M-150 250 Q -22.25241095918099 178.7173704299521 20 160" stroke-dasharray="0" marker-end="" style="pointer-events: none;"/></g><g transform="translate(-43.626205479590496 191.85868521497605)" class="EdgeLabel"><g class="edge-handle"><rect class="EdgeLabel__outline" x="-14.936450004577637" y="-4.3227479457855225" rx="3" stroke="#738694" stroke-width=".8px" fill="white" width="29.872900009155273" height="8.645495891571045"/><text text-anchor="middle" dy="1.4113739728927612" class="EdgeLabel__text" fill="#738694" pointer-events="none" style="font-size: 5px; font-family: sans-serif;">Directorship</text></g></g><g class="edge"><path stroke="rgba(0,0,0,0)" stroke-width="4" fill="none" d="M20 320 L 20 160" style="cursor: pointer;"/><path stroke="#738694" stroke-width="1" fill="none" d="M20 320 L 20 160" stroke-dasharray="0" marker-end="" style="pointer-events: none;"/></g><g transform="translate(20 240)" class="EdgeLabel"><g class="edge-handle"><rect class="EdgeLabel__outline" x="-14.936450004577637" y="-4.3227479457855225" rx="3" stroke="#738694" stroke-width=".8px" fill="white" width="29.872900009155273" height="8.645495891571045"/><text text-anchor="middle" dy="1.4113739728927612" class="EdgeLabel__text" fill="#738694" pointer-events="none" style="font-size: 5px; font-family: sans-serif;">Directorship</text></g></g><g class="edge"><path stroke="rgba(0,0,0,0)" stroke-width="4" fill="none" d="M120 190 L 20 160" style="cursor: pointer;"/><path stroke="#738694" stroke-width="1" fill="none" d="M120 190 L 20 160" stroke-dasharray="0" marker-end="" style="pointer-events: none;"/></g><g transform="translate(70 175)" class="EdgeLabel"><g class="edge-handle"><rect class="EdgeLabel__outline" x="-13.549086570739746" y="-4.3227479457855225" rx="3" stroke="#738694" stroke-width=".8px" fill="white" width="27.098173141479492" height="8.645495891571045"/><text text-anchor="middle" dy="1.4113739728927612" class="EdgeLabel__text" fill="#738694" pointer-events="none" style="font-size: 5px; font-family: sans-serif;">Ownership</text></g></g><g class="edge"><path stroke="rgba(0,0,0,0)" stroke-width="4" fill="none" d="M-320 250 L -250 250" style="cursor: pointer;"/><path stroke="#738694" stroke-width="1" fill="none" d="M-320 250 L -250 250" stroke-dasharray="0" marker-end="" style="pointer-events: none;"/></g><g transform="translate(-285 250)" class="EdgeLabel"><g class="edge-handle"><rect class="EdgeLabel__outline" x="-13.549086570739746" y="-4.3227479457855225" rx="3" stroke="#738694" stroke-width=".8px" fill="white" width="27.098173141479492" height="8.645495891571045"/><text text-anchor="middle" dy="1.4113739728927612" class="EdgeLabel__text" fill="#738694" pointer-events="none" style="font-size: 5px; font-family: sans-serif;">Ownership</text></g></g><g class="edge"><path stroke="rgba(0,0,0,0)" stroke-width="4" fill="none" d="M20 160 L -40 110" style="cursor: pointer;"/><path stroke="#738694" stroke-width="1" fill="none" d="M20 160 L -40 110" stroke-dasharray="0" marker-end="" style="pointer-events: none;"/></g><g transform="translate(-10 135)" class="EdgeLabel"><g class="edge-handle"><rect class="EdgeLabel__outline" x="-7.892693996429443" y="-4.3227479457855225" rx="3" stroke="#738694" stroke-width=".8px" fill="white" width="15.785387992858887" height="8.645495891571045"/><text text-anchor="middle" dy="1.4113739728927612" class="EdgeLabel__text" fill="#738694" pointer-events="none" style="font-size: 5px; font-family: sans-serif;">100%</text></g></g><g class="edge"><path stroke="rgba(0,0,0,0)" stroke-width="4" fill="none" d="M20 70 L 20 160" style="cursor: pointer;"/><path stroke="#738694" stroke-width="1" fill="none" d="M20 70 L 20 160" stroke-dasharray="0" marker-end="" style="pointer-events: none;"/></g><g transform="translate(20 115)" class="EdgeLabel"><g class="edge-handle"><rect class="EdgeLabel__outline" x="-6.96398401260376" y="-4.3227479457855225" rx="3" stroke="#738694" stroke-width=".8px" fill="white" width="13.92796802520752" height="8.645495891571045"/><text text-anchor="middle" dy="1.4113739728927612" class="EdgeLabel__text" fill="#738694" pointer-events="none" style="font-size: 5px; font-family: sans-serif;">UBO</text></g></g><g class="edge"><path stroke="rgba(0,0,0,0)" stroke-width="4" fill="none" d="M-320 250 L -370 250" style="cursor: pointer;"/><path stroke="#738694" stroke-width="1" fill="none" d="M-320 250 L -370 250" stroke-dasharray="0" marker-end="" style="pointer-events: none;"/></g><g transform="translate(-345 250)" class="EdgeLabel"><g class="edge-handle"><rect class="EdgeLabel__outline" x="-7.892693996429443" y="-4.3227479457855225" rx="3" stroke="#738694" stroke-width=".8px" fill="white" width="15.785387992858887" height="8.645495891571045"/><text text-anchor="middle" dy="1.4113739728927612" class="EdgeLabel__text" fill="#738694" pointer-events="none" style="font-size: 5px; font-family: sans-serif;">100%</text></g></g><g class="edge"><path stroke="rgba(0,0,0,0)" stroke-width="4" fill="none" d="M-370 250 L -370 200" style="cursor: pointer;"/><path stroke="#738694" stroke-width="1" fill="none" d="M-370 250 L -370 200" stroke-dasharray="0" marker-end="" style="pointer-events: none;"/></g><g transform="translate(-370 225)" class="EdgeLabel"><g class="edge-handle"><rect class="EdgeLabel__outline" x="-7.892693996429443" y="-4.3227479457855225" rx="3" stroke="#738694" stroke-width=".8px" fill="white" width="15.785387992858887" height="8.645495891571045"/><text text-anchor="middle" dy="1.4113739728927612" class="EdgeLabel__text" fill="#738694" pointer-events="none" style="font-size: 5px; font-family: sans-serif;">100%</text></g></g><g class="edge"><path stroke="rgba(0,0,0,0)" stroke-width="4" fill="none" d="M-370 250 L -450 250" style="cursor: pointer;"/><path stroke="#738694" stroke-width="1" fill="none" d="M-370 250 L -450 250" stroke-dasharray="0" marker-end="" style="pointer-events: none;"/></g><g transform="translate(-410 250)" class="EdgeLabel"><g class="edge-handle"><rect class="EdgeLabel__outline" x="-6.5020751953125" y="-4.3227479457855225" rx="3" stroke="#738694" stroke-width=".8px" fill="white" width="13.004150390625" height="8.645495891571045"/><text text-anchor="middle" dy="1.4113739728927612" class="EdgeLabel__text" fill="#738694" pointer-events="none" style="font-size: 5px; font-family: sans-serif;">15%</text></g></g><g class="edge"><path stroke="rgba(0,0,0,0)" stroke-width="4" fill="none" d="M-420 70 L -490 70" style="cursor: pointer;"/><path stroke="#738694" stroke-width="1" fill="none" d="M-420 70 L -490 70" stroke-dasharray="0" marker-end="" style="pointer-events: none;"/></g><g transform="translate(-455 70)" class="EdgeLabel"><g class="edge-handle"><rect class="EdgeLabel__outline" x="-7.892693996429443" y="-4.3227479457855225" rx="3" stroke="#738694" stroke-width=".8px" fill="white" width="15.785387992858887" height="8.645495891571045"/><text text-anchor="middle" dy="1.4113739728927612" class="EdgeLabel__text" fill="#738694" pointer-events="none" style="font-size: 5px; font-family: sans-serif;">100%</text></g></g><g class="edge"><path stroke="rgba(0,0,0,0)" stroke-width="4" fill="none" d="M-420 150 L -420 70" style="cursor: pointer;"/><path stroke="#738694" stroke-width="1" fill="none" d="M-420 150 L -420 70" stroke-dasharray="0" marker-end="" style="pointer-events: none;"/></g><g transform="translate(-420 110)" class="EdgeLabel"><g class="edge-handle"><rect class="EdgeLabel__outline" x="-32.75" y="-4.3227479457855225" rx="3" stroke="#738694" stroke-width=".8px" fill="white" width="65.5" height="8.645495891571045"/><text text-anchor="middle" dy="1.4113739728927612" class="EdgeLabel__text" fill="#738694" pointer-events="none" style="font-size: 5px; font-family: sans-serif;">POLICE SECURED 34.18%</text></g></g><g class="edge"><path stroke="rgba(0,0,0,0)" stroke-width="4" fill="none" d="M20 70 L -420 70" style="cursor: pointer;"/><path stroke="#738694" stroke-width="1" fill="none" d="M20 70 L -420 70" stroke-dasharray="0" marker-end="" style="pointer-events: none;"/></g><g transform="translate(-200 70)" class="EdgeLabel"><g class="edge-handle"><rect class="EdgeLabel__outline" x="-9.976027488708496" y="-4.3227479457855225" rx="3" stroke="#738694" stroke-width=".8px" fill="white" width="19.952054977416992" height="8.645495891571045"/><text text-anchor="middle" dy="1.4113739728927612" class="EdgeLabel__text" fill="#738694" pointer-events="none" style="font-size: 5px; font-family: sans-serif;">39.71%</text></g></g><g class="edge"><path stroke="rgba(0,0,0,0)" stroke-width="4" fill="none" d="M-170 170 L -420 70" style="cursor: pointer;"/><path stroke="#738694" stroke-width="1" fill="none" d="M-170 170 L -420 70" stroke-dasharray="0" marker-end="" style="pointer-events: none;"/></g><g transform="translate(-295 120)" class="EdgeLabel"><g class="edge-handle"><rect class="EdgeLabel__outline" x="-14.936450004577637" y="-4.3227479457855225" rx="3" stroke="#738694" stroke-width=".8px" fill="white" width="29.872900009155273" height="8.645495891571045"/><text text-anchor="middle" dy="1.4113739728927612" class="EdgeLabel__text" fill="#738694" pointer-events="none" style="font-size: 5px; font-family: sans-serif;">Directorship</text></g></g><g class="edge"><path stroke="rgba(0,0,0,0)" stroke-width="4" fill="none" d="M-370 300 L -450 250" style="cursor: pointer;"/><path stroke="#738694" stroke-width="1" fill="none" d="M-370 300 L -450 250" stroke-dasharray="0" marker-end="" style="pointer-events: none;"/></g><g transform="translate(-410 275)" class="EdgeLabel"><g class="edge-handle"><rect class="EdgeLabel__outline" x="-14.936450004577637" y="-4.3227479457855225" rx="3" stroke="#738694" stroke-width=".8px" fill="white" width="29.872900009155273" height="8.645495891571045"/><text text-anchor="middle" dy="1.4113739728927612" class="EdgeLabel__text" fill="#738694" pointer-events="none" style="font-size: 5px; font-family: sans-serif;">Directorship</text></g></g><g class="edge"><path stroke="rgba(0,0,0,0)" stroke-width="4" fill="none" d="M-370 300 L -320 250" style="cursor: pointer;"/><path stroke="#738694" stroke-width="1" fill="none" d="M-370 300 L -320 250" stroke-dasharray="0" marker-end="" style="pointer-events: none;"/></g><g transform="translate(-345 275)" class="EdgeLabel"><g class="edge-handle"><rect class="EdgeLabel__outline" x="-11.464993476867676" y="-4.3227479457855225" rx="3" stroke="#738694" stroke-width=".8px" fill="white" width="22.92998695373535" height="8.645495891571045"/><text text-anchor="middle" dy="1.4113739728927612" class="EdgeLabel__text" fill="#738694" pointer-events="none" style="font-size: 5px; font-family: sans-serif;">marriage</text></g></g><g class="edge"><path stroke="rgba(0,0,0,0)" stroke-width="4" fill="none" d="M-570 250 L -450 250" style="cursor: pointer;"/><path stroke="#738694" stroke-width="1" fill="none" d="M-570 250 L -450 250" stroke-dasharray="0" marker-end="" style="pointer-events: none;"/></g><g transform="translate(-510 250)" class="EdgeLabel"><g class="edge-handle"><rect class="EdgeLabel__outline" x="-14.936450004577637" y="-4.3227479457855225" rx="3" stroke="#738694" stroke-width=".8px" fill="white" width="29.872900009155273" height="8.645495891571045"/><text text-anchor="middle" dy="1.4113739728927612" class="EdgeLabel__text" fill="#738694" pointer-events="none" style="font-size: 5px; font-family: sans-serif;">Directorship</text></g></g><g class="edge"><path stroke="rgba(0,0,0,0)" stroke-width="4" fill="none" d="M-480 290 L -450 250" style="cursor: pointer;"/><path stroke="#738694" stroke-width="1" fill="none" d="M-480 290 L -450 250" stroke-dasharray="0" marker-end="" style="pointer-events: none;"/></g><g transform="translate(-465 270)" class="EdgeLabel"><g class="edge-handle"><rect class="EdgeLabel__outline" x="-6.5020751953125" y="-4.3227479457855225" rx="3" stroke="#738694" stroke-width=".8px" fill="white" width="13.004150390625" height="8.645495891571045"/><text text-anchor="middle" dy="1.4113739728927612" class="EdgeLabel__text" fill="#738694" pointer-events="none" style="font-size: 5px; font-family: sans-serif;">80%</text></g></g><g class="edge"><path stroke="rgba(0,0,0,0)" stroke-width="4" fill="none" d="M-430 310 L -480 290" style="cursor: pointer;"/><path stroke="#738694" stroke-width="1" fill="none" d="M-430 310 L -480 290" stroke-dasharray="0" marker-end="" style="pointer-events: none;"/></g><g transform="translate(-455 300)" class="EdgeLabel"><g class="edge-handle"><rect class="EdgeLabel__outline" x="-7.892693996429443" y="-4.3227479457855225" rx="3" stroke="#738694" stroke-width=".8px" fill="white" width="15.785387992858887" height="8.645495891571045"/><text text-anchor="middle" dy="1.4113739728927612" class="EdgeLabel__text" fill="#738694" pointer-events="none" style="font-size: 5px; font-family: sans-serif;">100%</text></g></g><g class="edge"><path stroke="rgba(0,0,0,0)" stroke-width="4" fill="none" d="M-560 290 L -480 290" style="cursor: pointer;"/><path stroke="#738694" stroke-width="1" fill="none" d="M-560 290 L -480 290" stroke-dasharray="0" marker-end="" style="pointer-events: none;"/></g><g transform="translate(-520 290)" class="EdgeLabel"><g class="edge-handle"><rect class="EdgeLabel__outline" x="-14.936450004577637" y="-4.3227479457855225" rx="3" stroke="#738694" stroke-width=".8px" fill="white" width="29.872900009155273" height="8.645495891571045"/><text text-anchor="middle" dy="1.4113739728927612" class="EdgeLabel__text" fill="#738694" pointer-events="none" style="font-size: 5px; font-family: sans-serif;">Directorship</text></g></g><g class="edge"><path stroke="rgba(0,0,0,0)" stroke-width="4" fill="none" d="M-560 290 Q -489.94593810325523 280.841020673722 -450 250" style="cursor: pointer;"/><path stroke="#738694" stroke-width="1" fill="none" d="M-560 290 Q -489.94593810325523 280.841020673722 -450 250" stroke-dasharray="0" marker-end="" style="pointer-events: none;"/></g><g transform="translate(-497.4729690516276 275.420510336861)" class="EdgeLabel"><g class="edge-handle"><rect class="EdgeLabel__outline" x="-14.936450004577637" y="-4.3227479457855225" rx="3" stroke="#738694" stroke-width=".8px" fill="white" width="29.872900009155273" height="8.645495891571045"/><text text-anchor="middle" dy="1.4113739728927612" class="EdgeLabel__text" fill="#738694" pointer-events="none" style="font-size: 5px; font-family: sans-serif;">Directorship</text></g></g><g class="edge"><path stroke="rgba(0,0,0,0)" stroke-width="4" fill="none" d="M-430 310 L -450 250" style="cursor: pointer;"/><path stroke="#738694" stroke-width="1" fill="none" d="M-430 310 L -450 250" stroke-dasharray="0" marker-end="" style="pointer-events: none;"/></g><g transform="translate(-440 280)" class="EdgeLabel"><g class="edge-handle"><rect class="EdgeLabel__outline" x="-14.936450004577637" y="-4.3227479457855225" rx="3" stroke="#738694" stroke-width=".8px" fill="white" width="29.872900009155273" height="8.645495891571045"/><text text-anchor="middle" dy="1.4113739728927612" class="EdgeLabel__text" fill="#738694" pointer-events="none" style="font-size: 5px; font-family: sans-serif;">Directorship</text></g></g><g class="edge"><path stroke="rgba(0,0,0,0)" stroke-width="4" fill="none" d="M-560 290 Q -511.2640729535532 255.46228870908158 -450 250" style="cursor: pointer;"/><path stroke="#738694" stroke-width="1" fill="none" d="M-560 290 Q -511.2640729535532 255.46228870908158 -450 250" stroke-dasharray="0" marker-end="" style="pointer-events: none;"/></g><g transform="translate(-508.1320364767766 262.7311443545408)" class="EdgeLabel"><g class="edge-handle"><rect class="EdgeLabel__outline" x="-5.114051342010498" y="-4.3227479457855225" rx="3" stroke="#738694" stroke-width=".8px" fill="white" width="10.228102684020996" height="8.645495891571045"/><text text-anchor="middle" dy="1.4113739728927612" class="EdgeLabel__text" fill="#738694" pointer-events="none" style="font-size: 5px; font-family: sans-serif;">5%</text></g></g><g class="edge"><path stroke="rgba(0,0,0,0)" stroke-width="4" fill="none" d="M-420 70 L -420 0" style="cursor: pointer;"/><path stroke="#738694" stroke-width="1" fill="none" d="M-420 70 L -420 0" stroke-dasharray="0" marker-end="" style="pointer-events: none;"/></g><g transform="translate(-420 35)" class="EdgeLabel"><g class="edge-handle"><rect class="EdgeLabel__outline" x="-47.65244674682617" y="-4.3227479457855225" rx="3" stroke="#738694" stroke-width=".8px" fill="white" width="95.30489349365234" height="8.645495891571045"/><text text-anchor="middle" dy="1.4113739728927612" class="EdgeLabel__text" fill="#738694" pointer-events="none" style="font-size: 5px; font-family: sans-serif;">REMOVED FROM REGISTRY 21-1-2021</text></g></g><g class="edge"><path stroke="rgba(0,0,0,0)" stroke-width="4" fill="none" d="M-560 70 L -490 70" style="cursor: pointer;"/><path stroke="#738694" stroke-width="1" fill="none" d="M-560 70 L -490 70" stroke-dasharray="0" marker-end="" style="pointer-events: none;"/></g><g transform="translate(-525 70)" class="EdgeLabel"><g class="edge-handle"><rect class="EdgeLabel__outline" x="-18.44686508178711" y="-4.3227479457855225" rx="3" stroke="#738694" stroke-width=".8px" fill="white" width="36.89373016357422" height="8.645495891571045"/><text text-anchor="middle" dy="1.4113739728927612" class="EdgeLabel__text" fill="#738694" pointer-events="none" style="font-size: 5px; font-family: sans-serif;">Contract award</text></g></g><g class="vertex" transform="translate(-250 250)" style="cursor: pointer; pointer-events: auto;"><circle class="handle" r="10" fill="#A66321" stroke="none"/><text x="0" y="15" text-anchor="middle" alignment-baseline="middle" filter="url(#solid)" pointer-events="none" fill="#A66321" style="font-size: 5px; font-family: sans-serif; font-weight: bold;">AS YieldUP</text><g transform="scale(0.5)translate(-12 -12)" fill="#FFFFFF" pointer-events="none"><path d="M1 5v18h7V5H1zm0-1h8v20H1a1 1 0 01-1-1V5a1 1 0 011-1z"/><path d="M9 22v1h6v-1H9zm-1-1h8v3H8v-3z"/><path d="M9 1v20h6V1H9zm0-1h6a1 1 0 011 1v21H8V1a1 1 0 011-1z"/><path d="M11 3v1h2V3h-2zm0-1h2a1 1 0 011 1v1a1 1 0 01-1 1h-2a1 1 0 01-1-1V3a1 1 0 011-1zM11 7v1h2V7h-2zm0-1h2a1 1 0 011 1v1a1 1 0 01-1 1h-2a1 1 0 01-1-1V7a1 1 0 011-1zM11 11v1h2v-1h-2zm0-1h2a1 1 0 011 1v1a1 1 0 01-1 1h-2a1 1 0 01-1-1v-1a1 1 0 011-1zM3 8h1V7H3v1zm0-2h1a1 1 0 011 1v1a1 1 0 01-1 1H3a1 1 0 01-1-1V7a1 1 0 011-1zM7 8h1V7H7v1zm0-2h1a1 1 0 011 1v1a1 1 0 01-1 1H7a1 1 0 01-1-1V7a1 1 0 011-1zM3 12h1v-1H3v1zm0-2h1a1 1 0 011 1v1a1 1 0 01-1 1H3a1 1 0 01-1-1v-1a1 1 0 011-1zM7 12h1v-1H7v1zm0-2h1a1 1 0 011 1v1a1 1 0 01-1 1H7a1 1 0 01-1-1v-1a1 1 0 011-1zM3 16h1v-1H3v1zm0-2h1a1 1 0 011 1v1a1 1 0 01-1 1H3a1 1 0 01-1-1v-1a1 1 0 011-1zM7 16h1v-1H7v1zm0-2h1a1 1 0 011 1v1a1 1 0 01-1 1H7a1 1 0 01-1-1v-1a1 1 0 011-1zM3 20h1v-1H3v1zm0-2h1a1 1 0 011 1v1a1 1 0 01-1 1H3a1 1 0 01-1-1v-1a1 1 0 011-1zM7 20h1v-1H7v1zm0-2h1a1 1 0 011 1v1a1 1 0 01-1 1H7a1 1 0 01-1-1v-1a1 1 0 011-1zM16 20h1v-1h-1v1zm0-2h1a1 1 0 011 1v1a1 1 0 01-1 1h-1a1 1 0 01-1-1v-1a1 1 0 011-1zM20 20h1v-1h-1v1zm0-2h1a1 1 0 011 1v1a1 1 0 01-1 1h-1a1 1 0 01-1-1v-1a1 1 0 011-1zM20 16h1v-1h-1v1zm0-2h1a1 1 0 011 1v1a1 1 0 01-1 1h-1a1 1 0 01-1-1v-1a1 1 0 011-1zM16 16h1v-1h-1v1zm0-2h1a1 1 0 011 1v1a1 1 0 01-1 1h-1a1 1 0 01-1-1v-1a1 1 0 011-1zM16 12h1v-1h-1v1zm0-2h1a1 1 0 011 1v1a1 1 0 01-1 1h-1a1 1 0 01-1-1v-1a1 1 0 011-1zM20 12h1v-1h-1v1zm0-2h1a1 1 0 011 1v1a1 1 0 01-1 1h-1a1 1 0 01-1-1v-1a1 1 0 011-1zM20 8h1V7h-1v1zm0-2h1a1 1 0 011 1v1a1 1 0 01-1 1h-1a1 1 0 01-1-1V7a1 1 0 011-1zM16 8h1V7h-1v1zm0-2h1a1 1 0 011 1v1a1 1 0 01-1 1h-1a1 1 0 01-1-1V7a1 1 0 011-1zM11 15v1h2v-1h-2zm0-1h2a1 1 0 011 1v1a1 1 0 01-1 1h-2a1 1 0 01-1-1v-1a1 1 0 011-1zM11 19v2h2v-2h-2zm0-1h2a1 1 0 011 1v3h-4v-3a1 1 0 011-1z"/><path d="M16 5v18h7V5h-7zm0-1h7a1 1 0 011 1v18a1 1 0 01-1 1h-8V5a1 1 0 011-1z"/></g></g><g class="vertex" transform="translate(-150 250)" style="cursor: pointer; pointer-events: auto;"><circle class="handle" r="10" fill="#0E5A8A" stroke="none"/><text x="0" y="15" text-anchor="middle" alignment-baseline="middle" filter="url(#solid)" pointer-events="none" fill="#0E5A8A" style="font-size: 5px; font-family: sans-serif; font-weight: bold;">Kārlis Babulis</text><g transform="scale(0.5)translate(-12 -12)" fill="#FFFFFF" pointer-events="none"><path d="M12 11a3 3 0 100-6 3 3 0 000 6zm0 1a4 4 0 110-8 4 4 0 010 8z"/><path d="M12 23c6.075 0 11-4.925 11-11S18.075 1 12 1 1 5.925 1 12s4.925 11 11 11zm0 1C5.373 24 0 18.627 0 12S5.373 0 12 0s12 5.373 12 12-5.373 12-12 12z"/><path d="M6.26 22.541L6 22.399V16a4 4 0 014-4h4a4 4 0 014 4v6.399l-.26.142A11.946 11.946 0 0112 24c-2.022 0-3.984-.5-5.74-1.459zm.74-.74C8.541 22.589 10.245 23 12 23s3.459-.41 5-1.2V16a3 3 0 00-3-3h-4a3 3 0 00-3 3v5.8z"/></g></g><g class="vertex" transform="translate(-10 240)" style="cursor: pointer; pointer-events: auto;"><circle class="handle" r="10" fill="#A66321" stroke="none"/><text x="0" y="15" text-anchor="middle" alignment-baseline="middle" filter="url(#solid)" pointer-events="none" fill="#A66321" style="font-size: 5px; font-family: sans-serif; font-weight: bold;">SIA NPK Expert</text><g transform="scale(0.5)translate(-12 -12)" fill="#FFFFFF" pointer-events="none"><path d="M1 5v18h7V5H1zm0-1h8v20H1a1 1 0 01-1-1V5a1 1 0 011-1z"/><path d="M9 22v1h6v-1H9zm-1-1h8v3H8v-3z"/><path d="M9 1v20h6V1H9zm0-1h6a1 1 0 011 1v21H8V1a1 1 0 011-1z"/><path d="M11 3v1h2V3h-2zm0-1h2a1 1 0 011 1v1a1 1 0 01-1 1h-2a1 1 0 01-1-1V3a1 1 0 011-1zM11 7v1h2V7h-2zm0-1h2a1 1 0 011 1v1a1 1 0 01-1 1h-2a1 1 0 01-1-1V7a1 1 0 011-1zM11 11v1h2v-1h-2zm0-1h2a1 1 0 011 1v1a1 1 0 01-1 1h-2a1 1 0 01-1-1v-1a1 1 0 011-1zM3 8h1V7H3v1zm0-2h1a1 1 0 011 1v1a1 1 0 01-1 1H3a1 1 0 01-1-1V7a1 1 0 011-1zM7 8h1V7H7v1zm0-2h1a1 1 0 011 1v1a1 1 0 01-1 1H7a1 1 0 01-1-1V7a1 1 0 011-1zM3 12h1v-1H3v1zm0-2h1a1 1 0 011 1v1a1 1 0 01-1 1H3a1 1 0 01-1-1v-1a1 1 0 011-1zM7 12h1v-1H7v1zm0-2h1a1 1 0 011 1v1a1 1 0 01-1 1H7a1 1 0 01-1-1v-1a1 1 0 011-1zM3 16h1v-1H3v1zm0-2h1a1 1 0 011 1v1a1 1 0 01-1 1H3a1 1 0 01-1-1v-1a1 1 0 011-1zM7 16h1v-1H7v1zm0-2h1a1 1 0 011 1v1a1 1 0 01-1 1H7a1 1 0 01-1-1v-1a1 1 0 011-1zM3 20h1v-1H3v1zm0-2h1a1 1 0 011 1v1a1 1 0 01-1 1H3a1 1 0 01-1-1v-1a1 1 0 011-1zM7 20h1v-1H7v1zm0-2h1a1 1 0 011 1v1a1 1 0 01-1 1H7a1 1 0 01-1-1v-1a1 1 0 011-1zM16 20h1v-1h-1v1zm0-2h1a1 1 0 011 1v1a1 1 0 01-1 1h-1a1 1 0 01-1-1v-1a1 1 0 011-1zM20 20h1v-1h-1v1zm0-2h1a1 1 0 011 1v1a1 1 0 01-1 1h-1a1 1 0 01-1-1v-1a1 1 0 011-1zM20 16h1v-1h-1v1zm0-2h1a1 1 0 011 1v1a1 1 0 01-1 1h-1a1 1 0 01-1-1v-1a1 1 0 011-1zM16 16h1v-1h-1v1zm0-2h1a1 1 0 011 1v1a1 1 0 01-1 1h-1a1 1 0 01-1-1v-1a1 1 0 011-1zM16 12h1v-1h-1v1zm0-2h1a1 1 0 011 1v1a1 1 0 01-1 1h-1a1 1 0 01-1-1v-1a1 1 0 011-1zM20 12h1v-1h-1v1zm0-2h1a1 1 0 011 1v1a1 1 0 01-1 1h-1a1 1 0 01-1-1v-1a1 1 0 011-1zM20 8h1V7h-1v1zm0-2h1a1 1 0 011 1v1a1 1 0 01-1 1h-1a1 1 0 01-1-1V7a1 1 0 011-1zM16 8h1V7h-1v1zm0-2h1a1 1 0 011 1v1a1 1 0 01-1 1h-1a1 1 0 01-1-1V7a1 1 0 011-1zM11 15v1h2v-1h-2zm0-1h2a1 1 0 011 1v1a1 1 0 01-1 1h-2a1 1 0 01-1-1v-1a1 1 0 011-1zM11 19v2h2v-2h-2zm0-1h2a1 1 0 011 1v3h-4v-3a1 1 0 011-1z"/><path d="M16 5v18h7V5h-7zm0-1h7a1 1 0 011 1v18a1 1 0 01-1 1h-8V5a1 1 0 011-1z"/></g></g><g class="vertex" transform="translate(-170 170)" style="cursor: pointer; pointer-events: auto;"><circle class="handle" r="10" fill="#0E5A8A" stroke="none"/><text x="0" y="15" text-anchor="middle" alignment-baseline="middle" filter="url(#solid)" pointer-events="none" fill="#0E5A8A" style="font-size: 5px; font-family: sans-serif; font-weight: bold;">Ģirts Cēlājs</text><g transform="scale(0.5)translate(-12 -12)" fill="#FFFFFF" pointer-events="none"><path d="M12 11a3 3 0 100-6 3 3 0 000 6zm0 1a4 4 0 110-8 4 4 0 010 8z"/><path d="M12 23c6.075 0 11-4.925 11-11S18.075 1 12 1 1 5.925 1 12s4.925 11 11 11zm0 1C5.373 24 0 18.627 0 12S5.373 0 12 0s12 5.373 12 12-5.373 12-12 12z"/><path d="M6.26 22.541L6 22.399V16a4 4 0 014-4h4a4 4 0 014 4v6.399l-.26.142A11.946 11.946 0 0112 24c-2.022 0-3.984-.5-5.74-1.459zm.74-.74C8.541 22.589 10.245 23 12 23s3.459-.41 5-1.2V16a3 3 0 00-3-3h-4a3 3 0 00-3 3v5.8z"/></g></g><g class="vertex" transform="translate(120 190)" style="cursor: pointer; pointer-events: auto;"><circle class="handle" r="10" fill="#A66321" stroke="none"/><text x="0" y="15" text-anchor="middle" alignment-baseline="middle" filter="url(#solid)" pointer-events="none" fill="#A66321" style="font-size: 5px; font-family: sans-serif; font-weight: bold;">SIA GC Acquisition</text><g transform="scale(0.5)translate(-12 -12)" fill="#FFFFFF" pointer-events="none"><path d="M1 5v18h7V5H1zm0-1h8v20H1a1 1 0 01-1-1V5a1 1 0 011-1z"/><path d="M9 22v1h6v-1H9zm-1-1h8v3H8v-3z"/><path d="M9 1v20h6V1H9zm0-1h6a1 1 0 011 1v21H8V1a1 1 0 011-1z"/><path d="M11 3v1h2V3h-2zm0-1h2a1 1 0 011 1v1a1 1 0 01-1 1h-2a1 1 0 01-1-1V3a1 1 0 011-1zM11 7v1h2V7h-2zm0-1h2a1 1 0 011 1v1a1 1 0 01-1 1h-2a1 1 0 01-1-1V7a1 1 0 011-1zM11 11v1h2v-1h-2zm0-1h2a1 1 0 011 1v1a1 1 0 01-1 1h-2a1 1 0 01-1-1v-1a1 1 0 011-1zM3 8h1V7H3v1zm0-2h1a1 1 0 011 1v1a1 1 0 01-1 1H3a1 1 0 01-1-1V7a1 1 0 011-1zM7 8h1V7H7v1zm0-2h1a1 1 0 011 1v1a1 1 0 01-1 1H7a1 1 0 01-1-1V7a1 1 0 011-1zM3 12h1v-1H3v1zm0-2h1a1 1 0 011 1v1a1 1 0 01-1 1H3a1 1 0 01-1-1v-1a1 1 0 011-1zM7 12h1v-1H7v1zm0-2h1a1 1 0 011 1v1a1 1 0 01-1 1H7a1 1 0 01-1-1v-1a1 1 0 011-1zM3 16h1v-1H3v1zm0-2h1a1 1 0 011 1v1a1 1 0 01-1 1H3a1 1 0 01-1-1v-1a1 1 0 011-1zM7 16h1v-1H7v1zm0-2h1a1 1 0 011 1v1a1 1 0 01-1 1H7a1 1 0 01-1-1v-1a1 1 0 011-1zM3 20h1v-1H3v1zm0-2h1a1 1 0 011 1v1a1 1 0 01-1 1H3a1 1 0 01-1-1v-1a1 1 0 011-1zM7 20h1v-1H7v1zm0-2h1a1 1 0 011 1v1a1 1 0 01-1 1H7a1 1 0 01-1-1v-1a1 1 0 011-1zM16 20h1v-1h-1v1zm0-2h1a1 1 0 011 1v1a1 1 0 01-1 1h-1a1 1 0 01-1-1v-1a1 1 0 011-1zM20 20h1v-1h-1v1zm0-2h1a1 1 0 011 1v1a1 1 0 01-1 1h-1a1 1 0 01-1-1v-1a1 1 0 011-1zM20 16h1v-1h-1v1zm0-2h1a1 1 0 011 1v1a1 1 0 01-1 1h-1a1 1 0 01-1-1v-1a1 1 0 011-1zM16 16h1v-1h-1v1zm0-2h1a1 1 0 011 1v1a1 1 0 01-1 1h-1a1 1 0 01-1-1v-1a1 1 0 011-1zM16 12h1v-1h-1v1zm0-2h1a1 1 0 011 1v1a1 1 0 01-1 1h-1a1 1 0 01-1-1v-1a1 1 0 011-1zM20 12h1v-1h-1v1zm0-2h1a1 1 0 011 1v1a1 1 0 01-1 1h-1a1 1 0 01-1-1v-1a1 1 0 011-1zM20 8h1V7h-1v1zm0-2h1a1 1 0 011 1v1a1 1 0 01-1 1h-1a1 1 0 01-1-1V7a1 1 0 011-1zM16 8h1V7h-1v1zm0-2h1a1 1 0 011 1v1a1 1 0 01-1 1h-1a1 1 0 01-1-1V7a1 1 0 011-1zM11 15v1h2v-1h-2zm0-1h2a1 1 0 011 1v1a1 1 0 01-1 1h-2a1 1 0 01-1-1v-1a1 1 0 011-1zM11 19v2h2v-2h-2zm0-1h2a1 1 0 011 1v3h-4v-3a1 1 0 011-1z"/><path d="M16 5v18h7V5h-7zm0-1h7a1 1 0 011 1v18a1 1 0 01-1 1h-8V5a1 1 0 011-1z"/></g></g><g class="vertex" transform="translate(20 70)" style="cursor: pointer; pointer-events: auto;"><circle class="handle" r="10" fill="#0E5A8A" stroke="none"/><text x="0" y="15" text-anchor="middle" alignment-baseline="middle" filter="url(#solid)" pointer-events="none" fill="#0E5A8A" style="font-size: 5px; font-family: sans-serif; font-weight: bold;">Jānis Biezais</text><g transform="scale(0.5)translate(-12 -12)" fill="#FFFFFF" pointer-events="none"><path d="M12 11a3 3 0 100-6 3 3 0 000 6zm0 1a4 4 0 110-8 4 4 0 010 8z"/><path d="M12 23c6.075 0 11-4.925 11-11S18.075 1 12 1 1 5.925 1 12s4.925 11 11 11zm0 1C5.373 24 0 18.627 0 12S5.373 0 12 0s12 5.373 12 12-5.373 12-12 12z"/><path d="M6.26 22.541L6 22.399V16a4 4 0 014-4h4a4 4 0 014 4v6.399l-.26.142A11.946 11.946 0 0112 24c-2.022 0-3.984-.5-5.74-1.459zm.74-.74C8.541 22.589 10.245 23 12 23s3.459-.41 5-1.2V16a3 3 0 00-3-3h-4a3 3 0 00-3 3v5.8z"/></g></g><g class="vertex" transform="translate(80 300)" style="cursor: pointer; pointer-events: auto;"><circle class="handle" r="10" fill="#A66321" stroke="none"/><text x="0" y="15" text-anchor="middle" alignment-baseline="middle" filter="url(#solid)" pointer-events="none" fill="#A66321" style="font-size: 5px; font-family: sans-serif; font-weight: bold;">SIA Commodity Trading Group</text><g transform="scale(0.5)translate(-12 -12)" fill="#FFFFFF" pointer-events="none"><path d="M1 5v18h7V5H1zm0-1h8v20H1a1 1 0 01-1-1V5a1 1 0 011-1z"/><path d="M9 22v1h6v-1H9zm-1-1h8v3H8v-3z"/><path d="M9 1v20h6V1H9zm0-1h6a1 1 0 011 1v21H8V1a1 1 0 011-1z"/><path d="M11 3v1h2V3h-2zm0-1h2a1 1 0 011 1v1a1 1 0 01-1 1h-2a1 1 0 01-1-1V3a1 1 0 011-1zM11 7v1h2V7h-2zm0-1h2a1 1 0 011 1v1a1 1 0 01-1 1h-2a1 1 0 01-1-1V7a1 1 0 011-1zM11 11v1h2v-1h-2zm0-1h2a1 1 0 011 1v1a1 1 0 01-1 1h-2a1 1 0 01-1-1v-1a1 1 0 011-1zM3 8h1V7H3v1zm0-2h1a1 1 0 011 1v1a1 1 0 01-1 1H3a1 1 0 01-1-1V7a1 1 0 011-1zM7 8h1V7H7v1zm0-2h1a1 1 0 011 1v1a1 1 0 01-1 1H7a1 1 0 01-1-1V7a1 1 0 011-1zM3 12h1v-1H3v1zm0-2h1a1 1 0 011 1v1a1 1 0 01-1 1H3a1 1 0 01-1-1v-1a1 1 0 011-1zM7 12h1v-1H7v1zm0-2h1a1 1 0 011 1v1a1 1 0 01-1 1H7a1 1 0 01-1-1v-1a1 1 0 011-1zM3 16h1v-1H3v1zm0-2h1a1 1 0 011 1v1a1 1 0 01-1 1H3a1 1 0 01-1-1v-1a1 1 0 011-1zM7 16h1v-1H7v1zm0-2h1a1 1 0 011 1v1a1 1 0 01-1 1H7a1 1 0 01-1-1v-1a1 1 0 011-1zM3 20h1v-1H3v1zm0-2h1a1 1 0 011 1v1a1 1 0 01-1 1H3a1 1 0 01-1-1v-1a1 1 0 011-1zM7 20h1v-1H7v1zm0-2h1a1 1 0 011 1v1a1 1 0 01-1 1H7a1 1 0 01-1-1v-1a1 1 0 011-1zM16 20h1v-1h-1v1zm0-2h1a1 1 0 011 1v1a1 1 0 01-1 1h-1a1 1 0 01-1-1v-1a1 1 0 011-1zM20 20h1v-1h-1v1zm0-2h1a1 1 0 011 1v1a1 1 0 01-1 1h-1a1 1 0 01-1-1v-1a1 1 0 011-1zM20 16h1v-1h-1v1zm0-2h1a1 1 0 011 1v1a1 1 0 01-1 1h-1a1 1 0 01-1-1v-1a1 1 0 011-1zM16 16h1v-1h-1v1zm0-2h1a1 1 0 011 1v1a1 1 0 01-1 1h-1a1 1 0 01-1-1v-1a1 1 0 011-1zM16 12h1v-1h-1v1zm0-2h1a1 1 0 011 1v1a1 1 0 01-1 1h-1a1 1 0 01-1-1v-1a1 1 0 011-1zM20 12h1v-1h-1v1zm0-2h1a1 1 0 011 1v1a1 1 0 01-1 1h-1a1 1 0 01-1-1v-1a1 1 0 011-1zM20 8h1V7h-1v1zm0-2h1a1 1 0 011 1v1a1 1 0 01-1 1h-1a1 1 0 01-1-1V7a1 1 0 011-1zM16 8h1V7h-1v1zm0-2h1a1 1 0 011 1v1a1 1 0 01-1 1h-1a1 1 0 01-1-1V7a1 1 0 011-1zM11 15v1h2v-1h-2zm0-1h2a1 1 0 011 1v1a1 1 0 01-1 1h-2a1 1 0 01-1-1v-1a1 1 0 011-1zM11 19v2h2v-2h-2zm0-1h2a1 1 0 011 1v3h-4v-3a1 1 0 011-1z"/><path d="M16 5v18h7V5h-7zm0-1h7a1 1 0 011 1v18a1 1 0 01-1 1h-8V5a1 1 0 011-1z"/></g></g><g class="vertex" transform="translate(140 250)" style="cursor: pointer; pointer-events: auto;"><circle class="handle" r="10" fill="#0E5A8A" stroke="none"/><text x="0" y="15" text-anchor="middle" alignment-baseline="middle" filter="url(#solid)" pointer-events="none" fill="#0E5A8A" style="font-size: 5px; font-family: sans-serif; font-weight: bold;">Ondrej Pavlik</text><g transform="scale(0.5)translate(-12 -12)" fill="#FFFFFF" pointer-events="none"><path d="M12 11a3 3 0 100-6 3 3 0 000 6zm0 1a4 4 0 110-8 4 4 0 010 8z"/><path d="M12 23c6.075 0 11-4.925 11-11S18.075 1 12 1 1 5.925 1 12s4.925 11 11 11zm0 1C5.373 24 0 18.627 0 12S5.373 0 12 0s12 5.373 12 12-5.373 12-12 12z"/><path d="M6.26 22.541L6 22.399V16a4 4 0 014-4h4a4 4 0 014 4v6.399l-.26.142A11.946 11.946 0 0112 24c-2.022 0-3.984-.5-5.74-1.459zm.74-.74C8.541 22.589 10.245 23 12 23s3.459-.41 5-1.2V16a3 3 0 00-3-3h-4a3 3 0 00-3 3v5.8z"/></g></g><g class="vertex" transform="translate(-80 420)" style="cursor: pointer; pointer-events: auto;"><circle class="handle" r="10" fill="#A66321" stroke="none"/><text x="0" y="15" text-anchor="middle" alignment-baseline="middle" filter="url(#solid)" pointer-events="none" fill="#A66321" style="font-size: 5px; font-family: sans-serif; font-weight: bold;">SIA DB Partners</text><g transform="scale(0.5)translate(-12 -12)" fill="#FFFFFF" pointer-events="none"><path d="M1 5v18h7V5H1zm0-1h8v20H1a1 1 0 01-1-1V5a1 1 0 011-1z"/><path d="M9 22v1h6v-1H9zm-1-1h8v3H8v-3z"/><path d="M9 1v20h6V1H9zm0-1h6a1 1 0 011 1v21H8V1a1 1 0 011-1z"/><path d="M11 3v1h2V3h-2zm0-1h2a1 1 0 011 1v1a1 1 0 01-1 1h-2a1 1 0 01-1-1V3a1 1 0 011-1zM11 7v1h2V7h-2zm0-1h2a1 1 0 011 1v1a1 1 0 01-1 1h-2a1 1 0 01-1-1V7a1 1 0 011-1zM11 11v1h2v-1h-2zm0-1h2a1 1 0 011 1v1a1 1 0 01-1 1h-2a1 1 0 01-1-1v-1a1 1 0 011-1zM3 8h1V7H3v1zm0-2h1a1 1 0 011 1v1a1 1 0 01-1 1H3a1 1 0 01-1-1V7a1 1 0 011-1zM7 8h1V7H7v1zm0-2h1a1 1 0 011 1v1a1 1 0 01-1 1H7a1 1 0 01-1-1V7a1 1 0 011-1zM3 12h1v-1H3v1zm0-2h1a1 1 0 011 1v1a1 1 0 01-1 1H3a1 1 0 01-1-1v-1a1 1 0 011-1zM7 12h1v-1H7v1zm0-2h1a1 1 0 011 1v1a1 1 0 01-1 1H7a1 1 0 01-1-1v-1a1 1 0 011-1zM3 16h1v-1H3v1zm0-2h1a1 1 0 011 1v1a1 1 0 01-1 1H3a1 1 0 01-1-1v-1a1 1 0 011-1zM7 16h1v-1H7v1zm0-2h1a1 1 0 011 1v1a1 1 0 01-1 1H7a1 1 0 01-1-1v-1a1 1 0 011-1zM3 20h1v-1H3v1zm0-2h1a1 1 0 011 1v1a1 1 0 01-1 1H3a1 1 0 01-1-1v-1a1 1 0 011-1zM7 20h1v-1H7v1zm0-2h1a1 1 0 011 1v1a1 1 0 01-1 1H7a1 1 0 01-1-1v-1a1 1 0 011-1zM16 20h1v-1h-1v1zm0-2h1a1 1 0 011 1v1a1 1 0 01-1 1h-1a1 1 0 01-1-1v-1a1 1 0 011-1zM20 20h1v-1h-1v1zm0-2h1a1 1 0 011 1v1a1 1 0 01-1 1h-1a1 1 0 01-1-1v-1a1 1 0 011-1zM20 16h1v-1h-1v1zm0-2h1a1 1 0 011 1v1a1 1 0 01-1 1h-1a1 1 0 01-1-1v-1a1 1 0 011-1zM16 16h1v-1h-1v1zm0-2h1a1 1 0 011 1v1a1 1 0 01-1 1h-1a1 1 0 01-1-1v-1a1 1 0 011-1zM16 12h1v-1h-1v1zm0-2h1a1 1 0 011 1v1a1 1 0 01-1 1h-1a1 1 0 01-1-1v-1a1 1 0 011-1zM20 12h1v-1h-1v1zm0-2h1a1 1 0 011 1v1a1 1 0 01-1 1h-1a1 1 0 01-1-1v-1a1 1 0 011-1zM20 8h1V7h-1v1zm0-2h1a1 1 0 011 1v1a1 1 0 01-1 1h-1a1 1 0 01-1-1V7a1 1 0 011-1zM16 8h1V7h-1v1zm0-2h1a1 1 0 011 1v1a1 1 0 01-1 1h-1a1 1 0 01-1-1V7a1 1 0 011-1zM11 15v1h2v-1h-2zm0-1h2a1 1 0 011 1v1a1 1 0 01-1 1h-2a1 1 0 01-1-1v-1a1 1 0 011-1zM11 19v2h2v-2h-2zm0-1h2a1 1 0 011 1v3h-4v-3a1 1 0 011-1z"/><path d="M16 5v18h7V5h-7zm0-1h7a1 1 0 011 1v18a1 1 0 01-1 1h-8V5a1 1 0 011-1z"/></g></g><g class="vertex" transform="translate(-150 340)" style="cursor: pointer; pointer-events: auto;"><circle class="handle" r="10" fill="#0E5A8A" stroke="none"/><text x="0" y="15" text-anchor="middle" alignment-baseline="middle" filter="url(#solid)" pointer-events="none" fill="#0E5A8A" style="font-size: 5px; font-family: sans-serif; font-weight: bold;">Dainis Babulis</text><g transform="scale(0.5)translate(-12 -12)" fill="#FFFFFF" pointer-events="none"><path d="M12 11a3 3 0 100-6 3 3 0 000 6zm0 1a4 4 0 110-8 4 4 0 010 8z"/><path d="M12 23c6.075 0 11-4.925 11-11S18.075 1 12 1 1 5.925 1 12s4.925 11 11 11zm0 1C5.373 24 0 18.627 0 12S5.373 0 12 0s12 5.373 12 12-5.373 12-12 12z"/><path d="M6.26 22.541L6 22.399V16a4 4 0 014-4h4a4 4 0 014 4v6.399l-.26.142A11.946 11.946 0 0112 24c-2.022 0-3.984-.5-5.74-1.459zm.74-.74C8.541 22.589 10.245 23 12 23s3.459-.41 5-1.2V16a3 3 0 00-3-3h-4a3 3 0 00-3 3v5.8z"/></g></g><g class="vertex" transform="translate(-160 400)" style="cursor: pointer; pointer-events: auto;"><circle class="handle" r="10" fill="#0E5A8A" stroke="none"/><text x="0" y="15" text-anchor="middle" alignment-baseline="middle" filter="url(#solid)" pointer-events="none" fill="#0E5A8A" style="font-size: 5px; font-family: sans-serif; font-weight: bold;">Olafs Švanks</text><g transform="scale(0.5)translate(-12 -12)" fill="#FFFFFF" pointer-events="none"><path d="M12 11a3 3 0 100-6 3 3 0 000 6zm0 1a4 4 0 110-8 4 4 0 010 8z"/><path d="M12 23c6.075 0 11-4.925 11-11S18.075 1 12 1 1 5.925 1 12s4.925 11 11 11zm0 1C5.373 24 0 18.627 0 12S5.373 0 12 0s12 5.373 12 12-5.373 12-12 12z"/><path d="M6.26 22.541L6 22.399V16a4 4 0 014-4h4a4 4 0 014 4v6.399l-.26.142A11.946 11.946 0 0112 24c-2.022 0-3.984-.5-5.74-1.459zm.74-.74C8.541 22.589 10.245 23 12 23s3.459-.41 5-1.2V16a3 3 0 00-3-3h-4a3 3 0 00-3 3v5.8z"/></g></g><g class="vertex" transform="translate(-160 450)" style="cursor: pointer; pointer-events: auto;"><circle class="handle" r="10" fill="#0E5A8A" stroke="none"/><text x="0" y="15" text-anchor="middle" alignment-baseline="middle" filter="url(#solid)" pointer-events="none" fill="#0E5A8A" style="font-size: 5px; font-family: sans-serif; font-weight: bold;">Māris Blumbergs</text><g transform="scale(0.5)translate(-12 -12)" fill="#FFFFFF" pointer-events="none"><path d="M12 11a3 3 0 100-6 3 3 0 000 6zm0 1a4 4 0 110-8 4 4 0 010 8z"/><path d="M12 23c6.075 0 11-4.925 11-11S18.075 1 12 1 1 5.925 1 12s4.925 11 11 11zm0 1C5.373 24 0 18.627 0 12S5.373 0 12 0s12 5.373 12 12-5.373 12-12 12z"/><path d="M6.26 22.541L6 22.399V16a4 4 0 014-4h4a4 4 0 014 4v6.399l-.26.142A11.946 11.946 0 0112 24c-2.022 0-3.984-.5-5.74-1.459zm.74-.74C8.541 22.589 10.245 23 12 23s3.459-.41 5-1.2V16a3 3 0 00-3-3h-4a3 3 0 00-3 3v5.8z"/></g></g><g class="vertex" transform="translate(20 320)" style="cursor: pointer; pointer-events: auto;"><circle class="handle" r="10" fill="#0E5A8A" stroke="none"/><text x="0" y="15" text-anchor="middle" alignment-baseline="middle" filter="url(#solid)" pointer-events="none" fill="#0E5A8A" style="font-size: 5px; font-family: sans-serif; font-weight: bold;">Jānis Grīnbergs</text><g transform="scale(0.5)translate(-12 -12)" fill="#FFFFFF" pointer-events="none"><path d="M12 11a3 3 0 100-6 3 3 0 000 6zm0 1a4 4 0 110-8 4 4 0 010 8z"/><path d="M12 23c6.075 0 11-4.925 11-11S18.075 1 12 1 1 5.925 1 12s4.925 11 11 11zm0 1C5.373 24 0 18.627 0 12S5.373 0 12 0s12 5.373 12 12-5.373 12-12 12z"/><path d="M6.26 22.541L6 22.399V16a4 4 0 014-4h4a4 4 0 014 4v6.399l-.26.142A11.946 11.946 0 0112 24c-2.022 0-3.984-.5-5.74-1.459zm.74-.74C8.541 22.589 10.245 23 12 23s3.459-.41 5-1.2V16a3 3 0 00-3-3h-4a3 3 0 00-3 3v5.8z"/></g></g><g class="vertex" transform="translate(-60 370)" style="cursor: pointer; pointer-events: auto;"><circle class="handle" r="10" fill="#A66321" stroke="none"/><text x="0" y="15" text-anchor="middle" alignment-baseline="middle" filter="url(#solid)" pointer-events="none" fill="#A66321" style="font-size: 5px; font-family: sans-serif; font-weight: bold;">SIA BDK</text><g transform="scale(0.5)translate(-12 -12)" fill="#FFFFFF" pointer-events="none"><path d="M1 5v18h7V5H1zm0-1h8v20H1a1 1 0 01-1-1V5a1 1 0 011-1z"/><path d="M9 22v1h6v-1H9zm-1-1h8v3H8v-3z"/><path d="M9 1v20h6V1H9zm0-1h6a1 1 0 011 1v21H8V1a1 1 0 011-1z"/><path d="M11 3v1h2V3h-2zm0-1h2a1 1 0 011 1v1a1 1 0 01-1 1h-2a1 1 0 01-1-1V3a1 1 0 011-1zM11 7v1h2V7h-2zm0-1h2a1 1 0 011 1v1a1 1 0 01-1 1h-2a1 1 0 01-1-1V7a1 1 0 011-1zM11 11v1h2v-1h-2zm0-1h2a1 1 0 011 1v1a1 1 0 01-1 1h-2a1 1 0 01-1-1v-1a1 1 0 011-1zM3 8h1V7H3v1zm0-2h1a1 1 0 011 1v1a1 1 0 01-1 1H3a1 1 0 01-1-1V7a1 1 0 011-1zM7 8h1V7H7v1zm0-2h1a1 1 0 011 1v1a1 1 0 01-1 1H7a1 1 0 01-1-1V7a1 1 0 011-1zM3 12h1v-1H3v1zm0-2h1a1 1 0 011 1v1a1 1 0 01-1 1H3a1 1 0 01-1-1v-1a1 1 0 011-1zM7 12h1v-1H7v1zm0-2h1a1 1 0 011 1v1a1 1 0 01-1 1H7a1 1 0 01-1-1v-1a1 1 0 011-1zM3 16h1v-1H3v1zm0-2h1a1 1 0 011 1v1a1 1 0 01-1 1H3a1 1 0 01-1-1v-1a1 1 0 011-1zM7 16h1v-1H7v1zm0-2h1a1 1 0 011 1v1a1 1 0 01-1 1H7a1 1 0 01-1-1v-1a1 1 0 011-1zM3 20h1v-1H3v1zm0-2h1a1 1 0 011 1v1a1 1 0 01-1 1H3a1 1 0 01-1-1v-1a1 1 0 011-1zM7 20h1v-1H7v1zm0-2h1a1 1 0 011 1v1a1 1 0 01-1 1H7a1 1 0 01-1-1v-1a1 1 0 011-1zM16 20h1v-1h-1v1zm0-2h1a1 1 0 011 1v1a1 1 0 01-1 1h-1a1 1 0 01-1-1v-1a1 1 0 011-1zM20 20h1v-1h-1v1zm0-2h1a1 1 0 011 1v1a1 1 0 01-1 1h-1a1 1 0 01-1-1v-1a1 1 0 011-1zM20 16h1v-1h-1v1zm0-2h1a1 1 0 011 1v1a1 1 0 01-1 1h-1a1 1 0 01-1-1v-1a1 1 0 011-1zM16 16h1v-1h-1v1zm0-2h1a1 1 0 011 1v1a1 1 0 01-1 1h-1a1 1 0 01-1-1v-1a1 1 0 011-1zM16 12h1v-1h-1v1zm0-2h1a1 1 0 011 1v1a1 1 0 01-1 1h-1a1 1 0 01-1-1v-1a1 1 0 011-1zM20 12h1v-1h-1v1zm0-2h1a1 1 0 011 1v1a1 1 0 01-1 1h-1a1 1 0 01-1-1v-1a1 1 0 011-1zM20 8h1V7h-1v1zm0-2h1a1 1 0 011 1v1a1 1 0 01-1 1h-1a1 1 0 01-1-1V7a1 1 0 011-1zM16 8h1V7h-1v1zm0-2h1a1 1 0 011 1v1a1 1 0 01-1 1h-1a1 1 0 01-1-1V7a1 1 0 011-1zM11 15v1h2v-1h-2zm0-1h2a1 1 0 011 1v1a1 1 0 01-1 1h-2a1 1 0 01-1-1v-1a1 1 0 011-1zM11 19v2h2v-2h-2zm0-1h2a1 1 0 011 1v3h-4v-3a1 1 0 011-1z"/><path d="M16 5v18h7V5h-7zm0-1h7a1 1 0 011 1v18a1 1 0 01-1 1h-8V5a1 1 0 011-1z"/></g></g><g class="vertex" transform="translate(-70 320)" style="cursor: pointer; pointer-events: auto;"><circle class="handle" r="10" fill="#0E5A8A" stroke="none"/><text x="0" y="15" text-anchor="middle" alignment-baseline="middle" filter="url(#solid)" pointer-events="none" fill="#0E5A8A" style="font-size: 5px; font-family: sans-serif; font-weight: bold;">Maija Branta</text><g transform="scale(0.5)translate(-12 -12)" fill="#FFFFFF" pointer-events="none"><path d="M12 11a3 3 0 100-6 3 3 0 000 6zm0 1a4 4 0 110-8 4 4 0 010 8z"/><path d="M12 23c6.075 0 11-4.925 11-11S18.075 1 12 1 1 5.925 1 12s4.925 11 11 11zm0 1C5.373 24 0 18.627 0 12S5.373 0 12 0s12 5.373 12 12-5.373 12-12 12z"/><path d="M6.26 22.541L6 22.399V16a4 4 0 014-4h4a4 4 0 014 4v6.399l-.26.142A11.946 11.946 0 0112 24c-2.022 0-3.984-.5-5.74-1.459zm.74-.74C8.541 22.589 10.245 23 12 23s3.459-.41 5-1.2V16a3 3 0 00-3-3h-4a3 3 0 00-3 3v5.8z"/></g></g><g class="vertex" transform="translate(-10 420)" style="cursor: pointer; pointer-events: auto;"><circle class="handle" r="10" fill="#A66321" stroke="none"/><text x="0" y="15" text-anchor="middle" alignment-baseline="middle" filter="url(#solid)" pointer-events="none" fill="#A66321" style="font-size: 5px; font-family: sans-serif; font-weight: bold;">SIA Endor Investments</text><g transform="scale(0.5)translate(-12 -12)" fill="#FFFFFF" pointer-events="none"><path d="M1 5v18h7V5H1zm0-1h8v20H1a1 1 0 01-1-1V5a1 1 0 011-1z"/><path d="M9 22v1h6v-1H9zm-1-1h8v3H8v-3z"/><path d="M9 1v20h6V1H9zm0-1h6a1 1 0 011 1v21H8V1a1 1 0 011-1z"/><path d="M11 3v1h2V3h-2zm0-1h2a1 1 0 011 1v1a1 1 0 01-1 1h-2a1 1 0 01-1-1V3a1 1 0 011-1zM11 7v1h2V7h-2zm0-1h2a1 1 0 011 1v1a1 1 0 01-1 1h-2a1 1 0 01-1-1V7a1 1 0 011-1zM11 11v1h2v-1h-2zm0-1h2a1 1 0 011 1v1a1 1 0 01-1 1h-2a1 1 0 01-1-1v-1a1 1 0 011-1zM3 8h1V7H3v1zm0-2h1a1 1 0 011 1v1a1 1 0 01-1 1H3a1 1 0 01-1-1V7a1 1 0 011-1zM7 8h1V7H7v1zm0-2h1a1 1 0 011 1v1a1 1 0 01-1 1H7a1 1 0 01-1-1V7a1 1 0 011-1zM3 12h1v-1H3v1zm0-2h1a1 1 0 011 1v1a1 1 0 01-1 1H3a1 1 0 01-1-1v-1a1 1 0 011-1zM7 12h1v-1H7v1zm0-2h1a1 1 0 011 1v1a1 1 0 01-1 1H7a1 1 0 01-1-1v-1a1 1 0 011-1zM3 16h1v-1H3v1zm0-2h1a1 1 0 011 1v1a1 1 0 01-1 1H3a1 1 0 01-1-1v-1a1 1 0 011-1zM7 16h1v-1H7v1zm0-2h1a1 1 0 011 1v1a1 1 0 01-1 1H7a1 1 0 01-1-1v-1a1 1 0 011-1zM3 20h1v-1H3v1zm0-2h1a1 1 0 011 1v1a1 1 0 01-1 1H3a1 1 0 01-1-1v-1a1 1 0 011-1zM7 20h1v-1H7v1zm0-2h1a1 1 0 011 1v1a1 1 0 01-1 1H7a1 1 0 01-1-1v-1a1 1 0 011-1zM16 20h1v-1h-1v1zm0-2h1a1 1 0 011 1v1a1 1 0 01-1 1h-1a1 1 0 01-1-1v-1a1 1 0 011-1zM20 20h1v-1h-1v1zm0-2h1a1 1 0 011 1v1a1 1 0 01-1 1h-1a1 1 0 01-1-1v-1a1 1 0 011-1zM20 16h1v-1h-1v1zm0-2h1a1 1 0 011 1v1a1 1 0 01-1 1h-1a1 1 0 01-1-1v-1a1 1 0 011-1zM16 16h1v-1h-1v1zm0-2h1a1 1 0 011 1v1a1 1 0 01-1 1h-1a1 1 0 01-1-1v-1a1 1 0 011-1zM16 12h1v-1h-1v1zm0-2h1a1 1 0 011 1v1a1 1 0 01-1 1h-1a1 1 0 01-1-1v-1a1 1 0 011-1zM20 12h1v-1h-1v1zm0-2h1a1 1 0 011 1v1a1 1 0 01-1 1h-1a1 1 0 01-1-1v-1a1 1 0 011-1zM20 8h1V7h-1v1zm0-2h1a1 1 0 011 1v1a1 1 0 01-1 1h-1a1 1 0 01-1-1V7a1 1 0 011-1zM16 8h1V7h-1v1zm0-2h1a1 1 0 011 1v1a1 1 0 01-1 1h-1a1 1 0 01-1-1V7a1 1 0 011-1zM11 15v1h2v-1h-2zm0-1h2a1 1 0 011 1v1a1 1 0 01-1 1h-2a1 1 0 01-1-1v-1a1 1 0 011-1zM11 19v2h2v-2h-2zm0-1h2a1 1 0 011 1v3h-4v-3a1 1 0 011-1z"/><path d="M16 5v18h7V5h-7zm0-1h7a1 1 0 011 1v18a1 1 0 01-1 1h-8V5a1 1 0 011-1z"/></g></g><g class="vertex" transform="translate(60 420)" style="cursor: pointer; pointer-events: auto;"><circle class="handle" r="10" fill="#0E5A8A" stroke="none"/><text x="0" y="15" text-anchor="middle" alignment-baseline="middle" filter="url(#solid)" pointer-events="none" fill="#0E5A8A" style="font-size: 5px; font-family: sans-serif; font-weight: bold;">Edmunds Krastiņš</text><g transform="scale(0.5)translate(-12 -12)" fill="#FFFFFF" pointer-events="none"><path d="M12 11a3 3 0 100-6 3 3 0 000 6zm0 1a4 4 0 110-8 4 4 0 010 8z"/><path d="M12 23c6.075 0 11-4.925 11-11S18.075 1 12 1 1 5.925 1 12s4.925 11 11 11zm0 1C5.373 24 0 18.627 0 12S5.373 0 12 0s12 5.373 12 12-5.373 12-12 12z"/><path d="M6.26 22.541L6 22.399V16a4 4 0 014-4h4a4 4 0 014 4v6.399l-.26.142A11.946 11.946 0 0112 24c-2.022 0-3.984-.5-5.74-1.459zm.74-.74C8.541 22.589 10.245 23 12 23s3.459-.41 5-1.2V16a3 3 0 00-3-3h-4a3 3 0 00-3 3v5.8z"/></g></g><g class="vertex" transform="translate(20 380)" style="cursor: pointer; pointer-events: auto;"><circle class="handle" r="10" fill="#A66321" stroke="none"/><text x="0" y="15" text-anchor="middle" alignment-baseline="middle" filter="url(#solid)" pointer-events="none" fill="#A66321" style="font-size: 5px; font-family: sans-serif; font-weight: bold;">SIA DP Management</text><g transform="scale(0.5)translate(-12 -12)" fill="#FFFFFF" pointer-events="none"><path d="M1 5v18h7V5H1zm0-1h8v20H1a1 1 0 01-1-1V5a1 1 0 011-1z"/><path d="M9 22v1h6v-1H9zm-1-1h8v3H8v-3z"/><path d="M9 1v20h6V1H9zm0-1h6a1 1 0 011 1v21H8V1a1 1 0 011-1z"/><path d="M11 3v1h2V3h-2zm0-1h2a1 1 0 011 1v1a1 1 0 01-1 1h-2a1 1 0 01-1-1V3a1 1 0 011-1zM11 7v1h2V7h-2zm0-1h2a1 1 0 011 1v1a1 1 0 01-1 1h-2a1 1 0 01-1-1V7a1 1 0 011-1zM11 11v1h2v-1h-2zm0-1h2a1 1 0 011 1v1a1 1 0 01-1 1h-2a1 1 0 01-1-1v-1a1 1 0 011-1zM3 8h1V7H3v1zm0-2h1a1 1 0 011 1v1a1 1 0 01-1 1H3a1 1 0 01-1-1V7a1 1 0 011-1zM7 8h1V7H7v1zm0-2h1a1 1 0 011 1v1a1 1 0 01-1 1H7a1 1 0 01-1-1V7a1 1 0 011-1zM3 12h1v-1H3v1zm0-2h1a1 1 0 011 1v1a1 1 0 01-1 1H3a1 1 0 01-1-1v-1a1 1 0 011-1zM7 12h1v-1H7v1zm0-2h1a1 1 0 011 1v1a1 1 0 01-1 1H7a1 1 0 01-1-1v-1a1 1 0 011-1zM3 16h1v-1H3v1zm0-2h1a1 1 0 011 1v1a1 1 0 01-1 1H3a1 1 0 01-1-1v-1a1 1 0 011-1zM7 16h1v-1H7v1zm0-2h1a1 1 0 011 1v1a1 1 0 01-1 1H7a1 1 0 01-1-1v-1a1 1 0 011-1zM3 20h1v-1H3v1zm0-2h1a1 1 0 011 1v1a1 1 0 01-1 1H3a1 1 0 01-1-1v-1a1 1 0 011-1zM7 20h1v-1H7v1zm0-2h1a1 1 0 011 1v1a1 1 0 01-1 1H7a1 1 0 01-1-1v-1a1 1 0 011-1zM16 20h1v-1h-1v1zm0-2h1a1 1 0 011 1v1a1 1 0 01-1 1h-1a1 1 0 01-1-1v-1a1 1 0 011-1zM20 20h1v-1h-1v1zm0-2h1a1 1 0 011 1v1a1 1 0 01-1 1h-1a1 1 0 01-1-1v-1a1 1 0 011-1zM20 16h1v-1h-1v1zm0-2h1a1 1 0 011 1v1a1 1 0 01-1 1h-1a1 1 0 01-1-1v-1a1 1 0 011-1zM16 16h1v-1h-1v1zm0-2h1a1 1 0 011 1v1a1 1 0 01-1 1h-1a1 1 0 01-1-1v-1a1 1 0 011-1zM16 12h1v-1h-1v1zm0-2h1a1 1 0 011 1v1a1 1 0 01-1 1h-1a1 1 0 01-1-1v-1a1 1 0 011-1zM20 12h1v-1h-1v1zm0-2h1a1 1 0 011 1v1a1 1 0 01-1 1h-1a1 1 0 01-1-1v-1a1 1 0 011-1zM20 8h1V7h-1v1zm0-2h1a1 1 0 011 1v1a1 1 0 01-1 1h-1a1 1 0 01-1-1V7a1 1 0 011-1zM16 8h1V7h-1v1zm0-2h1a1 1 0 011 1v1a1 1 0 01-1 1h-1a1 1 0 01-1-1V7a1 1 0 011-1zM11 15v1h2v-1h-2zm0-1h2a1 1 0 011 1v1a1 1 0 01-1 1h-2a1 1 0 01-1-1v-1a1 1 0 011-1zM11 19v2h2v-2h-2zm0-1h2a1 1 0 011 1v3h-4v-3a1 1 0 011-1z"/><path d="M16 5v18h7V5h-7zm0-1h7a1 1 0 011 1v18a1 1 0 01-1 1h-8V5a1 1 0 011-1z"/></g></g><g class="vertex" transform="translate(-170 100)" style="cursor: pointer; pointer-events: auto;"><circle class="handle" r="10" fill="#A66321" stroke="none"/><text x="0" y="15" text-anchor="middle" alignment-baseline="middle" filter="url(#solid)" pointer-events="none" fill="#A66321" style="font-size: 5px; font-family: sans-serif; font-weight: bold;">NPK EXPERT INTERNATIONAL LTD</text><g transform="scale(0.5)translate(-12 -12)" fill="#FFFFFF" pointer-events="none"><path d="M1 5v18h7V5H1zm0-1h8v20H1a1 1 0 01-1-1V5a1 1 0 011-1z"/><path d="M9 22v1h6v-1H9zm-1-1h8v3H8v-3z"/><path d="M9 1v20h6V1H9zm0-1h6a1 1 0 011 1v21H8V1a1 1 0 011-1z"/><path d="M11 3v1h2V3h-2zm0-1h2a1 1 0 011 1v1a1 1 0 01-1 1h-2a1 1 0 01-1-1V3a1 1 0 011-1zM11 7v1h2V7h-2zm0-1h2a1 1 0 011 1v1a1 1 0 01-1 1h-2a1 1 0 01-1-1V7a1 1 0 011-1zM11 11v1h2v-1h-2zm0-1h2a1 1 0 011 1v1a1 1 0 01-1 1h-2a1 1 0 01-1-1v-1a1 1 0 011-1zM3 8h1V7H3v1zm0-2h1a1 1 0 011 1v1a1 1 0 01-1 1H3a1 1 0 01-1-1V7a1 1 0 011-1zM7 8h1V7H7v1zm0-2h1a1 1 0 011 1v1a1 1 0 01-1 1H7a1 1 0 01-1-1V7a1 1 0 011-1zM3 12h1v-1H3v1zm0-2h1a1 1 0 011 1v1a1 1 0 01-1 1H3a1 1 0 01-1-1v-1a1 1 0 011-1zM7 12h1v-1H7v1zm0-2h1a1 1 0 011 1v1a1 1 0 01-1 1H7a1 1 0 01-1-1v-1a1 1 0 011-1zM3 16h1v-1H3v1zm0-2h1a1 1 0 011 1v1a1 1 0 01-1 1H3a1 1 0 01-1-1v-1a1 1 0 011-1zM7 16h1v-1H7v1zm0-2h1a1 1 0 011 1v1a1 1 0 01-1 1H7a1 1 0 01-1-1v-1a1 1 0 011-1zM3 20h1v-1H3v1zm0-2h1a1 1 0 011 1v1a1 1 0 01-1 1H3a1 1 0 01-1-1v-1a1 1 0 011-1zM7 20h1v-1H7v1zm0-2h1a1 1 0 011 1v1a1 1 0 01-1 1H7a1 1 0 01-1-1v-1a1 1 0 011-1zM16 20h1v-1h-1v1zm0-2h1a1 1 0 011 1v1a1 1 0 01-1 1h-1a1 1 0 01-1-1v-1a1 1 0 011-1zM20 20h1v-1h-1v1zm0-2h1a1 1 0 011 1v1a1 1 0 01-1 1h-1a1 1 0 01-1-1v-1a1 1 0 011-1zM20 16h1v-1h-1v1zm0-2h1a1 1 0 011 1v1a1 1 0 01-1 1h-1a1 1 0 01-1-1v-1a1 1 0 011-1zM16 16h1v-1h-1v1zm0-2h1a1 1 0 011 1v1a1 1 0 01-1 1h-1a1 1 0 01-1-1v-1a1 1 0 011-1zM16 12h1v-1h-1v1zm0-2h1a1 1 0 011 1v1a1 1 0 01-1 1h-1a1 1 0 01-1-1v-1a1 1 0 011-1zM20 12h1v-1h-1v1zm0-2h1a1 1 0 011 1v1a1 1 0 01-1 1h-1a1 1 0 01-1-1v-1a1 1 0 011-1zM20 8h1V7h-1v1zm0-2h1a1 1 0 011 1v1a1 1 0 01-1 1h-1a1 1 0 01-1-1V7a1 1 0 011-1zM16 8h1V7h-1v1zm0-2h1a1 1 0 011 1v1a1 1 0 01-1 1h-1a1 1 0 01-1-1V7a1 1 0 011-1zM11 15v1h2v-1h-2zm0-1h2a1 1 0 011 1v1a1 1 0 01-1 1h-2a1 1 0 01-1-1v-1a1 1 0 011-1zM11 19v2h2v-2h-2zm0-1h2a1 1 0 011 1v3h-4v-3a1 1 0 011-1z"/><path d="M16 5v18h7V5h-7zm0-1h7a1 1 0 011 1v18a1 1 0 01-1 1h-8V5a1 1 0 011-1z"/></g></g><g class="vertex" transform="translate(-170 10)" style="cursor: pointer; pointer-events: auto;"><circle class="handle" r="10" fill="#A82A2A" stroke="none"/><text x="0" y="15" text-anchor="middle" alignment-baseline="middle" filter="url(#solid)" pointer-events="none" fill="#A82A2A" style="font-size: 5px; font-family: sans-serif; font-weight: bold;">Fertilizer</text><g transform="scale(0.5)translate(-12 -12)" fill="#FFFFFF" pointer-events="none"><path d="M17 21v-6l1-1v7a1 1 0 01-1 1H3a1 1 0 01-1-1V1a1 1 0 011-1h14a1 1 0 011 1v9l-1 1V1H3v20h14z"/><path d="M4.917 3.5a.5.5 0 01.5-.5h9.166a.5.5 0 110 1H5.417a.5.5 0 01-.5-.5zM4.917 6.5a.5.5 0 01.5-.5h9.166a.5.5 0 110 1H5.417a.5.5 0 01-.5-.5zM4.917 9.5a.5.5 0 01.5-.5h9.166a.5.5 0 110 1H5.417a.5.5 0 01-.5-.5zM6.415 16.282c-.103.224-.21.464-.344.77l-.267.612a59.71 59.71 0 01-.058.13.497.497 0 01-.66.254.503.503 0 01-.253-.661l.055-.124.267-.613c.137-.311.246-.556.352-.786.437-.95.774-1.554 1.106-1.906.608-.645 1.326-.452 1.638.463.108.317.191.635.263.986.047.226.085.443.148.82.142.811.338.825 1.338.825h3.526c.262 0 .474.212.474.474a.49.49 0 01-.474.49c-2.675.092-4.107.138-4.296.138-1.002 0-1.336-.518-1.553-1.754-.184-1.057-.21-1.177-.372-1.656a3.157 3.157 0 00-.015-.042c-.225.268-.512.793-.875 1.58z"/><path d="M15 23v-2h1v2a1 1 0 01-1 1H1a1 1 0 01-1-1V3a1 1 0 011-1h2v1H1v20h14z"/><path d="M13.293 14l7.5-7.5a1 1 0 011.414 0L23.5 7.793a1 1 0 010 1.414l-7.5 7.5a1 1 0 01-.707.293H13v-2.293a1 1 0 01.293-.707zM14 16h1.293l7.5-7.5L21.5 7.207l-7.5 7.5V16z"/></g></g><g class="vertex" transform="translate(20 160)" style="cursor: pointer; pointer-events: auto;"><circle class="handle" r="10" fill="#A66321" stroke="none"/><text x="0" y="15" text-anchor="middle" alignment-baseline="middle" filter="url(#solid)" pointer-events="none" fill="#A66321" style="font-size: 5px; font-family: sans-serif; font-weight: bold;">Fertilizer Group AS</text><g transform="scale(0.5)translate(-12 -12)" fill="#FFFFFF" pointer-events="none"><path d="M1 5v18h7V5H1zm0-1h8v20H1a1 1 0 01-1-1V5a1 1 0 011-1z"/><path d="M9 22v1h6v-1H9zm-1-1h8v3H8v-3z"/><path d="M9 1v20h6V1H9zm0-1h6a1 1 0 011 1v21H8V1a1 1 0 011-1z"/><path d="M11 3v1h2V3h-2zm0-1h2a1 1 0 011 1v1a1 1 0 01-1 1h-2a1 1 0 01-1-1V3a1 1 0 011-1zM11 7v1h2V7h-2zm0-1h2a1 1 0 011 1v1a1 1 0 01-1 1h-2a1 1 0 01-1-1V7a1 1 0 011-1zM11 11v1h2v-1h-2zm0-1h2a1 1 0 011 1v1a1 1 0 01-1 1h-2a1 1 0 01-1-1v-1a1 1 0 011-1zM3 8h1V7H3v1zm0-2h1a1 1 0 011 1v1a1 1 0 01-1 1H3a1 1 0 01-1-1V7a1 1 0 011-1zM7 8h1V7H7v1zm0-2h1a1 1 0 011 1v1a1 1 0 01-1 1H7a1 1 0 01-1-1V7a1 1 0 011-1zM3 12h1v-1H3v1zm0-2h1a1 1 0 011 1v1a1 1 0 01-1 1H3a1 1 0 01-1-1v-1a1 1 0 011-1zM7 12h1v-1H7v1zm0-2h1a1 1 0 011 1v1a1 1 0 01-1 1H7a1 1 0 01-1-1v-1a1 1 0 011-1zM3 16h1v-1H3v1zm0-2h1a1 1 0 011 1v1a1 1 0 01-1 1H3a1 1 0 01-1-1v-1a1 1 0 011-1zM7 16h1v-1H7v1zm0-2h1a1 1 0 011 1v1a1 1 0 01-1 1H7a1 1 0 01-1-1v-1a1 1 0 011-1zM3 20h1v-1H3v1zm0-2h1a1 1 0 011 1v1a1 1 0 01-1 1H3a1 1 0 01-1-1v-1a1 1 0 011-1zM7 20h1v-1H7v1zm0-2h1a1 1 0 011 1v1a1 1 0 01-1 1H7a1 1 0 01-1-1v-1a1 1 0 011-1zM16 20h1v-1h-1v1zm0-2h1a1 1 0 011 1v1a1 1 0 01-1 1h-1a1 1 0 01-1-1v-1a1 1 0 011-1zM20 20h1v-1h-1v1zm0-2h1a1 1 0 011 1v1a1 1 0 01-1 1h-1a1 1 0 01-1-1v-1a1 1 0 011-1zM20 16h1v-1h-1v1zm0-2h1a1 1 0 011 1v1a1 1 0 01-1 1h-1a1 1 0 01-1-1v-1a1 1 0 011-1zM16 16h1v-1h-1v1zm0-2h1a1 1 0 011 1v1a1 1 0 01-1 1h-1a1 1 0 01-1-1v-1a1 1 0 011-1zM16 12h1v-1h-1v1zm0-2h1a1 1 0 011 1v1a1 1 0 01-1 1h-1a1 1 0 01-1-1v-1a1 1 0 011-1zM20 12h1v-1h-1v1zm0-2h1a1 1 0 011 1v1a1 1 0 01-1 1h-1a1 1 0 01-1-1v-1a1 1 0 011-1zM20 8h1V7h-1v1zm0-2h1a1 1 0 011 1v1a1 1 0 01-1 1h-1a1 1 0 01-1-1V7a1 1 0 011-1zM16 8h1V7h-1v1zm0-2h1a1 1 0 011 1v1a1 1 0 01-1 1h-1a1 1 0 01-1-1V7a1 1 0 011-1zM11 15v1h2v-1h-2zm0-1h2a1 1 0 011 1v1a1 1 0 01-1 1h-2a1 1 0 01-1-1v-1a1 1 0 011-1zM11 19v2h2v-2h-2zm0-1h2a1 1 0 011 1v3h-4v-3a1 1 0 011-1z"/><path d="M16 5v18h7V5h-7zm0-1h7a1 1 0 011 1v18a1 1 0 01-1 1h-8V5a1 1 0 011-1z"/></g></g><g class="vertex" transform="translate(-320 250)" style="cursor: pointer; pointer-events: auto;"><circle class="handle" r="10" fill="#008075" stroke="none"/><text x="0" y="15" text-anchor="middle" alignment-baseline="middle" filter="url(#solid)" pointer-events="none" fill="#008075" style="font-size: 5px; font-family: sans-serif; font-weight: bold;">Artūrs Geisari</text><g transform="scale(0.5)translate(-12 -12)" fill="#FFFFFF" pointer-events="none"><path d="M12 11a3 3 0 100-6 3 3 0 000 6zm0 1a4 4 0 110-8 4 4 0 010 8z"/><path d="M12 23c6.075 0 11-4.925 11-11S18.075 1 12 1 1 5.925 1 12s4.925 11 11 11zm0 1C5.373 24 0 18.627 0 12S5.373 0 12 0s12 5.373 12 12-5.373 12-12 12z"/><path d="M6.26 22.541L6 22.399V16a4 4 0 014-4h4a4 4 0 014 4v6.399l-.26.142A11.946 11.946 0 0112 24c-2.022 0-3.984-.5-5.74-1.459zm.74-.74C8.541 22.589 10.245 23 12 23s3.459-.41 5-1.2V16a3 3 0 00-3-3h-4a3 3 0 00-3 3v5.8z"/></g></g><g class="vertex" transform="translate(-40 110)" style="cursor: pointer; pointer-events: auto;"><circle class="handle" r="10" fill="#A66321" stroke="none"/><text x="0" y="15" text-anchor="middle" alignment-baseline="middle" filter="url(#solid)" pointer-events="none" fill="#A66321" style="font-size: 5px; font-family: sans-serif; font-weight: bold;">SIA BLENDEX</text><g transform="scale(0.5)translate(-12 -12)" fill="#FFFFFF" pointer-events="none"><path d="M1 5v18h7V5H1zm0-1h8v20H1a1 1 0 01-1-1V5a1 1 0 011-1z"/><path d="M9 22v1h6v-1H9zm-1-1h8v3H8v-3z"/><path d="M9 1v20h6V1H9zm0-1h6a1 1 0 011 1v21H8V1a1 1 0 011-1z"/><path d="M11 3v1h2V3h-2zm0-1h2a1 1 0 011 1v1a1 1 0 01-1 1h-2a1 1 0 01-1-1V3a1 1 0 011-1zM11 7v1h2V7h-2zm0-1h2a1 1 0 011 1v1a1 1 0 01-1 1h-2a1 1 0 01-1-1V7a1 1 0 011-1zM11 11v1h2v-1h-2zm0-1h2a1 1 0 011 1v1a1 1 0 01-1 1h-2a1 1 0 01-1-1v-1a1 1 0 011-1zM3 8h1V7H3v1zm0-2h1a1 1 0 011 1v1a1 1 0 01-1 1H3a1 1 0 01-1-1V7a1 1 0 011-1zM7 8h1V7H7v1zm0-2h1a1 1 0 011 1v1a1 1 0 01-1 1H7a1 1 0 01-1-1V7a1 1 0 011-1zM3 12h1v-1H3v1zm0-2h1a1 1 0 011 1v1a1 1 0 01-1 1H3a1 1 0 01-1-1v-1a1 1 0 011-1zM7 12h1v-1H7v1zm0-2h1a1 1 0 011 1v1a1 1 0 01-1 1H7a1 1 0 01-1-1v-1a1 1 0 011-1zM3 16h1v-1H3v1zm0-2h1a1 1 0 011 1v1a1 1 0 01-1 1H3a1 1 0 01-1-1v-1a1 1 0 011-1zM7 16h1v-1H7v1zm0-2h1a1 1 0 011 1v1a1 1 0 01-1 1H7a1 1 0 01-1-1v-1a1 1 0 011-1zM3 20h1v-1H3v1zm0-2h1a1 1 0 011 1v1a1 1 0 01-1 1H3a1 1 0 01-1-1v-1a1 1 0 011-1zM7 20h1v-1H7v1zm0-2h1a1 1 0 011 1v1a1 1 0 01-1 1H7a1 1 0 01-1-1v-1a1 1 0 011-1zM16 20h1v-1h-1v1zm0-2h1a1 1 0 011 1v1a1 1 0 01-1 1h-1a1 1 0 01-1-1v-1a1 1 0 011-1zM20 20h1v-1h-1v1zm0-2h1a1 1 0 011 1v1a1 1 0 01-1 1h-1a1 1 0 01-1-1v-1a1 1 0 011-1zM20 16h1v-1h-1v1zm0-2h1a1 1 0 011 1v1a1 1 0 01-1 1h-1a1 1 0 01-1-1v-1a1 1 0 011-1zM16 16h1v-1h-1v1zm0-2h1a1 1 0 011 1v1a1 1 0 01-1 1h-1a1 1 0 01-1-1v-1a1 1 0 011-1zM16 12h1v-1h-1v1zm0-2h1a1 1 0 011 1v1a1 1 0 01-1 1h-1a1 1 0 01-1-1v-1a1 1 0 011-1zM20 12h1v-1h-1v1zm0-2h1a1 1 0 011 1v1a1 1 0 01-1 1h-1a1 1 0 01-1-1v-1a1 1 0 011-1zM20 8h1V7h-1v1zm0-2h1a1 1 0 011 1v1a1 1 0 01-1 1h-1a1 1 0 01-1-1V7a1 1 0 011-1zM16 8h1V7h-1v1zm0-2h1a1 1 0 011 1v1a1 1 0 01-1 1h-1a1 1 0 01-1-1V7a1 1 0 011-1zM11 15v1h2v-1h-2zm0-1h2a1 1 0 011 1v1a1 1 0 01-1 1h-2a1 1 0 01-1-1v-1a1 1 0 011-1zM11 19v2h2v-2h-2zm0-1h2a1 1 0 011 1v3h-4v-3a1 1 0 011-1z"/><path d="M16 5v18h7V5h-7zm0-1h7a1 1 0 011 1v18a1 1 0 01-1 1h-8V5a1 1 0 011-1z"/></g></g><g class="vertex" transform="translate(-90 140)" style="cursor: pointer; pointer-events: auto;"><circle class="handle" r="10" fill="#A66321" stroke="none"/><text x="0" y="15" text-anchor="middle" alignment-baseline="middle" filter="url(#solid)" pointer-events="none" fill="#A66321" style="font-size: 5px; font-family: sans-serif; font-weight: bold;">Npk Expert International Camer…</text><g transform="scale(0.5)translate(-12 -12)" fill="#FFFFFF" pointer-events="none"><path d="M1 5v18h7V5H1zm0-1h8v20H1a1 1 0 01-1-1V5a1 1 0 011-1z"/><path d="M9 22v1h6v-1H9zm-1-1h8v3H8v-3z"/><path d="M9 1v20h6V1H9zm0-1h6a1 1 0 011 1v21H8V1a1 1 0 011-1z"/><path d="M11 3v1h2V3h-2zm0-1h2a1 1 0 011 1v1a1 1 0 01-1 1h-2a1 1 0 01-1-1V3a1 1 0 011-1zM11 7v1h2V7h-2zm0-1h2a1 1 0 011 1v1a1 1 0 01-1 1h-2a1 1 0 01-1-1V7a1 1 0 011-1zM11 11v1h2v-1h-2zm0-1h2a1 1 0 011 1v1a1 1 0 01-1 1h-2a1 1 0 01-1-1v-1a1 1 0 011-1zM3 8h1V7H3v1zm0-2h1a1 1 0 011 1v1a1 1 0 01-1 1H3a1 1 0 01-1-1V7a1 1 0 011-1zM7 8h1V7H7v1zm0-2h1a1 1 0 011 1v1a1 1 0 01-1 1H7a1 1 0 01-1-1V7a1 1 0 011-1zM3 12h1v-1H3v1zm0-2h1a1 1 0 011 1v1a1 1 0 01-1 1H3a1 1 0 01-1-1v-1a1 1 0 011-1zM7 12h1v-1H7v1zm0-2h1a1 1 0 011 1v1a1 1 0 01-1 1H7a1 1 0 01-1-1v-1a1 1 0 011-1zM3 16h1v-1H3v1zm0-2h1a1 1 0 011 1v1a1 1 0 01-1 1H3a1 1 0 01-1-1v-1a1 1 0 011-1zM7 16h1v-1H7v1zm0-2h1a1 1 0 011 1v1a1 1 0 01-1 1H7a1 1 0 01-1-1v-1a1 1 0 011-1zM3 20h1v-1H3v1zm0-2h1a1 1 0 011 1v1a1 1 0 01-1 1H3a1 1 0 01-1-1v-1a1 1 0 011-1zM7 20h1v-1H7v1zm0-2h1a1 1 0 011 1v1a1 1 0 01-1 1H7a1 1 0 01-1-1v-1a1 1 0 011-1zM16 20h1v-1h-1v1zm0-2h1a1 1 0 011 1v1a1 1 0 01-1 1h-1a1 1 0 01-1-1v-1a1 1 0 011-1zM20 20h1v-1h-1v1zm0-2h1a1 1 0 011 1v1a1 1 0 01-1 1h-1a1 1 0 01-1-1v-1a1 1 0 011-1zM20 16h1v-1h-1v1zm0-2h1a1 1 0 011 1v1a1 1 0 01-1 1h-1a1 1 0 01-1-1v-1a1 1 0 011-1zM16 16h1v-1h-1v1zm0-2h1a1 1 0 011 1v1a1 1 0 01-1 1h-1a1 1 0 01-1-1v-1a1 1 0 011-1zM16 12h1v-1h-1v1zm0-2h1a1 1 0 011 1v1a1 1 0 01-1 1h-1a1 1 0 01-1-1v-1a1 1 0 011-1zM20 12h1v-1h-1v1zm0-2h1a1 1 0 011 1v1a1 1 0 01-1 1h-1a1 1 0 01-1-1v-1a1 1 0 011-1zM20 8h1V7h-1v1zm0-2h1a1 1 0 011 1v1a1 1 0 01-1 1h-1a1 1 0 01-1-1V7a1 1 0 011-1zM16 8h1V7h-1v1zm0-2h1a1 1 0 011 1v1a1 1 0 01-1 1h-1a1 1 0 01-1-1V7a1 1 0 011-1zM11 15v1h2v-1h-2zm0-1h2a1 1 0 011 1v1a1 1 0 01-1 1h-2a1 1 0 01-1-1v-1a1 1 0 011-1zM11 19v2h2v-2h-2zm0-1h2a1 1 0 011 1v3h-4v-3a1 1 0 011-1z"/><path d="M16 5v18h7V5h-7zm0-1h7a1 1 0 011 1v18a1 1 0 01-1 1h-8V5a1 1 0 011-1z"/></g></g><g class="vertex" transform="translate(-370 250)" style="cursor: pointer; pointer-events: auto;"><circle class="handle" r="10" fill="#A66321" stroke="none"/><text x="0" y="15" text-anchor="middle" alignment-baseline="middle" filter="url(#solid)" pointer-events="none" fill="#A66321" style="font-size: 5px; font-family: sans-serif; font-weight: bold;">SIA GEISARI HOLDING</text><g transform="scale(0.5)translate(-12 -12)" fill="#FFFFFF" pointer-events="none"><path d="M1 5v18h7V5H1zm0-1h8v20H1a1 1 0 01-1-1V5a1 1 0 011-1z"/><path d="M9 22v1h6v-1H9zm-1-1h8v3H8v-3z"/><path d="M9 1v20h6V1H9zm0-1h6a1 1 0 011 1v21H8V1a1 1 0 011-1z"/><path d="M11 3v1h2V3h-2zm0-1h2a1 1 0 011 1v1a1 1 0 01-1 1h-2a1 1 0 01-1-1V3a1 1 0 011-1zM11 7v1h2V7h-2zm0-1h2a1 1 0 011 1v1a1 1 0 01-1 1h-2a1 1 0 01-1-1V7a1 1 0 011-1zM11 11v1h2v-1h-2zm0-1h2a1 1 0 011 1v1a1 1 0 01-1 1h-2a1 1 0 01-1-1v-1a1 1 0 011-1zM3 8h1V7H3v1zm0-2h1a1 1 0 011 1v1a1 1 0 01-1 1H3a1 1 0 01-1-1V7a1 1 0 011-1zM7 8h1V7H7v1zm0-2h1a1 1 0 011 1v1a1 1 0 01-1 1H7a1 1 0 01-1-1V7a1 1 0 011-1zM3 12h1v-1H3v1zm0-2h1a1 1 0 011 1v1a1 1 0 01-1 1H3a1 1 0 01-1-1v-1a1 1 0 011-1zM7 12h1v-1H7v1zm0-2h1a1 1 0 011 1v1a1 1 0 01-1 1H7a1 1 0 01-1-1v-1a1 1 0 011-1zM3 16h1v-1H3v1zm0-2h1a1 1 0 011 1v1a1 1 0 01-1 1H3a1 1 0 01-1-1v-1a1 1 0 011-1zM7 16h1v-1H7v1zm0-2h1a1 1 0 011 1v1a1 1 0 01-1 1H7a1 1 0 01-1-1v-1a1 1 0 011-1zM3 20h1v-1H3v1zm0-2h1a1 1 0 011 1v1a1 1 0 01-1 1H3a1 1 0 01-1-1v-1a1 1 0 011-1zM7 20h1v-1H7v1zm0-2h1a1 1 0 011 1v1a1 1 0 01-1 1H7a1 1 0 01-1-1v-1a1 1 0 011-1zM16 20h1v-1h-1v1zm0-2h1a1 1 0 011 1v1a1 1 0 01-1 1h-1a1 1 0 01-1-1v-1a1 1 0 011-1zM20 20h1v-1h-1v1zm0-2h1a1 1 0 011 1v1a1 1 0 01-1 1h-1a1 1 0 01-1-1v-1a1 1 0 011-1zM20 16h1v-1h-1v1zm0-2h1a1 1 0 011 1v1a1 1 0 01-1 1h-1a1 1 0 01-1-1v-1a1 1 0 011-1zM16 16h1v-1h-1v1zm0-2h1a1 1 0 011 1v1a1 1 0 01-1 1h-1a1 1 0 01-1-1v-1a1 1 0 011-1zM16 12h1v-1h-1v1zm0-2h1a1 1 0 011 1v1a1 1 0 01-1 1h-1a1 1 0 01-1-1v-1a1 1 0 011-1zM20 12h1v-1h-1v1zm0-2h1a1 1 0 011 1v1a1 1 0 01-1 1h-1a1 1 0 01-1-1v-1a1 1 0 011-1zM20 8h1V7h-1v1zm0-2h1a1 1 0 011 1v1a1 1 0 01-1 1h-1a1 1 0 01-1-1V7a1 1 0 011-1zM16 8h1V7h-1v1zm0-2h1a1 1 0 011 1v1a1 1 0 01-1 1h-1a1 1 0 01-1-1V7a1 1 0 011-1zM11 15v1h2v-1h-2zm0-1h2a1 1 0 011 1v1a1 1 0 01-1 1h-2a1 1 0 01-1-1v-1a1 1 0 011-1zM11 19v2h2v-2h-2zm0-1h2a1 1 0 011 1v3h-4v-3a1 1 0 011-1z"/><path d="M16 5v18h7V5h-7zm0-1h7a1 1 0 011 1v18a1 1 0 01-1 1h-8V5a1 1 0 011-1z"/></g></g><g class="vertex" transform="translate(-450 250)" style="cursor: pointer; pointer-events: auto;"><circle class="handle" r="10" fill="#A66321" stroke="none"/><text x="0" y="15" text-anchor="middle" alignment-baseline="middle" filter="url(#solid)" pointer-events="none" fill="#A66321" style="font-size: 5px; font-family: sans-serif; font-weight: bold;">AS Monify</text><g transform="scale(0.5)translate(-12 -12)" fill="#FFFFFF" pointer-events="none"><path d="M1 5v18h7V5H1zm0-1h8v20H1a1 1 0 01-1-1V5a1 1 0 011-1z"/><path d="M9 22v1h6v-1H9zm-1-1h8v3H8v-3z"/><path d="M9 1v20h6V1H9zm0-1h6a1 1 0 011 1v21H8V1a1 1 0 011-1z"/><path d="M11 3v1h2V3h-2zm0-1h2a1 1 0 011 1v1a1 1 0 01-1 1h-2a1 1 0 01-1-1V3a1 1 0 011-1zM11 7v1h2V7h-2zm0-1h2a1 1 0 011 1v1a1 1 0 01-1 1h-2a1 1 0 01-1-1V7a1 1 0 011-1zM11 11v1h2v-1h-2zm0-1h2a1 1 0 011 1v1a1 1 0 01-1 1h-2a1 1 0 01-1-1v-1a1 1 0 011-1zM3 8h1V7H3v1zm0-2h1a1 1 0 011 1v1a1 1 0 01-1 1H3a1 1 0 01-1-1V7a1 1 0 011-1zM7 8h1V7H7v1zm0-2h1a1 1 0 011 1v1a1 1 0 01-1 1H7a1 1 0 01-1-1V7a1 1 0 011-1zM3 12h1v-1H3v1zm0-2h1a1 1 0 011 1v1a1 1 0 01-1 1H3a1 1 0 01-1-1v-1a1 1 0 011-1zM7 12h1v-1H7v1zm0-2h1a1 1 0 011 1v1a1 1 0 01-1 1H7a1 1 0 01-1-1v-1a1 1 0 011-1zM3 16h1v-1H3v1zm0-2h1a1 1 0 011 1v1a1 1 0 01-1 1H3a1 1 0 01-1-1v-1a1 1 0 011-1zM7 16h1v-1H7v1zm0-2h1a1 1 0 011 1v1a1 1 0 01-1 1H7a1 1 0 01-1-1v-1a1 1 0 011-1zM3 20h1v-1H3v1zm0-2h1a1 1 0 011 1v1a1 1 0 01-1 1H3a1 1 0 01-1-1v-1a1 1 0 011-1zM7 20h1v-1H7v1zm0-2h1a1 1 0 011 1v1a1 1 0 01-1 1H7a1 1 0 01-1-1v-1a1 1 0 011-1zM16 20h1v-1h-1v1zm0-2h1a1 1 0 011 1v1a1 1 0 01-1 1h-1a1 1 0 01-1-1v-1a1 1 0 011-1zM20 20h1v-1h-1v1zm0-2h1a1 1 0 011 1v1a1 1 0 01-1 1h-1a1 1 0 01-1-1v-1a1 1 0 011-1zM20 16h1v-1h-1v1zm0-2h1a1 1 0 011 1v1a1 1 0 01-1 1h-1a1 1 0 01-1-1v-1a1 1 0 011-1zM16 16h1v-1h-1v1zm0-2h1a1 1 0 011 1v1a1 1 0 01-1 1h-1a1 1 0 01-1-1v-1a1 1 0 011-1zM16 12h1v-1h-1v1zm0-2h1a1 1 0 011 1v1a1 1 0 01-1 1h-1a1 1 0 01-1-1v-1a1 1 0 011-1zM20 12h1v-1h-1v1zm0-2h1a1 1 0 011 1v1a1 1 0 01-1 1h-1a1 1 0 01-1-1v-1a1 1 0 011-1zM20 8h1V7h-1v1zm0-2h1a1 1 0 011 1v1a1 1 0 01-1 1h-1a1 1 0 01-1-1V7a1 1 0 011-1zM16 8h1V7h-1v1zm0-2h1a1 1 0 011 1v1a1 1 0 01-1 1h-1a1 1 0 01-1-1V7a1 1 0 011-1zM11 15v1h2v-1h-2zm0-1h2a1 1 0 011 1v1a1 1 0 01-1 1h-2a1 1 0 01-1-1v-1a1 1 0 011-1zM11 19v2h2v-2h-2zm0-1h2a1 1 0 011 1v3h-4v-3a1 1 0 011-1z"/><path d="M16 5v18h7V5h-7zm0-1h7a1 1 0 011 1v18a1 1 0 01-1 1h-8V5a1 1 0 011-1z"/></g></g><g class="vertex" transform="translate(-370 200)" style="cursor: pointer; pointer-events: auto;"><circle class="handle" r="10" fill="#A66321" stroke="none"/><text x="0" y="15" text-anchor="middle" alignment-baseline="middle" filter="url(#solid)" pointer-events="none" fill="#A66321" style="font-size: 5px; font-family: sans-serif; font-weight: bold;">SIA GEISARI PROPERTIES</text><g transform="scale(0.5)translate(-12 -12)" fill="#FFFFFF" pointer-events="none"><path d="M1 5v18h7V5H1zm0-1h8v20H1a1 1 0 01-1-1V5a1 1 0 011-1z"/><path d="M9 22v1h6v-1H9zm-1-1h8v3H8v-3z"/><path d="M9 1v20h6V1H9zm0-1h6a1 1 0 011 1v21H8V1a1 1 0 011-1z"/><path d="M11 3v1h2V3h-2zm0-1h2a1 1 0 011 1v1a1 1 0 01-1 1h-2a1 1 0 01-1-1V3a1 1 0 011-1zM11 7v1h2V7h-2zm0-1h2a1 1 0 011 1v1a1 1 0 01-1 1h-2a1 1 0 01-1-1V7a1 1 0 011-1zM11 11v1h2v-1h-2zm0-1h2a1 1 0 011 1v1a1 1 0 01-1 1h-2a1 1 0 01-1-1v-1a1 1 0 011-1zM3 8h1V7H3v1zm0-2h1a1 1 0 011 1v1a1 1 0 01-1 1H3a1 1 0 01-1-1V7a1 1 0 011-1zM7 8h1V7H7v1zm0-2h1a1 1 0 011 1v1a1 1 0 01-1 1H7a1 1 0 01-1-1V7a1 1 0 011-1zM3 12h1v-1H3v1zm0-2h1a1 1 0 011 1v1a1 1 0 01-1 1H3a1 1 0 01-1-1v-1a1 1 0 011-1zM7 12h1v-1H7v1zm0-2h1a1 1 0 011 1v1a1 1 0 01-1 1H7a1 1 0 01-1-1v-1a1 1 0 011-1zM3 16h1v-1H3v1zm0-2h1a1 1 0 011 1v1a1 1 0 01-1 1H3a1 1 0 01-1-1v-1a1 1 0 011-1zM7 16h1v-1H7v1zm0-2h1a1 1 0 011 1v1a1 1 0 01-1 1H7a1 1 0 01-1-1v-1a1 1 0 011-1zM3 20h1v-1H3v1zm0-2h1a1 1 0 011 1v1a1 1 0 01-1 1H3a1 1 0 01-1-1v-1a1 1 0 011-1zM7 20h1v-1H7v1zm0-2h1a1 1 0 011 1v1a1 1 0 01-1 1H7a1 1 0 01-1-1v-1a1 1 0 011-1zM16 20h1v-1h-1v1zm0-2h1a1 1 0 011 1v1a1 1 0 01-1 1h-1a1 1 0 01-1-1v-1a1 1 0 011-1zM20 20h1v-1h-1v1zm0-2h1a1 1 0 011 1v1a1 1 0 01-1 1h-1a1 1 0 01-1-1v-1a1 1 0 011-1zM20 16h1v-1h-1v1zm0-2h1a1 1 0 011 1v1a1 1 0 01-1 1h-1a1 1 0 01-1-1v-1a1 1 0 011-1zM16 16h1v-1h-1v1zm0-2h1a1 1 0 011 1v1a1 1 0 01-1 1h-1a1 1 0 01-1-1v-1a1 1 0 011-1zM16 12h1v-1h-1v1zm0-2h1a1 1 0 011 1v1a1 1 0 01-1 1h-1a1 1 0 01-1-1v-1a1 1 0 011-1zM20 12h1v-1h-1v1zm0-2h1a1 1 0 011 1v1a1 1 0 01-1 1h-1a1 1 0 01-1-1v-1a1 1 0 011-1zM20 8h1V7h-1v1zm0-2h1a1 1 0 011 1v1a1 1 0 01-1 1h-1a1 1 0 01-1-1V7a1 1 0 011-1zM16 8h1V7h-1v1zm0-2h1a1 1 0 011 1v1a1 1 0 01-1 1h-1a1 1 0 01-1-1V7a1 1 0 011-1zM11 15v1h2v-1h-2zm0-1h2a1 1 0 011 1v1a1 1 0 01-1 1h-2a1 1 0 01-1-1v-1a1 1 0 011-1zM11 19v2h2v-2h-2zm0-1h2a1 1 0 011 1v3h-4v-3a1 1 0 011-1z"/><path d="M16 5v18h7V5h-7zm0-1h7a1 1 0 011 1v18a1 1 0 01-1 1h-8V5a1 1 0 011-1z"/></g></g><g class="vertex" transform="translate(-420 0)" style="cursor: pointer; pointer-events: auto;"><circle class="handle" r="10" fill="#A66321" stroke="none"/><text x="0" y="15" text-anchor="middle" alignment-baseline="middle" filter="url(#solid)" pointer-events="none" fill="#A66321" style="font-size: 5px; font-family: sans-serif; font-weight: bold;">SIA BSR Liepāja</text><g transform="scale(0.5)translate(-12 -12)" fill="#FFFFFF" pointer-events="none"><path d="M1 5v18h7V5H1zm0-1h8v20H1a1 1 0 01-1-1V5a1 1 0 011-1z"/><path d="M9 22v1h6v-1H9zm-1-1h8v3H8v-3z"/><path d="M9 1v20h6V1H9zm0-1h6a1 1 0 011 1v21H8V1a1 1 0 011-1z"/><path d="M11 3v1h2V3h-2zm0-1h2a1 1 0 011 1v1a1 1 0 01-1 1h-2a1 1 0 01-1-1V3a1 1 0 011-1zM11 7v1h2V7h-2zm0-1h2a1 1 0 011 1v1a1 1 0 01-1 1h-2a1 1 0 01-1-1V7a1 1 0 011-1zM11 11v1h2v-1h-2zm0-1h2a1 1 0 011 1v1a1 1 0 01-1 1h-2a1 1 0 01-1-1v-1a1 1 0 011-1zM3 8h1V7H3v1zm0-2h1a1 1 0 011 1v1a1 1 0 01-1 1H3a1 1 0 01-1-1V7a1 1 0 011-1zM7 8h1V7H7v1zm0-2h1a1 1 0 011 1v1a1 1 0 01-1 1H7a1 1 0 01-1-1V7a1 1 0 011-1zM3 12h1v-1H3v1zm0-2h1a1 1 0 011 1v1a1 1 0 01-1 1H3a1 1 0 01-1-1v-1a1 1 0 011-1zM7 12h1v-1H7v1zm0-2h1a1 1 0 011 1v1a1 1 0 01-1 1H7a1 1 0 01-1-1v-1a1 1 0 011-1zM3 16h1v-1H3v1zm0-2h1a1 1 0 011 1v1a1 1 0 01-1 1H3a1 1 0 01-1-1v-1a1 1 0 011-1zM7 16h1v-1H7v1zm0-2h1a1 1 0 011 1v1a1 1 0 01-1 1H7a1 1 0 01-1-1v-1a1 1 0 011-1zM3 20h1v-1H3v1zm0-2h1a1 1 0 011 1v1a1 1 0 01-1 1H3a1 1 0 01-1-1v-1a1 1 0 011-1zM7 20h1v-1H7v1zm0-2h1a1 1 0 011 1v1a1 1 0 01-1 1H7a1 1 0 01-1-1v-1a1 1 0 011-1zM16 20h1v-1h-1v1zm0-2h1a1 1 0 011 1v1a1 1 0 01-1 1h-1a1 1 0 01-1-1v-1a1 1 0 011-1zM20 20h1v-1h-1v1zm0-2h1a1 1 0 011 1v1a1 1 0 01-1 1h-1a1 1 0 01-1-1v-1a1 1 0 011-1zM20 16h1v-1h-1v1zm0-2h1a1 1 0 011 1v1a1 1 0 01-1 1h-1a1 1 0 01-1-1v-1a1 1 0 011-1zM16 16h1v-1h-1v1zm0-2h1a1 1 0 011 1v1a1 1 0 01-1 1h-1a1 1 0 01-1-1v-1a1 1 0 011-1zM16 12h1v-1h-1v1zm0-2h1a1 1 0 011 1v1a1 1 0 01-1 1h-1a1 1 0 01-1-1v-1a1 1 0 011-1zM20 12h1v-1h-1v1zm0-2h1a1 1 0 011 1v1a1 1 0 01-1 1h-1a1 1 0 01-1-1v-1a1 1 0 011-1zM20 8h1V7h-1v1zm0-2h1a1 1 0 011 1v1a1 1 0 01-1 1h-1a1 1 0 01-1-1V7a1 1 0 011-1zM16 8h1V7h-1v1zm0-2h1a1 1 0 011 1v1a1 1 0 01-1 1h-1a1 1 0 01-1-1V7a1 1 0 011-1zM11 15v1h2v-1h-2zm0-1h2a1 1 0 011 1v1a1 1 0 01-1 1h-2a1 1 0 01-1-1v-1a1 1 0 011-1zM11 19v2h2v-2h-2zm0-1h2a1 1 0 011 1v3h-4v-3a1 1 0 011-1z"/><path d="M16 5v18h7V5h-7zm0-1h7a1 1 0 011 1v18a1 1 0 01-1 1h-8V5a1 1 0 011-1z"/></g></g><g class="vertex" transform="translate(-420 70)" style="cursor: pointer; pointer-events: auto;"><circle class="handle" r="10" fill="#A66321" stroke="none"/><text x="0" y="15" text-anchor="middle" alignment-baseline="middle" filter="url(#solid)" pointer-events="none" fill="#A66321" style="font-size: 5px; font-family: sans-serif; font-weight: bold;">SIA Blue Shock Race</text><g transform="scale(0.5)translate(-12 -12)" fill="#FFFFFF" pointer-events="none"><path d="M1 5v18h7V5H1zm0-1h8v20H1a1 1 0 01-1-1V5a1 1 0 011-1z"/><path d="M9 22v1h6v-1H9zm-1-1h8v3H8v-3z"/><path d="M9 1v20h6V1H9zm0-1h6a1 1 0 011 1v21H8V1a1 1 0 011-1z"/><path d="M11 3v1h2V3h-2zm0-1h2a1 1 0 011 1v1a1 1 0 01-1 1h-2a1 1 0 01-1-1V3a1 1 0 011-1zM11 7v1h2V7h-2zm0-1h2a1 1 0 011 1v1a1 1 0 01-1 1h-2a1 1 0 01-1-1V7a1 1 0 011-1zM11 11v1h2v-1h-2zm0-1h2a1 1 0 011 1v1a1 1 0 01-1 1h-2a1 1 0 01-1-1v-1a1 1 0 011-1zM3 8h1V7H3v1zm0-2h1a1 1 0 011 1v1a1 1 0 01-1 1H3a1 1 0 01-1-1V7a1 1 0 011-1zM7 8h1V7H7v1zm0-2h1a1 1 0 011 1v1a1 1 0 01-1 1H7a1 1 0 01-1-1V7a1 1 0 011-1zM3 12h1v-1H3v1zm0-2h1a1 1 0 011 1v1a1 1 0 01-1 1H3a1 1 0 01-1-1v-1a1 1 0 011-1zM7 12h1v-1H7v1zm0-2h1a1 1 0 011 1v1a1 1 0 01-1 1H7a1 1 0 01-1-1v-1a1 1 0 011-1zM3 16h1v-1H3v1zm0-2h1a1 1 0 011 1v1a1 1 0 01-1 1H3a1 1 0 01-1-1v-1a1 1 0 011-1zM7 16h1v-1H7v1zm0-2h1a1 1 0 011 1v1a1 1 0 01-1 1H7a1 1 0 01-1-1v-1a1 1 0 011-1zM3 20h1v-1H3v1zm0-2h1a1 1 0 011 1v1a1 1 0 01-1 1H3a1 1 0 01-1-1v-1a1 1 0 011-1zM7 20h1v-1H7v1zm0-2h1a1 1 0 011 1v1a1 1 0 01-1 1H7a1 1 0 01-1-1v-1a1 1 0 011-1zM16 20h1v-1h-1v1zm0-2h1a1 1 0 011 1v1a1 1 0 01-1 1h-1a1 1 0 01-1-1v-1a1 1 0 011-1zM20 20h1v-1h-1v1zm0-2h1a1 1 0 011 1v1a1 1 0 01-1 1h-1a1 1 0 01-1-1v-1a1 1 0 011-1zM20 16h1v-1h-1v1zm0-2h1a1 1 0 011 1v1a1 1 0 01-1 1h-1a1 1 0 01-1-1v-1a1 1 0 011-1zM16 16h1v-1h-1v1zm0-2h1a1 1 0 011 1v1a1 1 0 01-1 1h-1a1 1 0 01-1-1v-1a1 1 0 011-1zM16 12h1v-1h-1v1zm0-2h1a1 1 0 011 1v1a1 1 0 01-1 1h-1a1 1 0 01-1-1v-1a1 1 0 011-1zM20 12h1v-1h-1v1zm0-2h1a1 1 0 011 1v1a1 1 0 01-1 1h-1a1 1 0 01-1-1v-1a1 1 0 011-1zM20 8h1V7h-1v1zm0-2h1a1 1 0 011 1v1a1 1 0 01-1 1h-1a1 1 0 01-1-1V7a1 1 0 011-1zM16 8h1V7h-1v1zm0-2h1a1 1 0 011 1v1a1 1 0 01-1 1h-1a1 1 0 01-1-1V7a1 1 0 011-1zM11 15v1h2v-1h-2zm0-1h2a1 1 0 011 1v1a1 1 0 01-1 1h-2a1 1 0 01-1-1v-1a1 1 0 011-1zM11 19v2h2v-2h-2zm0-1h2a1 1 0 011 1v3h-4v-3a1 1 0 011-1z"/><path d="M16 5v18h7V5h-7zm0-1h7a1 1 0 011 1v18a1 1 0 01-1 1h-8V5a1 1 0 011-1z"/></g></g><g class="vertex" transform="translate(-490 70)" style="cursor: pointer; pointer-events: auto;"><circle class="handle" r="10" fill="#0E5A8A" stroke="none"/><text x="0" y="15" text-anchor="middle" alignment-baseline="middle" filter="url(#solid)" pointer-events="none" fill="#0E5A8A" style="font-size: 5px; font-family: sans-serif; font-weight: bold;">SIA BSR Leasing</text><g transform="scale(0.5)translate(-12 -12)" fill="#FFFFFF" pointer-events="none"><path d="M1 5v18h7V5H1zm0-1h8v20H1a1 1 0 01-1-1V5a1 1 0 011-1z"/><path d="M9 22v1h6v-1H9zm-1-1h8v3H8v-3z"/><path d="M9 1v20h6V1H9zm0-1h6a1 1 0 011 1v21H8V1a1 1 0 011-1z"/><path d="M11 3v1h2V3h-2zm0-1h2a1 1 0 011 1v1a1 1 0 01-1 1h-2a1 1 0 01-1-1V3a1 1 0 011-1zM11 7v1h2V7h-2zm0-1h2a1 1 0 011 1v1a1 1 0 01-1 1h-2a1 1 0 01-1-1V7a1 1 0 011-1zM11 11v1h2v-1h-2zm0-1h2a1 1 0 011 1v1a1 1 0 01-1 1h-2a1 1 0 01-1-1v-1a1 1 0 011-1zM3 8h1V7H3v1zm0-2h1a1 1 0 011 1v1a1 1 0 01-1 1H3a1 1 0 01-1-1V7a1 1 0 011-1zM7 8h1V7H7v1zm0-2h1a1 1 0 011 1v1a1 1 0 01-1 1H7a1 1 0 01-1-1V7a1 1 0 011-1zM3 12h1v-1H3v1zm0-2h1a1 1 0 011 1v1a1 1 0 01-1 1H3a1 1 0 01-1-1v-1a1 1 0 011-1zM7 12h1v-1H7v1zm0-2h1a1 1 0 011 1v1a1 1 0 01-1 1H7a1 1 0 01-1-1v-1a1 1 0 011-1zM3 16h1v-1H3v1zm0-2h1a1 1 0 011 1v1a1 1 0 01-1 1H3a1 1 0 01-1-1v-1a1 1 0 011-1zM7 16h1v-1H7v1zm0-2h1a1 1 0 011 1v1a1 1 0 01-1 1H7a1 1 0 01-1-1v-1a1 1 0 011-1zM3 20h1v-1H3v1zm0-2h1a1 1 0 011 1v1a1 1 0 01-1 1H3a1 1 0 01-1-1v-1a1 1 0 011-1zM7 20h1v-1H7v1zm0-2h1a1 1 0 011 1v1a1 1 0 01-1 1H7a1 1 0 01-1-1v-1a1 1 0 011-1zM16 20h1v-1h-1v1zm0-2h1a1 1 0 011 1v1a1 1 0 01-1 1h-1a1 1 0 01-1-1v-1a1 1 0 011-1zM20 20h1v-1h-1v1zm0-2h1a1 1 0 011 1v1a1 1 0 01-1 1h-1a1 1 0 01-1-1v-1a1 1 0 011-1zM20 16h1v-1h-1v1zm0-2h1a1 1 0 011 1v1a1 1 0 01-1 1h-1a1 1 0 01-1-1v-1a1 1 0 011-1zM16 16h1v-1h-1v1zm0-2h1a1 1 0 011 1v1a1 1 0 01-1 1h-1a1 1 0 01-1-1v-1a1 1 0 011-1zM16 12h1v-1h-1v1zm0-2h1a1 1 0 011 1v1a1 1 0 01-1 1h-1a1 1 0 01-1-1v-1a1 1 0 011-1zM20 12h1v-1h-1v1zm0-2h1a1 1 0 011 1v1a1 1 0 01-1 1h-1a1 1 0 01-1-1v-1a1 1 0 011-1zM20 8h1V7h-1v1zm0-2h1a1 1 0 011 1v1a1 1 0 01-1 1h-1a1 1 0 01-1-1V7a1 1 0 011-1zM16 8h1V7h-1v1zm0-2h1a1 1 0 011 1v1a1 1 0 01-1 1h-1a1 1 0 01-1-1V7a1 1 0 011-1zM11 15v1h2v-1h-2zm0-1h2a1 1 0 011 1v1a1 1 0 01-1 1h-2a1 1 0 01-1-1v-1a1 1 0 011-1zM11 19v2h2v-2h-2zm0-1h2a1 1 0 011 1v3h-4v-3a1 1 0 011-1z"/><path d="M16 5v18h7V5h-7zm0-1h7a1 1 0 011 1v18a1 1 0 01-1 1h-8V5a1 1 0 011-1z"/></g></g><g class="vertex" transform="translate(-420 150)" style="cursor: pointer; pointer-events: auto;"><circle class="handle" r="10" fill="#0E5A8A" stroke="none"/><text x="0" y="15" text-anchor="middle" alignment-baseline="middle" filter="url(#solid)" pointer-events="none" fill="#0E5A8A" style="font-size: 5px; font-family: sans-serif; font-weight: bold;">Artis Daugins</text><g transform="scale(0.5)translate(-12 -12)" fill="#FFFFFF" pointer-events="none"><path d="M12 11a3 3 0 100-6 3 3 0 000 6zm0 1a4 4 0 110-8 4 4 0 010 8z"/><path d="M12 23c6.075 0 11-4.925 11-11S18.075 1 12 1 1 5.925 1 12s4.925 11 11 11zm0 1C5.373 24 0 18.627 0 12S5.373 0 12 0s12 5.373 12 12-5.373 12-12 12z"/><path d="M6.26 22.541L6 22.399V16a4 4 0 014-4h4a4 4 0 014 4v6.399l-.26.142A11.946 11.946 0 0112 24c-2.022 0-3.984-.5-5.74-1.459zm.74-.74C8.541 22.589 10.245 23 12 23s3.459-.41 5-1.2V16a3 3 0 00-3-3h-4a3 3 0 00-3 3v5.8z"/></g></g><g class="vertex" transform="translate(-370 300)" style="cursor: pointer; pointer-events: auto;"><circle class="handle" r="10" fill="#0E5A8A" stroke="none"/><text x="0" y="15" text-anchor="middle" alignment-baseline="middle" filter="url(#solid)" pointer-events="none" fill="#0E5A8A" style="font-size: 5px; font-family: sans-serif; font-weight: bold;">Nataļja Geisari</text><g transform="scale(0.5)translate(-12 -12)" fill="#FFFFFF" pointer-events="none"><path d="M12 11a3 3 0 100-6 3 3 0 000 6zm0 1a4 4 0 110-8 4 4 0 010 8z"/><path d="M12 23c6.075 0 11-4.925 11-11S18.075 1 12 1 1 5.925 1 12s4.925 11 11 11zm0 1C5.373 24 0 18.627 0 12S5.373 0 12 0s12 5.373 12 12-5.373 12-12 12z"/><path d="M6.26 22.541L6 22.399V16a4 4 0 014-4h4a4 4 0 014 4v6.399l-.26.142A11.946 11.946 0 0112 24c-2.022 0-3.984-.5-5.74-1.459zm.74-.74C8.541 22.589 10.245 23 12 23s3.459-.41 5-1.2V16a3 3 0 00-3-3h-4a3 3 0 00-3 3v5.8z"/></g></g><g class="vertex" transform="translate(-570 250)" style="cursor: pointer; pointer-events: auto;"><circle class="handle" r="10" fill="#0E5A8A" stroke="none"/><text x="0" y="15" text-anchor="middle" alignment-baseline="middle" filter="url(#solid)" pointer-events="none" fill="#0E5A8A" style="font-size: 5px; font-family: sans-serif; font-weight: bold;">Vjačeslavs Jurgeļevičs</text><g transform="scale(0.5)translate(-12 -12)" fill="#FFFFFF" pointer-events="none"><path d="M12 11a3 3 0 100-6 3 3 0 000 6zm0 1a4 4 0 110-8 4 4 0 010 8z"/><path d="M12 23c6.075 0 11-4.925 11-11S18.075 1 12 1 1 5.925 1 12s4.925 11 11 11zm0 1C5.373 24 0 18.627 0 12S5.373 0 12 0s12 5.373 12 12-5.373 12-12 12z"/><path d="M6.26 22.541L6 22.399V16a4 4 0 014-4h4a4 4 0 014 4v6.399l-.26.142A11.946 11.946 0 0112 24c-2.022 0-3.984-.5-5.74-1.459zm.74-.74C8.541 22.589 10.245 23 12 23s3.459-.41 5-1.2V16a3 3 0 00-3-3h-4a3 3 0 00-3 3v5.8z"/></g></g><g class="vertex" transform="translate(-480 290)" style="cursor: pointer; pointer-events: auto;"><circle class="handle" r="10" fill="#A66321" stroke="none"/><text x="0" y="15" text-anchor="middle" alignment-baseline="middle" filter="url(#solid)" pointer-events="none" fill="#A66321" style="font-size: 5px; font-family: sans-serif; font-weight: bold;">SIA ITG Group</text><g transform="scale(0.5)translate(-12 -12)" fill="#FFFFFF" pointer-events="none"><path d="M1 5v18h7V5H1zm0-1h8v20H1a1 1 0 01-1-1V5a1 1 0 011-1z"/><path d="M9 22v1h6v-1H9zm-1-1h8v3H8v-3z"/><path d="M9 1v20h6V1H9zm0-1h6a1 1 0 011 1v21H8V1a1 1 0 011-1z"/><path d="M11 3v1h2V3h-2zm0-1h2a1 1 0 011 1v1a1 1 0 01-1 1h-2a1 1 0 01-1-1V3a1 1 0 011-1zM11 7v1h2V7h-2zm0-1h2a1 1 0 011 1v1a1 1 0 01-1 1h-2a1 1 0 01-1-1V7a1 1 0 011-1zM11 11v1h2v-1h-2zm0-1h2a1 1 0 011 1v1a1 1 0 01-1 1h-2a1 1 0 01-1-1v-1a1 1 0 011-1zM3 8h1V7H3v1zm0-2h1a1 1 0 011 1v1a1 1 0 01-1 1H3a1 1 0 01-1-1V7a1 1 0 011-1zM7 8h1V7H7v1zm0-2h1a1 1 0 011 1v1a1 1 0 01-1 1H7a1 1 0 01-1-1V7a1 1 0 011-1zM3 12h1v-1H3v1zm0-2h1a1 1 0 011 1v1a1 1 0 01-1 1H3a1 1 0 01-1-1v-1a1 1 0 011-1zM7 12h1v-1H7v1zm0-2h1a1 1 0 011 1v1a1 1 0 01-1 1H7a1 1 0 01-1-1v-1a1 1 0 011-1zM3 16h1v-1H3v1zm0-2h1a1 1 0 011 1v1a1 1 0 01-1 1H3a1 1 0 01-1-1v-1a1 1 0 011-1zM7 16h1v-1H7v1zm0-2h1a1 1 0 011 1v1a1 1 0 01-1 1H7a1 1 0 01-1-1v-1a1 1 0 011-1zM3 20h1v-1H3v1zm0-2h1a1 1 0 011 1v1a1 1 0 01-1 1H3a1 1 0 01-1-1v-1a1 1 0 011-1zM7 20h1v-1H7v1zm0-2h1a1 1 0 011 1v1a1 1 0 01-1 1H7a1 1 0 01-1-1v-1a1 1 0 011-1zM16 20h1v-1h-1v1zm0-2h1a1 1 0 011 1v1a1 1 0 01-1 1h-1a1 1 0 01-1-1v-1a1 1 0 011-1zM20 20h1v-1h-1v1zm0-2h1a1 1 0 011 1v1a1 1 0 01-1 1h-1a1 1 0 01-1-1v-1a1 1 0 011-1zM20 16h1v-1h-1v1zm0-2h1a1 1 0 011 1v1a1 1 0 01-1 1h-1a1 1 0 01-1-1v-1a1 1 0 011-1zM16 16h1v-1h-1v1zm0-2h1a1 1 0 011 1v1a1 1 0 01-1 1h-1a1 1 0 01-1-1v-1a1 1 0 011-1zM16 12h1v-1h-1v1zm0-2h1a1 1 0 011 1v1a1 1 0 01-1 1h-1a1 1 0 01-1-1v-1a1 1 0 011-1zM20 12h1v-1h-1v1zm0-2h1a1 1 0 011 1v1a1 1 0 01-1 1h-1a1 1 0 01-1-1v-1a1 1 0 011-1zM20 8h1V7h-1v1zm0-2h1a1 1 0 011 1v1a1 1 0 01-1 1h-1a1 1 0 01-1-1V7a1 1 0 011-1zM16 8h1V7h-1v1zm0-2h1a1 1 0 011 1v1a1 1 0 01-1 1h-1a1 1 0 01-1-1V7a1 1 0 011-1zM11 15v1h2v-1h-2zm0-1h2a1 1 0 011 1v1a1 1 0 01-1 1h-2a1 1 0 01-1-1v-1a1 1 0 011-1zM11 19v2h2v-2h-2zm0-1h2a1 1 0 011 1v3h-4v-3a1 1 0 011-1z"/><path d="M16 5v18h7V5h-7zm0-1h7a1 1 0 011 1v18a1 1 0 01-1 1h-8V5a1 1 0 011-1z"/></g></g><g class="vertex" transform="translate(-430 310)" style="cursor: pointer; pointer-events: auto;"><circle class="handle" r="10" fill="#0E5A8A" stroke="none"/><text x="0" y="15" text-anchor="middle" alignment-baseline="middle" filter="url(#solid)" pointer-events="none" fill="#0E5A8A" style="font-size: 5px; font-family: sans-serif; font-weight: bold;">Bolat Itegulov</text><g transform="scale(0.5)translate(-12 -12)" fill="#FFFFFF" pointer-events="none"><path d="M12 11a3 3 0 100-6 3 3 0 000 6zm0 1a4 4 0 110-8 4 4 0 010 8z"/><path d="M12 23c6.075 0 11-4.925 11-11S18.075 1 12 1 1 5.925 1 12s4.925 11 11 11zm0 1C5.373 24 0 18.627 0 12S5.373 0 12 0s12 5.373 12 12-5.373 12-12 12z"/><path d="M6.26 22.541L6 22.399V16a4 4 0 014-4h4a4 4 0 014 4v6.399l-.26.142A11.946 11.946 0 0112 24c-2.022 0-3.984-.5-5.74-1.459zm.74-.74C8.541 22.589 10.245 23 12 23s3.459-.41 5-1.2V16a3 3 0 00-3-3h-4a3 3 0 00-3 3v5.8z"/></g></g><g class="vertex" transform="translate(-560 290)" style="cursor: pointer; pointer-events: auto;"><circle class="handle" r="10" fill="#0E5A8A" stroke="none"/><text x="0" y="15" text-anchor="middle" alignment-baseline="middle" filter="url(#solid)" pointer-events="none" fill="#0E5A8A" style="font-size: 5px; font-family: sans-serif; font-weight: bold;">Ņikita Manija</text><g transform="scale(0.5)translate(-12 -12)" fill="#FFFFFF" pointer-events="none"><path d="M12 11a3 3 0 100-6 3 3 0 000 6zm0 1a4 4 0 110-8 4 4 0 010 8z"/><path d="M12 23c6.075 0 11-4.925 11-11S18.075 1 12 1 1 5.925 1 12s4.925 11 11 11zm0 1C5.373 24 0 18.627 0 12S5.373 0 12 0s12 5.373 12 12-5.373 12-12 12z"/><path d="M6.26 22.541L6 22.399V16a4 4 0 014-4h4a4 4 0 014 4v6.399l-.26.142A11.946 11.946 0 0112 24c-2.022 0-3.984-.5-5.74-1.459zm.74-.74C8.541 22.589 10.245 23 12 23s3.459-.41 5-1.2V16a3 3 0 00-3-3h-4a3 3 0 00-3 3v5.8z"/></g></g><g class="vertex" transform="translate(-560 70)" style="cursor: pointer; pointer-events: auto;"><circle class="handle" r="10" fill="#A82A2A" stroke="none"/><text x="0" y="15" text-anchor="middle" alignment-baseline="middle" filter="url(#solid)" pointer-events="none" fill="#A82A2A" style="font-size: 5px; font-family: sans-serif; font-weight: bold;">Blue Shock Race Leasing</text><g transform="scale(0.5)translate(-12 -12)" fill="#FFFFFF" pointer-events="none"><path d="M17 21v-6l1-1v7a1 1 0 01-1 1H3a1 1 0 01-1-1V1a1 1 0 011-1h14a1 1 0 011 1v9l-1 1V1H3v20h14z"/><path d="M4.917 3.5a.5.5 0 01.5-.5h9.166a.5.5 0 110 1H5.417a.5.5 0 01-.5-.5zM4.917 6.5a.5.5 0 01.5-.5h9.166a.5.5 0 110 1H5.417a.5.5 0 01-.5-.5zM4.917 9.5a.5.5 0 01.5-.5h9.166a.5.5 0 110 1H5.417a.5.5 0 01-.5-.5zM6.415 16.282c-.103.224-.21.464-.344.77l-.267.612a59.71 59.71 0 01-.058.13.497.497 0 01-.66.254.503.503 0 01-.253-.661l.055-.124.267-.613c.137-.311.246-.556.352-.786.437-.95.774-1.554 1.106-1.906.608-.645 1.326-.452 1.638.463.108.317.191.635.263.986.047.226.085.443.148.82.142.811.338.825 1.338.825h3.526c.262 0 .474.212.474.474a.49.49 0 01-.474.49c-2.675.092-4.107.138-4.296.138-1.002 0-1.336-.518-1.553-1.754-.184-1.057-.21-1.177-.372-1.656a3.157 3.157 0 00-.015-.042c-.225.268-.512.793-.875 1.58z"/><path d="M15 23v-2h1v2a1 1 0 01-1 1H1a1 1 0 01-1-1V3a1 1 0 011-1h2v1H1v20h14z"/><path d="M13.293 14l7.5-7.5a1 1 0 011.414 0L23.5 7.793a1 1 0 010 1.414l-7.5 7.5a1 1 0 01-.707.293H13v-2.293a1 1 0 01.293-.707zM14 16h1.293l7.5-7.5L21.5 7.207l-7.5 7.5V16z"/></g></g><rect id="selection" stroke="black" stroke-width="0.5px" stroke-dasharray="2" fill-opacity="0"/></g><defs><pattern id="grid" width="10" height="10" patternUnits="userSpaceOnUse"><path d="M 10 0 L 0 0 0 10" fill="none" stroke="#E1E8ED" stroke-width="0.5"/></pattern><marker id="arrow" viewBox="0 0 10 10" refX="29" refY="5" markerWidth="5" markerHeight="5" orient="auto-start-reverse" fill="#738694"><path d="M 0 0 L 10 5 L 0 10 z"/></marker><marker id="arrow-unselected" viewBox="0 0 10 10" refX="29" refY="5" markerWidth="5" markerHeight="5" orient="auto-start-reverse" fill="#BFCCD6"><path d="M 0 0 L 10 5 L 0 10 z"/></marker><filter x="0" y="0" width="1" height="1" id="solid"><feFlood flood-color="#ffffff"/><feComposite in="SourceGraphic"/></filter></defs></svg>