<svg viewBox="-840 -655.3579973185173 650 430.7159946370346" xmlns="http://www.w3.org/2000/svg" tabindex="0" style="width: 100%; height: 100%; cursor: crosshair;"><g id="zoom"><rect id="canvas-handle" x="-5000" y="-5000" width="10000" height="10000" fill="none"/><g class="edge"><path stroke="rgba(0,0,0,0)" stroke-width="4" fill="none" d="M-610 -600 L -610 -490" style="cursor: pointer;"/><path stroke="#738694" stroke-width="1" fill="none" d="M-610 -600 L -610 -490" stroke-dasharray="0" marker-end="" style="pointer-events: none;"/></g><g transform="translate(-610 -545)" class="EdgeLabel"><g class="edge-handle"><rect class="EdgeLabel__outline" x="-6.5020751953125" y="-4.3227479457855225" rx="3" stroke="#738694" stroke-width=".8px" fill="white" width="13.004150390625" height="8.645495891571045"/><text text-anchor="middle" dy="1.4113739728927612" class="EdgeLabel__text" fill="#738694" pointer-events="none" style="font-size: 5px; font-family: sans-serif;">85%</text></g></g><g class="edge"><path stroke="rgba(0,0,0,0)" stroke-width="4" fill="none" d="M-550 -460 Q -588.7470955413178 -439.8667839510181 -610 -490" style="cursor: pointer;"/><path stroke="#738694" stroke-width="1" fill="none" d="M-550 -460 Q -588.7470955413178 -439.8667839510181 -610 -490" stroke-dasharray="0" marker-end="" style="pointer-events: none;"/></g><g transform="translate(-584.3735477706589 -457.43339197550904)" class="EdgeLabel"><g class="edge-handle"><rect class="EdgeLabel__outline" x="-6.5020751953125" y="-4.3227479457855225" rx="3" stroke="#738694" stroke-width=".8px" fill="white" width="13.004150390625" height="8.645495891571045"/><text text-anchor="middle" dy="1.4113739728927612" class="EdgeLabel__text" fill="#738694" pointer-events="none" style="font-size: 5px; font-family: sans-serif;">15%</text></g></g><g class="edge"><path stroke="rgba(0,0,0,0)" stroke-width="4" fill="none" d="M-370 -390 L -370 -440" style="cursor: pointer;"/><path stroke="#738694" stroke-width="1" fill="none" d="M-370 -390 L -370 -440" stroke-dasharray="0" marker-end="" style="pointer-events: none;"/></g><g transform="translate(-370 -415)" class="EdgeLabel"><g class="edge-handle"><rect class="EdgeLabel__outline" x="-6.5020751953125" y="-4.3227479457855225" rx="3" stroke="#738694" stroke-width=".8px" fill="white" width="13.004150390625" height="8.645495891571045"/><text text-anchor="middle" dy="1.4113739728927612" class="EdgeLabel__text" fill="#738694" pointer-events="none" style="font-size: 5px; font-family: sans-serif;">50%</text></g></g><g class="edge"><path stroke="rgba(0,0,0,0)" stroke-width="4" fill="none" d="M-310 -400 L -370 -440" style="cursor: pointer;"/><path stroke="#738694" stroke-width="1" fill="none" d="M-310 -400 L -370 -440" stroke-dasharray="0" marker-end="" style="pointer-events: none;"/></g><g transform="translate(-340 -420)" class="EdgeLabel"><g class="edge-handle"><rect class="EdgeLabel__outline" x="-6.5020751953125" y="-4.3227479457855225" rx="3" stroke="#738694" stroke-width=".8px" fill="white" width="13.004150390625" height="8.645495891571045"/><text text-anchor="middle" dy="1.4113739728927612" class="EdgeLabel__text" fill="#738694" pointer-events="none" style="font-size: 5px; font-family: sans-serif;">50%</text></g></g><g class="edge"><path stroke="rgba(0,0,0,0)" stroke-width="4" fill="none" d="M-460 -400 L -370 -440" style="cursor: pointer;"/><path stroke="#738694" stroke-width="1" fill="none" d="M-460 -400 L -370 -440" stroke-dasharray="0" marker-end="" style="pointer-events: none;"/></g><g transform="translate(-415 -420)" class="EdgeLabel"><g class="edge-handle"><rect class="EdgeLabel__outline" x="-14.936450004577637" y="-4.3227479457855225" rx="3" stroke="#738694" stroke-width=".8px" fill="white" width="29.872900009155273" height="8.645495891571045"/><text text-anchor="middle" dy="1.4113739728927612" class="EdgeLabel__text" fill="#738694" pointer-events="none" style="font-size: 5px; font-family: sans-serif;">Directorship</text></g></g><g class="edge"><path stroke="rgba(0,0,0,0)" stroke-width="4" fill="none" d="M-370 -480 L -290 -460" style="cursor: pointer;"/><path stroke="#738694" stroke-width="1" fill="none" d="M-370 -480 L -290 -460" stroke-dasharray="0" marker-end="" style="pointer-events: none;"/></g><g transform="translate(-330 -470)" class="EdgeLabel"><g class="edge-handle"><rect class="EdgeLabel__outline" x="-6.5020751953125" y="-4.3227479457855225" rx="3" stroke="#738694" stroke-width=".8px" fill="white" width="13.004150390625" height="8.645495891571045"/><text text-anchor="middle" dy="1.4113739728927612" class="EdgeLabel__text" fill="#738694" pointer-events="none" style="font-size: 5px; font-family: sans-serif;">60%</text></g></g><g class="edge"><path stroke="rgba(0,0,0,0)" stroke-width="4" fill="none" d="M-370 -440 L -290 -460" style="cursor: pointer;"/><path stroke="#738694" stroke-width="1" fill="none" d="M-370 -440 L -290 -460" stroke-dasharray="0" marker-end="" style="pointer-events: none;"/></g><g transform="translate(-330 -450)" class="EdgeLabel"><g class="edge-handle"><rect class="EdgeLabel__outline" x="-6.5020751953125" y="-4.3227479457855225" rx="3" stroke="#738694" stroke-width=".8px" fill="white" width="13.004150390625" height="8.645495891571045"/><text text-anchor="middle" dy="1.4113739728927612" class="EdgeLabel__text" fill="#738694" pointer-events="none" style="font-size: 5px; font-family: sans-serif;">40%</text></g></g><g class="edge"><path stroke="rgba(0,0,0,0)" stroke-width="4" fill="none" d="M-370 -390 L -370 -320" style="cursor: pointer;"/><path stroke="#738694" stroke-width="1" fill="none" d="M-370 -390 L -370 -320" stroke-dasharray="0" marker-end="" style="pointer-events: none;"/></g><g transform="translate(-370 -355)" class="EdgeLabel"><g class="edge-handle"><rect class="EdgeLabel__outline" x="-8.270521640777588" y="-4.3227479457855225" rx="3" stroke="#738694" stroke-width=".8px" fill="white" width="16.541043281555176" height="8.645495891571045"/><text text-anchor="middle" dy="1.4113739728927612" class="EdgeLabel__text" fill="#738694" pointer-events="none" style="font-size: 5px; font-family: sans-serif;">family</text></g></g><g class="edge"><path stroke="rgba(0,0,0,0)" stroke-width="4" fill="none" d="M-370 -520 Q -400.50191511875414 -525.7202243467784 -490 -520" style="cursor: pointer;"/><path stroke="#738694" stroke-width="1" fill="none" d="M-370 -520 Q -400.50191511875414 -525.7202243467784 -490 -520" stroke-dasharray="0" marker-end="" style="pointer-events: none;"/></g><g transform="translate(-415.25095755937707 -522.8601121733892)" class="EdgeLabel"><g class="edge-handle"><rect class="EdgeLabel__outline" x="-14.145288467407227" y="-4.3227479457855225" rx="3" stroke="#738694" stroke-width=".8px" fill="white" width="28.290576934814453" height="8.645495891571045"/><text text-anchor="middle" dy="1.4113739728927612" class="EdgeLabel__text" fill="#738694" pointer-events="none" style="font-size: 5px; font-family: sans-serif;">19.80198%</text></g></g><g class="edge"><path stroke="rgba(0,0,0,0)" stroke-width="4" fill="none" d="M-490 -600 L -490 -520" style="cursor: pointer;"/><path stroke="#738694" stroke-width="1" fill="none" d="M-490 -600 L -490 -520" stroke-dasharray="0" marker-end="" style="pointer-events: none;"/></g><g transform="translate(-490 -560)" class="EdgeLabel"><g class="edge-handle"><rect class="EdgeLabel__outline" x="-14.145288467407227" y="-4.3227479457855225" rx="3" stroke="#738694" stroke-width=".8px" fill="white" width="28.290576934814453" height="8.645495891571045"/><text text-anchor="middle" dy="1.4113739728927612" class="EdgeLabel__text" fill="#738694" pointer-events="none" style="font-size: 5px; font-family: sans-serif;">80.19802%</text></g></g><g class="edge"><path stroke="rgba(0,0,0,0)" stroke-width="4" fill="none" d="M-370 -560 L -490 -520" style="cursor: pointer;"/><path stroke="#738694" stroke-width="1" fill="none" d="M-370 -560 L -490 -520" stroke-dasharray="0" marker-end="" style="pointer-events: none;"/></g><g transform="translate(-430 -540)" class="EdgeLabel"><g class="edge-handle"><rect class="EdgeLabel__outline" x="-14.936450004577637" y="-4.3227479457855225" rx="3" stroke="#738694" stroke-width=".8px" fill="white" width="29.872900009155273" height="8.645495891571045"/><text text-anchor="middle" dy="1.4113739728927612" class="EdgeLabel__text" fill="#738694" pointer-events="none" style="font-size: 5px; font-family: sans-serif;">Directorship</text></g></g><g class="edge"><path stroke="rgba(0,0,0,0)" stroke-width="4" fill="none" d="M-370 -520 Q -418.59851760699496 -546.4283199973058 -490 -520" style="cursor: pointer;"/><path stroke="#738694" stroke-width="1" fill="none" d="M-370 -520 Q -418.59851760699496 -546.4283199973058 -490 -520" stroke-dasharray="0" marker-end="" style="pointer-events: none;"/></g><g transform="translate(-424.2992588034975 -533.2141599986529)" class="EdgeLabel"><g class="edge-handle"><rect class="EdgeLabel__outline" x="-14.936450004577637" y="-4.3227479457855225" rx="3" stroke="#738694" stroke-width=".8px" fill="white" width="29.872900009155273" height="8.645495891571045"/><text text-anchor="middle" dy="1.4113739728927612" class="EdgeLabel__text" fill="#738694" pointer-events="none" style="font-size: 5px; font-family: sans-serif;">Directorship</text></g></g><g class="edge"><path stroke="rgba(0,0,0,0)" stroke-width="4" fill="none" d="M-610 -600 L -490 -600" style="cursor: pointer;"/><path stroke="#738694" stroke-width="1" fill="none" d="M-610 -600 L -490 -600" stroke-dasharray="0" marker-end="" style="pointer-events: none;"/></g><g transform="translate(-550 -600)" class="EdgeLabel"><g class="edge-handle"><rect class="EdgeLabel__outline" x="-15.80832290649414" y="-4.3227479457855225" rx="3" stroke="#738694" stroke-width=".8px" fill="white" width="31.61664581298828" height="8.645495891571045"/><text text-anchor="middle" dy="1.4113739728927612" class="EdgeLabel__text" fill="#738694" pointer-events="none" style="font-size: 5px; font-family: sans-serif;">boy/girlfriend</text></g></g><g class="edge"><path stroke="rgba(0,0,0,0)" stroke-width="4" fill="none" d="M-580 -550 L -610 -600" style="cursor: pointer;"/><path stroke="#738694" stroke-width="1" fill="none" d="M-580 -550 L -610 -600" stroke-dasharray="0" marker-end="" style="pointer-events: none;"/></g><g transform="translate(-595 -575)" class="EdgeLabel"><g class="edge-handle"><rect class="EdgeLabel__outline" x="-20.553936004638672" y="-4.3227479457855225" rx="3" stroke="#738694" stroke-width=".8px" fill="white" width="41.107872009277344" height="8.645495891571045"/><text text-anchor="middle" dy="1.4113739728927612" class="EdgeLabel__text" fill="#738694" pointer-events="none" style="font-size: 5px; font-family: sans-serif;">Business-partner</text></g></g><g class="edge"><path stroke="rgba(0,0,0,0)" stroke-width="4" fill="none" d="M-370 -480 L -490 -520" style="cursor: pointer;"/><path stroke="#738694" stroke-width="1" fill="none" d="M-370 -480 L -490 -520" stroke-dasharray="0" marker-end="" style="pointer-events: none;"/></g><g transform="translate(-430 -500)" class="EdgeLabel"><g class="edge-handle"><rect class="EdgeLabel__outline" x="-14.936450004577637" y="-4.3227479457855225" rx="3" stroke="#738694" stroke-width=".8px" fill="white" width="29.872900009155273" height="8.645495891571045"/><text text-anchor="middle" dy="1.4113739728927612" class="EdgeLabel__text" fill="#738694" pointer-events="none" style="font-size: 5px; font-family: sans-serif;">Directorship</text></g></g><g class="edge"><path stroke="rgba(0,0,0,0)" stroke-width="4" fill="none" d="M-550 -460 Q -538.6272938434226 -456.5207967873839 -610 -490" style="cursor: pointer;"/><path stroke="#738694" stroke-width="1" fill="none" d="M-550 -460 Q -538.6272938434226 -456.5207967873839 -610 -490" stroke-dasharray="0" marker-end="" style="pointer-events: none;"/></g><g transform="translate(-559.3136469217113 -465.76039839369196)" class="EdgeLabel"><g class="edge-handle"><rect class="EdgeLabel__outline" x="-6.96398401260376" y="-4.3227479457855225" rx="3" stroke="#738694" stroke-width=".8px" fill="white" width="13.92796802520752" height="8.645495891571045"/><text text-anchor="middle" dy="1.4113739728927612" class="EdgeLabel__text" fill="#738694" pointer-events="none" style="font-size: 5px; font-family: sans-serif;">CEO</text></g></g><g class="edge"><path stroke="rgba(0,0,0,0)" stroke-width="4" fill="none" d="M-370 -320 L -460 -320" style="cursor: pointer;"/><path stroke="#738694" stroke-width="1" fill="none" d="M-370 -320 L -460 -320" stroke-dasharray="0" marker-end="" style="pointer-events: none;"/></g><g transform="translate(-415 -320)" class="EdgeLabel"><g class="edge-handle"><rect class="EdgeLabel__outline" x="-6.5020751953125" y="-4.3227479457855225" rx="3" stroke="#738694" stroke-width=".8px" fill="white" width="13.004150390625" height="8.645495891571045"/><text text-anchor="middle" dy="1.4113739728927612" class="EdgeLabel__text" fill="#738694" pointer-events="none" style="font-size: 5px; font-family: sans-serif;">60%</text></g></g><g class="edge"><path stroke="rgba(0,0,0,0)" stroke-width="4" fill="none" d="M-460 -270 L -460 -320" style="cursor: pointer;"/><path stroke="#738694" stroke-width="1" fill="none" d="M-460 -270 L -460 -320" stroke-dasharray="0" marker-end="" style="pointer-events: none;"/></g><g transform="translate(-460 -295)" class="EdgeLabel"><g class="edge-handle"><rect class="EdgeLabel__outline" x="-6.5020751953125" y="-4.3227479457855225" rx="3" stroke="#738694" stroke-width=".8px" fill="white" width="13.004150390625" height="8.645495891571045"/><text text-anchor="middle" dy="1.4113739728927612" class="EdgeLabel__text" fill="#738694" pointer-events="none" style="font-size: 5px; font-family: sans-serif;">40%</text></g></g><g class="edge"><path stroke="rgba(0,0,0,0)" stroke-width="4" fill="none" d="M-460 -400 L -460 -320" style="cursor: pointer;"/><path stroke="#738694" stroke-width="1" fill="none" d="M-460 -400 L -460 -320" stroke-dasharray="0" marker-end="" style="pointer-events: none;"/></g><g transform="translate(-460 -360)" class="EdgeLabel"><g class="edge-handle"><rect class="EdgeLabel__outline" x="-14.936450004577637" y="-4.3227479457855225" rx="3" stroke="#738694" stroke-width=".8px" fill="white" width="29.872900009155273" height="8.645495891571045"/><text text-anchor="middle" dy="1.4113739728927612" class="EdgeLabel__text" fill="#738694" pointer-events="none" style="font-size: 5px; font-family: sans-serif;">Directorship</text></g></g><g class="edge"><path stroke="rgba(0,0,0,0)" stroke-width="4" fill="none" d="M-520 -320 L -460 -320" style="cursor: pointer;"/><path stroke="#738694" stroke-width="1" fill="none" d="M-520 -320 L -460 -320" stroke-dasharray="0" marker-end="" style="pointer-events: none;"/></g><g transform="translate(-490 -320)" class="EdgeLabel"><g class="edge-handle"><rect class="EdgeLabel__outline" x="-18.44686508178711" y="-4.3227479457855225" rx="3" stroke="#738694" stroke-width=".8px" fill="white" width="36.89373016357422" height="8.645495891571045"/><text text-anchor="middle" dy="1.4113739728927612" class="EdgeLabel__text" fill="#738694" pointer-events="none" style="font-size: 5px; font-family: sans-serif;">Contract award</text></g></g><g class="edge"><path stroke="rgba(0,0,0,0)" stroke-width="4" fill="none" d="M-610 -450 L -610 -490" style="cursor: pointer;"/><path stroke="#738694" stroke-width="1" fill="none" d="M-610 -450 L -610 -490" stroke-dasharray="0" marker-end="" style="pointer-events: none;"/></g><g transform="translate(-610 -470)" class="EdgeLabel"><g class="edge-handle"><rect class="EdgeLabel__outline" x="-18.449459075927734" y="-4.3227479457855225" rx="3" stroke="#738694" stroke-width=".8px" fill="white" width="36.89891815185547" height="8.645495891571045"/><text text-anchor="middle" dy="1.4113739728927612" class="EdgeLabel__text" fill="#738694" pointer-events="none" style="font-size: 5px; font-family: sans-serif;">Representation</text></g></g><g class="edge"><path stroke="rgba(0,0,0,0)" stroke-width="4" fill="none" d="M-610 -450 L -610 -400" style="cursor: pointer;"/><path stroke="#738694" stroke-width="1" fill="none" d="M-610 -450 L -610 -400" stroke-dasharray="0" marker-end="" style="pointer-events: none;"/></g><g transform="translate(-610 -425)" class="EdgeLabel"><g class="edge-handle"><rect class="EdgeLabel__outline" x="-18.449459075927734" y="-4.3227479457855225" rx="3" stroke="#738694" stroke-width=".8px" fill="white" width="36.89891815185547" height="8.645495891571045"/><text text-anchor="middle" dy="1.4113739728927612" class="EdgeLabel__text" fill="#738694" pointer-events="none" style="font-size: 5px; font-family: sans-serif;">Representation</text></g></g><g class="edge"><path stroke="rgba(0,0,0,0)" stroke-width="4" fill="none" d="M-700 -520 L -610 -400" style="cursor: pointer;"/><path stroke="#738694" stroke-width="1" fill="none" d="M-700 -520 L -610 -400" stroke-dasharray="0" marker-end="" style="pointer-events: none;"/></g><g transform="translate(-655 -460)" class="EdgeLabel"><g class="edge-handle"><rect class="EdgeLabel__outline" x="-13.549086570739746" y="-4.3227479457855225" rx="3" stroke="#738694" stroke-width=".8px" fill="white" width="27.098173141479492" height="8.645495891571045"/><text text-anchor="middle" dy="1.4113739728927612" class="EdgeLabel__text" fill="#738694" pointer-events="none" style="font-size: 5px; font-family: sans-serif;">Ownership</text></g></g><g class="edge"><path stroke="rgba(0,0,0,0)" stroke-width="4" fill="none" d="M-740 -400 L -610 -400" style="cursor: pointer;"/><path stroke="#738694" stroke-width="1" fill="none" d="M-740 -400 L -610 -400" stroke-dasharray="0" marker-end="" style="pointer-events: none;"/></g><g transform="translate(-675 -400)" class="EdgeLabel"><g class="edge-handle"><rect class="EdgeLabel__outline" x="-18.44686508178711" y="-4.3227479457855225" rx="3" stroke="#738694" stroke-width=".8px" fill="white" width="36.89373016357422" height="8.645495891571045"/><text text-anchor="middle" dy="1.4113739728927612" class="EdgeLabel__text" fill="#738694" pointer-events="none" style="font-size: 5px; font-family: sans-serif;">Contract award</text></g></g><g class="edge"><path stroke="rgba(0,0,0,0)" stroke-width="4" fill="none" d="M-460 -400 L -610 -400" style="cursor: pointer;"/><path stroke="#738694" stroke-width="1" fill="none" d="M-460 -400 L -610 -400" stroke-dasharray="0" marker-end="" style="pointer-events: none;"/></g><g transform="translate(-535 -400)" class="EdgeLabel"><g class="edge-handle"><rect class="EdgeLabel__outline" x="-14.936450004577637" y="-4.3227479457855225" rx="3" stroke="#738694" stroke-width=".8px" fill="white" width="29.872900009155273" height="8.645495891571045"/><text text-anchor="middle" dy="1.4113739728927612" class="EdgeLabel__text" fill="#738694" pointer-events="none" style="font-size: 5px; font-family: sans-serif;">Directorship</text></g></g><g class="edge"><path stroke="rgba(0,0,0,0)" stroke-width="4" fill="none" d="M-220 -460 L -290 -460" style="cursor: pointer;"/><path stroke="#738694" stroke-width="1" fill="none" d="M-220 -460 L -290 -460" stroke-dasharray="0" marker-end="" style="pointer-events: none;"/></g><g transform="translate(-255 -460)" class="EdgeLabel"><g class="edge-handle"><rect class="EdgeLabel__outline" x="-18.44686508178711" y="-4.3227479457855225" rx="3" stroke="#738694" stroke-width=".8px" fill="white" width="36.89373016357422" height="8.645495891571045"/><text text-anchor="middle" dy="1.4113739728927612" class="EdgeLabel__text" fill="#738694" pointer-events="none" style="font-size: 5px; font-family: sans-serif;">Contract award</text></g></g><g class="edge"><path stroke="rgba(0,0,0,0)" stroke-width="4" fill="none" d="M-700 -520 L -610 -600" style="cursor: pointer;"/><path stroke="#738694" stroke-width="1" fill="none" d="M-700 -520 L -610 -600" stroke-dasharray="0" marker-end="" style="pointer-events: none;"/></g><g transform="translate(-655 -560)" class="EdgeLabel"><g class="edge-handle"><rect class="EdgeLabel__outline" x="-9.91158676147461" y="-4.3227479457855225" rx="3" stroke="#738694" stroke-width=".8px" fill="white" width="19.82317352294922" height="8.645495891571045"/><text text-anchor="middle" dy="1.4113739728927612" class="EdgeLabel__text" fill="#738694" pointer-events="none" style="font-size: 5px; font-family: sans-serif;">Friends</text></g></g><g class="edge"><path stroke="rgba(0,0,0,0)" stroke-width="4" fill="none" d="M-490 -520 Q -536.335690286176 -519.5492813552382 -560 -520" style="cursor: pointer;"/><path stroke="#738694" stroke-width="1" fill="none" d="M-490 -520 Q -536.335690286176 -519.5492813552382 -560 -520" stroke-dasharray="1" marker-end="" style="pointer-events: none;"/></g><g transform="translate(-530.667845143088 -519.7746406776191)" class="EdgeLabel"><g class="edge-handle"><rect class="EdgeLabel__outline" x="-10.912243843078613" y="-4.3227479457855225" rx="3" stroke="#738694" stroke-width=".8px" fill="white" width="21.824487686157227" height="8.645495891571045"/><text text-anchor="middle" dy="1.4113739728927612" class="EdgeLabel__text" fill="#738694" pointer-events="none" style="font-size: 5px; font-family: sans-serif;">Address</text></g></g><g class="edge"><path stroke="rgba(0,0,0,0)" stroke-width="4" fill="none" d="M-610 -490 Q -596.2800270098433 -503.47332934646965 -560 -520" style="cursor: pointer;"/><path stroke="#738694" stroke-width="1" fill="none" d="M-610 -490 Q -596.2800270098433 -503.47332934646965 -560 -520" stroke-dasharray="1" marker-end="" style="pointer-events: none;"/></g><g transform="translate(-590.6400135049216 -504.2366646732348)" class="EdgeLabel"><g class="edge-handle"><rect class="EdgeLabel__outline" x="-10.912243843078613" y="-4.3227479457855225" rx="3" stroke="#738694" stroke-width=".8px" fill="white" width="21.824487686157227" height="8.645495891571045"/><text text-anchor="middle" dy="1.4113739728927612" class="EdgeLabel__text" fill="#738694" pointer-events="none" style="font-size: 5px; font-family: sans-serif;">Address</text></g></g><g class="edge"><path stroke="rgba(0,0,0,0)" stroke-width="4" fill="none" d="M-530 -550 L -560 -520" style="cursor: pointer;"/><path stroke="#738694" stroke-width="1" fill="none" d="M-530 -550 L -560 -520" stroke-dasharray="1" marker-end="" style="pointer-events: none;"/></g><g transform="translate(-545 -535)" class="EdgeLabel"><g class="edge-handle"><rect class="EdgeLabel__outline" x="-10.912243843078613" y="-4.3227479457855225" rx="3" stroke="#738694" stroke-width=".8px" fill="white" width="21.824487686157227" height="8.645495891571045"/><text text-anchor="middle" dy="1.4113739728927612" class="EdgeLabel__text" fill="#738694" pointer-events="none" style="font-size: 5px; font-family: sans-serif;">Address</text></g></g><g class="edge"><path stroke="rgba(0,0,0,0)" stroke-width="4" fill="none" d="M-580 -550 L -530 -550" style="cursor: pointer;"/><path stroke="#738694" stroke-width="1" fill="none" d="M-580 -550 L -530 -550" stroke-dasharray="0" marker-end="" style="pointer-events: none;"/></g><g transform="translate(-555 -550)" class="EdgeLabel"><g class="edge-handle"><rect class="EdgeLabel__outline" x="-13.549086570739746" y="-4.3227479457855225" rx="3" stroke="#738694" stroke-width=".8px" fill="white" width="27.098173141479492" height="8.645495891571045"/><text text-anchor="middle" dy="1.4113739728927612" class="EdgeLabel__text" fill="#738694" pointer-events="none" style="font-size: 5px; font-family: sans-serif;">Ownership</text></g></g><g class="edge"><path stroke="rgba(0,0,0,0)" stroke-width="4" fill="none" d="M-810 -540 Q -777.1645301979672 -540.3236462989748 -740 -540" style="cursor: pointer;"/><path stroke="#738694" stroke-width="1" fill="none" d="M-810 -540 Q -777.1645301979672 -540.3236462989748 -740 -540" stroke-dasharray="0" marker-end="" style="pointer-events: none;"/></g><g transform="translate(-776.0822650989836 -540.1618231494874)" class="EdgeLabel"><g class="edge-handle"><rect class="EdgeLabel__outline" x="-6.96398401260376" y="-4.3227479457855225" rx="3" stroke="#738694" stroke-width=".8px" fill="white" width="13.92796802520752" height="8.645495891571045"/><text text-anchor="middle" dy="1.4113739728927612" class="EdgeLabel__text" fill="#738694" pointer-events="none" style="font-size: 5px; font-family: sans-serif;">CEO</text></g></g><g class="edge"><path stroke="rgba(0,0,0,0)" stroke-width="4" fill="none" d="M-720 -600 L -740 -540" style="cursor: pointer;"/><path stroke="#738694" stroke-width="1" fill="none" d="M-720 -600 L -740 -540" stroke-dasharray="0" marker-end="" style="pointer-events: none;"/></g><g transform="translate(-730 -570)" class="EdgeLabel"><g class="edge-handle"><rect class="EdgeLabel__outline" x="-18.44686508178711" y="-4.3227479457855225" rx="3" stroke="#738694" stroke-width=".8px" fill="white" width="36.89373016357422" height="8.645495891571045"/><text text-anchor="middle" dy="1.4113739728927612" class="EdgeLabel__text" fill="#738694" pointer-events="none" style="font-size: 5px; font-family: sans-serif;">Contract award</text></g></g><g class="edge"><path stroke="rgba(0,0,0,0)" stroke-width="4" fill="none" d="M-760 -610 L -740 -540" style="cursor: pointer;"/><path stroke="#738694" stroke-width="1" fill="none" d="M-760 -610 L -740 -540" stroke-dasharray="0" marker-end="" style="pointer-events: none;"/></g><g transform="translate(-750 -575)" class="EdgeLabel"><g class="edge-handle"><rect class="EdgeLabel__outline" x="-18.44686508178711" y="-4.3227479457855225" rx="3" stroke="#738694" stroke-width=".8px" fill="white" width="36.89373016357422" height="8.645495891571045"/><text text-anchor="middle" dy="1.4113739728927612" class="EdgeLabel__text" fill="#738694" pointer-events="none" style="font-size: 5px; font-family: sans-serif;">Contract award</text></g></g><g class="edge"><path stroke="rgba(0,0,0,0)" stroke-width="4" fill="none" d="M-740 -440 L -740 -500" style="cursor: pointer;"/><path stroke="#738694" stroke-width="1" fill="none" d="M-740 -440 L -740 -500" stroke-dasharray="0" marker-end="" style="pointer-events: none;"/></g><g transform="translate(-740 -470)" class="EdgeLabel"><g class="edge-handle"><rect class="EdgeLabel__outline" x="-18.44686508178711" y="-4.3227479457855225" rx="3" stroke="#738694" stroke-width=".8px" fill="white" width="36.89373016357422" height="8.645495891571045"/><text text-anchor="middle" dy="1.4113739728927612" class="EdgeLabel__text" fill="#738694" pointer-events="none" style="font-size: 5px; font-family: sans-serif;">Contract award</text></g></g><g class="edge"><path stroke="rgba(0,0,0,0)" stroke-width="4" fill="none" d="M-700 -520 L -560 -520" style="cursor: pointer;"/><path stroke="#738694" stroke-width="1" fill="none" d="M-700 -520 L -560 -520" stroke-dasharray="1" marker-end="" style="pointer-events: none;"/></g><g transform="translate(-630 -520)" class="EdgeLabel"><g class="edge-handle"><rect class="EdgeLabel__outline" x="-10.912243843078613" y="-4.3227479457855225" rx="3" stroke="#738694" stroke-width=".8px" fill="white" width="21.824487686157227" height="8.645495891571045"/><text text-anchor="middle" dy="1.4113739728927612" class="EdgeLabel__text" fill="#738694" pointer-events="none" style="font-size: 5px; font-family: sans-serif;">Address</text></g></g><g class="vertex" transform="translate(-370 -390)" style="cursor: pointer; pointer-events: auto;"><circle class="handle" r="10" fill="#008075" stroke="none"/><text x="0" y="15" text-anchor="middle" alignment-baseline="middle" filter="url(#solid)" pointer-events="none" fill="#008075" style="font-size: 5px; font-family: sans-serif; font-weight: bold;">Janis Timma</text><g transform="scale(0.5)translate(-12 -12)" fill="#FFFFFF" pointer-events="none"><path d="M12 11a3 3 0 100-6 3 3 0 000 6zm0 1a4 4 0 110-8 4 4 0 010 8z"/><path d="M12 23c6.075 0 11-4.925 11-11S18.075 1 12 1 1 5.925 1 12s4.925 11 11 11zm0 1C5.373 24 0 18.627 0 12S5.373 0 12 0s12 5.373 12 12-5.373 12-12 12z"/><path d="M6.26 22.541L6 22.399V16a4 4 0 014-4h4a4 4 0 014 4v6.399l-.26.142A11.946 11.946 0 0112 24c-2.022 0-3.984-.5-5.74-1.459zm.74-.74C8.541 22.589 10.245 23 12 23s3.459-.41 5-1.2V16a3 3 0 00-3-3h-4a3 3 0 00-3 3v5.8z"/></g></g><g class="vertex" transform="translate(-610 -490)" style="cursor: pointer; pointer-events: auto;"><circle class="handle" r="10" fill="#A66321" stroke="none"/><text x="0" y="15" text-anchor="middle" alignment-baseline="middle" filter="url(#solid)" pointer-events="none" fill="#A66321" style="font-size: 5px; font-family: sans-serif; font-weight: bold;">SIA Beetroot Lab</text><g transform="scale(0.5)translate(-12 -12)" fill="#FFFFFF" pointer-events="none"><path d="M1 5v18h7V5H1zm0-1h8v20H1a1 1 0 01-1-1V5a1 1 0 011-1z"/><path d="M9 22v1h6v-1H9zm-1-1h8v3H8v-3z"/><path d="M9 1v20h6V1H9zm0-1h6a1 1 0 011 1v21H8V1a1 1 0 011-1z"/><path d="M11 3v1h2V3h-2zm0-1h2a1 1 0 011 1v1a1 1 0 01-1 1h-2a1 1 0 01-1-1V3a1 1 0 011-1zM11 7v1h2V7h-2zm0-1h2a1 1 0 011 1v1a1 1 0 01-1 1h-2a1 1 0 01-1-1V7a1 1 0 011-1zM11 11v1h2v-1h-2zm0-1h2a1 1 0 011 1v1a1 1 0 01-1 1h-2a1 1 0 01-1-1v-1a1 1 0 011-1zM3 8h1V7H3v1zm0-2h1a1 1 0 011 1v1a1 1 0 01-1 1H3a1 1 0 01-1-1V7a1 1 0 011-1zM7 8h1V7H7v1zm0-2h1a1 1 0 011 1v1a1 1 0 01-1 1H7a1 1 0 01-1-1V7a1 1 0 011-1zM3 12h1v-1H3v1zm0-2h1a1 1 0 011 1v1a1 1 0 01-1 1H3a1 1 0 01-1-1v-1a1 1 0 011-1zM7 12h1v-1H7v1zm0-2h1a1 1 0 011 1v1a1 1 0 01-1 1H7a1 1 0 01-1-1v-1a1 1 0 011-1zM3 16h1v-1H3v1zm0-2h1a1 1 0 011 1v1a1 1 0 01-1 1H3a1 1 0 01-1-1v-1a1 1 0 011-1zM7 16h1v-1H7v1zm0-2h1a1 1 0 011 1v1a1 1 0 01-1 1H7a1 1 0 01-1-1v-1a1 1 0 011-1zM3 20h1v-1H3v1zm0-2h1a1 1 0 011 1v1a1 1 0 01-1 1H3a1 1 0 01-1-1v-1a1 1 0 011-1zM7 20h1v-1H7v1zm0-2h1a1 1 0 011 1v1a1 1 0 01-1 1H7a1 1 0 01-1-1v-1a1 1 0 011-1zM16 20h1v-1h-1v1zm0-2h1a1 1 0 011 1v1a1 1 0 01-1 1h-1a1 1 0 01-1-1v-1a1 1 0 011-1zM20 20h1v-1h-1v1zm0-2h1a1 1 0 011 1v1a1 1 0 01-1 1h-1a1 1 0 01-1-1v-1a1 1 0 011-1zM20 16h1v-1h-1v1zm0-2h1a1 1 0 011 1v1a1 1 0 01-1 1h-1a1 1 0 01-1-1v-1a1 1 0 011-1zM16 16h1v-1h-1v1zm0-2h1a1 1 0 011 1v1a1 1 0 01-1 1h-1a1 1 0 01-1-1v-1a1 1 0 011-1zM16 12h1v-1h-1v1zm0-2h1a1 1 0 011 1v1a1 1 0 01-1 1h-1a1 1 0 01-1-1v-1a1 1 0 011-1zM20 12h1v-1h-1v1zm0-2h1a1 1 0 011 1v1a1 1 0 01-1 1h-1a1 1 0 01-1-1v-1a1 1 0 011-1zM20 8h1V7h-1v1zm0-2h1a1 1 0 011 1v1a1 1 0 01-1 1h-1a1 1 0 01-1-1V7a1 1 0 011-1zM16 8h1V7h-1v1zm0-2h1a1 1 0 011 1v1a1 1 0 01-1 1h-1a1 1 0 01-1-1V7a1 1 0 011-1zM11 15v1h2v-1h-2zm0-1h2a1 1 0 011 1v1a1 1 0 01-1 1h-2a1 1 0 01-1-1v-1a1 1 0 011-1zM11 19v2h2v-2h-2zm0-1h2a1 1 0 011 1v3h-4v-3a1 1 0 011-1z"/><path d="M16 5v18h7V5h-7zm0-1h7a1 1 0 011 1v18a1 1 0 01-1 1h-8V5a1 1 0 011-1z"/></g></g><g class="vertex" transform="translate(-610 -600)" style="cursor: pointer; pointer-events: auto;"><circle class="handle" r="10" fill="#0E5A8A" stroke="none"/><text x="0" y="15" text-anchor="middle" alignment-baseline="middle" filter="url(#solid)" pointer-events="none" fill="#0E5A8A" style="font-size: 5px; font-family: sans-serif; font-weight: bold;">Guntars Galvanovskis</text><g transform="scale(0.5)translate(-12 -12)" fill="#FFFFFF" pointer-events="none"><path d="M12 11a3 3 0 100-6 3 3 0 000 6zm0 1a4 4 0 110-8 4 4 0 010 8z"/><path d="M12 23c6.075 0 11-4.925 11-11S18.075 1 12 1 1 5.925 1 12s4.925 11 11 11zm0 1C5.373 24 0 18.627 0 12S5.373 0 12 0s12 5.373 12 12-5.373 12-12 12z"/><path d="M6.26 22.541L6 22.399V16a4 4 0 014-4h4a4 4 0 014 4v6.399l-.26.142A11.946 11.946 0 0112 24c-2.022 0-3.984-.5-5.74-1.459zm.74-.74C8.541 22.589 10.245 23 12 23s3.459-.41 5-1.2V16a3 3 0 00-3-3h-4a3 3 0 00-3 3v5.8z"/></g></g><g class="vertex" transform="translate(-550 -460)" style="cursor: pointer; pointer-events: auto;"><circle class="handle" r="10" fill="#0E5A8A" stroke="none"/><text x="0" y="15" text-anchor="middle" alignment-baseline="middle" filter="url(#solid)" pointer-events="none" fill="#0E5A8A" style="font-size: 5px; font-family: sans-serif; font-weight: bold;">Edgars Vecozoliņš</text><g transform="scale(0.5)translate(-12 -12)" fill="#FFFFFF" pointer-events="none"><path d="M12 11a3 3 0 100-6 3 3 0 000 6zm0 1a4 4 0 110-8 4 4 0 010 8z"/><path d="M12 23c6.075 0 11-4.925 11-11S18.075 1 12 1 1 5.925 1 12s4.925 11 11 11zm0 1C5.373 24 0 18.627 0 12S5.373 0 12 0s12 5.373 12 12-5.373 12-12 12z"/><path d="M6.26 22.541L6 22.399V16a4 4 0 014-4h4a4 4 0 014 4v6.399l-.26.142A11.946 11.946 0 0112 24c-2.022 0-3.984-.5-5.74-1.459zm.74-.74C8.541 22.589 10.245 23 12 23s3.459-.41 5-1.2V16a3 3 0 00-3-3h-4a3 3 0 00-3 3v5.8z"/></g></g><g class="vertex" transform="translate(-460 -400)" style="cursor: pointer; pointer-events: auto;"><circle class="handle" r="10" fill="#0E5A8A" stroke="none"/><text x="0" y="15" text-anchor="middle" alignment-baseline="middle" filter="url(#solid)" pointer-events="none" fill="#0E5A8A" style="font-size: 5px; font-family: sans-serif; font-weight: bold;">Mārtiņš Grinfelds</text><g transform="scale(0.5)translate(-12 -12)" fill="#FFFFFF" pointer-events="none"><path d="M12 11a3 3 0 100-6 3 3 0 000 6zm0 1a4 4 0 110-8 4 4 0 010 8z"/><path d="M12 23c6.075 0 11-4.925 11-11S18.075 1 12 1 1 5.925 1 12s4.925 11 11 11zm0 1C5.373 24 0 18.627 0 12S5.373 0 12 0s12 5.373 12 12-5.373 12-12 12z"/><path d="M6.26 22.541L6 22.399V16a4 4 0 014-4h4a4 4 0 014 4v6.399l-.26.142A11.946 11.946 0 0112 24c-2.022 0-3.984-.5-5.74-1.459zm.74-.74C8.541 22.589 10.245 23 12 23s3.459-.41 5-1.2V16a3 3 0 00-3-3h-4a3 3 0 00-3 3v5.8z"/></g></g><g class="vertex" transform="translate(-370 -440)" style="cursor: pointer; pointer-events: auto;"><circle class="handle" r="10" fill="#A66321" stroke="none"/><text x="0" y="15" text-anchor="middle" alignment-baseline="middle" filter="url(#solid)" pointer-events="none" fill="#A66321" style="font-size: 5px; font-family: sans-serif; font-weight: bold;">SIA Crowdestor Security Agent</text><g transform="scale(0.5)translate(-12 -12)" fill="#FFFFFF" pointer-events="none"><path d="M1 5v18h7V5H1zm0-1h8v20H1a1 1 0 01-1-1V5a1 1 0 011-1z"/><path d="M9 22v1h6v-1H9zm-1-1h8v3H8v-3z"/><path d="M9 1v20h6V1H9zm0-1h6a1 1 0 011 1v21H8V1a1 1 0 011-1z"/><path d="M11 3v1h2V3h-2zm0-1h2a1 1 0 011 1v1a1 1 0 01-1 1h-2a1 1 0 01-1-1V3a1 1 0 011-1zM11 7v1h2V7h-2zm0-1h2a1 1 0 011 1v1a1 1 0 01-1 1h-2a1 1 0 01-1-1V7a1 1 0 011-1zM11 11v1h2v-1h-2zm0-1h2a1 1 0 011 1v1a1 1 0 01-1 1h-2a1 1 0 01-1-1v-1a1 1 0 011-1zM3 8h1V7H3v1zm0-2h1a1 1 0 011 1v1a1 1 0 01-1 1H3a1 1 0 01-1-1V7a1 1 0 011-1zM7 8h1V7H7v1zm0-2h1a1 1 0 011 1v1a1 1 0 01-1 1H7a1 1 0 01-1-1V7a1 1 0 011-1zM3 12h1v-1H3v1zm0-2h1a1 1 0 011 1v1a1 1 0 01-1 1H3a1 1 0 01-1-1v-1a1 1 0 011-1zM7 12h1v-1H7v1zm0-2h1a1 1 0 011 1v1a1 1 0 01-1 1H7a1 1 0 01-1-1v-1a1 1 0 011-1zM3 16h1v-1H3v1zm0-2h1a1 1 0 011 1v1a1 1 0 01-1 1H3a1 1 0 01-1-1v-1a1 1 0 011-1zM7 16h1v-1H7v1zm0-2h1a1 1 0 011 1v1a1 1 0 01-1 1H7a1 1 0 01-1-1v-1a1 1 0 011-1zM3 20h1v-1H3v1zm0-2h1a1 1 0 011 1v1a1 1 0 01-1 1H3a1 1 0 01-1-1v-1a1 1 0 011-1zM7 20h1v-1H7v1zm0-2h1a1 1 0 011 1v1a1 1 0 01-1 1H7a1 1 0 01-1-1v-1a1 1 0 011-1zM16 20h1v-1h-1v1zm0-2h1a1 1 0 011 1v1a1 1 0 01-1 1h-1a1 1 0 01-1-1v-1a1 1 0 011-1zM20 20h1v-1h-1v1zm0-2h1a1 1 0 011 1v1a1 1 0 01-1 1h-1a1 1 0 01-1-1v-1a1 1 0 011-1zM20 16h1v-1h-1v1zm0-2h1a1 1 0 011 1v1a1 1 0 01-1 1h-1a1 1 0 01-1-1v-1a1 1 0 011-1zM16 16h1v-1h-1v1zm0-2h1a1 1 0 011 1v1a1 1 0 01-1 1h-1a1 1 0 01-1-1v-1a1 1 0 011-1zM16 12h1v-1h-1v1zm0-2h1a1 1 0 011 1v1a1 1 0 01-1 1h-1a1 1 0 01-1-1v-1a1 1 0 011-1zM20 12h1v-1h-1v1zm0-2h1a1 1 0 011 1v1a1 1 0 01-1 1h-1a1 1 0 01-1-1v-1a1 1 0 011-1zM20 8h1V7h-1v1zm0-2h1a1 1 0 011 1v1a1 1 0 01-1 1h-1a1 1 0 01-1-1V7a1 1 0 011-1zM16 8h1V7h-1v1zm0-2h1a1 1 0 011 1v1a1 1 0 01-1 1h-1a1 1 0 01-1-1V7a1 1 0 011-1zM11 15v1h2v-1h-2zm0-1h2a1 1 0 011 1v1a1 1 0 01-1 1h-2a1 1 0 01-1-1v-1a1 1 0 011-1zM11 19v2h2v-2h-2zm0-1h2a1 1 0 011 1v3h-4v-3a1 1 0 011-1z"/><path d="M16 5v18h7V5h-7zm0-1h7a1 1 0 011 1v18a1 1 0 01-1 1h-8V5a1 1 0 011-1z"/></g></g><g class="vertex" transform="translate(-310 -400)" style="cursor: pointer; pointer-events: auto;"><circle class="handle" r="10" fill="#0E5A8A" stroke="none"/><text x="0" y="15" text-anchor="middle" alignment-baseline="middle" filter="url(#solid)" pointer-events="none" fill="#0E5A8A" style="font-size: 5px; font-family: sans-serif; font-weight: bold;">Gunārs Ūdris</text><g transform="scale(0.5)translate(-12 -12)" fill="#FFFFFF" pointer-events="none"><path d="M12 11a3 3 0 100-6 3 3 0 000 6zm0 1a4 4 0 110-8 4 4 0 010 8z"/><path d="M12 23c6.075 0 11-4.925 11-11S18.075 1 12 1 1 5.925 1 12s4.925 11 11 11zm0 1C5.373 24 0 18.627 0 12S5.373 0 12 0s12 5.373 12 12-5.373 12-12 12z"/><path d="M6.26 22.541L6 22.399V16a4 4 0 014-4h4a4 4 0 014 4v6.399l-.26.142A11.946 11.946 0 0112 24c-2.022 0-3.984-.5-5.74-1.459zm.74-.74C8.541 22.589 10.245 23 12 23s3.459-.41 5-1.2V16a3 3 0 00-3-3h-4a3 3 0 00-3 3v5.8z"/></g></g><g class="vertex" transform="translate(-290 -460)" style="cursor: pointer; pointer-events: auto;"><circle class="handle" r="10" fill="#A66321" stroke="none"/><text x="0" y="15" text-anchor="middle" alignment-baseline="middle" filter="url(#solid)" pointer-events="none" fill="#A66321" style="font-size: 5px; font-family: sans-serif; font-weight: bold;">SIA Dižozols investments</text><g transform="scale(0.5)translate(-12 -12)" fill="#FFFFFF" pointer-events="none"><path d="M1 5v18h7V5H1zm0-1h8v20H1a1 1 0 01-1-1V5a1 1 0 011-1z"/><path d="M9 22v1h6v-1H9zm-1-1h8v3H8v-3z"/><path d="M9 1v20h6V1H9zm0-1h6a1 1 0 011 1v21H8V1a1 1 0 011-1z"/><path d="M11 3v1h2V3h-2zm0-1h2a1 1 0 011 1v1a1 1 0 01-1 1h-2a1 1 0 01-1-1V3a1 1 0 011-1zM11 7v1h2V7h-2zm0-1h2a1 1 0 011 1v1a1 1 0 01-1 1h-2a1 1 0 01-1-1V7a1 1 0 011-1zM11 11v1h2v-1h-2zm0-1h2a1 1 0 011 1v1a1 1 0 01-1 1h-2a1 1 0 01-1-1v-1a1 1 0 011-1zM3 8h1V7H3v1zm0-2h1a1 1 0 011 1v1a1 1 0 01-1 1H3a1 1 0 01-1-1V7a1 1 0 011-1zM7 8h1V7H7v1zm0-2h1a1 1 0 011 1v1a1 1 0 01-1 1H7a1 1 0 01-1-1V7a1 1 0 011-1zM3 12h1v-1H3v1zm0-2h1a1 1 0 011 1v1a1 1 0 01-1 1H3a1 1 0 01-1-1v-1a1 1 0 011-1zM7 12h1v-1H7v1zm0-2h1a1 1 0 011 1v1a1 1 0 01-1 1H7a1 1 0 01-1-1v-1a1 1 0 011-1zM3 16h1v-1H3v1zm0-2h1a1 1 0 011 1v1a1 1 0 01-1 1H3a1 1 0 01-1-1v-1a1 1 0 011-1zM7 16h1v-1H7v1zm0-2h1a1 1 0 011 1v1a1 1 0 01-1 1H7a1 1 0 01-1-1v-1a1 1 0 011-1zM3 20h1v-1H3v1zm0-2h1a1 1 0 011 1v1a1 1 0 01-1 1H3a1 1 0 01-1-1v-1a1 1 0 011-1zM7 20h1v-1H7v1zm0-2h1a1 1 0 011 1v1a1 1 0 01-1 1H7a1 1 0 01-1-1v-1a1 1 0 011-1zM16 20h1v-1h-1v1zm0-2h1a1 1 0 011 1v1a1 1 0 01-1 1h-1a1 1 0 01-1-1v-1a1 1 0 011-1zM20 20h1v-1h-1v1zm0-2h1a1 1 0 011 1v1a1 1 0 01-1 1h-1a1 1 0 01-1-1v-1a1 1 0 011-1zM20 16h1v-1h-1v1zm0-2h1a1 1 0 011 1v1a1 1 0 01-1 1h-1a1 1 0 01-1-1v-1a1 1 0 011-1zM16 16h1v-1h-1v1zm0-2h1a1 1 0 011 1v1a1 1 0 01-1 1h-1a1 1 0 01-1-1v-1a1 1 0 011-1zM16 12h1v-1h-1v1zm0-2h1a1 1 0 011 1v1a1 1 0 01-1 1h-1a1 1 0 01-1-1v-1a1 1 0 011-1zM20 12h1v-1h-1v1zm0-2h1a1 1 0 011 1v1a1 1 0 01-1 1h-1a1 1 0 01-1-1v-1a1 1 0 011-1zM20 8h1V7h-1v1zm0-2h1a1 1 0 011 1v1a1 1 0 01-1 1h-1a1 1 0 01-1-1V7a1 1 0 011-1zM16 8h1V7h-1v1zm0-2h1a1 1 0 011 1v1a1 1 0 01-1 1h-1a1 1 0 01-1-1V7a1 1 0 011-1zM11 15v1h2v-1h-2zm0-1h2a1 1 0 011 1v1a1 1 0 01-1 1h-2a1 1 0 01-1-1v-1a1 1 0 011-1zM11 19v2h2v-2h-2zm0-1h2a1 1 0 011 1v3h-4v-3a1 1 0 011-1z"/><path d="M16 5v18h7V5h-7zm0-1h7a1 1 0 011 1v18a1 1 0 01-1 1h-8V5a1 1 0 011-1z"/></g></g><g class="vertex" transform="translate(-370 -480)" style="cursor: pointer; pointer-events: auto;"><circle class="handle" r="10" fill="#0E5A8A" stroke="none"/><text x="0" y="15" text-anchor="middle" alignment-baseline="middle" filter="url(#solid)" pointer-events="none" fill="#0E5A8A" style="font-size: 5px; font-family: sans-serif; font-weight: bold;">Raimonds Cipe</text><g transform="scale(0.5)translate(-12 -12)" fill="#FFFFFF" pointer-events="none"><path d="M12 11a3 3 0 100-6 3 3 0 000 6zm0 1a4 4 0 110-8 4 4 0 010 8z"/><path d="M12 23c6.075 0 11-4.925 11-11S18.075 1 12 1 1 5.925 1 12s4.925 11 11 11zm0 1C5.373 24 0 18.627 0 12S5.373 0 12 0s12 5.373 12 12-5.373 12-12 12z"/><path d="M6.26 22.541L6 22.399V16a4 4 0 014-4h4a4 4 0 014 4v6.399l-.26.142A11.946 11.946 0 0112 24c-2.022 0-3.984-.5-5.74-1.459zm.74-.74C8.541 22.589 10.245 23 12 23s3.459-.41 5-1.2V16a3 3 0 00-3-3h-4a3 3 0 00-3 3v5.8z"/></g></g><g class="vertex" transform="translate(-370 -320)" style="cursor: pointer; pointer-events: auto;"><circle class="handle" r="10" fill="#0E5A8A" stroke="none"/><text x="0" y="15" text-anchor="middle" alignment-baseline="middle" filter="url(#solid)" pointer-events="none" fill="#0E5A8A" style="font-size: 5px; font-family: sans-serif; font-weight: bold;">Raimonds Timma</text><g transform="scale(0.5)translate(-12 -12)" fill="#FFFFFF" pointer-events="none"><path d="M12 11a3 3 0 100-6 3 3 0 000 6zm0 1a4 4 0 110-8 4 4 0 010 8z"/><path d="M12 23c6.075 0 11-4.925 11-11S18.075 1 12 1 1 5.925 1 12s4.925 11 11 11zm0 1C5.373 24 0 18.627 0 12S5.373 0 12 0s12 5.373 12 12-5.373 12-12 12z"/><path d="M6.26 22.541L6 22.399V16a4 4 0 014-4h4a4 4 0 014 4v6.399l-.26.142A11.946 11.946 0 0112 24c-2.022 0-3.984-.5-5.74-1.459zm.74-.74C8.541 22.589 10.245 23 12 23s3.459-.41 5-1.2V16a3 3 0 00-3-3h-4a3 3 0 00-3 3v5.8z"/></g></g><g class="vertex" transform="translate(-490 -520)" style="cursor: pointer; pointer-events: auto;"><circle class="handle" r="10" fill="#A66321" stroke="none"/><text x="0" y="15" text-anchor="middle" alignment-baseline="middle" filter="url(#solid)" pointer-events="none" fill="#A66321" style="font-size: 5px; font-family: sans-serif; font-weight: bold;">SIA Dizozols</text><g transform="scale(0.5)translate(-12 -12)" fill="#FFFFFF" pointer-events="none"><path d="M1 5v18h7V5H1zm0-1h8v20H1a1 1 0 01-1-1V5a1 1 0 011-1z"/><path d="M9 22v1h6v-1H9zm-1-1h8v3H8v-3z"/><path d="M9 1v20h6V1H9zm0-1h6a1 1 0 011 1v21H8V1a1 1 0 011-1z"/><path d="M11 3v1h2V3h-2zm0-1h2a1 1 0 011 1v1a1 1 0 01-1 1h-2a1 1 0 01-1-1V3a1 1 0 011-1zM11 7v1h2V7h-2zm0-1h2a1 1 0 011 1v1a1 1 0 01-1 1h-2a1 1 0 01-1-1V7a1 1 0 011-1zM11 11v1h2v-1h-2zm0-1h2a1 1 0 011 1v1a1 1 0 01-1 1h-2a1 1 0 01-1-1v-1a1 1 0 011-1zM3 8h1V7H3v1zm0-2h1a1 1 0 011 1v1a1 1 0 01-1 1H3a1 1 0 01-1-1V7a1 1 0 011-1zM7 8h1V7H7v1zm0-2h1a1 1 0 011 1v1a1 1 0 01-1 1H7a1 1 0 01-1-1V7a1 1 0 011-1zM3 12h1v-1H3v1zm0-2h1a1 1 0 011 1v1a1 1 0 01-1 1H3a1 1 0 01-1-1v-1a1 1 0 011-1zM7 12h1v-1H7v1zm0-2h1a1 1 0 011 1v1a1 1 0 01-1 1H7a1 1 0 01-1-1v-1a1 1 0 011-1zM3 16h1v-1H3v1zm0-2h1a1 1 0 011 1v1a1 1 0 01-1 1H3a1 1 0 01-1-1v-1a1 1 0 011-1zM7 16h1v-1H7v1zm0-2h1a1 1 0 011 1v1a1 1 0 01-1 1H7a1 1 0 01-1-1v-1a1 1 0 011-1zM3 20h1v-1H3v1zm0-2h1a1 1 0 011 1v1a1 1 0 01-1 1H3a1 1 0 01-1-1v-1a1 1 0 011-1zM7 20h1v-1H7v1zm0-2h1a1 1 0 011 1v1a1 1 0 01-1 1H7a1 1 0 01-1-1v-1a1 1 0 011-1zM16 20h1v-1h-1v1zm0-2h1a1 1 0 011 1v1a1 1 0 01-1 1h-1a1 1 0 01-1-1v-1a1 1 0 011-1zM20 20h1v-1h-1v1zm0-2h1a1 1 0 011 1v1a1 1 0 01-1 1h-1a1 1 0 01-1-1v-1a1 1 0 011-1zM20 16h1v-1h-1v1zm0-2h1a1 1 0 011 1v1a1 1 0 01-1 1h-1a1 1 0 01-1-1v-1a1 1 0 011-1zM16 16h1v-1h-1v1zm0-2h1a1 1 0 011 1v1a1 1 0 01-1 1h-1a1 1 0 01-1-1v-1a1 1 0 011-1zM16 12h1v-1h-1v1zm0-2h1a1 1 0 011 1v1a1 1 0 01-1 1h-1a1 1 0 01-1-1v-1a1 1 0 011-1zM20 12h1v-1h-1v1zm0-2h1a1 1 0 011 1v1a1 1 0 01-1 1h-1a1 1 0 01-1-1v-1a1 1 0 011-1zM20 8h1V7h-1v1zm0-2h1a1 1 0 011 1v1a1 1 0 01-1 1h-1a1 1 0 01-1-1V7a1 1 0 011-1zM16 8h1V7h-1v1zm0-2h1a1 1 0 011 1v1a1 1 0 01-1 1h-1a1 1 0 01-1-1V7a1 1 0 011-1zM11 15v1h2v-1h-2zm0-1h2a1 1 0 011 1v1a1 1 0 01-1 1h-2a1 1 0 01-1-1v-1a1 1 0 011-1zM11 19v2h2v-2h-2zm0-1h2a1 1 0 011 1v3h-4v-3a1 1 0 011-1z"/><path d="M16 5v18h7V5h-7zm0-1h7a1 1 0 011 1v18a1 1 0 01-1 1h-8V5a1 1 0 011-1z"/></g></g><g class="vertex" transform="translate(-370 -520)" style="cursor: pointer; pointer-events: auto;"><circle class="handle" r="10" fill="#0E5A8A" stroke="none"/><text x="0" y="15" text-anchor="middle" alignment-baseline="middle" filter="url(#solid)" pointer-events="none" fill="#0E5A8A" style="font-size: 5px; font-family: sans-serif; font-weight: bold;">Juris Andžejevskis</text><g transform="scale(0.5)translate(-12 -12)" fill="#FFFFFF" pointer-events="none"><path d="M12 11a3 3 0 100-6 3 3 0 000 6zm0 1a4 4 0 110-8 4 4 0 010 8z"/><path d="M12 23c6.075 0 11-4.925 11-11S18.075 1 12 1 1 5.925 1 12s4.925 11 11 11zm0 1C5.373 24 0 18.627 0 12S5.373 0 12 0s12 5.373 12 12-5.373 12-12 12z"/><path d="M6.26 22.541L6 22.399V16a4 4 0 014-4h4a4 4 0 014 4v6.399l-.26.142A11.946 11.946 0 0112 24c-2.022 0-3.984-.5-5.74-1.459zm.74-.74C8.541 22.589 10.245 23 12 23s3.459-.41 5-1.2V16a3 3 0 00-3-3h-4a3 3 0 00-3 3v5.8z"/></g></g><g class="vertex" transform="translate(-490 -600)" style="cursor: pointer; pointer-events: auto;"><circle class="handle" r="10" fill="#0E5A8A" stroke="none"/><text x="0" y="15" text-anchor="middle" alignment-baseline="middle" filter="url(#solid)" pointer-events="none" fill="#0E5A8A" style="font-size: 5px; font-family: sans-serif; font-weight: bold;">Kate Glika</text><g transform="scale(0.5)translate(-12 -12)" fill="#FFFFFF" pointer-events="none"><path d="M12 11a3 3 0 100-6 3 3 0 000 6zm0 1a4 4 0 110-8 4 4 0 010 8z"/><path d="M12 23c6.075 0 11-4.925 11-11S18.075 1 12 1 1 5.925 1 12s4.925 11 11 11zm0 1C5.373 24 0 18.627 0 12S5.373 0 12 0s12 5.373 12 12-5.373 12-12 12z"/><path d="M6.26 22.541L6 22.399V16a4 4 0 014-4h4a4 4 0 014 4v6.399l-.26.142A11.946 11.946 0 0112 24c-2.022 0-3.984-.5-5.74-1.459zm.74-.74C8.541 22.589 10.245 23 12 23s3.459-.41 5-1.2V16a3 3 0 00-3-3h-4a3 3 0 00-3 3v5.8z"/></g></g><g class="vertex" transform="translate(-370 -560)" style="cursor: pointer; pointer-events: auto;"><circle class="handle" r="10" fill="#0E5A8A" stroke="none"/><text x="0" y="15" text-anchor="middle" alignment-baseline="middle" filter="url(#solid)" pointer-events="none" fill="#0E5A8A" style="font-size: 5px; font-family: sans-serif; font-weight: bold;">Ingus Salmiņš</text><g transform="scale(0.5)translate(-12 -12)" fill="#FFFFFF" pointer-events="none"><path d="M12 11a3 3 0 100-6 3 3 0 000 6zm0 1a4 4 0 110-8 4 4 0 010 8z"/><path d="M12 23c6.075 0 11-4.925 11-11S18.075 1 12 1 1 5.925 1 12s4.925 11 11 11zm0 1C5.373 24 0 18.627 0 12S5.373 0 12 0s12 5.373 12 12-5.373 12-12 12z"/><path d="M6.26 22.541L6 22.399V16a4 4 0 014-4h4a4 4 0 014 4v6.399l-.26.142A11.946 11.946 0 0112 24c-2.022 0-3.984-.5-5.74-1.459zm.74-.74C8.541 22.589 10.245 23 12 23s3.459-.41 5-1.2V16a3 3 0 00-3-3h-4a3 3 0 00-3 3v5.8z"/></g></g><g class="vertex" transform="translate(-580 -550)" style="cursor: pointer; pointer-events: auto;"><circle class="handle" r="10" fill="#0E5A8A" stroke="none"/><text x="0" y="15" text-anchor="middle" alignment-baseline="middle" filter="url(#solid)" pointer-events="none" fill="#0E5A8A" style="font-size: 5px; font-family: sans-serif; font-weight: bold;">Ivars Tanomeca</text><g transform="scale(0.5)translate(-12 -12)" fill="#FFFFFF" pointer-events="none"><path d="M12 11a3 3 0 100-6 3 3 0 000 6zm0 1a4 4 0 110-8 4 4 0 010 8z"/><path d="M12 23c6.075 0 11-4.925 11-11S18.075 1 12 1 1 5.925 1 12s4.925 11 11 11zm0 1C5.373 24 0 18.627 0 12S5.373 0 12 0s12 5.373 12 12-5.373 12-12 12z"/><path d="M6.26 22.541L6 22.399V16a4 4 0 014-4h4a4 4 0 014 4v6.399l-.26.142A11.946 11.946 0 0112 24c-2.022 0-3.984-.5-5.74-1.459zm.74-.74C8.541 22.589 10.245 23 12 23s3.459-.41 5-1.2V16a3 3 0 00-3-3h-4a3 3 0 00-3 3v5.8z"/></g></g><g class="vertex" transform="translate(-460 -320)" style="cursor: pointer; pointer-events: auto;"><circle class="handle" r="10" fill="#A66321" stroke="none"/><text x="0" y="15" text-anchor="middle" alignment-baseline="middle" filter="url(#solid)" pointer-events="none" fill="#A66321" style="font-size: 5px; font-family: sans-serif; font-weight: bold;">SIA Ameta Cargo</text><g transform="scale(0.5)translate(-12 -12)" fill="#FFFFFF" pointer-events="none"><path d="M1 5v18h7V5H1zm0-1h8v20H1a1 1 0 01-1-1V5a1 1 0 011-1z"/><path d="M9 22v1h6v-1H9zm-1-1h8v3H8v-3z"/><path d="M9 1v20h6V1H9zm0-1h6a1 1 0 011 1v21H8V1a1 1 0 011-1z"/><path d="M11 3v1h2V3h-2zm0-1h2a1 1 0 011 1v1a1 1 0 01-1 1h-2a1 1 0 01-1-1V3a1 1 0 011-1zM11 7v1h2V7h-2zm0-1h2a1 1 0 011 1v1a1 1 0 01-1 1h-2a1 1 0 01-1-1V7a1 1 0 011-1zM11 11v1h2v-1h-2zm0-1h2a1 1 0 011 1v1a1 1 0 01-1 1h-2a1 1 0 01-1-1v-1a1 1 0 011-1zM3 8h1V7H3v1zm0-2h1a1 1 0 011 1v1a1 1 0 01-1 1H3a1 1 0 01-1-1V7a1 1 0 011-1zM7 8h1V7H7v1zm0-2h1a1 1 0 011 1v1a1 1 0 01-1 1H7a1 1 0 01-1-1V7a1 1 0 011-1zM3 12h1v-1H3v1zm0-2h1a1 1 0 011 1v1a1 1 0 01-1 1H3a1 1 0 01-1-1v-1a1 1 0 011-1zM7 12h1v-1H7v1zm0-2h1a1 1 0 011 1v1a1 1 0 01-1 1H7a1 1 0 01-1-1v-1a1 1 0 011-1zM3 16h1v-1H3v1zm0-2h1a1 1 0 011 1v1a1 1 0 01-1 1H3a1 1 0 01-1-1v-1a1 1 0 011-1zM7 16h1v-1H7v1zm0-2h1a1 1 0 011 1v1a1 1 0 01-1 1H7a1 1 0 01-1-1v-1a1 1 0 011-1zM3 20h1v-1H3v1zm0-2h1a1 1 0 011 1v1a1 1 0 01-1 1H3a1 1 0 01-1-1v-1a1 1 0 011-1zM7 20h1v-1H7v1zm0-2h1a1 1 0 011 1v1a1 1 0 01-1 1H7a1 1 0 01-1-1v-1a1 1 0 011-1zM16 20h1v-1h-1v1zm0-2h1a1 1 0 011 1v1a1 1 0 01-1 1h-1a1 1 0 01-1-1v-1a1 1 0 011-1zM20 20h1v-1h-1v1zm0-2h1a1 1 0 011 1v1a1 1 0 01-1 1h-1a1 1 0 01-1-1v-1a1 1 0 011-1zM20 16h1v-1h-1v1zm0-2h1a1 1 0 011 1v1a1 1 0 01-1 1h-1a1 1 0 01-1-1v-1a1 1 0 011-1zM16 16h1v-1h-1v1zm0-2h1a1 1 0 011 1v1a1 1 0 01-1 1h-1a1 1 0 01-1-1v-1a1 1 0 011-1zM16 12h1v-1h-1v1zm0-2h1a1 1 0 011 1v1a1 1 0 01-1 1h-1a1 1 0 01-1-1v-1a1 1 0 011-1zM20 12h1v-1h-1v1zm0-2h1a1 1 0 011 1v1a1 1 0 01-1 1h-1a1 1 0 01-1-1v-1a1 1 0 011-1zM20 8h1V7h-1v1zm0-2h1a1 1 0 011 1v1a1 1 0 01-1 1h-1a1 1 0 01-1-1V7a1 1 0 011-1zM16 8h1V7h-1v1zm0-2h1a1 1 0 011 1v1a1 1 0 01-1 1h-1a1 1 0 01-1-1V7a1 1 0 011-1zM11 15v1h2v-1h-2zm0-1h2a1 1 0 011 1v1a1 1 0 01-1 1h-2a1 1 0 01-1-1v-1a1 1 0 011-1zM11 19v2h2v-2h-2zm0-1h2a1 1 0 011 1v3h-4v-3a1 1 0 011-1z"/><path d="M16 5v18h7V5h-7zm0-1h7a1 1 0 011 1v18a1 1 0 01-1 1h-8V5a1 1 0 011-1z"/></g></g><g class="vertex" transform="translate(-460 -270)" style="cursor: pointer; pointer-events: auto;"><circle class="handle" r="10" fill="#0E5A8A" stroke="none"/><text x="0" y="15" text-anchor="middle" alignment-baseline="middle" filter="url(#solid)" pointer-events="none" fill="#0E5A8A" style="font-size: 5px; font-family: sans-serif; font-weight: bold;">Ģirts Stelbovičs</text><g transform="scale(0.5)translate(-12 -12)" fill="#FFFFFF" pointer-events="none"><path d="M12 11a3 3 0 100-6 3 3 0 000 6zm0 1a4 4 0 110-8 4 4 0 010 8z"/><path d="M12 23c6.075 0 11-4.925 11-11S18.075 1 12 1 1 5.925 1 12s4.925 11 11 11zm0 1C5.373 24 0 18.627 0 12S5.373 0 12 0s12 5.373 12 12-5.373 12-12 12z"/><path d="M6.26 22.541L6 22.399V16a4 4 0 014-4h4a4 4 0 014 4v6.399l-.26.142A11.946 11.946 0 0112 24c-2.022 0-3.984-.5-5.74-1.459zm.74-.74C8.541 22.589 10.245 23 12 23s3.459-.41 5-1.2V16a3 3 0 00-3-3h-4a3 3 0 00-3 3v5.8z"/></g></g><g class="vertex" transform="translate(-520 -320)" style="cursor: pointer; pointer-events: auto;"><circle class="handle" r="10" fill="#A82A2A" stroke="none"/><text x="0" y="15" text-anchor="middle" alignment-baseline="middle" filter="url(#solid)" pointer-events="none" fill="#A82A2A" style="font-size: 5px; font-family: sans-serif; font-weight: bold;">Refinancing of existing loan</text><g transform="scale(0.5)translate(-12 -12)" fill="#FFFFFF" pointer-events="none"><path d="M17 21v-6l1-1v7a1 1 0 01-1 1H3a1 1 0 01-1-1V1a1 1 0 011-1h14a1 1 0 011 1v9l-1 1V1H3v20h14z"/><path d="M4.917 3.5a.5.5 0 01.5-.5h9.166a.5.5 0 110 1H5.417a.5.5 0 01-.5-.5zM4.917 6.5a.5.5 0 01.5-.5h9.166a.5.5 0 110 1H5.417a.5.5 0 01-.5-.5zM4.917 9.5a.5.5 0 01.5-.5h9.166a.5.5 0 110 1H5.417a.5.5 0 01-.5-.5zM6.415 16.282c-.103.224-.21.464-.344.77l-.267.612a59.71 59.71 0 01-.058.13.497.497 0 01-.66.254.503.503 0 01-.253-.661l.055-.124.267-.613c.137-.311.246-.556.352-.786.437-.95.774-1.554 1.106-1.906.608-.645 1.326-.452 1.638.463.108.317.191.635.263.986.047.226.085.443.148.82.142.811.338.825 1.338.825h3.526c.262 0 .474.212.474.474a.49.49 0 01-.474.49c-2.675.092-4.107.138-4.296.138-1.002 0-1.336-.518-1.553-1.754-.184-1.057-.21-1.177-.372-1.656a3.157 3.157 0 00-.015-.042c-.225.268-.512.793-.875 1.58z"/><path d="M15 23v-2h1v2a1 1 0 01-1 1H1a1 1 0 01-1-1V3a1 1 0 011-1h2v1H1v20h14z"/><path d="M13.293 14l7.5-7.5a1 1 0 011.414 0L23.5 7.793a1 1 0 010 1.414l-7.5 7.5a1 1 0 01-.707.293H13v-2.293a1 1 0 01.293-.707zM14 16h1.293l7.5-7.5L21.5 7.207l-7.5 7.5V16z"/></g></g><g class="vertex" transform="translate(-610 -450)" style="cursor: pointer; pointer-events: auto;"><circle class="handle" r="10" fill="#0E5A8A" stroke="none"/><text x="0" y="15" text-anchor="middle" alignment-baseline="middle" filter="url(#solid)" pointer-events="none" fill="#0E5A8A" style="font-size: 5px; font-family: sans-serif; font-weight: bold;">Dāvis Ziediņš</text><g transform="scale(0.5)translate(-12 -12)" fill="#FFFFFF" pointer-events="none"><path d="M12 11a3 3 0 100-6 3 3 0 000 6zm0 1a4 4 0 110-8 4 4 0 010 8z"/><path d="M12 23c6.075 0 11-4.925 11-11S18.075 1 12 1 1 5.925 1 12s4.925 11 11 11zm0 1C5.373 24 0 18.627 0 12S5.373 0 12 0s12 5.373 12 12-5.373 12-12 12z"/><path d="M6.26 22.541L6 22.399V16a4 4 0 014-4h4a4 4 0 014 4v6.399l-.26.142A11.946 11.946 0 0112 24c-2.022 0-3.984-.5-5.74-1.459zm.74-.74C8.541 22.589 10.245 23 12 23s3.459-.41 5-1.2V16a3 3 0 00-3-3h-4a3 3 0 00-3 3v5.8z"/></g></g><g class="vertex" transform="translate(-610 -400)" style="cursor: pointer; pointer-events: auto;"><circle class="handle" r="10" fill="#A66321" stroke="none"/><text x="0" y="15" text-anchor="middle" alignment-baseline="middle" filter="url(#solid)" pointer-events="none" fill="#A66321" style="font-size: 5px; font-family: sans-serif; font-weight: bold;">AS Juno BEFORE AS Dižozols mež…</text><g transform="scale(0.5)translate(-12 -12)" fill="#FFFFFF" pointer-events="none"><path d="M1 5v18h7V5H1zm0-1h8v20H1a1 1 0 01-1-1V5a1 1 0 011-1z"/><path d="M9 22v1h6v-1H9zm-1-1h8v3H8v-3z"/><path d="M9 1v20h6V1H9zm0-1h6a1 1 0 011 1v21H8V1a1 1 0 011-1z"/><path d="M11 3v1h2V3h-2zm0-1h2a1 1 0 011 1v1a1 1 0 01-1 1h-2a1 1 0 01-1-1V3a1 1 0 011-1zM11 7v1h2V7h-2zm0-1h2a1 1 0 011 1v1a1 1 0 01-1 1h-2a1 1 0 01-1-1V7a1 1 0 011-1zM11 11v1h2v-1h-2zm0-1h2a1 1 0 011 1v1a1 1 0 01-1 1h-2a1 1 0 01-1-1v-1a1 1 0 011-1zM3 8h1V7H3v1zm0-2h1a1 1 0 011 1v1a1 1 0 01-1 1H3a1 1 0 01-1-1V7a1 1 0 011-1zM7 8h1V7H7v1zm0-2h1a1 1 0 011 1v1a1 1 0 01-1 1H7a1 1 0 01-1-1V7a1 1 0 011-1zM3 12h1v-1H3v1zm0-2h1a1 1 0 011 1v1a1 1 0 01-1 1H3a1 1 0 01-1-1v-1a1 1 0 011-1zM7 12h1v-1H7v1zm0-2h1a1 1 0 011 1v1a1 1 0 01-1 1H7a1 1 0 01-1-1v-1a1 1 0 011-1zM3 16h1v-1H3v1zm0-2h1a1 1 0 011 1v1a1 1 0 01-1 1H3a1 1 0 01-1-1v-1a1 1 0 011-1zM7 16h1v-1H7v1zm0-2h1a1 1 0 011 1v1a1 1 0 01-1 1H7a1 1 0 01-1-1v-1a1 1 0 011-1zM3 20h1v-1H3v1zm0-2h1a1 1 0 011 1v1a1 1 0 01-1 1H3a1 1 0 01-1-1v-1a1 1 0 011-1zM7 20h1v-1H7v1zm0-2h1a1 1 0 011 1v1a1 1 0 01-1 1H7a1 1 0 01-1-1v-1a1 1 0 011-1zM16 20h1v-1h-1v1zm0-2h1a1 1 0 011 1v1a1 1 0 01-1 1h-1a1 1 0 01-1-1v-1a1 1 0 011-1zM20 20h1v-1h-1v1zm0-2h1a1 1 0 011 1v1a1 1 0 01-1 1h-1a1 1 0 01-1-1v-1a1 1 0 011-1zM20 16h1v-1h-1v1zm0-2h1a1 1 0 011 1v1a1 1 0 01-1 1h-1a1 1 0 01-1-1v-1a1 1 0 011-1zM16 16h1v-1h-1v1zm0-2h1a1 1 0 011 1v1a1 1 0 01-1 1h-1a1 1 0 01-1-1v-1a1 1 0 011-1zM16 12h1v-1h-1v1zm0-2h1a1 1 0 011 1v1a1 1 0 01-1 1h-1a1 1 0 01-1-1v-1a1 1 0 011-1zM20 12h1v-1h-1v1zm0-2h1a1 1 0 011 1v1a1 1 0 01-1 1h-1a1 1 0 01-1-1v-1a1 1 0 011-1zM20 8h1V7h-1v1zm0-2h1a1 1 0 011 1v1a1 1 0 01-1 1h-1a1 1 0 01-1-1V7a1 1 0 011-1zM16 8h1V7h-1v1zm0-2h1a1 1 0 011 1v1a1 1 0 01-1 1h-1a1 1 0 01-1-1V7a1 1 0 011-1zM11 15v1h2v-1h-2zm0-1h2a1 1 0 011 1v1a1 1 0 01-1 1h-2a1 1 0 01-1-1v-1a1 1 0 011-1zM11 19v2h2v-2h-2zm0-1h2a1 1 0 011 1v3h-4v-3a1 1 0 011-1z"/><path d="M16 5v18h7V5h-7zm0-1h7a1 1 0 011 1v18a1 1 0 01-1 1h-8V5a1 1 0 011-1z"/></g></g><g class="vertex" transform="translate(-700 -520)" style="cursor: pointer; pointer-events: auto;"><circle class="handle" r="10" fill="#0E5A8A" stroke="none"/><text x="0" y="15" text-anchor="middle" alignment-baseline="middle" filter="url(#solid)" pointer-events="none" fill="#0E5A8A" style="font-size: 5px; font-family: sans-serif; font-weight: bold;">Kārlis Gudonis</text><g transform="scale(0.5)translate(-12 -12)" fill="#FFFFFF" pointer-events="none"><path d="M12 11a3 3 0 100-6 3 3 0 000 6zm0 1a4 4 0 110-8 4 4 0 010 8z"/><path d="M12 23c6.075 0 11-4.925 11-11S18.075 1 12 1 1 5.925 1 12s4.925 11 11 11zm0 1C5.373 24 0 18.627 0 12S5.373 0 12 0s12 5.373 12 12-5.373 12-12 12z"/><path d="M6.26 22.541L6 22.399V16a4 4 0 014-4h4a4 4 0 014 4v6.399l-.26.142A11.946 11.946 0 0112 24c-2.022 0-3.984-.5-5.74-1.459zm.74-.74C8.541 22.589 10.245 23 12 23s3.459-.41 5-1.2V16a3 3 0 00-3-3h-4a3 3 0 00-3 3v5.8z"/></g></g><g class="vertex" transform="translate(-740 -400)" style="cursor: pointer; pointer-events: auto;"><circle class="handle" r="10" fill="#A82A2A" stroke="none"/><text x="0" y="15" text-anchor="middle" alignment-baseline="middle" filter="url(#solid)" pointer-events="none" fill="#A82A2A" style="font-size: 5px; font-family: sans-serif; font-weight: bold;">MORTGAGE BACKED FINANCING COMP…</text><g transform="scale(0.5)translate(-12 -12)" fill="#FFFFFF" pointer-events="none"><path d="M17 21v-6l1-1v7a1 1 0 01-1 1H3a1 1 0 01-1-1V1a1 1 0 011-1h14a1 1 0 011 1v9l-1 1V1H3v20h14z"/><path d="M4.917 3.5a.5.5 0 01.5-.5h9.166a.5.5 0 110 1H5.417a.5.5 0 01-.5-.5zM4.917 6.5a.5.5 0 01.5-.5h9.166a.5.5 0 110 1H5.417a.5.5 0 01-.5-.5zM4.917 9.5a.5.5 0 01.5-.5h9.166a.5.5 0 110 1H5.417a.5.5 0 01-.5-.5zM6.415 16.282c-.103.224-.21.464-.344.77l-.267.612a59.71 59.71 0 01-.058.13.497.497 0 01-.66.254.503.503 0 01-.253-.661l.055-.124.267-.613c.137-.311.246-.556.352-.786.437-.95.774-1.554 1.106-1.906.608-.645 1.326-.452 1.638.463.108.317.191.635.263.986.047.226.085.443.148.82.142.811.338.825 1.338.825h3.526c.262 0 .474.212.474.474a.49.49 0 01-.474.49c-2.675.092-4.107.138-4.296.138-1.002 0-1.336-.518-1.553-1.754-.184-1.057-.21-1.177-.372-1.656a3.157 3.157 0 00-.015-.042c-.225.268-.512.793-.875 1.58z"/><path d="M15 23v-2h1v2a1 1 0 01-1 1H1a1 1 0 01-1-1V3a1 1 0 011-1h2v1H1v20h14z"/><path d="M13.293 14l7.5-7.5a1 1 0 011.414 0L23.5 7.793a1 1 0 010 1.414l-7.5 7.5a1 1 0 01-.707.293H13v-2.293a1 1 0 01.293-.707zM14 16h1.293l7.5-7.5L21.5 7.207l-7.5 7.5V16z"/></g></g><g class="vertex" transform="translate(-220 -460)" style="cursor: pointer; pointer-events: auto;"><circle class="handle" r="10" fill="#A82A2A" stroke="none"/><text x="0" y="15" text-anchor="middle" alignment-baseline="middle" filter="url(#solid)" pointer-events="none" fill="#A82A2A" style="font-size: 5px; font-family: sans-serif; font-weight: bold;">Dizozols loan projects</text><g transform="scale(0.5)translate(-12 -12)" fill="#FFFFFF" pointer-events="none"><path d="M17 21v-6l1-1v7a1 1 0 01-1 1H3a1 1 0 01-1-1V1a1 1 0 011-1h14a1 1 0 011 1v9l-1 1V1H3v20h14z"/><path d="M4.917 3.5a.5.5 0 01.5-.5h9.166a.5.5 0 110 1H5.417a.5.5 0 01-.5-.5zM4.917 6.5a.5.5 0 01.5-.5h9.166a.5.5 0 110 1H5.417a.5.5 0 01-.5-.5zM4.917 9.5a.5.5 0 01.5-.5h9.166a.5.5 0 110 1H5.417a.5.5 0 01-.5-.5zM6.415 16.282c-.103.224-.21.464-.344.77l-.267.612a59.71 59.71 0 01-.058.13.497.497 0 01-.66.254.503.503 0 01-.253-.661l.055-.124.267-.613c.137-.311.246-.556.352-.786.437-.95.774-1.554 1.106-1.906.608-.645 1.326-.452 1.638.463.108.317.191.635.263.986.047.226.085.443.148.82.142.811.338.825 1.338.825h3.526c.262 0 .474.212.474.474a.49.49 0 01-.474.49c-2.675.092-4.107.138-4.296.138-1.002 0-1.336-.518-1.553-1.754-.184-1.057-.21-1.177-.372-1.656a3.157 3.157 0 00-.015-.042c-.225.268-.512.793-.875 1.58z"/><path d="M15 23v-2h1v2a1 1 0 01-1 1H1a1 1 0 01-1-1V3a1 1 0 011-1h2v1H1v20h14z"/><path d="M13.293 14l7.5-7.5a1 1 0 011.414 0L23.5 7.793a1 1 0 010 1.414l-7.5 7.5a1 1 0 01-.707.293H13v-2.293a1 1 0 01.293-.707zM14 16h1.293l7.5-7.5L21.5 7.207l-7.5 7.5V16z"/></g></g><g class="vertex" transform="translate(-560 -520)" style="cursor: pointer; pointer-events: auto;"><circle class="handle" r="5" fill="white" stroke="GRAY"/><text x="0" y="10" text-anchor="middle" alignment-baseline="middle" filter="url(#solid)" pointer-events="none" fill="GRAY" style="font-size: 5px; font-family: sans-serif; font-weight: bold;">Valmiera, Beātes iela 5</text></g><g class="vertex" transform="translate(-530 -550)" style="cursor: pointer; pointer-events: auto;"><circle class="handle" r="10" fill="#5C255C" stroke="none"/><text x="0" y="15" text-anchor="middle" alignment-baseline="middle" filter="url(#solid)" pointer-events="none" fill="#5C255C" style="font-size: 5px; font-family: sans-serif; font-weight: bold;">Valmiera, Beātes iela 5</text><g transform="scale(0.5)translate(-12 -12)" fill="#FFFFFF" pointer-events="none"><path d="M2.75 13.25a.363.363 0 01-.006-.506l8.531-8.98a1 1 0 011.45 0l8.531 8.98a.363.363 0 01-.006.506.354.354 0 01-.5 0L12 4.5l-8.75 8.75a.354.354 0 01-.5 0z"/><path d="M5 13.914V23h14v-9.086l-7-7-7 7zm-.707-.707l7-7a1 1 0 011.414 0l7 7a1 1 0 01.293.707V23a1 1 0 01-1 1H5a1 1 0 01-1-1v-9.086a1 1 0 01.293-.707z"/><path d="M10 23h4v-6h-4v6zm0-7h4a1 1 0 011 1v7H9v-7a1 1 0 011-1zM17 5h-1v2.5l1 1V5zm-1-1h1a1 1 0 011 1v5.5l-3-3V5a1 1 0 011-1z"/></g></g><g class="vertex" transform="translate(-740 -540)" style="cursor: pointer; pointer-events: auto;"><circle class="handle" r="10" fill="#A66321" stroke="none"/><text x="0" y="15" text-anchor="middle" alignment-baseline="middle" filter="url(#solid)" pointer-events="none" fill="#A66321" style="font-size: 5px; font-family: sans-serif; font-weight: bold;">Nomo LLC</text><g transform="scale(0.5)translate(-12 -12)" fill="#FFFFFF" pointer-events="none"><path d="M1 5v18h7V5H1zm0-1h8v20H1a1 1 0 01-1-1V5a1 1 0 011-1z"/><path d="M9 22v1h6v-1H9zm-1-1h8v3H8v-3z"/><path d="M9 1v20h6V1H9zm0-1h6a1 1 0 011 1v21H8V1a1 1 0 011-1z"/><path d="M11 3v1h2V3h-2zm0-1h2a1 1 0 011 1v1a1 1 0 01-1 1h-2a1 1 0 01-1-1V3a1 1 0 011-1zM11 7v1h2V7h-2zm0-1h2a1 1 0 011 1v1a1 1 0 01-1 1h-2a1 1 0 01-1-1V7a1 1 0 011-1zM11 11v1h2v-1h-2zm0-1h2a1 1 0 011 1v1a1 1 0 01-1 1h-2a1 1 0 01-1-1v-1a1 1 0 011-1zM3 8h1V7H3v1zm0-2h1a1 1 0 011 1v1a1 1 0 01-1 1H3a1 1 0 01-1-1V7a1 1 0 011-1zM7 8h1V7H7v1zm0-2h1a1 1 0 011 1v1a1 1 0 01-1 1H7a1 1 0 01-1-1V7a1 1 0 011-1zM3 12h1v-1H3v1zm0-2h1a1 1 0 011 1v1a1 1 0 01-1 1H3a1 1 0 01-1-1v-1a1 1 0 011-1zM7 12h1v-1H7v1zm0-2h1a1 1 0 011 1v1a1 1 0 01-1 1H7a1 1 0 01-1-1v-1a1 1 0 011-1zM3 16h1v-1H3v1zm0-2h1a1 1 0 011 1v1a1 1 0 01-1 1H3a1 1 0 01-1-1v-1a1 1 0 011-1zM7 16h1v-1H7v1zm0-2h1a1 1 0 011 1v1a1 1 0 01-1 1H7a1 1 0 01-1-1v-1a1 1 0 011-1zM3 20h1v-1H3v1zm0-2h1a1 1 0 011 1v1a1 1 0 01-1 1H3a1 1 0 01-1-1v-1a1 1 0 011-1zM7 20h1v-1H7v1zm0-2h1a1 1 0 011 1v1a1 1 0 01-1 1H7a1 1 0 01-1-1v-1a1 1 0 011-1zM16 20h1v-1h-1v1zm0-2h1a1 1 0 011 1v1a1 1 0 01-1 1h-1a1 1 0 01-1-1v-1a1 1 0 011-1zM20 20h1v-1h-1v1zm0-2h1a1 1 0 011 1v1a1 1 0 01-1 1h-1a1 1 0 01-1-1v-1a1 1 0 011-1zM20 16h1v-1h-1v1zm0-2h1a1 1 0 011 1v1a1 1 0 01-1 1h-1a1 1 0 01-1-1v-1a1 1 0 011-1zM16 16h1v-1h-1v1zm0-2h1a1 1 0 011 1v1a1 1 0 01-1 1h-1a1 1 0 01-1-1v-1a1 1 0 011-1zM16 12h1v-1h-1v1zm0-2h1a1 1 0 011 1v1a1 1 0 01-1 1h-1a1 1 0 01-1-1v-1a1 1 0 011-1zM20 12h1v-1h-1v1zm0-2h1a1 1 0 011 1v1a1 1 0 01-1 1h-1a1 1 0 01-1-1v-1a1 1 0 011-1zM20 8h1V7h-1v1zm0-2h1a1 1 0 011 1v1a1 1 0 01-1 1h-1a1 1 0 01-1-1V7a1 1 0 011-1zM16 8h1V7h-1v1zm0-2h1a1 1 0 011 1v1a1 1 0 01-1 1h-1a1 1 0 01-1-1V7a1 1 0 011-1zM11 15v1h2v-1h-2zm0-1h2a1 1 0 011 1v1a1 1 0 01-1 1h-2a1 1 0 01-1-1v-1a1 1 0 011-1zM11 19v2h2v-2h-2zm0-1h2a1 1 0 011 1v3h-4v-3a1 1 0 011-1z"/><path d="M16 5v18h7V5h-7zm0-1h7a1 1 0 011 1v18a1 1 0 01-1 1h-8V5a1 1 0 011-1z"/></g></g><g class="vertex" transform="translate(-810 -540)" style="cursor: pointer; pointer-events: auto;"><circle class="handle" r="10" fill="#0E5A8A" stroke="none"/><text x="0" y="15" text-anchor="middle" alignment-baseline="middle" filter="url(#solid)" pointer-events="none" fill="#0E5A8A" style="font-size: 5px; font-family: sans-serif; font-weight: bold;">Bachana Rapava</text><g transform="scale(0.5)translate(-12 -12)" fill="#FFFFFF" pointer-events="none"><path d="M12 11a3 3 0 100-6 3 3 0 000 6zm0 1a4 4 0 110-8 4 4 0 010 8z"/><path d="M12 23c6.075 0 11-4.925 11-11S18.075 1 12 1 1 5.925 1 12s4.925 11 11 11zm0 1C5.373 24 0 18.627 0 12S5.373 0 12 0s12 5.373 12 12-5.373 12-12 12z"/><path d="M6.26 22.541L6 22.399V16a4 4 0 014-4h4a4 4 0 014 4v6.399l-.26.142A11.946 11.946 0 0112 24c-2.022 0-3.984-.5-5.74-1.459zm.74-.74C8.541 22.589 10.245 23 12 23s3.459-.41 5-1.2V16a3 3 0 00-3-3h-4a3 3 0 00-3 3v5.8z"/></g></g><g class="vertex" transform="translate(-720 -600)" style="cursor: pointer; pointer-events: auto;"><circle class="handle" r="10" fill="#A82A2A" stroke="none"/><text x="0" y="15" text-anchor="middle" alignment-baseline="middle" filter="url(#solid)" pointer-events="none" fill="#A82A2A" style="font-size: 5px; font-family: sans-serif; font-weight: bold;">CONSUMER LOAN PORTFOLIO ACQUIS…</text><g transform="scale(0.5)translate(-12 -12)" fill="#FFFFFF" pointer-events="none"><path d="M17 21v-6l1-1v7a1 1 0 01-1 1H3a1 1 0 01-1-1V1a1 1 0 011-1h14a1 1 0 011 1v9l-1 1V1H3v20h14z"/><path d="M4.917 3.5a.5.5 0 01.5-.5h9.166a.5.5 0 110 1H5.417a.5.5 0 01-.5-.5zM4.917 6.5a.5.5 0 01.5-.5h9.166a.5.5 0 110 1H5.417a.5.5 0 01-.5-.5zM4.917 9.5a.5.5 0 01.5-.5h9.166a.5.5 0 110 1H5.417a.5.5 0 01-.5-.5zM6.415 16.282c-.103.224-.21.464-.344.77l-.267.612a59.71 59.71 0 01-.058.13.497.497 0 01-.66.254.503.503 0 01-.253-.661l.055-.124.267-.613c.137-.311.246-.556.352-.786.437-.95.774-1.554 1.106-1.906.608-.645 1.326-.452 1.638.463.108.317.191.635.263.986.047.226.085.443.148.82.142.811.338.825 1.338.825h3.526c.262 0 .474.212.474.474a.49.49 0 01-.474.49c-2.675.092-4.107.138-4.296.138-1.002 0-1.336-.518-1.553-1.754-.184-1.057-.21-1.177-.372-1.656a3.157 3.157 0 00-.015-.042c-.225.268-.512.793-.875 1.58z"/><path d="M15 23v-2h1v2a1 1 0 01-1 1H1a1 1 0 01-1-1V3a1 1 0 011-1h2v1H1v20h14z"/><path d="M13.293 14l7.5-7.5a1 1 0 011.414 0L23.5 7.793a1 1 0 010 1.414l-7.5 7.5a1 1 0 01-.707.293H13v-2.293a1 1 0 01.293-.707zM14 16h1.293l7.5-7.5L21.5 7.207l-7.5 7.5V16z"/></g></g><g class="vertex" transform="translate(-760 -610)" style="cursor: pointer; pointer-events: auto;"><circle class="handle" r="10" fill="#A82A2A" stroke="none"/><text x="0" y="15" text-anchor="middle" alignment-baseline="middle" filter="url(#solid)" pointer-events="none" fill="#A82A2A" style="font-size: 5px; font-family: sans-serif; font-weight: bold;">Leasing Loan Portfolio</text><g transform="scale(0.5)translate(-12 -12)" fill="#FFFFFF" pointer-events="none"><path d="M17 21v-6l1-1v7a1 1 0 01-1 1H3a1 1 0 01-1-1V1a1 1 0 011-1h14a1 1 0 011 1v9l-1 1V1H3v20h14z"/><path d="M4.917 3.5a.5.5 0 01.5-.5h9.166a.5.5 0 110 1H5.417a.5.5 0 01-.5-.5zM4.917 6.5a.5.5 0 01.5-.5h9.166a.5.5 0 110 1H5.417a.5.5 0 01-.5-.5zM4.917 9.5a.5.5 0 01.5-.5h9.166a.5.5 0 110 1H5.417a.5.5 0 01-.5-.5zM6.415 16.282c-.103.224-.21.464-.344.77l-.267.612a59.71 59.71 0 01-.058.13.497.497 0 01-.66.254.503.503 0 01-.253-.661l.055-.124.267-.613c.137-.311.246-.556.352-.786.437-.95.774-1.554 1.106-1.906.608-.645 1.326-.452 1.638.463.108.317.191.635.263.986.047.226.085.443.148.82.142.811.338.825 1.338.825h3.526c.262 0 .474.212.474.474a.49.49 0 01-.474.49c-2.675.092-4.107.138-4.296.138-1.002 0-1.336-.518-1.553-1.754-.184-1.057-.21-1.177-.372-1.656a3.157 3.157 0 00-.015-.042c-.225.268-.512.793-.875 1.58z"/><path d="M15 23v-2h1v2a1 1 0 01-1 1H1a1 1 0 01-1-1V3a1 1 0 011-1h2v1H1v20h14z"/><path d="M13.293 14l7.5-7.5a1 1 0 011.414 0L23.5 7.793a1 1 0 010 1.414l-7.5 7.5a1 1 0 01-.707.293H13v-2.293a1 1 0 01.293-.707zM14 16h1.293l7.5-7.5L21.5 7.207l-7.5 7.5V16z"/></g></g><g class="vertex" transform="translate(-740 -500)" style="cursor: pointer; pointer-events: auto;"><circle class="handle" r="10" fill="#A66321" stroke="none"/><text x="0" y="15" text-anchor="middle" alignment-baseline="middle" filter="url(#solid)" pointer-events="none" fill="#A66321" style="font-size: 5px; font-family: sans-serif; font-weight: bold;">Premium Foods Group LLC</text><g transform="scale(0.5)translate(-12 -12)" fill="#FFFFFF" pointer-events="none"><path d="M1 5v18h7V5H1zm0-1h8v20H1a1 1 0 01-1-1V5a1 1 0 011-1z"/><path d="M9 22v1h6v-1H9zm-1-1h8v3H8v-3z"/><path d="M9 1v20h6V1H9zm0-1h6a1 1 0 011 1v21H8V1a1 1 0 011-1z"/><path d="M11 3v1h2V3h-2zm0-1h2a1 1 0 011 1v1a1 1 0 01-1 1h-2a1 1 0 01-1-1V3a1 1 0 011-1zM11 7v1h2V7h-2zm0-1h2a1 1 0 011 1v1a1 1 0 01-1 1h-2a1 1 0 01-1-1V7a1 1 0 011-1zM11 11v1h2v-1h-2zm0-1h2a1 1 0 011 1v1a1 1 0 01-1 1h-2a1 1 0 01-1-1v-1a1 1 0 011-1zM3 8h1V7H3v1zm0-2h1a1 1 0 011 1v1a1 1 0 01-1 1H3a1 1 0 01-1-1V7a1 1 0 011-1zM7 8h1V7H7v1zm0-2h1a1 1 0 011 1v1a1 1 0 01-1 1H7a1 1 0 01-1-1V7a1 1 0 011-1zM3 12h1v-1H3v1zm0-2h1a1 1 0 011 1v1a1 1 0 01-1 1H3a1 1 0 01-1-1v-1a1 1 0 011-1zM7 12h1v-1H7v1zm0-2h1a1 1 0 011 1v1a1 1 0 01-1 1H7a1 1 0 01-1-1v-1a1 1 0 011-1zM3 16h1v-1H3v1zm0-2h1a1 1 0 011 1v1a1 1 0 01-1 1H3a1 1 0 01-1-1v-1a1 1 0 011-1zM7 16h1v-1H7v1zm0-2h1a1 1 0 011 1v1a1 1 0 01-1 1H7a1 1 0 01-1-1v-1a1 1 0 011-1zM3 20h1v-1H3v1zm0-2h1a1 1 0 011 1v1a1 1 0 01-1 1H3a1 1 0 01-1-1v-1a1 1 0 011-1zM7 20h1v-1H7v1zm0-2h1a1 1 0 011 1v1a1 1 0 01-1 1H7a1 1 0 01-1-1v-1a1 1 0 011-1zM16 20h1v-1h-1v1zm0-2h1a1 1 0 011 1v1a1 1 0 01-1 1h-1a1 1 0 01-1-1v-1a1 1 0 011-1zM20 20h1v-1h-1v1zm0-2h1a1 1 0 011 1v1a1 1 0 01-1 1h-1a1 1 0 01-1-1v-1a1 1 0 011-1zM20 16h1v-1h-1v1zm0-2h1a1 1 0 011 1v1a1 1 0 01-1 1h-1a1 1 0 01-1-1v-1a1 1 0 011-1zM16 16h1v-1h-1v1zm0-2h1a1 1 0 011 1v1a1 1 0 01-1 1h-1a1 1 0 01-1-1v-1a1 1 0 011-1zM16 12h1v-1h-1v1zm0-2h1a1 1 0 011 1v1a1 1 0 01-1 1h-1a1 1 0 01-1-1v-1a1 1 0 011-1zM20 12h1v-1h-1v1zm0-2h1a1 1 0 011 1v1a1 1 0 01-1 1h-1a1 1 0 01-1-1v-1a1 1 0 011-1zM20 8h1V7h-1v1zm0-2h1a1 1 0 011 1v1a1 1 0 01-1 1h-1a1 1 0 01-1-1V7a1 1 0 011-1zM16 8h1V7h-1v1zm0-2h1a1 1 0 011 1v1a1 1 0 01-1 1h-1a1 1 0 01-1-1V7a1 1 0 011-1zM11 15v1h2v-1h-2zm0-1h2a1 1 0 011 1v1a1 1 0 01-1 1h-2a1 1 0 01-1-1v-1a1 1 0 011-1zM11 19v2h2v-2h-2zm0-1h2a1 1 0 011 1v3h-4v-3a1 1 0 011-1z"/><path d="M16 5v18h7V5h-7zm0-1h7a1 1 0 011 1v18a1 1 0 01-1 1h-8V5a1 1 0 011-1z"/></g></g><g class="vertex" transform="translate(-740 -440)" style="cursor: pointer; pointer-events: auto;"><circle class="handle" r="10" fill="#A82A2A" stroke="none"/><text x="0" y="15" text-anchor="middle" alignment-baseline="middle" filter="url(#solid)" pointer-events="none" fill="#A82A2A" style="font-size: 5px; font-family: sans-serif; font-weight: bold;">PREMIUM FOODS CONFECTIONARY</text><g transform="scale(0.5)translate(-12 -12)" fill="#FFFFFF" pointer-events="none"><path d="M17 21v-6l1-1v7a1 1 0 01-1 1H3a1 1 0 01-1-1V1a1 1 0 011-1h14a1 1 0 011 1v9l-1 1V1H3v20h14z"/><path d="M4.917 3.5a.5.5 0 01.5-.5h9.166a.5.5 0 110 1H5.417a.5.5 0 01-.5-.5zM4.917 6.5a.5.5 0 01.5-.5h9.166a.5.5 0 110 1H5.417a.5.5 0 01-.5-.5zM4.917 9.5a.5.5 0 01.5-.5h9.166a.5.5 0 110 1H5.417a.5.5 0 01-.5-.5zM6.415 16.282c-.103.224-.21.464-.344.77l-.267.612a59.71 59.71 0 01-.058.13.497.497 0 01-.66.254.503.503 0 01-.253-.661l.055-.124.267-.613c.137-.311.246-.556.352-.786.437-.95.774-1.554 1.106-1.906.608-.645 1.326-.452 1.638.463.108.317.191.635.263.986.047.226.085.443.148.82.142.811.338.825 1.338.825h3.526c.262 0 .474.212.474.474a.49.49 0 01-.474.49c-2.675.092-4.107.138-4.296.138-1.002 0-1.336-.518-1.553-1.754-.184-1.057-.21-1.177-.372-1.656a3.157 3.157 0 00-.015-.042c-.225.268-.512.793-.875 1.58z"/><path d="M15 23v-2h1v2a1 1 0 01-1 1H1a1 1 0 01-1-1V3a1 1 0 011-1h2v1H1v20h14z"/><path d="M13.293 14l7.5-7.5a1 1 0 011.414 0L23.5 7.793a1 1 0 010 1.414l-7.5 7.5a1 1 0 01-.707.293H13v-2.293a1 1 0 01.293-.707zM14 16h1.293l7.5-7.5L21.5 7.207l-7.5 7.5V16z"/></g></g><rect id="selection" stroke="black" stroke-width="0.5px" stroke-dasharray="2" fill-opacity="0"/></g><defs><pattern id="grid" width="10" height="10" patternUnits="userSpaceOnUse"><path d="M 10 0 L 0 0 0 10" fill="none" stroke="#E1E8ED" stroke-width="0.5"/></pattern><marker id="arrow" viewBox="0 0 10 10" refX="29" refY="5" markerWidth="5" markerHeight="5" orient="auto-start-reverse" fill="#738694"><path d="M 0 0 L 10 5 L 0 10 z"/></marker><marker id="arrow-unselected" viewBox="0 0 10 10" refX="29" refY="5" markerWidth="5" markerHeight="5" orient="auto-start-reverse" fill="#BFCCD6"><path d="M 0 0 L 10 5 L 0 10 z"/></marker><filter x="0" y="0" width="1" height="1" id="solid"><feFlood flood-color="#ffffff"/><feComposite in="SourceGraphic"/></filter></defs></svg>