<svg viewBox="-258.59898953756374 -210 507.1979790751274 360" xmlns="http://www.w3.org/2000/svg" tabindex="0" style="width: 100%; height: 100%; cursor: crosshair;"><g id="zoom"><rect id="canvas-handle" x="-5000" y="-5000" width="10000" height="10000" fill="none"/><g class="edge"><path stroke="rgba(0,0,0,0)" stroke-width="4" fill="none" d="M-10 -40 L -10 70" style="cursor: pointer;"/><path stroke="#738694" stroke-width="1" fill="none" d="M-10 -40 L -10 70" stroke-dasharray="0" marker-end="" style="pointer-events: none;"/></g><g transform="translate(-10 15)" class="EdgeLabel"><g class="edge-handle"><rect class="EdgeLabel__outline" x="-7.892693996429443" y="-4.3227479457855225" rx="3" stroke="#738694" stroke-width=".8px" fill="white" width="15.785387992858887" height="8.645495891571045"/><text text-anchor="middle" dy="1.4113739728927612" class="EdgeLabel__text" fill="#738694" pointer-events="none" style="font-size: 5px; font-family: sans-serif;">100%</text></g></g><g class="edge"><path stroke="rgba(0,0,0,0)" stroke-width="4" fill="none" d="M60 30 L -10 70" style="cursor: pointer;"/><path stroke="#738694" stroke-width="1" fill="none" d="M60 30 L -10 70" stroke-dasharray="0" marker-end="" style="pointer-events: none;"/></g><g transform="translate(25 50)" class="EdgeLabel"><g class="edge-handle"><rect class="EdgeLabel__outline" x="-14.936450004577637" y="-4.3227479457855225" rx="3" stroke="#738694" stroke-width=".8px" fill="white" width="29.872900009155273" height="8.645495891571045"/><text text-anchor="middle" dy="1.4113739728927612" class="EdgeLabel__text" fill="#738694" pointer-events="none" style="font-size: 5px; font-family: sans-serif;">Directorship</text></g></g><g class="edge"><path stroke="rgba(0,0,0,0)" stroke-width="4" fill="none" d="M-150 -180 L -10 70" style="cursor: pointer;"/><path stroke="#738694" stroke-width="1" fill="none" d="M-150 -180 L -10 70" stroke-dasharray="0" marker-end="" style="pointer-events: none;"/></g><g transform="translate(-80 -55)" class="EdgeLabel"><g class="edge-handle"><rect class="EdgeLabel__outline" x="-14.936450004577637" y="-4.3227479457855225" rx="3" stroke="#738694" stroke-width=".8px" fill="white" width="29.872900009155273" height="8.645495891571045"/><text text-anchor="middle" dy="1.4113739728927612" class="EdgeLabel__text" fill="#738694" pointer-events="none" style="font-size: 5px; font-family: sans-serif;">Directorship</text></g></g><g class="edge"><path stroke="rgba(0,0,0,0)" stroke-width="4" fill="none" d="M-120 50 L -10 70" style="cursor: pointer;"/><path stroke="#738694" stroke-width="1" fill="none" d="M-120 50 L -10 70" stroke-dasharray="0" marker-end="" style="pointer-events: none;"/></g><g transform="translate(-65 60)" class="EdgeLabel"><g class="edge-handle"><rect class="EdgeLabel__outline" x="-14.936450004577637" y="-4.3227479457855225" rx="3" stroke="#738694" stroke-width=".8px" fill="white" width="29.872900009155273" height="8.645495891571045"/><text text-anchor="middle" dy="1.4113739728927612" class="EdgeLabel__text" fill="#738694" pointer-events="none" style="font-size: 5px; font-family: sans-serif;">Directorship</text></g></g><g class="edge"><path stroke="rgba(0,0,0,0)" stroke-width="4" fill="none" d="M-120 20 L -10 70" style="cursor: pointer;"/><path stroke="#738694" stroke-width="1" fill="none" d="M-120 20 L -10 70" stroke-dasharray="0" marker-end="" style="pointer-events: none;"/></g><g transform="translate(-65 45)" class="EdgeLabel"><g class="edge-handle"><rect class="EdgeLabel__outline" x="-14.936450004577637" y="-4.3227479457855225" rx="3" stroke="#738694" stroke-width=".8px" fill="white" width="29.872900009155273" height="8.645495891571045"/><text text-anchor="middle" dy="1.4113739728927612" class="EdgeLabel__text" fill="#738694" pointer-events="none" style="font-size: 5px; font-family: sans-serif;">Directorship</text></g></g><g class="edge"><path stroke="rgba(0,0,0,0)" stroke-width="4" fill="none" d="M60 90 L -10 70" style="cursor: pointer;"/><path stroke="#738694" stroke-width="1" fill="none" d="M60 90 L -10 70" stroke-dasharray="0" marker-end="" style="pointer-events: none;"/></g><g transform="translate(25 80)" class="EdgeLabel"><g class="edge-handle"><rect class="EdgeLabel__outline" x="-14.936450004577637" y="-4.3227479457855225" rx="3" stroke="#738694" stroke-width=".8px" fill="white" width="29.872900009155273" height="8.645495891571045"/><text text-anchor="middle" dy="1.4113739728927612" class="EdgeLabel__text" fill="#738694" pointer-events="none" style="font-size: 5px; font-family: sans-serif;">Directorship</text></g></g><g class="edge"><path stroke="rgba(0,0,0,0)" stroke-width="4" fill="none" d="M60 60 L -10 70" style="cursor: pointer;"/><path stroke="#738694" stroke-width="1" fill="none" d="M60 60 L -10 70" stroke-dasharray="0" marker-end="" style="pointer-events: none;"/></g><g transform="translate(25 65)" class="EdgeLabel"><g class="edge-handle"><rect class="EdgeLabel__outline" x="-14.936450004577637" y="-4.3227479457855225" rx="3" stroke="#738694" stroke-width=".8px" fill="white" width="29.872900009155273" height="8.645495891571045"/><text text-anchor="middle" dy="1.4113739728927612" class="EdgeLabel__text" fill="#738694" pointer-events="none" style="font-size: 5px; font-family: sans-serif;">Directorship</text></g></g><g class="edge"><path stroke="rgba(0,0,0,0)" stroke-width="4" fill="none" d="M-10 70 L 60 0" style="cursor: pointer;"/><path stroke="#738694" stroke-width="1" fill="none" d="M-10 70 L 60 0" stroke-dasharray="0" marker-end="" style="pointer-events: none;"/></g><g transform="translate(25 35)" class="EdgeLabel"><g class="edge-handle"><rect class="EdgeLabel__outline" x="-12.272664070129395" y="-4.3227479457855225" rx="3" stroke="#738694" stroke-width=".8px" fill="white" width="24.54532814025879" height="8.645495891571045"/><text text-anchor="middle" dy="1.4113739728927612" class="EdgeLabel__text" fill="#738694" pointer-events="none" style="font-size: 5px; font-family: sans-serif;">Secretary</text></g></g><g class="edge"><path stroke="rgba(0,0,0,0)" stroke-width="4" fill="none" d="M-150 -180 Q -86.99340412566522 -184.8686245089866 -10 -40" style="cursor: pointer;"/><path stroke="#738694" stroke-width="1" fill="none" d="M-150 -180 Q -86.99340412566522 -184.8686245089866 -10 -40" stroke-dasharray="0" marker-end="" style="pointer-events: none;"/></g><g transform="translate(-83.49670206283261 -147.4343122544933)" class="EdgeLabel"><g class="edge-handle"><rect class="EdgeLabel__outline" x="-14.936450004577637" y="-4.3227479457855225" rx="3" stroke="#738694" stroke-width=".8px" fill="white" width="29.872900009155273" height="8.645495891571045"/><text text-anchor="middle" dy="1.4113739728927612" class="EdgeLabel__text" fill="#738694" pointer-events="none" style="font-size: 5px; font-family: sans-serif;">Directorship</text></g></g><g class="edge"><path stroke="rgba(0,0,0,0)" stroke-width="4" fill="none" d="M-120 50 L -10 -40" style="cursor: pointer;"/><path stroke="#738694" stroke-width="1" fill="none" d="M-120 50 L -10 -40" stroke-dasharray="0" marker-end="" style="pointer-events: none;"/></g><g transform="translate(-65 5)" class="EdgeLabel"><g class="edge-handle"><rect class="EdgeLabel__outline" x="-14.936450004577637" y="-4.3227479457855225" rx="3" stroke="#738694" stroke-width=".8px" fill="white" width="29.872900009155273" height="8.645495891571045"/><text text-anchor="middle" dy="1.4113739728927612" class="EdgeLabel__text" fill="#738694" pointer-events="none" style="font-size: 5px; font-family: sans-serif;">Directorship</text></g></g><g class="edge"><path stroke="rgba(0,0,0,0)" stroke-width="4" fill="none" d="M-120 20 L -10 -40" style="cursor: pointer;"/><path stroke="#738694" stroke-width="1" fill="none" d="M-120 20 L -10 -40" stroke-dasharray="0" marker-end="" style="pointer-events: none;"/></g><g transform="translate(-65 -10)" class="EdgeLabel"><g class="edge-handle"><rect class="EdgeLabel__outline" x="-14.936450004577637" y="-4.3227479457855225" rx="3" stroke="#738694" stroke-width=".8px" fill="white" width="29.872900009155273" height="8.645495891571045"/><text text-anchor="middle" dy="1.4113739728927612" class="EdgeLabel__text" fill="#738694" pointer-events="none" style="font-size: 5px; font-family: sans-serif;">Directorship</text></g></g><g class="edge"><path stroke="rgba(0,0,0,0)" stroke-width="4" fill="none" d="M-20 -100 L -10 -40" style="cursor: pointer;"/><path stroke="#738694" stroke-width="1" fill="none" d="M-20 -100 L -10 -40" stroke-dasharray="0" marker-end="" style="pointer-events: none;"/></g><g transform="translate(-15 -70)" class="EdgeLabel"><g class="edge-handle"><rect class="EdgeLabel__outline" x="-13.549086570739746" y="-4.3227479457855225" rx="3" stroke="#738694" stroke-width=".8px" fill="white" width="27.098173141479492" height="8.645495891571045"/><text text-anchor="middle" dy="1.4113739728927612" class="EdgeLabel__text" fill="#738694" pointer-events="none" style="font-size: 5px; font-family: sans-serif;">Ownership</text></g></g><g class="edge"><path stroke="rgba(0,0,0,0)" stroke-width="4" fill="none" d="M-60 -80 L -10 -40" style="cursor: pointer;"/><path stroke="#738694" stroke-width="1" fill="none" d="M-60 -80 L -10 -40" stroke-dasharray="0" marker-end="" style="pointer-events: none;"/></g><g transform="translate(-35 -60)" class="EdgeLabel"><g class="edge-handle"><rect class="EdgeLabel__outline" x="-13.549086570739746" y="-4.3227479457855225" rx="3" stroke="#738694" stroke-width=".8px" fill="white" width="27.098173141479492" height="8.645495891571045"/><text text-anchor="middle" dy="1.4113739728927612" class="EdgeLabel__text" fill="#738694" pointer-events="none" style="font-size: 5px; font-family: sans-serif;">Ownership</text></g></g><g class="edge"><path stroke="rgba(0,0,0,0)" stroke-width="4" fill="none" d="M60 0 L -10 -40" style="cursor: pointer;"/><path stroke="#738694" stroke-width="1" fill="none" d="M60 0 L -10 -40" stroke-dasharray="0" marker-end="" style="pointer-events: none;"/></g><g transform="translate(25 -20)" class="EdgeLabel"><g class="edge-handle"><rect class="EdgeLabel__outline" x="-12.272664070129395" y="-4.3227479457855225" rx="3" stroke="#738694" stroke-width=".8px" fill="white" width="24.54532814025879" height="8.645495891571045"/><text text-anchor="middle" dy="1.4113739728927612" class="EdgeLabel__text" fill="#738694" pointer-events="none" style="font-size: 5px; font-family: sans-serif;">Secretary</text></g></g><g class="edge"><path stroke="rgba(0,0,0,0)" stroke-width="4" fill="none" d="M-150 -180 L -220 90" style="cursor: pointer;"/><path stroke="#738694" stroke-width="1" fill="none" d="M-150 -180 L -220 90" stroke-dasharray="0" marker-end="" style="pointer-events: none;"/></g><g transform="translate(-185 -45)" class="EdgeLabel"><g class="edge-handle"><rect class="EdgeLabel__outline" x="-13.549086570739746" y="-4.3227479457855225" rx="3" stroke="#738694" stroke-width=".8px" fill="white" width="27.098173141479492" height="8.645495891571045"/><text text-anchor="middle" dy="1.4113739728927612" class="EdgeLabel__text" fill="#738694" pointer-events="none" style="font-size: 5px; font-family: sans-serif;">Ownership</text></g></g><g class="edge"><path stroke="rgba(0,0,0,0)" stroke-width="4" fill="none" d="M-150 -180 L -220 30" style="cursor: pointer;"/><path stroke="#738694" stroke-width="1" fill="none" d="M-150 -180 L -220 30" stroke-dasharray="0" marker-end="" style="pointer-events: none;"/></g><g transform="translate(-185 -75)" class="EdgeLabel"><g class="edge-handle"><rect class="EdgeLabel__outline" x="-13.549086570739746" y="-4.3227479457855225" rx="3" stroke="#738694" stroke-width=".8px" fill="white" width="27.098173141479492" height="8.645495891571045"/><text text-anchor="middle" dy="1.4113739728927612" class="EdgeLabel__text" fill="#738694" pointer-events="none" style="font-size: 5px; font-family: sans-serif;">Ownership</text></g></g><g class="edge"><path stroke="rgba(0,0,0,0)" stroke-width="4" fill="none" d="M-220 30 L -220 90" style="cursor: pointer;"/><path stroke="#738694" stroke-width="1" fill="none" d="M-220 30 L -220 90" stroke-dasharray="0" marker-end="" style="pointer-events: none;"/></g><g transform="translate(-220 60)" class="EdgeLabel"><g class="edge-handle"><rect class="EdgeLabel__outline" x="-13.549086570739746" y="-4.3227479457855225" rx="3" stroke="#738694" stroke-width=".8px" fill="white" width="27.098173141479492" height="8.645495891571045"/><text text-anchor="middle" dy="1.4113739728927612" class="EdgeLabel__text" fill="#738694" pointer-events="none" style="font-size: 5px; font-family: sans-serif;">Ownership</text></g></g><g class="edge"><path stroke="rgba(0,0,0,0)" stroke-width="4" fill="none" d="M-220 -20 L -220 30" style="cursor: pointer;"/><path stroke="#738694" stroke-width="1" fill="none" d="M-220 -20 L -220 30" stroke-dasharray="0" marker-end="" style="pointer-events: none;"/></g><g transform="translate(-220 5)" class="EdgeLabel"><g class="edge-handle"><rect class="EdgeLabel__outline" x="-13.549086570739746" y="-4.3227479457855225" rx="3" stroke="#738694" stroke-width=".8px" fill="white" width="27.098173141479492" height="8.645495891571045"/><text text-anchor="middle" dy="1.4113739728927612" class="EdgeLabel__text" fill="#738694" pointer-events="none" style="font-size: 5px; font-family: sans-serif;">Ownership</text></g></g><g class="edge"><path stroke="rgba(0,0,0,0)" stroke-width="4" fill="none" d="M20 -110 L -10 -40" style="cursor: pointer;"/><path stroke="#738694" stroke-width="1" fill="none" d="M20 -110 L -10 -40" stroke-dasharray="0" marker-end="" style="pointer-events: none;"/></g><g transform="translate(5 -75)" class="EdgeLabel"><g class="edge-handle"><rect class="EdgeLabel__outline" x="-13.549086570739746" y="-4.3227479457855225" rx="3" stroke="#738694" stroke-width=".8px" fill="white" width="27.098173141479492" height="8.645495891571045"/><text text-anchor="middle" dy="1.4113739728927612" class="EdgeLabel__text" fill="#738694" pointer-events="none" style="font-size: 5px; font-family: sans-serif;">Ownership</text></g></g><g class="edge"><path stroke="rgba(0,0,0,0)" stroke-width="4" fill="none" d="M60 -90 L -10 -40" style="cursor: pointer;"/><path stroke="#738694" stroke-width="1" fill="none" d="M60 -90 L -10 -40" stroke-dasharray="0" marker-end="" style="pointer-events: none;"/></g><g transform="translate(25 -65)" class="EdgeLabel"><g class="edge-handle"><rect class="EdgeLabel__outline" x="-13.549086570739746" y="-4.3227479457855225" rx="3" stroke="#738694" stroke-width=".8px" fill="white" width="27.098173141479492" height="8.645495891571045"/><text text-anchor="middle" dy="1.4113739728927612" class="EdgeLabel__text" fill="#738694" pointer-events="none" style="font-size: 5px; font-family: sans-serif;">Ownership</text></g></g><g class="edge"><path stroke="rgba(0,0,0,0)" stroke-width="4" fill="none" d="M-150 -180 L 130 -180" style="cursor: pointer;"/><path stroke="#738694" stroke-width="1" fill="none" d="M-150 -180 L 130 -180" stroke-dasharray="0" marker-end="" style="pointer-events: none;"/></g><g transform="translate(-10 -180)" class="EdgeLabel"><g class="edge-handle"><rect class="EdgeLabel__outline" x="-14.936450004577637" y="-4.3227479457855225" rx="3" stroke="#738694" stroke-width=".8px" fill="white" width="29.872900009155273" height="8.645495891571045"/><text text-anchor="middle" dy="1.4113739728927612" class="EdgeLabel__text" fill="#738694" pointer-events="none" style="font-size: 5px; font-family: sans-serif;">Directorship</text></g></g><g class="edge"><path stroke="rgba(0,0,0,0)" stroke-width="4" fill="none" d="M130 -130 L 130 -180" style="cursor: pointer;"/><path stroke="#738694" stroke-width="1" fill="none" d="M130 -130 L 130 -180" stroke-dasharray="0" marker-end="" style="pointer-events: none;"/></g><g transform="translate(130 -155)" class="EdgeLabel"><g class="edge-handle"><rect class="EdgeLabel__outline" x="-7.892693996429443" y="-4.3227479457855225" rx="3" stroke="#738694" stroke-width=".8px" fill="white" width="15.785387992858887" height="8.645495891571045"/><text text-anchor="middle" dy="1.4113739728927612" class="EdgeLabel__text" fill="#738694" pointer-events="none" style="font-size: 5px; font-family: sans-serif;">100%</text></g></g><g class="edge"><path stroke="rgba(0,0,0,0)" stroke-width="4" fill="none" d="M-150 -180 Q -21.37899214818759 -146.77116640464476 130 -130" style="cursor: pointer;"/><path stroke="#738694" stroke-width="1" fill="none" d="M-150 -180 Q -21.37899214818759 -146.77116640464476 130 -130" stroke-dasharray="0" marker-end="" style="pointer-events: none;"/></g><g transform="translate(-15.689496074093794 -150.88558320232238)" class="EdgeLabel"><g class="edge-handle"><rect class="EdgeLabel__outline" x="-14.936450004577637" y="-4.3227479457855225" rx="3" stroke="#738694" stroke-width=".8px" fill="white" width="29.872900009155273" height="8.645495891571045"/><text text-anchor="middle" dy="1.4113739728927612" class="EdgeLabel__text" fill="#738694" pointer-events="none" style="font-size: 5px; font-family: sans-serif;">Directorship</text></g></g><g class="edge"><path stroke="rgba(0,0,0,0)" stroke-width="4" fill="none" d="M210 -130 L 130 -130" style="cursor: pointer;"/><path stroke="#738694" stroke-width="1" fill="none" d="M210 -130 L 130 -130" stroke-dasharray="0" marker-end="" style="pointer-events: none;"/></g><g transform="translate(170 -130)" class="EdgeLabel"><g class="edge-handle"><rect class="EdgeLabel__outline" x="-13.549086570739746" y="-4.3227479457855225" rx="3" stroke="#738694" stroke-width=".8px" fill="white" width="27.098173141479492" height="8.645495891571045"/><text text-anchor="middle" dy="1.4113739728927612" class="EdgeLabel__text" fill="#738694" pointer-events="none" style="font-size: 5px; font-family: sans-serif;">Ownership</text></g></g><g class="vertex" transform="translate(-10 120)" style="cursor: pointer; pointer-events: auto;"><circle class="handle" r="10" fill="#008075" stroke="none"/><text x="0" y="15" text-anchor="middle" alignment-baseline="middle" filter="url(#solid)" pointer-events="none" fill="#008075" style="font-size: 5px; font-family: sans-serif; font-weight: bold;">Exante.eu</text><g transform="scale(0.5)translate(-12 -12)" fill="#FFFFFF" pointer-events="none"><path d="M12.5 4a1.5 1.5 0 100-3 1.5 1.5 0 000 3zm0 1a2.5 2.5 0 110-5 2.5 2.5 0 010 5zM12.5 13a1.5 1.5 0 100-3 1.5 1.5 0 000 3zm0 1a2.5 2.5 0 110-5 2.5 2.5 0 010 5zM21.5 13a1.5 1.5 0 100-3 1.5 1.5 0 000 3zm0 1a2.5 2.5 0 110-5 2.5 2.5 0 010 5zM2.5 13a1.5 1.5 0 100-3 1.5 1.5 0 000 3zm0 1a2.5 2.5 0 110-5 2.5 2.5 0 010 5zM2.5 23a1.5 1.5 0 100-3 1.5 1.5 0 000 3zm0 1a2.5 2.5 0 110-5 2.5 2.5 0 010 5zM8.5 23a1.5 1.5 0 100-3 1.5 1.5 0 000 3zm0 1a2.5 2.5 0 110-5 2.5 2.5 0 010 5zM15.5 23a1.5 1.5 0 100-3 1.5 1.5 0 000 3zm0 1a2.5 2.5 0 110-5 2.5 2.5 0 010 5zM21.5 23a1.5 1.5 0 100-3 1.5 1.5 0 000 3zm0 1a2.5 2.5 0 110-5 2.5 2.5 0 010 5z"/><path d="M12 4h1v6h-1zM11 11v1H4v-1zM2 13h1v7H2zM8 16h1v4H8z"/><path d="M8 17v-1h8v1z"/><path d="M15 16h1v4h-1zM21 13h1v7h-1zM14 3V2h8v1z"/><path d="M21 2h1v8h-1zM12 13h1v4h-1z"/></g></g><g class="vertex" transform="translate(-10 70)" style="cursor: pointer; pointer-events: auto;"><circle class="handle" r="10" fill="#A66321" stroke="none"/><text x="0" y="15" text-anchor="middle" alignment-baseline="middle" filter="url(#solid)" pointer-events="none" fill="#A66321" style="font-size: 5px; font-family: sans-serif; font-weight: bold;">XNT Ltd</text><g transform="scale(0.5)translate(-12 -12)" fill="#FFFFFF" pointer-events="none"><path d="M1 5v18h7V5H1zm0-1h8v20H1a1 1 0 01-1-1V5a1 1 0 011-1z"/><path d="M9 22v1h6v-1H9zm-1-1h8v3H8v-3z"/><path d="M9 1v20h6V1H9zm0-1h6a1 1 0 011 1v21H8V1a1 1 0 011-1z"/><path d="M11 3v1h2V3h-2zm0-1h2a1 1 0 011 1v1a1 1 0 01-1 1h-2a1 1 0 01-1-1V3a1 1 0 011-1zM11 7v1h2V7h-2zm0-1h2a1 1 0 011 1v1a1 1 0 01-1 1h-2a1 1 0 01-1-1V7a1 1 0 011-1zM11 11v1h2v-1h-2zm0-1h2a1 1 0 011 1v1a1 1 0 01-1 1h-2a1 1 0 01-1-1v-1a1 1 0 011-1zM3 8h1V7H3v1zm0-2h1a1 1 0 011 1v1a1 1 0 01-1 1H3a1 1 0 01-1-1V7a1 1 0 011-1zM7 8h1V7H7v1zm0-2h1a1 1 0 011 1v1a1 1 0 01-1 1H7a1 1 0 01-1-1V7a1 1 0 011-1zM3 12h1v-1H3v1zm0-2h1a1 1 0 011 1v1a1 1 0 01-1 1H3a1 1 0 01-1-1v-1a1 1 0 011-1zM7 12h1v-1H7v1zm0-2h1a1 1 0 011 1v1a1 1 0 01-1 1H7a1 1 0 01-1-1v-1a1 1 0 011-1zM3 16h1v-1H3v1zm0-2h1a1 1 0 011 1v1a1 1 0 01-1 1H3a1 1 0 01-1-1v-1a1 1 0 011-1zM7 16h1v-1H7v1zm0-2h1a1 1 0 011 1v1a1 1 0 01-1 1H7a1 1 0 01-1-1v-1a1 1 0 011-1zM3 20h1v-1H3v1zm0-2h1a1 1 0 011 1v1a1 1 0 01-1 1H3a1 1 0 01-1-1v-1a1 1 0 011-1zM7 20h1v-1H7v1zm0-2h1a1 1 0 011 1v1a1 1 0 01-1 1H7a1 1 0 01-1-1v-1a1 1 0 011-1zM16 20h1v-1h-1v1zm0-2h1a1 1 0 011 1v1a1 1 0 01-1 1h-1a1 1 0 01-1-1v-1a1 1 0 011-1zM20 20h1v-1h-1v1zm0-2h1a1 1 0 011 1v1a1 1 0 01-1 1h-1a1 1 0 01-1-1v-1a1 1 0 011-1zM20 16h1v-1h-1v1zm0-2h1a1 1 0 011 1v1a1 1 0 01-1 1h-1a1 1 0 01-1-1v-1a1 1 0 011-1zM16 16h1v-1h-1v1zm0-2h1a1 1 0 011 1v1a1 1 0 01-1 1h-1a1 1 0 01-1-1v-1a1 1 0 011-1zM16 12h1v-1h-1v1zm0-2h1a1 1 0 011 1v1a1 1 0 01-1 1h-1a1 1 0 01-1-1v-1a1 1 0 011-1zM20 12h1v-1h-1v1zm0-2h1a1 1 0 011 1v1a1 1 0 01-1 1h-1a1 1 0 01-1-1v-1a1 1 0 011-1zM20 8h1V7h-1v1zm0-2h1a1 1 0 011 1v1a1 1 0 01-1 1h-1a1 1 0 01-1-1V7a1 1 0 011-1zM16 8h1V7h-1v1zm0-2h1a1 1 0 011 1v1a1 1 0 01-1 1h-1a1 1 0 01-1-1V7a1 1 0 011-1zM11 15v1h2v-1h-2zm0-1h2a1 1 0 011 1v1a1 1 0 01-1 1h-2a1 1 0 01-1-1v-1a1 1 0 011-1zM11 19v2h2v-2h-2zm0-1h2a1 1 0 011 1v3h-4v-3a1 1 0 011-1z"/><path d="M16 5v18h7V5h-7zm0-1h7a1 1 0 011 1v18a1 1 0 01-1 1h-8V5a1 1 0 011-1z"/></g></g><g class="vertex" transform="translate(-10 -40)" style="cursor: pointer; pointer-events: auto;"><circle class="handle" r="10" fill="#A66321" stroke="none"/><text x="0" y="15" text-anchor="middle" alignment-baseline="middle" filter="url(#solid)" pointer-events="none" fill="#A66321" style="font-size: 5px; font-family: sans-serif; font-weight: bold;">LARTEMISIS HOLDINGS LTD</text><g transform="scale(0.5)translate(-12 -12)" fill="#FFFFFF" pointer-events="none"><path d="M1 5v18h7V5H1zm0-1h8v20H1a1 1 0 01-1-1V5a1 1 0 011-1z"/><path d="M9 22v1h6v-1H9zm-1-1h8v3H8v-3z"/><path d="M9 1v20h6V1H9zm0-1h6a1 1 0 011 1v21H8V1a1 1 0 011-1z"/><path d="M11 3v1h2V3h-2zm0-1h2a1 1 0 011 1v1a1 1 0 01-1 1h-2a1 1 0 01-1-1V3a1 1 0 011-1zM11 7v1h2V7h-2zm0-1h2a1 1 0 011 1v1a1 1 0 01-1 1h-2a1 1 0 01-1-1V7a1 1 0 011-1zM11 11v1h2v-1h-2zm0-1h2a1 1 0 011 1v1a1 1 0 01-1 1h-2a1 1 0 01-1-1v-1a1 1 0 011-1zM3 8h1V7H3v1zm0-2h1a1 1 0 011 1v1a1 1 0 01-1 1H3a1 1 0 01-1-1V7a1 1 0 011-1zM7 8h1V7H7v1zm0-2h1a1 1 0 011 1v1a1 1 0 01-1 1H7a1 1 0 01-1-1V7a1 1 0 011-1zM3 12h1v-1H3v1zm0-2h1a1 1 0 011 1v1a1 1 0 01-1 1H3a1 1 0 01-1-1v-1a1 1 0 011-1zM7 12h1v-1H7v1zm0-2h1a1 1 0 011 1v1a1 1 0 01-1 1H7a1 1 0 01-1-1v-1a1 1 0 011-1zM3 16h1v-1H3v1zm0-2h1a1 1 0 011 1v1a1 1 0 01-1 1H3a1 1 0 01-1-1v-1a1 1 0 011-1zM7 16h1v-1H7v1zm0-2h1a1 1 0 011 1v1a1 1 0 01-1 1H7a1 1 0 01-1-1v-1a1 1 0 011-1zM3 20h1v-1H3v1zm0-2h1a1 1 0 011 1v1a1 1 0 01-1 1H3a1 1 0 01-1-1v-1a1 1 0 011-1zM7 20h1v-1H7v1zm0-2h1a1 1 0 011 1v1a1 1 0 01-1 1H7a1 1 0 01-1-1v-1a1 1 0 011-1zM16 20h1v-1h-1v1zm0-2h1a1 1 0 011 1v1a1 1 0 01-1 1h-1a1 1 0 01-1-1v-1a1 1 0 011-1zM20 20h1v-1h-1v1zm0-2h1a1 1 0 011 1v1a1 1 0 01-1 1h-1a1 1 0 01-1-1v-1a1 1 0 011-1zM20 16h1v-1h-1v1zm0-2h1a1 1 0 011 1v1a1 1 0 01-1 1h-1a1 1 0 01-1-1v-1a1 1 0 011-1zM16 16h1v-1h-1v1zm0-2h1a1 1 0 011 1v1a1 1 0 01-1 1h-1a1 1 0 01-1-1v-1a1 1 0 011-1zM16 12h1v-1h-1v1zm0-2h1a1 1 0 011 1v1a1 1 0 01-1 1h-1a1 1 0 01-1-1v-1a1 1 0 011-1zM20 12h1v-1h-1v1zm0-2h1a1 1 0 011 1v1a1 1 0 01-1 1h-1a1 1 0 01-1-1v-1a1 1 0 011-1zM20 8h1V7h-1v1zm0-2h1a1 1 0 011 1v1a1 1 0 01-1 1h-1a1 1 0 01-1-1V7a1 1 0 011-1zM16 8h1V7h-1v1zm0-2h1a1 1 0 011 1v1a1 1 0 01-1 1h-1a1 1 0 01-1-1V7a1 1 0 011-1zM11 15v1h2v-1h-2zm0-1h2a1 1 0 011 1v1a1 1 0 01-1 1h-2a1 1 0 01-1-1v-1a1 1 0 011-1zM11 19v2h2v-2h-2zm0-1h2a1 1 0 011 1v3h-4v-3a1 1 0 011-1z"/><path d="M16 5v18h7V5h-7zm0-1h7a1 1 0 011 1v18a1 1 0 01-1 1h-8V5a1 1 0 011-1z"/></g></g><g class="vertex" transform="translate(60 30)" style="cursor: pointer; pointer-events: auto;"><circle class="handle" r="10" fill="#0E5A8A" stroke="none"/><text x="0" y="15" text-anchor="middle" alignment-baseline="middle" filter="url(#solid)" pointer-events="none" fill="#0E5A8A" style="font-size: 5px; font-family: sans-serif; font-weight: bold;">MICHAEL J BIANCHI</text><g transform="scale(0.5)translate(-12 -12)" fill="#FFFFFF" pointer-events="none"><path d="M12 11a3 3 0 100-6 3 3 0 000 6zm0 1a4 4 0 110-8 4 4 0 010 8z"/><path d="M12 23c6.075 0 11-4.925 11-11S18.075 1 12 1 1 5.925 1 12s4.925 11 11 11zm0 1C5.373 24 0 18.627 0 12S5.373 0 12 0s12 5.373 12 12-5.373 12-12 12z"/><path d="M6.26 22.541L6 22.399V16a4 4 0 014-4h4a4 4 0 014 4v6.399l-.26.142A11.946 11.946 0 0112 24c-2.022 0-3.984-.5-5.74-1.459zm.74-.74C8.541 22.589 10.245 23 12 23s3.459-.41 5-1.2V16a3 3 0 00-3-3h-4a3 3 0 00-3 3v5.8z"/></g></g><g class="vertex" transform="translate(-150 -180)" style="cursor: pointer; pointer-events: auto;"><circle class="handle" r="10" fill="#A82A2A" stroke="none"/><text x="0" y="15" text-anchor="middle" alignment-baseline="middle" filter="url(#solid)" pointer-events="none" fill="#A82A2A" style="font-size: 5px; font-family: sans-serif; font-weight: bold;">GATIS EGLITIS</text><g transform="scale(0.5)translate(-12 -12)" fill="#FFFFFF" pointer-events="none"><path d="M12 11a3 3 0 100-6 3 3 0 000 6zm0 1a4 4 0 110-8 4 4 0 010 8z"/><path d="M12 23c6.075 0 11-4.925 11-11S18.075 1 12 1 1 5.925 1 12s4.925 11 11 11zm0 1C5.373 24 0 18.627 0 12S5.373 0 12 0s12 5.373 12 12-5.373 12-12 12z"/><path d="M6.26 22.541L6 22.399V16a4 4 0 014-4h4a4 4 0 014 4v6.399l-.26.142A11.946 11.946 0 0112 24c-2.022 0-3.984-.5-5.74-1.459zm.74-.74C8.541 22.589 10.245 23 12 23s3.459-.41 5-1.2V16a3 3 0 00-3-3h-4a3 3 0 00-3 3v5.8z"/></g></g><g class="vertex" transform="translate(-120 50)" style="cursor: pointer; pointer-events: auto;"><circle class="handle" r="10" fill="#0E5A8A" stroke="none"/><text x="0" y="15" text-anchor="middle" alignment-baseline="middle" filter="url(#solid)" pointer-events="none" fill="#0E5A8A" style="font-size: 5px; font-family: sans-serif; font-weight: bold;">ALEXEY KIRIENKO</text><g transform="scale(0.5)translate(-12 -12)" fill="#FFFFFF" pointer-events="none"><path d="M12 11a3 3 0 100-6 3 3 0 000 6zm0 1a4 4 0 110-8 4 4 0 010 8z"/><path d="M12 23c6.075 0 11-4.925 11-11S18.075 1 12 1 1 5.925 1 12s4.925 11 11 11zm0 1C5.373 24 0 18.627 0 12S5.373 0 12 0s12 5.373 12 12-5.373 12-12 12z"/><path d="M6.26 22.541L6 22.399V16a4 4 0 014-4h4a4 4 0 014 4v6.399l-.26.142A11.946 11.946 0 0112 24c-2.022 0-3.984-.5-5.74-1.459zm.74-.74C8.541 22.589 10.245 23 12 23s3.459-.41 5-1.2V16a3 3 0 00-3-3h-4a3 3 0 00-3 3v5.8z"/></g></g><g class="vertex" transform="translate(-120 20)" style="cursor: pointer; pointer-events: auto;"><circle class="handle" r="10" fill="#0E5A8A" stroke="none"/><text x="0" y="15" text-anchor="middle" alignment-baseline="middle" filter="url(#solid)" pointer-events="none" fill="#0E5A8A" style="font-size: 5px; font-family: sans-serif; font-weight: bold;">ANATOLI KNYAZEV</text><g transform="scale(0.5)translate(-12 -12)" fill="#FFFFFF" pointer-events="none"><path d="M12 11a3 3 0 100-6 3 3 0 000 6zm0 1a4 4 0 110-8 4 4 0 010 8z"/><path d="M12 23c6.075 0 11-4.925 11-11S18.075 1 12 1 1 5.925 1 12s4.925 11 11 11zm0 1C5.373 24 0 18.627 0 12S5.373 0 12 0s12 5.373 12 12-5.373 12-12 12z"/><path d="M6.26 22.541L6 22.399V16a4 4 0 014-4h4a4 4 0 014 4v6.399l-.26.142A11.946 11.946 0 0112 24c-2.022 0-3.984-.5-5.74-1.459zm.74-.74C8.541 22.589 10.245 23 12 23s3.459-.41 5-1.2V16a3 3 0 00-3-3h-4a3 3 0 00-3 3v5.8z"/></g></g><g class="vertex" transform="translate(60 90)" style="cursor: pointer; pointer-events: auto;"><circle class="handle" r="10" fill="#0E5A8A" stroke="none"/><text x="0" y="15" text-anchor="middle" alignment-baseline="middle" filter="url(#solid)" pointer-events="none" fill="#0E5A8A" style="font-size: 5px; font-family: sans-serif; font-weight: bold;">LAWRENCE ZAMMIT</text><g transform="scale(0.5)translate(-12 -12)" fill="#FFFFFF" pointer-events="none"><path d="M12 11a3 3 0 100-6 3 3 0 000 6zm0 1a4 4 0 110-8 4 4 0 010 8z"/><path d="M12 23c6.075 0 11-4.925 11-11S18.075 1 12 1 1 5.925 1 12s4.925 11 11 11zm0 1C5.373 24 0 18.627 0 12S5.373 0 12 0s12 5.373 12 12-5.373 12-12 12z"/><path d="M6.26 22.541L6 22.399V16a4 4 0 014-4h4a4 4 0 014 4v6.399l-.26.142A11.946 11.946 0 0112 24c-2.022 0-3.984-.5-5.74-1.459zm.74-.74C8.541 22.589 10.245 23 12 23s3.459-.41 5-1.2V16a3 3 0 00-3-3h-4a3 3 0 00-3 3v5.8z"/></g></g><g class="vertex" transform="translate(60 60)" style="cursor: pointer; pointer-events: auto;"><circle class="handle" r="10" fill="#0E5A8A" stroke="none"/><text x="0" y="15" text-anchor="middle" alignment-baseline="middle" filter="url(#solid)" pointer-events="none" fill="#0E5A8A" style="font-size: 5px; font-family: sans-serif; font-weight: bold;">JOSEPH ZAMMIT TABONA</text><g transform="scale(0.5)translate(-12 -12)" fill="#FFFFFF" pointer-events="none"><path d="M12 11a3 3 0 100-6 3 3 0 000 6zm0 1a4 4 0 110-8 4 4 0 010 8z"/><path d="M12 23c6.075 0 11-4.925 11-11S18.075 1 12 1 1 5.925 1 12s4.925 11 11 11zm0 1C5.373 24 0 18.627 0 12S5.373 0 12 0s12 5.373 12 12-5.373 12-12 12z"/><path d="M6.26 22.541L6 22.399V16a4 4 0 014-4h4a4 4 0 014 4v6.399l-.26.142A11.946 11.946 0 0112 24c-2.022 0-3.984-.5-5.74-1.459zm.74-.74C8.541 22.589 10.245 23 12 23s3.459-.41 5-1.2V16a3 3 0 00-3-3h-4a3 3 0 00-3 3v5.8z"/></g></g><g class="vertex" transform="translate(60 0)" style="cursor: pointer; pointer-events: auto;"><circle class="handle" r="10" fill="#0E5A8A" stroke="none"/><text x="0" y="15" text-anchor="middle" alignment-baseline="middle" filter="url(#solid)" pointer-events="none" fill="#0E5A8A" style="font-size: 5px; font-family: sans-serif; font-weight: bold;">JEAN CARL FARRUGIA</text><g transform="scale(0.5)translate(-12 -12)" fill="#FFFFFF" pointer-events="none"><path d="M12 11a3 3 0 100-6 3 3 0 000 6zm0 1a4 4 0 110-8 4 4 0 010 8z"/><path d="M12 23c6.075 0 11-4.925 11-11S18.075 1 12 1 1 5.925 1 12s4.925 11 11 11zm0 1C5.373 24 0 18.627 0 12S5.373 0 12 0s12 5.373 12 12-5.373 12-12 12z"/><path d="M6.26 22.541L6 22.399V16a4 4 0 014-4h4a4 4 0 014 4v6.399l-.26.142A11.946 11.946 0 0112 24c-2.022 0-3.984-.5-5.74-1.459zm.74-.74C8.541 22.589 10.245 23 12 23s3.459-.41 5-1.2V16a3 3 0 00-3-3h-4a3 3 0 00-3 3v5.8z"/></g></g><g class="vertex" transform="translate(-20 -100)" style="cursor: pointer; pointer-events: auto;"><circle class="handle" r="10" fill="#A66321" stroke="none"/><text x="0" y="15" text-anchor="middle" alignment-baseline="middle" filter="url(#solid)" pointer-events="none" fill="#A66321" style="font-size: 5px; font-family: sans-serif; font-weight: bold;">PACIFIC LIBERTY SPC</text><g transform="scale(0.5)translate(-12 -12)" fill="#FFFFFF" pointer-events="none"><path d="M1 5v18h7V5H1zm0-1h8v20H1a1 1 0 01-1-1V5a1 1 0 011-1z"/><path d="M9 22v1h6v-1H9zm-1-1h8v3H8v-3z"/><path d="M9 1v20h6V1H9zm0-1h6a1 1 0 011 1v21H8V1a1 1 0 011-1z"/><path d="M11 3v1h2V3h-2zm0-1h2a1 1 0 011 1v1a1 1 0 01-1 1h-2a1 1 0 01-1-1V3a1 1 0 011-1zM11 7v1h2V7h-2zm0-1h2a1 1 0 011 1v1a1 1 0 01-1 1h-2a1 1 0 01-1-1V7a1 1 0 011-1zM11 11v1h2v-1h-2zm0-1h2a1 1 0 011 1v1a1 1 0 01-1 1h-2a1 1 0 01-1-1v-1a1 1 0 011-1zM3 8h1V7H3v1zm0-2h1a1 1 0 011 1v1a1 1 0 01-1 1H3a1 1 0 01-1-1V7a1 1 0 011-1zM7 8h1V7H7v1zm0-2h1a1 1 0 011 1v1a1 1 0 01-1 1H7a1 1 0 01-1-1V7a1 1 0 011-1zM3 12h1v-1H3v1zm0-2h1a1 1 0 011 1v1a1 1 0 01-1 1H3a1 1 0 01-1-1v-1a1 1 0 011-1zM7 12h1v-1H7v1zm0-2h1a1 1 0 011 1v1a1 1 0 01-1 1H7a1 1 0 01-1-1v-1a1 1 0 011-1zM3 16h1v-1H3v1zm0-2h1a1 1 0 011 1v1a1 1 0 01-1 1H3a1 1 0 01-1-1v-1a1 1 0 011-1zM7 16h1v-1H7v1zm0-2h1a1 1 0 011 1v1a1 1 0 01-1 1H7a1 1 0 01-1-1v-1a1 1 0 011-1zM3 20h1v-1H3v1zm0-2h1a1 1 0 011 1v1a1 1 0 01-1 1H3a1 1 0 01-1-1v-1a1 1 0 011-1zM7 20h1v-1H7v1zm0-2h1a1 1 0 011 1v1a1 1 0 01-1 1H7a1 1 0 01-1-1v-1a1 1 0 011-1zM16 20h1v-1h-1v1zm0-2h1a1 1 0 011 1v1a1 1 0 01-1 1h-1a1 1 0 01-1-1v-1a1 1 0 011-1zM20 20h1v-1h-1v1zm0-2h1a1 1 0 011 1v1a1 1 0 01-1 1h-1a1 1 0 01-1-1v-1a1 1 0 011-1zM20 16h1v-1h-1v1zm0-2h1a1 1 0 011 1v1a1 1 0 01-1 1h-1a1 1 0 01-1-1v-1a1 1 0 011-1zM16 16h1v-1h-1v1zm0-2h1a1 1 0 011 1v1a1 1 0 01-1 1h-1a1 1 0 01-1-1v-1a1 1 0 011-1zM16 12h1v-1h-1v1zm0-2h1a1 1 0 011 1v1a1 1 0 01-1 1h-1a1 1 0 01-1-1v-1a1 1 0 011-1zM20 12h1v-1h-1v1zm0-2h1a1 1 0 011 1v1a1 1 0 01-1 1h-1a1 1 0 01-1-1v-1a1 1 0 011-1zM20 8h1V7h-1v1zm0-2h1a1 1 0 011 1v1a1 1 0 01-1 1h-1a1 1 0 01-1-1V7a1 1 0 011-1zM16 8h1V7h-1v1zm0-2h1a1 1 0 011 1v1a1 1 0 01-1 1h-1a1 1 0 01-1-1V7a1 1 0 011-1zM11 15v1h2v-1h-2zm0-1h2a1 1 0 011 1v1a1 1 0 01-1 1h-2a1 1 0 01-1-1v-1a1 1 0 011-1zM11 19v2h2v-2h-2zm0-1h2a1 1 0 011 1v3h-4v-3a1 1 0 011-1z"/><path d="M16 5v18h7V5h-7zm0-1h7a1 1 0 011 1v18a1 1 0 01-1 1h-8V5a1 1 0 011-1z"/></g></g><g class="vertex" transform="translate(-60 -80)" style="cursor: pointer; pointer-events: auto;"><circle class="handle" r="10" fill="#A66321" stroke="none"/><text x="0" y="15" text-anchor="middle" alignment-baseline="middle" filter="url(#solid)" pointer-events="none" fill="#A66321" style="font-size: 5px; font-family: sans-serif; font-weight: bold;">NATIONS DEVELOPMENT GROUP LIMI…</text><g transform="scale(0.5)translate(-12 -12)" fill="#FFFFFF" pointer-events="none"><path d="M1 5v18h7V5H1zm0-1h8v20H1a1 1 0 01-1-1V5a1 1 0 011-1z"/><path d="M9 22v1h6v-1H9zm-1-1h8v3H8v-3z"/><path d="M9 1v20h6V1H9zm0-1h6a1 1 0 011 1v21H8V1a1 1 0 011-1z"/><path d="M11 3v1h2V3h-2zm0-1h2a1 1 0 011 1v1a1 1 0 01-1 1h-2a1 1 0 01-1-1V3a1 1 0 011-1zM11 7v1h2V7h-2zm0-1h2a1 1 0 011 1v1a1 1 0 01-1 1h-2a1 1 0 01-1-1V7a1 1 0 011-1zM11 11v1h2v-1h-2zm0-1h2a1 1 0 011 1v1a1 1 0 01-1 1h-2a1 1 0 01-1-1v-1a1 1 0 011-1zM3 8h1V7H3v1zm0-2h1a1 1 0 011 1v1a1 1 0 01-1 1H3a1 1 0 01-1-1V7a1 1 0 011-1zM7 8h1V7H7v1zm0-2h1a1 1 0 011 1v1a1 1 0 01-1 1H7a1 1 0 01-1-1V7a1 1 0 011-1zM3 12h1v-1H3v1zm0-2h1a1 1 0 011 1v1a1 1 0 01-1 1H3a1 1 0 01-1-1v-1a1 1 0 011-1zM7 12h1v-1H7v1zm0-2h1a1 1 0 011 1v1a1 1 0 01-1 1H7a1 1 0 01-1-1v-1a1 1 0 011-1zM3 16h1v-1H3v1zm0-2h1a1 1 0 011 1v1a1 1 0 01-1 1H3a1 1 0 01-1-1v-1a1 1 0 011-1zM7 16h1v-1H7v1zm0-2h1a1 1 0 011 1v1a1 1 0 01-1 1H7a1 1 0 01-1-1v-1a1 1 0 011-1zM3 20h1v-1H3v1zm0-2h1a1 1 0 011 1v1a1 1 0 01-1 1H3a1 1 0 01-1-1v-1a1 1 0 011-1zM7 20h1v-1H7v1zm0-2h1a1 1 0 011 1v1a1 1 0 01-1 1H7a1 1 0 01-1-1v-1a1 1 0 011-1zM16 20h1v-1h-1v1zm0-2h1a1 1 0 011 1v1a1 1 0 01-1 1h-1a1 1 0 01-1-1v-1a1 1 0 011-1zM20 20h1v-1h-1v1zm0-2h1a1 1 0 011 1v1a1 1 0 01-1 1h-1a1 1 0 01-1-1v-1a1 1 0 011-1zM20 16h1v-1h-1v1zm0-2h1a1 1 0 011 1v1a1 1 0 01-1 1h-1a1 1 0 01-1-1v-1a1 1 0 011-1zM16 16h1v-1h-1v1zm0-2h1a1 1 0 011 1v1a1 1 0 01-1 1h-1a1 1 0 01-1-1v-1a1 1 0 011-1zM16 12h1v-1h-1v1zm0-2h1a1 1 0 011 1v1a1 1 0 01-1 1h-1a1 1 0 01-1-1v-1a1 1 0 011-1zM20 12h1v-1h-1v1zm0-2h1a1 1 0 011 1v1a1 1 0 01-1 1h-1a1 1 0 01-1-1v-1a1 1 0 011-1zM20 8h1V7h-1v1zm0-2h1a1 1 0 011 1v1a1 1 0 01-1 1h-1a1 1 0 01-1-1V7a1 1 0 011-1zM16 8h1V7h-1v1zm0-2h1a1 1 0 011 1v1a1 1 0 01-1 1h-1a1 1 0 01-1-1V7a1 1 0 011-1zM11 15v1h2v-1h-2zm0-1h2a1 1 0 011 1v1a1 1 0 01-1 1h-2a1 1 0 01-1-1v-1a1 1 0 011-1zM11 19v2h2v-2h-2zm0-1h2a1 1 0 011 1v3h-4v-3a1 1 0 011-1z"/><path d="M16 5v18h7V5h-7zm0-1h7a1 1 0 011 1v18a1 1 0 01-1 1h-8V5a1 1 0 011-1z"/></g></g><g class="vertex" transform="translate(60 -90)" style="cursor: pointer; pointer-events: auto;"><circle class="handle" r="10" fill="#A66321" stroke="none"/><text x="0" y="15" text-anchor="middle" alignment-baseline="middle" filter="url(#solid)" pointer-events="none" fill="#A66321" style="font-size: 5px; font-family: sans-serif; font-weight: bold;">STOIC LTD.</text><g transform="scale(0.5)translate(-12 -12)" fill="#FFFFFF" pointer-events="none"><path d="M1 5v18h7V5H1zm0-1h8v20H1a1 1 0 01-1-1V5a1 1 0 011-1z"/><path d="M9 22v1h6v-1H9zm-1-1h8v3H8v-3z"/><path d="M9 1v20h6V1H9zm0-1h6a1 1 0 011 1v21H8V1a1 1 0 011-1z"/><path d="M11 3v1h2V3h-2zm0-1h2a1 1 0 011 1v1a1 1 0 01-1 1h-2a1 1 0 01-1-1V3a1 1 0 011-1zM11 7v1h2V7h-2zm0-1h2a1 1 0 011 1v1a1 1 0 01-1 1h-2a1 1 0 01-1-1V7a1 1 0 011-1zM11 11v1h2v-1h-2zm0-1h2a1 1 0 011 1v1a1 1 0 01-1 1h-2a1 1 0 01-1-1v-1a1 1 0 011-1zM3 8h1V7H3v1zm0-2h1a1 1 0 011 1v1a1 1 0 01-1 1H3a1 1 0 01-1-1V7a1 1 0 011-1zM7 8h1V7H7v1zm0-2h1a1 1 0 011 1v1a1 1 0 01-1 1H7a1 1 0 01-1-1V7a1 1 0 011-1zM3 12h1v-1H3v1zm0-2h1a1 1 0 011 1v1a1 1 0 01-1 1H3a1 1 0 01-1-1v-1a1 1 0 011-1zM7 12h1v-1H7v1zm0-2h1a1 1 0 011 1v1a1 1 0 01-1 1H7a1 1 0 01-1-1v-1a1 1 0 011-1zM3 16h1v-1H3v1zm0-2h1a1 1 0 011 1v1a1 1 0 01-1 1H3a1 1 0 01-1-1v-1a1 1 0 011-1zM7 16h1v-1H7v1zm0-2h1a1 1 0 011 1v1a1 1 0 01-1 1H7a1 1 0 01-1-1v-1a1 1 0 011-1zM3 20h1v-1H3v1zm0-2h1a1 1 0 011 1v1a1 1 0 01-1 1H3a1 1 0 01-1-1v-1a1 1 0 011-1zM7 20h1v-1H7v1zm0-2h1a1 1 0 011 1v1a1 1 0 01-1 1H7a1 1 0 01-1-1v-1a1 1 0 011-1zM16 20h1v-1h-1v1zm0-2h1a1 1 0 011 1v1a1 1 0 01-1 1h-1a1 1 0 01-1-1v-1a1 1 0 011-1zM20 20h1v-1h-1v1zm0-2h1a1 1 0 011 1v1a1 1 0 01-1 1h-1a1 1 0 01-1-1v-1a1 1 0 011-1zM20 16h1v-1h-1v1zm0-2h1a1 1 0 011 1v1a1 1 0 01-1 1h-1a1 1 0 01-1-1v-1a1 1 0 011-1zM16 16h1v-1h-1v1zm0-2h1a1 1 0 011 1v1a1 1 0 01-1 1h-1a1 1 0 01-1-1v-1a1 1 0 011-1zM16 12h1v-1h-1v1zm0-2h1a1 1 0 011 1v1a1 1 0 01-1 1h-1a1 1 0 01-1-1v-1a1 1 0 011-1zM20 12h1v-1h-1v1zm0-2h1a1 1 0 011 1v1a1 1 0 01-1 1h-1a1 1 0 01-1-1v-1a1 1 0 011-1zM20 8h1V7h-1v1zm0-2h1a1 1 0 011 1v1a1 1 0 01-1 1h-1a1 1 0 01-1-1V7a1 1 0 011-1zM16 8h1V7h-1v1zm0-2h1a1 1 0 011 1v1a1 1 0 01-1 1h-1a1 1 0 01-1-1V7a1 1 0 011-1zM11 15v1h2v-1h-2zm0-1h2a1 1 0 011 1v1a1 1 0 01-1 1h-2a1 1 0 01-1-1v-1a1 1 0 011-1zM11 19v2h2v-2h-2zm0-1h2a1 1 0 011 1v3h-4v-3a1 1 0 011-1z"/><path d="M16 5v18h7V5h-7zm0-1h7a1 1 0 011 1v18a1 1 0 01-1 1h-8V5a1 1 0 011-1z"/></g></g><g class="vertex" transform="translate(20 -110)" style="cursor: pointer; pointer-events: auto;"><circle class="handle" r="10" fill="#A66321" stroke="none"/><text x="0" y="15" text-anchor="middle" alignment-baseline="middle" filter="url(#solid)" pointer-events="none" fill="#A66321" style="font-size: 5px; font-family: sans-serif; font-weight: bold;">ZORMAX LIMITED</text><g transform="scale(0.5)translate(-12 -12)" fill="#FFFFFF" pointer-events="none"><path d="M1 5v18h7V5H1zm0-1h8v20H1a1 1 0 01-1-1V5a1 1 0 011-1z"/><path d="M9 22v1h6v-1H9zm-1-1h8v3H8v-3z"/><path d="M9 1v20h6V1H9zm0-1h6a1 1 0 011 1v21H8V1a1 1 0 011-1z"/><path d="M11 3v1h2V3h-2zm0-1h2a1 1 0 011 1v1a1 1 0 01-1 1h-2a1 1 0 01-1-1V3a1 1 0 011-1zM11 7v1h2V7h-2zm0-1h2a1 1 0 011 1v1a1 1 0 01-1 1h-2a1 1 0 01-1-1V7a1 1 0 011-1zM11 11v1h2v-1h-2zm0-1h2a1 1 0 011 1v1a1 1 0 01-1 1h-2a1 1 0 01-1-1v-1a1 1 0 011-1zM3 8h1V7H3v1zm0-2h1a1 1 0 011 1v1a1 1 0 01-1 1H3a1 1 0 01-1-1V7a1 1 0 011-1zM7 8h1V7H7v1zm0-2h1a1 1 0 011 1v1a1 1 0 01-1 1H7a1 1 0 01-1-1V7a1 1 0 011-1zM3 12h1v-1H3v1zm0-2h1a1 1 0 011 1v1a1 1 0 01-1 1H3a1 1 0 01-1-1v-1a1 1 0 011-1zM7 12h1v-1H7v1zm0-2h1a1 1 0 011 1v1a1 1 0 01-1 1H7a1 1 0 01-1-1v-1a1 1 0 011-1zM3 16h1v-1H3v1zm0-2h1a1 1 0 011 1v1a1 1 0 01-1 1H3a1 1 0 01-1-1v-1a1 1 0 011-1zM7 16h1v-1H7v1zm0-2h1a1 1 0 011 1v1a1 1 0 01-1 1H7a1 1 0 01-1-1v-1a1 1 0 011-1zM3 20h1v-1H3v1zm0-2h1a1 1 0 011 1v1a1 1 0 01-1 1H3a1 1 0 01-1-1v-1a1 1 0 011-1zM7 20h1v-1H7v1zm0-2h1a1 1 0 011 1v1a1 1 0 01-1 1H7a1 1 0 01-1-1v-1a1 1 0 011-1zM16 20h1v-1h-1v1zm0-2h1a1 1 0 011 1v1a1 1 0 01-1 1h-1a1 1 0 01-1-1v-1a1 1 0 011-1zM20 20h1v-1h-1v1zm0-2h1a1 1 0 011 1v1a1 1 0 01-1 1h-1a1 1 0 01-1-1v-1a1 1 0 011-1zM20 16h1v-1h-1v1zm0-2h1a1 1 0 011 1v1a1 1 0 01-1 1h-1a1 1 0 01-1-1v-1a1 1 0 011-1zM16 16h1v-1h-1v1zm0-2h1a1 1 0 011 1v1a1 1 0 01-1 1h-1a1 1 0 01-1-1v-1a1 1 0 011-1zM16 12h1v-1h-1v1zm0-2h1a1 1 0 011 1v1a1 1 0 01-1 1h-1a1 1 0 01-1-1v-1a1 1 0 011-1zM20 12h1v-1h-1v1zm0-2h1a1 1 0 011 1v1a1 1 0 01-1 1h-1a1 1 0 01-1-1v-1a1 1 0 011-1zM20 8h1V7h-1v1zm0-2h1a1 1 0 011 1v1a1 1 0 01-1 1h-1a1 1 0 01-1-1V7a1 1 0 011-1zM16 8h1V7h-1v1zm0-2h1a1 1 0 011 1v1a1 1 0 01-1 1h-1a1 1 0 01-1-1V7a1 1 0 011-1zM11 15v1h2v-1h-2zm0-1h2a1 1 0 011 1v1a1 1 0 01-1 1h-2a1 1 0 01-1-1v-1a1 1 0 011-1zM11 19v2h2v-2h-2zm0-1h2a1 1 0 011 1v3h-4v-3a1 1 0 011-1z"/><path d="M16 5v18h7V5h-7zm0-1h7a1 1 0 011 1v18a1 1 0 01-1 1h-8V5a1 1 0 011-1z"/></g></g><g class="vertex" transform="translate(-40 100)" style="cursor: pointer; pointer-events: auto;"><circle class="handle" r="10" fill="#A66321" stroke="none"/><text x="0" y="15" text-anchor="middle" alignment-baseline="middle" filter="url(#solid)" pointer-events="none" fill="#A66321" style="font-size: 5px; font-family: sans-serif; font-weight: bold;">EXT LTD</text><g transform="scale(0.5)translate(-12 -12)" fill="#FFFFFF" pointer-events="none"><path d="M1 5v18h7V5H1zm0-1h8v20H1a1 1 0 01-1-1V5a1 1 0 011-1z"/><path d="M9 22v1h6v-1H9zm-1-1h8v3H8v-3z"/><path d="M9 1v20h6V1H9zm0-1h6a1 1 0 011 1v21H8V1a1 1 0 011-1z"/><path d="M11 3v1h2V3h-2zm0-1h2a1 1 0 011 1v1a1 1 0 01-1 1h-2a1 1 0 01-1-1V3a1 1 0 011-1zM11 7v1h2V7h-2zm0-1h2a1 1 0 011 1v1a1 1 0 01-1 1h-2a1 1 0 01-1-1V7a1 1 0 011-1zM11 11v1h2v-1h-2zm0-1h2a1 1 0 011 1v1a1 1 0 01-1 1h-2a1 1 0 01-1-1v-1a1 1 0 011-1zM3 8h1V7H3v1zm0-2h1a1 1 0 011 1v1a1 1 0 01-1 1H3a1 1 0 01-1-1V7a1 1 0 011-1zM7 8h1V7H7v1zm0-2h1a1 1 0 011 1v1a1 1 0 01-1 1H7a1 1 0 01-1-1V7a1 1 0 011-1zM3 12h1v-1H3v1zm0-2h1a1 1 0 011 1v1a1 1 0 01-1 1H3a1 1 0 01-1-1v-1a1 1 0 011-1zM7 12h1v-1H7v1zm0-2h1a1 1 0 011 1v1a1 1 0 01-1 1H7a1 1 0 01-1-1v-1a1 1 0 011-1zM3 16h1v-1H3v1zm0-2h1a1 1 0 011 1v1a1 1 0 01-1 1H3a1 1 0 01-1-1v-1a1 1 0 011-1zM7 16h1v-1H7v1zm0-2h1a1 1 0 011 1v1a1 1 0 01-1 1H7a1 1 0 01-1-1v-1a1 1 0 011-1zM3 20h1v-1H3v1zm0-2h1a1 1 0 011 1v1a1 1 0 01-1 1H3a1 1 0 01-1-1v-1a1 1 0 011-1zM7 20h1v-1H7v1zm0-2h1a1 1 0 011 1v1a1 1 0 01-1 1H7a1 1 0 01-1-1v-1a1 1 0 011-1zM16 20h1v-1h-1v1zm0-2h1a1 1 0 011 1v1a1 1 0 01-1 1h-1a1 1 0 01-1-1v-1a1 1 0 011-1zM20 20h1v-1h-1v1zm0-2h1a1 1 0 011 1v1a1 1 0 01-1 1h-1a1 1 0 01-1-1v-1a1 1 0 011-1zM20 16h1v-1h-1v1zm0-2h1a1 1 0 011 1v1a1 1 0 01-1 1h-1a1 1 0 01-1-1v-1a1 1 0 011-1zM16 16h1v-1h-1v1zm0-2h1a1 1 0 011 1v1a1 1 0 01-1 1h-1a1 1 0 01-1-1v-1a1 1 0 011-1zM16 12h1v-1h-1v1zm0-2h1a1 1 0 011 1v1a1 1 0 01-1 1h-1a1 1 0 01-1-1v-1a1 1 0 011-1zM20 12h1v-1h-1v1zm0-2h1a1 1 0 011 1v1a1 1 0 01-1 1h-1a1 1 0 01-1-1v-1a1 1 0 011-1zM20 8h1V7h-1v1zm0-2h1a1 1 0 011 1v1a1 1 0 01-1 1h-1a1 1 0 01-1-1V7a1 1 0 011-1zM16 8h1V7h-1v1zm0-2h1a1 1 0 011 1v1a1 1 0 01-1 1h-1a1 1 0 01-1-1V7a1 1 0 011-1zM11 15v1h2v-1h-2zm0-1h2a1 1 0 011 1v1a1 1 0 01-1 1h-2a1 1 0 01-1-1v-1a1 1 0 011-1zM11 19v2h2v-2h-2zm0-1h2a1 1 0 011 1v3h-4v-3a1 1 0 011-1z"/><path d="M16 5v18h7V5h-7zm0-1h7a1 1 0 011 1v18a1 1 0 01-1 1h-8V5a1 1 0 011-1z"/></g></g><g class="vertex" transform="translate(-220 90)" style="cursor: pointer; pointer-events: auto;"><circle class="handle" r="10" fill="#A66321" stroke="none"/><text x="0" y="15" text-anchor="middle" alignment-baseline="middle" filter="url(#solid)" pointer-events="none" fill="#A66321" style="font-size: 5px; font-family: sans-serif; font-weight: bold;">SOLARBIT LIMITED</text><g transform="scale(0.5)translate(-12 -12)" fill="#FFFFFF" pointer-events="none"><path d="M1 5v18h7V5H1zm0-1h8v20H1a1 1 0 01-1-1V5a1 1 0 011-1z"/><path d="M9 22v1h6v-1H9zm-1-1h8v3H8v-3z"/><path d="M9 1v20h6V1H9zm0-1h6a1 1 0 011 1v21H8V1a1 1 0 011-1z"/><path d="M11 3v1h2V3h-2zm0-1h2a1 1 0 011 1v1a1 1 0 01-1 1h-2a1 1 0 01-1-1V3a1 1 0 011-1zM11 7v1h2V7h-2zm0-1h2a1 1 0 011 1v1a1 1 0 01-1 1h-2a1 1 0 01-1-1V7a1 1 0 011-1zM11 11v1h2v-1h-2zm0-1h2a1 1 0 011 1v1a1 1 0 01-1 1h-2a1 1 0 01-1-1v-1a1 1 0 011-1zM3 8h1V7H3v1zm0-2h1a1 1 0 011 1v1a1 1 0 01-1 1H3a1 1 0 01-1-1V7a1 1 0 011-1zM7 8h1V7H7v1zm0-2h1a1 1 0 011 1v1a1 1 0 01-1 1H7a1 1 0 01-1-1V7a1 1 0 011-1zM3 12h1v-1H3v1zm0-2h1a1 1 0 011 1v1a1 1 0 01-1 1H3a1 1 0 01-1-1v-1a1 1 0 011-1zM7 12h1v-1H7v1zm0-2h1a1 1 0 011 1v1a1 1 0 01-1 1H7a1 1 0 01-1-1v-1a1 1 0 011-1zM3 16h1v-1H3v1zm0-2h1a1 1 0 011 1v1a1 1 0 01-1 1H3a1 1 0 01-1-1v-1a1 1 0 011-1zM7 16h1v-1H7v1zm0-2h1a1 1 0 011 1v1a1 1 0 01-1 1H7a1 1 0 01-1-1v-1a1 1 0 011-1zM3 20h1v-1H3v1zm0-2h1a1 1 0 011 1v1a1 1 0 01-1 1H3a1 1 0 01-1-1v-1a1 1 0 011-1zM7 20h1v-1H7v1zm0-2h1a1 1 0 011 1v1a1 1 0 01-1 1H7a1 1 0 01-1-1v-1a1 1 0 011-1zM16 20h1v-1h-1v1zm0-2h1a1 1 0 011 1v1a1 1 0 01-1 1h-1a1 1 0 01-1-1v-1a1 1 0 011-1zM20 20h1v-1h-1v1zm0-2h1a1 1 0 011 1v1a1 1 0 01-1 1h-1a1 1 0 01-1-1v-1a1 1 0 011-1zM20 16h1v-1h-1v1zm0-2h1a1 1 0 011 1v1a1 1 0 01-1 1h-1a1 1 0 01-1-1v-1a1 1 0 011-1zM16 16h1v-1h-1v1zm0-2h1a1 1 0 011 1v1a1 1 0 01-1 1h-1a1 1 0 01-1-1v-1a1 1 0 011-1zM16 12h1v-1h-1v1zm0-2h1a1 1 0 011 1v1a1 1 0 01-1 1h-1a1 1 0 01-1-1v-1a1 1 0 011-1zM20 12h1v-1h-1v1zm0-2h1a1 1 0 011 1v1a1 1 0 01-1 1h-1a1 1 0 01-1-1v-1a1 1 0 011-1zM20 8h1V7h-1v1zm0-2h1a1 1 0 011 1v1a1 1 0 01-1 1h-1a1 1 0 01-1-1V7a1 1 0 011-1zM16 8h1V7h-1v1zm0-2h1a1 1 0 011 1v1a1 1 0 01-1 1h-1a1 1 0 01-1-1V7a1 1 0 011-1zM11 15v1h2v-1h-2zm0-1h2a1 1 0 011 1v1a1 1 0 01-1 1h-2a1 1 0 01-1-1v-1a1 1 0 011-1zM11 19v2h2v-2h-2zm0-1h2a1 1 0 011 1v3h-4v-3a1 1 0 011-1z"/><path d="M16 5v18h7V5h-7zm0-1h7a1 1 0 011 1v18a1 1 0 01-1 1h-8V5a1 1 0 011-1z"/></g></g><g class="vertex" transform="translate(-220 30)" style="cursor: pointer; pointer-events: auto;"><circle class="handle" r="10" fill="#A66321" stroke="none"/><text x="0" y="15" text-anchor="middle" alignment-baseline="middle" filter="url(#solid)" pointer-events="none" fill="#A66321" style="font-size: 5px; font-family: sans-serif; font-weight: bold;">SOLARBIT HOLDINGS LIMITED</text><g transform="scale(0.5)translate(-12 -12)" fill="#FFFFFF" pointer-events="none"><path d="M1 5v18h7V5H1zm0-1h8v20H1a1 1 0 01-1-1V5a1 1 0 011-1z"/><path d="M9 22v1h6v-1H9zm-1-1h8v3H8v-3z"/><path d="M9 1v20h6V1H9zm0-1h6a1 1 0 011 1v21H8V1a1 1 0 011-1z"/><path d="M11 3v1h2V3h-2zm0-1h2a1 1 0 011 1v1a1 1 0 01-1 1h-2a1 1 0 01-1-1V3a1 1 0 011-1zM11 7v1h2V7h-2zm0-1h2a1 1 0 011 1v1a1 1 0 01-1 1h-2a1 1 0 01-1-1V7a1 1 0 011-1zM11 11v1h2v-1h-2zm0-1h2a1 1 0 011 1v1a1 1 0 01-1 1h-2a1 1 0 01-1-1v-1a1 1 0 011-1zM3 8h1V7H3v1zm0-2h1a1 1 0 011 1v1a1 1 0 01-1 1H3a1 1 0 01-1-1V7a1 1 0 011-1zM7 8h1V7H7v1zm0-2h1a1 1 0 011 1v1a1 1 0 01-1 1H7a1 1 0 01-1-1V7a1 1 0 011-1zM3 12h1v-1H3v1zm0-2h1a1 1 0 011 1v1a1 1 0 01-1 1H3a1 1 0 01-1-1v-1a1 1 0 011-1zM7 12h1v-1H7v1zm0-2h1a1 1 0 011 1v1a1 1 0 01-1 1H7a1 1 0 01-1-1v-1a1 1 0 011-1zM3 16h1v-1H3v1zm0-2h1a1 1 0 011 1v1a1 1 0 01-1 1H3a1 1 0 01-1-1v-1a1 1 0 011-1zM7 16h1v-1H7v1zm0-2h1a1 1 0 011 1v1a1 1 0 01-1 1H7a1 1 0 01-1-1v-1a1 1 0 011-1zM3 20h1v-1H3v1zm0-2h1a1 1 0 011 1v1a1 1 0 01-1 1H3a1 1 0 01-1-1v-1a1 1 0 011-1zM7 20h1v-1H7v1zm0-2h1a1 1 0 011 1v1a1 1 0 01-1 1H7a1 1 0 01-1-1v-1a1 1 0 011-1zM16 20h1v-1h-1v1zm0-2h1a1 1 0 011 1v1a1 1 0 01-1 1h-1a1 1 0 01-1-1v-1a1 1 0 011-1zM20 20h1v-1h-1v1zm0-2h1a1 1 0 011 1v1a1 1 0 01-1 1h-1a1 1 0 01-1-1v-1a1 1 0 011-1zM20 16h1v-1h-1v1zm0-2h1a1 1 0 011 1v1a1 1 0 01-1 1h-1a1 1 0 01-1-1v-1a1 1 0 011-1zM16 16h1v-1h-1v1zm0-2h1a1 1 0 011 1v1a1 1 0 01-1 1h-1a1 1 0 01-1-1v-1a1 1 0 011-1zM16 12h1v-1h-1v1zm0-2h1a1 1 0 011 1v1a1 1 0 01-1 1h-1a1 1 0 01-1-1v-1a1 1 0 011-1zM20 12h1v-1h-1v1zm0-2h1a1 1 0 011 1v1a1 1 0 01-1 1h-1a1 1 0 01-1-1v-1a1 1 0 011-1zM20 8h1V7h-1v1zm0-2h1a1 1 0 011 1v1a1 1 0 01-1 1h-1a1 1 0 01-1-1V7a1 1 0 011-1zM16 8h1V7h-1v1zm0-2h1a1 1 0 011 1v1a1 1 0 01-1 1h-1a1 1 0 01-1-1V7a1 1 0 011-1zM11 15v1h2v-1h-2zm0-1h2a1 1 0 011 1v1a1 1 0 01-1 1h-2a1 1 0 01-1-1v-1a1 1 0 011-1zM11 19v2h2v-2h-2zm0-1h2a1 1 0 011 1v3h-4v-3a1 1 0 011-1z"/><path d="M16 5v18h7V5h-7zm0-1h7a1 1 0 011 1v18a1 1 0 01-1 1h-8V5a1 1 0 011-1z"/></g></g><g class="vertex" transform="translate(-220 -20)" style="cursor: pointer; pointer-events: auto;"><circle class="handle" r="10" fill="#A66321" stroke="none"/><text x="0" y="15" text-anchor="middle" alignment-baseline="middle" filter="url(#solid)" pointer-events="none" fill="#A66321" style="font-size: 5px; font-family: sans-serif; font-weight: bold;">GATIS EGLITIS</text><g transform="scale(0.5)translate(-12 -12)" fill="#FFFFFF" pointer-events="none"><path d="M1 5v18h7V5H1zm0-1h8v20H1a1 1 0 01-1-1V5a1 1 0 011-1z"/><path d="M9 22v1h6v-1H9zm-1-1h8v3H8v-3z"/><path d="M9 1v20h6V1H9zm0-1h6a1 1 0 011 1v21H8V1a1 1 0 011-1z"/><path d="M11 3v1h2V3h-2zm0-1h2a1 1 0 011 1v1a1 1 0 01-1 1h-2a1 1 0 01-1-1V3a1 1 0 011-1zM11 7v1h2V7h-2zm0-1h2a1 1 0 011 1v1a1 1 0 01-1 1h-2a1 1 0 01-1-1V7a1 1 0 011-1zM11 11v1h2v-1h-2zm0-1h2a1 1 0 011 1v1a1 1 0 01-1 1h-2a1 1 0 01-1-1v-1a1 1 0 011-1zM3 8h1V7H3v1zm0-2h1a1 1 0 011 1v1a1 1 0 01-1 1H3a1 1 0 01-1-1V7a1 1 0 011-1zM7 8h1V7H7v1zm0-2h1a1 1 0 011 1v1a1 1 0 01-1 1H7a1 1 0 01-1-1V7a1 1 0 011-1zM3 12h1v-1H3v1zm0-2h1a1 1 0 011 1v1a1 1 0 01-1 1H3a1 1 0 01-1-1v-1a1 1 0 011-1zM7 12h1v-1H7v1zm0-2h1a1 1 0 011 1v1a1 1 0 01-1 1H7a1 1 0 01-1-1v-1a1 1 0 011-1zM3 16h1v-1H3v1zm0-2h1a1 1 0 011 1v1a1 1 0 01-1 1H3a1 1 0 01-1-1v-1a1 1 0 011-1zM7 16h1v-1H7v1zm0-2h1a1 1 0 011 1v1a1 1 0 01-1 1H7a1 1 0 01-1-1v-1a1 1 0 011-1zM3 20h1v-1H3v1zm0-2h1a1 1 0 011 1v1a1 1 0 01-1 1H3a1 1 0 01-1-1v-1a1 1 0 011-1zM7 20h1v-1H7v1zm0-2h1a1 1 0 011 1v1a1 1 0 01-1 1H7a1 1 0 01-1-1v-1a1 1 0 011-1zM16 20h1v-1h-1v1zm0-2h1a1 1 0 011 1v1a1 1 0 01-1 1h-1a1 1 0 01-1-1v-1a1 1 0 011-1zM20 20h1v-1h-1v1zm0-2h1a1 1 0 011 1v1a1 1 0 01-1 1h-1a1 1 0 01-1-1v-1a1 1 0 011-1zM20 16h1v-1h-1v1zm0-2h1a1 1 0 011 1v1a1 1 0 01-1 1h-1a1 1 0 01-1-1v-1a1 1 0 011-1zM16 16h1v-1h-1v1zm0-2h1a1 1 0 011 1v1a1 1 0 01-1 1h-1a1 1 0 01-1-1v-1a1 1 0 011-1zM16 12h1v-1h-1v1zm0-2h1a1 1 0 011 1v1a1 1 0 01-1 1h-1a1 1 0 01-1-1v-1a1 1 0 011-1zM20 12h1v-1h-1v1zm0-2h1a1 1 0 011 1v1a1 1 0 01-1 1h-1a1 1 0 01-1-1v-1a1 1 0 011-1zM20 8h1V7h-1v1zm0-2h1a1 1 0 011 1v1a1 1 0 01-1 1h-1a1 1 0 01-1-1V7a1 1 0 011-1zM16 8h1V7h-1v1zm0-2h1a1 1 0 011 1v1a1 1 0 01-1 1h-1a1 1 0 01-1-1V7a1 1 0 011-1zM11 15v1h2v-1h-2zm0-1h2a1 1 0 011 1v1a1 1 0 01-1 1h-2a1 1 0 01-1-1v-1a1 1 0 011-1zM11 19v2h2v-2h-2zm0-1h2a1 1 0 011 1v3h-4v-3a1 1 0 011-1z"/><path d="M16 5v18h7V5h-7zm0-1h7a1 1 0 011 1v18a1 1 0 01-1 1h-8V5a1 1 0 011-1z"/></g></g><g class="vertex" transform="translate(130 -180)" style="cursor: pointer; pointer-events: auto;"><circle class="handle" r="10" fill="#A66321" stroke="none"/><text x="0" y="15" text-anchor="middle" alignment-baseline="middle" filter="url(#solid)" pointer-events="none" fill="#A66321" style="font-size: 5px; font-family: sans-serif; font-weight: bold;">XMT Gozo Ltd</text><g transform="scale(0.5)translate(-12 -12)" fill="#FFFFFF" pointer-events="none"><path d="M1 5v18h7V5H1zm0-1h8v20H1a1 1 0 01-1-1V5a1 1 0 011-1z"/><path d="M9 22v1h6v-1H9zm-1-1h8v3H8v-3z"/><path d="M9 1v20h6V1H9zm0-1h6a1 1 0 011 1v21H8V1a1 1 0 011-1z"/><path d="M11 3v1h2V3h-2zm0-1h2a1 1 0 011 1v1a1 1 0 01-1 1h-2a1 1 0 01-1-1V3a1 1 0 011-1zM11 7v1h2V7h-2zm0-1h2a1 1 0 011 1v1a1 1 0 01-1 1h-2a1 1 0 01-1-1V7a1 1 0 011-1zM11 11v1h2v-1h-2zm0-1h2a1 1 0 011 1v1a1 1 0 01-1 1h-2a1 1 0 01-1-1v-1a1 1 0 011-1zM3 8h1V7H3v1zm0-2h1a1 1 0 011 1v1a1 1 0 01-1 1H3a1 1 0 01-1-1V7a1 1 0 011-1zM7 8h1V7H7v1zm0-2h1a1 1 0 011 1v1a1 1 0 01-1 1H7a1 1 0 01-1-1V7a1 1 0 011-1zM3 12h1v-1H3v1zm0-2h1a1 1 0 011 1v1a1 1 0 01-1 1H3a1 1 0 01-1-1v-1a1 1 0 011-1zM7 12h1v-1H7v1zm0-2h1a1 1 0 011 1v1a1 1 0 01-1 1H7a1 1 0 01-1-1v-1a1 1 0 011-1zM3 16h1v-1H3v1zm0-2h1a1 1 0 011 1v1a1 1 0 01-1 1H3a1 1 0 01-1-1v-1a1 1 0 011-1zM7 16h1v-1H7v1zm0-2h1a1 1 0 011 1v1a1 1 0 01-1 1H7a1 1 0 01-1-1v-1a1 1 0 011-1zM3 20h1v-1H3v1zm0-2h1a1 1 0 011 1v1a1 1 0 01-1 1H3a1 1 0 01-1-1v-1a1 1 0 011-1zM7 20h1v-1H7v1zm0-2h1a1 1 0 011 1v1a1 1 0 01-1 1H7a1 1 0 01-1-1v-1a1 1 0 011-1zM16 20h1v-1h-1v1zm0-2h1a1 1 0 011 1v1a1 1 0 01-1 1h-1a1 1 0 01-1-1v-1a1 1 0 011-1zM20 20h1v-1h-1v1zm0-2h1a1 1 0 011 1v1a1 1 0 01-1 1h-1a1 1 0 01-1-1v-1a1 1 0 011-1zM20 16h1v-1h-1v1zm0-2h1a1 1 0 011 1v1a1 1 0 01-1 1h-1a1 1 0 01-1-1v-1a1 1 0 011-1zM16 16h1v-1h-1v1zm0-2h1a1 1 0 011 1v1a1 1 0 01-1 1h-1a1 1 0 01-1-1v-1a1 1 0 011-1zM16 12h1v-1h-1v1zm0-2h1a1 1 0 011 1v1a1 1 0 01-1 1h-1a1 1 0 01-1-1v-1a1 1 0 011-1zM20 12h1v-1h-1v1zm0-2h1a1 1 0 011 1v1a1 1 0 01-1 1h-1a1 1 0 01-1-1v-1a1 1 0 011-1zM20 8h1V7h-1v1zm0-2h1a1 1 0 011 1v1a1 1 0 01-1 1h-1a1 1 0 01-1-1V7a1 1 0 011-1zM16 8h1V7h-1v1zm0-2h1a1 1 0 011 1v1a1 1 0 01-1 1h-1a1 1 0 01-1-1V7a1 1 0 011-1zM11 15v1h2v-1h-2zm0-1h2a1 1 0 011 1v1a1 1 0 01-1 1h-2a1 1 0 01-1-1v-1a1 1 0 011-1zM11 19v2h2v-2h-2zm0-1h2a1 1 0 011 1v3h-4v-3a1 1 0 011-1z"/><path d="M16 5v18h7V5h-7zm0-1h7a1 1 0 011 1v18a1 1 0 01-1 1h-8V5a1 1 0 011-1z"/></g></g><g class="vertex" transform="translate(130 -130)" style="cursor: pointer; pointer-events: auto;"><circle class="handle" r="10" fill="#A66321" stroke="none"/><text x="0" y="15" text-anchor="middle" alignment-baseline="middle" filter="url(#solid)" pointer-events="none" fill="#A66321" style="font-size: 5px; font-family: sans-serif; font-weight: bold;">XMT HOLDINGS LTD</text><g transform="scale(0.5)translate(-12 -12)" fill="#FFFFFF" pointer-events="none"><path d="M1 5v18h7V5H1zm0-1h8v20H1a1 1 0 01-1-1V5a1 1 0 011-1z"/><path d="M9 22v1h6v-1H9zm-1-1h8v3H8v-3z"/><path d="M9 1v20h6V1H9zm0-1h6a1 1 0 011 1v21H8V1a1 1 0 011-1z"/><path d="M11 3v1h2V3h-2zm0-1h2a1 1 0 011 1v1a1 1 0 01-1 1h-2a1 1 0 01-1-1V3a1 1 0 011-1zM11 7v1h2V7h-2zm0-1h2a1 1 0 011 1v1a1 1 0 01-1 1h-2a1 1 0 01-1-1V7a1 1 0 011-1zM11 11v1h2v-1h-2zm0-1h2a1 1 0 011 1v1a1 1 0 01-1 1h-2a1 1 0 01-1-1v-1a1 1 0 011-1zM3 8h1V7H3v1zm0-2h1a1 1 0 011 1v1a1 1 0 01-1 1H3a1 1 0 01-1-1V7a1 1 0 011-1zM7 8h1V7H7v1zm0-2h1a1 1 0 011 1v1a1 1 0 01-1 1H7a1 1 0 01-1-1V7a1 1 0 011-1zM3 12h1v-1H3v1zm0-2h1a1 1 0 011 1v1a1 1 0 01-1 1H3a1 1 0 01-1-1v-1a1 1 0 011-1zM7 12h1v-1H7v1zm0-2h1a1 1 0 011 1v1a1 1 0 01-1 1H7a1 1 0 01-1-1v-1a1 1 0 011-1zM3 16h1v-1H3v1zm0-2h1a1 1 0 011 1v1a1 1 0 01-1 1H3a1 1 0 01-1-1v-1a1 1 0 011-1zM7 16h1v-1H7v1zm0-2h1a1 1 0 011 1v1a1 1 0 01-1 1H7a1 1 0 01-1-1v-1a1 1 0 011-1zM3 20h1v-1H3v1zm0-2h1a1 1 0 011 1v1a1 1 0 01-1 1H3a1 1 0 01-1-1v-1a1 1 0 011-1zM7 20h1v-1H7v1zm0-2h1a1 1 0 011 1v1a1 1 0 01-1 1H7a1 1 0 01-1-1v-1a1 1 0 011-1zM16 20h1v-1h-1v1zm0-2h1a1 1 0 011 1v1a1 1 0 01-1 1h-1a1 1 0 01-1-1v-1a1 1 0 011-1zM20 20h1v-1h-1v1zm0-2h1a1 1 0 011 1v1a1 1 0 01-1 1h-1a1 1 0 01-1-1v-1a1 1 0 011-1zM20 16h1v-1h-1v1zm0-2h1a1 1 0 011 1v1a1 1 0 01-1 1h-1a1 1 0 01-1-1v-1a1 1 0 011-1zM16 16h1v-1h-1v1zm0-2h1a1 1 0 011 1v1a1 1 0 01-1 1h-1a1 1 0 01-1-1v-1a1 1 0 011-1zM16 12h1v-1h-1v1zm0-2h1a1 1 0 011 1v1a1 1 0 01-1 1h-1a1 1 0 01-1-1v-1a1 1 0 011-1zM20 12h1v-1h-1v1zm0-2h1a1 1 0 011 1v1a1 1 0 01-1 1h-1a1 1 0 01-1-1v-1a1 1 0 011-1zM20 8h1V7h-1v1zm0-2h1a1 1 0 011 1v1a1 1 0 01-1 1h-1a1 1 0 01-1-1V7a1 1 0 011-1zM16 8h1V7h-1v1zm0-2h1a1 1 0 011 1v1a1 1 0 01-1 1h-1a1 1 0 01-1-1V7a1 1 0 011-1zM11 15v1h2v-1h-2zm0-1h2a1 1 0 011 1v1a1 1 0 01-1 1h-2a1 1 0 01-1-1v-1a1 1 0 011-1zM11 19v2h2v-2h-2zm0-1h2a1 1 0 011 1v3h-4v-3a1 1 0 011-1z"/><path d="M16 5v18h7V5h-7zm0-1h7a1 1 0 011 1v18a1 1 0 01-1 1h-8V5a1 1 0 011-1z"/></g></g><g class="vertex" transform="translate(210 -130)" style="cursor: pointer; pointer-events: auto;"><circle class="handle" r="10" fill="#A66321" stroke="none"/><text x="0" y="15" text-anchor="middle" alignment-baseline="middle" filter="url(#solid)" pointer-events="none" fill="#A66321" style="font-size: 5px; font-family: sans-serif; font-weight: bold;">ORNAMENTAL LTD</text><g transform="scale(0.5)translate(-12 -12)" fill="#FFFFFF" pointer-events="none"><path d="M1 5v18h7V5H1zm0-1h8v20H1a1 1 0 01-1-1V5a1 1 0 011-1z"/><path d="M9 22v1h6v-1H9zm-1-1h8v3H8v-3z"/><path d="M9 1v20h6V1H9zm0-1h6a1 1 0 011 1v21H8V1a1 1 0 011-1z"/><path d="M11 3v1h2V3h-2zm0-1h2a1 1 0 011 1v1a1 1 0 01-1 1h-2a1 1 0 01-1-1V3a1 1 0 011-1zM11 7v1h2V7h-2zm0-1h2a1 1 0 011 1v1a1 1 0 01-1 1h-2a1 1 0 01-1-1V7a1 1 0 011-1zM11 11v1h2v-1h-2zm0-1h2a1 1 0 011 1v1a1 1 0 01-1 1h-2a1 1 0 01-1-1v-1a1 1 0 011-1zM3 8h1V7H3v1zm0-2h1a1 1 0 011 1v1a1 1 0 01-1 1H3a1 1 0 01-1-1V7a1 1 0 011-1zM7 8h1V7H7v1zm0-2h1a1 1 0 011 1v1a1 1 0 01-1 1H7a1 1 0 01-1-1V7a1 1 0 011-1zM3 12h1v-1H3v1zm0-2h1a1 1 0 011 1v1a1 1 0 01-1 1H3a1 1 0 01-1-1v-1a1 1 0 011-1zM7 12h1v-1H7v1zm0-2h1a1 1 0 011 1v1a1 1 0 01-1 1H7a1 1 0 01-1-1v-1a1 1 0 011-1zM3 16h1v-1H3v1zm0-2h1a1 1 0 011 1v1a1 1 0 01-1 1H3a1 1 0 01-1-1v-1a1 1 0 011-1zM7 16h1v-1H7v1zm0-2h1a1 1 0 011 1v1a1 1 0 01-1 1H7a1 1 0 01-1-1v-1a1 1 0 011-1zM3 20h1v-1H3v1zm0-2h1a1 1 0 011 1v1a1 1 0 01-1 1H3a1 1 0 01-1-1v-1a1 1 0 011-1zM7 20h1v-1H7v1zm0-2h1a1 1 0 011 1v1a1 1 0 01-1 1H7a1 1 0 01-1-1v-1a1 1 0 011-1zM16 20h1v-1h-1v1zm0-2h1a1 1 0 011 1v1a1 1 0 01-1 1h-1a1 1 0 01-1-1v-1a1 1 0 011-1zM20 20h1v-1h-1v1zm0-2h1a1 1 0 011 1v1a1 1 0 01-1 1h-1a1 1 0 01-1-1v-1a1 1 0 011-1zM20 16h1v-1h-1v1zm0-2h1a1 1 0 011 1v1a1 1 0 01-1 1h-1a1 1 0 01-1-1v-1a1 1 0 011-1zM16 16h1v-1h-1v1zm0-2h1a1 1 0 011 1v1a1 1 0 01-1 1h-1a1 1 0 01-1-1v-1a1 1 0 011-1zM16 12h1v-1h-1v1zm0-2h1a1 1 0 011 1v1a1 1 0 01-1 1h-1a1 1 0 01-1-1v-1a1 1 0 011-1zM20 12h1v-1h-1v1zm0-2h1a1 1 0 011 1v1a1 1 0 01-1 1h-1a1 1 0 01-1-1v-1a1 1 0 011-1zM20 8h1V7h-1v1zm0-2h1a1 1 0 011 1v1a1 1 0 01-1 1h-1a1 1 0 01-1-1V7a1 1 0 011-1zM16 8h1V7h-1v1zm0-2h1a1 1 0 011 1v1a1 1 0 01-1 1h-1a1 1 0 01-1-1V7a1 1 0 011-1zM11 15v1h2v-1h-2zm0-1h2a1 1 0 011 1v1a1 1 0 01-1 1h-2a1 1 0 01-1-1v-1a1 1 0 011-1zM11 19v2h2v-2h-2zm0-1h2a1 1 0 011 1v3h-4v-3a1 1 0 011-1z"/><path d="M16 5v18h7V5h-7zm0-1h7a1 1 0 011 1v18a1 1 0 01-1 1h-8V5a1 1 0 011-1z"/></g></g><rect id="selection" stroke="black" stroke-width="0.5px" stroke-dasharray="2" fill-opacity="0"/></g><defs><pattern id="grid" width="10" height="10" patternUnits="userSpaceOnUse"><path d="M 10 0 L 0 0 0 10" fill="none" stroke="#E1E8ED" stroke-width="0.5"/></pattern><marker id="arrow" viewBox="0 0 10 10" refX="29" refY="5" markerWidth="5" markerHeight="5" orient="auto-start-reverse" fill="#738694"><path d="M 0 0 L 10 5 L 0 10 z"/></marker><marker id="arrow-unselected" viewBox="0 0 10 10" refX="29" refY="5" markerWidth="5" markerHeight="5" orient="auto-start-reverse" fill="#BFCCD6"><path d="M 0 0 L 10 5 L 0 10 z"/></marker><filter x="0" y="0" width="1" height="1" id="solid"><feFlood flood-color="#ffffff"/><feComposite in="SourceGraphic"/></filter></defs></svg>