<svg viewBox="-1177.5522206422165 -620 845.104441284433 560" xmlns="http://www.w3.org/2000/svg" tabindex="0" style="width: 100%; height: 100%; cursor: crosshair;"><g id="zoom"><rect id="canvas-handle" x="-5000" y="-5000" width="10000" height="10000" fill="none"/><g class="edge"><path stroke="rgba(0,0,0,0)" stroke-width="4" fill="none" d="M-650 -400 L -1040 -240" style="cursor: pointer;"/><path stroke="#738694" stroke-width="1" fill="none" d="M-650 -400 L -1040 -240" stroke-dasharray="0" marker-end="" style="pointer-events: none;"/></g><g transform="translate(-845 -320)" class="EdgeLabel"><g class="edge-handle"><rect class="EdgeLabel__outline" x="-18.63637351989746" y="-4.3227479457855225" rx="3" stroke="#738694" stroke-width=".8px" fill="white" width="37.27274703979492" height="8.645495891571045"/><text text-anchor="middle" dy="1.4113739728927612" class="EdgeLabel__text" fill="#738694" pointer-events="none" style="font-size: 5px; font-family: sans-serif;">uncle - nephew</text></g></g><g class="edge"><path stroke="rgba(0,0,0,0)" stroke-width="4" fill="none" d="M-780 -150 L -830 -200" style="cursor: pointer;"/><path stroke="#738694" stroke-width="1" fill="none" d="M-780 -150 L -830 -200" stroke-dasharray="0" marker-end="" style="pointer-events: none;"/></g><g transform="translate(-805 -175)" class="EdgeLabel"><g class="edge-handle"><rect class="EdgeLabel__outline" x="-18.44686508178711" y="-4.3227479457855225" rx="3" stroke="#738694" stroke-width=".8px" fill="white" width="36.89373016357422" height="8.645495891571045"/><text text-anchor="middle" dy="1.4113739728927612" class="EdgeLabel__text" fill="#738694" pointer-events="none" style="font-size: 5px; font-family: sans-serif;">Contract award</text></g></g><g class="edge"><path stroke="rgba(0,0,0,0)" stroke-width="4" fill="none" d="M-780 -150 L -720 -90" style="cursor: pointer;"/><path stroke="#738694" stroke-width="1" fill="none" d="M-780 -150 L -720 -90" stroke-dasharray="0" marker-end="" style="pointer-events: none;"/></g><g transform="translate(-750 -120)" class="EdgeLabel"><g class="edge-handle"><rect class="EdgeLabel__outline" x="-18.44686508178711" y="-4.3227479457855225" rx="3" stroke="#738694" stroke-width=".8px" fill="white" width="36.89373016357422" height="8.645495891571045"/><text text-anchor="middle" dy="1.4113739728927612" class="EdgeLabel__text" fill="#738694" pointer-events="none" style="font-size: 5px; font-family: sans-serif;">Contract award</text></g></g><g class="edge"><path stroke="rgba(0,0,0,0)" stroke-width="4" fill="none" d="M-850 -110 L -950 -130" style="cursor: pointer;"/><path stroke="#738694" stroke-width="1" fill="none" d="M-850 -110 L -950 -130" stroke-dasharray="0" marker-end="" style="pointer-events: none;"/></g><g transform="translate(-900 -120)" class="EdgeLabel"><g class="edge-handle"><rect class="EdgeLabel__outline" x="-18.44686508178711" y="-4.3227479457855225" rx="3" stroke="#738694" stroke-width=".8px" fill="white" width="36.89373016357422" height="8.645495891571045"/><text text-anchor="middle" dy="1.4113739728927612" class="EdgeLabel__text" fill="#738694" pointer-events="none" style="font-size: 5px; font-family: sans-serif;">Contract award</text></g></g><g class="edge"><path stroke="rgba(0,0,0,0)" stroke-width="4" fill="none" d="M-850 -110 L -720 -90" style="cursor: pointer;"/><path stroke="#738694" stroke-width="1" fill="none" d="M-850 -110 L -720 -90" stroke-dasharray="0" marker-end="" style="pointer-events: none;"/></g><g transform="translate(-785 -100)" class="EdgeLabel"><g class="edge-handle"><rect class="EdgeLabel__outline" x="-18.44686508178711" y="-4.3227479457855225" rx="3" stroke="#738694" stroke-width=".8px" fill="white" width="36.89373016357422" height="8.645495891571045"/><text text-anchor="middle" dy="1.4113739728927612" class="EdgeLabel__text" fill="#738694" pointer-events="none" style="font-size: 5px; font-family: sans-serif;">Contract award</text></g></g><g class="edge"><path stroke="rgba(0,0,0,0)" stroke-width="4" fill="none" d="M-1040 -240 L -920 -200" style="cursor: pointer;"/><path stroke="#738694" stroke-width="1" fill="none" d="M-1040 -240 L -920 -200" stroke-dasharray="0" marker-end="" style="pointer-events: none;"/></g><g transform="translate(-980 -220)" class="EdgeLabel"><g class="edge-handle"><rect class="EdgeLabel__outline" x="-8.93665075302124" y="-4.3227479457855225" rx="3" stroke="#738694" stroke-width=".8px" fill="white" width="17.87330150604248" height="8.645495891571045"/><text text-anchor="middle" dy="1.4113739728927612" class="EdgeLabel__text" fill="#738694" pointer-events="none" style="font-size: 5px; font-family: sans-serif;">Family</text></g></g><g class="edge"><path stroke="rgba(0,0,0,0)" stroke-width="4" fill="none" d="M-1040 -240 L -980 -200" style="cursor: pointer;"/><path stroke="#738694" stroke-width="1" fill="none" d="M-1040 -240 L -980 -200" stroke-dasharray="0" marker-end="" style="pointer-events: none;"/></g><g transform="translate(-1010 -220)" class="EdgeLabel"><g class="edge-handle"><rect class="EdgeLabel__outline" x="-8.93665075302124" y="-4.3227479457855225" rx="3" stroke="#738694" stroke-width=".8px" fill="white" width="17.87330150604248" height="8.645495891571045"/><text text-anchor="middle" dy="1.4113739728927612" class="EdgeLabel__text" fill="#738694" pointer-events="none" style="font-size: 5px; font-family: sans-serif;">Family</text></g></g><g class="edge"><path stroke="rgba(0,0,0,0)" stroke-width="4" fill="none" d="M-920 -200 L -980 -200" style="cursor: pointer;"/><path stroke="#738694" stroke-width="1" fill="none" d="M-920 -200 L -980 -200" stroke-dasharray="0" marker-end="" style="pointer-events: none;"/></g><g transform="translate(-950 -200)" class="EdgeLabel"><g class="edge-handle"><rect class="EdgeLabel__outline" x="-8.93665075302124" y="-4.3227479457855225" rx="3" stroke="#738694" stroke-width=".8px" fill="white" width="17.87330150604248" height="8.645495891571045"/><text text-anchor="middle" dy="1.4113739728927612" class="EdgeLabel__text" fill="#738694" pointer-events="none" style="font-size: 5px; font-family: sans-serif;">Family</text></g></g><g class="edge"><path stroke="rgba(0,0,0,0)" stroke-width="4" fill="none" d="M-650 -400 L -920 -200" style="cursor: pointer;"/><path stroke="#738694" stroke-width="1" fill="none" d="M-650 -400 L -920 -200" stroke-dasharray="0" marker-end="" style="pointer-events: none;"/></g><g transform="translate(-785 -300)" class="EdgeLabel"><g class="edge-handle"><rect class="EdgeLabel__outline" x="-8.93665075302124" y="-4.3227479457855225" rx="3" stroke="#738694" stroke-width=".8px" fill="white" width="17.87330150604248" height="8.645495891571045"/><text text-anchor="middle" dy="1.4113739728927612" class="EdgeLabel__text" fill="#738694" pointer-events="none" style="font-size: 5px; font-family: sans-serif;">Family</text></g></g><g class="edge"><path stroke="rgba(0,0,0,0)" stroke-width="4" fill="none" d="M-650 -400 L -980 -200" style="cursor: pointer;"/><path stroke="#738694" stroke-width="1" fill="none" d="M-650 -400 L -980 -200" stroke-dasharray="0" marker-end="" style="pointer-events: none;"/></g><g transform="translate(-815 -300)" class="EdgeLabel"><g class="edge-handle"><rect class="EdgeLabel__outline" x="-8.93665075302124" y="-4.3227479457855225" rx="3" stroke="#738694" stroke-width=".8px" fill="white" width="17.87330150604248" height="8.645495891571045"/><text text-anchor="middle" dy="1.4113739728927612" class="EdgeLabel__text" fill="#738694" pointer-events="none" style="font-size: 5px; font-family: sans-serif;">Family</text></g></g><g class="edge"><path stroke="rgba(0,0,0,0)" stroke-width="4" fill="none" d="M-930 -350 L -990 -290" style="cursor: pointer;"/><path stroke="#738694" stroke-width="1" fill="none" d="M-930 -350 L -990 -290" stroke-dasharray="0" marker-end="" style="pointer-events: none;"/></g><g transform="translate(-960 -320)" class="EdgeLabel"><g class="edge-handle"><rect class="EdgeLabel__outline" x="-18.44686508178711" y="-4.3227479457855225" rx="3" stroke="#738694" stroke-width=".8px" fill="white" width="36.89373016357422" height="8.645495891571045"/><text text-anchor="middle" dy="1.4113739728927612" class="EdgeLabel__text" fill="#738694" pointer-events="none" style="font-size: 5px; font-family: sans-serif;">Contract award</text></g></g><g class="edge"><path stroke="rgba(0,0,0,0)" stroke-width="4" fill="none" d="M-930 -350 L -840 -440" style="cursor: pointer;"/><path stroke="#738694" stroke-width="1" fill="none" d="M-930 -350 L -840 -440" stroke-dasharray="0" marker-end="" style="pointer-events: none;"/></g><g transform="translate(-885 -395)" class="EdgeLabel"><g class="edge-handle"><rect class="EdgeLabel__outline" x="-18.44686508178711" y="-4.3227479457855225" rx="3" stroke="#738694" stroke-width=".8px" fill="white" width="36.89373016357422" height="8.645495891571045"/><text text-anchor="middle" dy="1.4113739728927612" class="EdgeLabel__text" fill="#738694" pointer-events="none" style="font-size: 5px; font-family: sans-serif;">Contract award</text></g></g><g class="edge"><path stroke="rgba(0,0,0,0)" stroke-width="4" fill="none" d="M-530 -340 L -470 -290" style="cursor: pointer;"/><path stroke="#738694" stroke-width="1" fill="none" d="M-530 -340 L -470 -290" stroke-dasharray="0" marker-end="" style="pointer-events: none;"/></g><g transform="translate(-500 -315)" class="EdgeLabel"><g class="edge-handle"><rect class="EdgeLabel__outline" x="-18.44686508178711" y="-4.3227479457855225" rx="3" stroke="#738694" stroke-width=".8px" fill="white" width="36.89373016357422" height="8.645495891571045"/><text text-anchor="middle" dy="1.4113739728927612" class="EdgeLabel__text" fill="#738694" pointer-events="none" style="font-size: 5px; font-family: sans-serif;">Contract award</text></g></g><g class="edge"><path stroke="rgba(0,0,0,0)" stroke-width="4" fill="none" d="M-530 -340 L -610 -350" style="cursor: pointer;"/><path stroke="#738694" stroke-width="1" fill="none" d="M-530 -340 L -610 -350" stroke-dasharray="0" marker-end="" style="pointer-events: none;"/></g><g transform="translate(-570 -345)" class="EdgeLabel"><g class="edge-handle"><rect class="EdgeLabel__outline" x="-18.44686508178711" y="-4.3227479457855225" rx="3" stroke="#738694" stroke-width=".8px" fill="white" width="36.89373016357422" height="8.645495891571045"/><text text-anchor="middle" dy="1.4113739728927612" class="EdgeLabel__text" fill="#738694" pointer-events="none" style="font-size: 5px; font-family: sans-serif;">Contract award</text></g></g><g class="edge"><path stroke="rgba(0,0,0,0)" stroke-width="4" fill="none" d="M-560 -270 L -470 -290" style="cursor: pointer;"/><path stroke="#738694" stroke-width="1" fill="none" d="M-560 -270 L -470 -290" stroke-dasharray="0" marker-end="" style="pointer-events: none;"/></g><g transform="translate(-515 -280)" class="EdgeLabel"><g class="edge-handle"><rect class="EdgeLabel__outline" x="-18.44686508178711" y="-4.3227479457855225" rx="3" stroke="#738694" stroke-width=".8px" fill="white" width="36.89373016357422" height="8.645495891571045"/><text text-anchor="middle" dy="1.4113739728927612" class="EdgeLabel__text" fill="#738694" pointer-events="none" style="font-size: 5px; font-family: sans-serif;">Contract award</text></g></g><g class="edge"><path stroke="rgba(0,0,0,0)" stroke-width="4" fill="none" d="M-560 -270 L -640 -270" style="cursor: pointer;"/><path stroke="#738694" stroke-width="1" fill="none" d="M-560 -270 L -640 -270" stroke-dasharray="0" marker-end="" style="pointer-events: none;"/></g><g transform="translate(-600 -270)" class="EdgeLabel"><g class="edge-handle"><rect class="EdgeLabel__outline" x="-18.44686508178711" y="-4.3227479457855225" rx="3" stroke="#738694" stroke-width=".8px" fill="white" width="36.89373016357422" height="8.645495891571045"/><text text-anchor="middle" dy="1.4113739728927612" class="EdgeLabel__text" fill="#738694" pointer-events="none" style="font-size: 5px; font-family: sans-serif;">Contract award</text></g></g><g class="edge"><path stroke="rgba(0,0,0,0)" stroke-width="4" fill="none" d="M-1040 -240 L -830 -200" style="cursor: pointer;"/><path stroke="#738694" stroke-width="1" fill="none" d="M-1040 -240 L -830 -200" stroke-dasharray="0" marker-end="" style="pointer-events: none;"/></g><g transform="translate(-935 -220)" class="EdgeLabel"><g class="edge-handle"><rect class="EdgeLabel__outline" x="-13.549086570739746" y="-4.3227479457855225" rx="3" stroke="#738694" stroke-width=".8px" fill="white" width="27.098173141479492" height="8.645495891571045"/><text text-anchor="middle" dy="1.4113739728927612" class="EdgeLabel__text" fill="#738694" pointer-events="none" style="font-size: 5px; font-family: sans-serif;">Ownership</text></g></g><g class="edge"><path stroke="rgba(0,0,0,0)" stroke-width="4" fill="none" d="M-750 -200 L -830 -200" style="cursor: pointer;"/><path stroke="#738694" stroke-width="1" fill="none" d="M-750 -200 L -830 -200" stroke-dasharray="0" marker-end="" style="pointer-events: none;"/></g><g transform="translate(-790 -200)" class="EdgeLabel"><g class="edge-handle"><rect class="EdgeLabel__outline" x="-13.549086570739746" y="-4.3227479457855225" rx="3" stroke="#738694" stroke-width=".8px" fill="white" width="27.098173141479492" height="8.645495891571045"/><text text-anchor="middle" dy="1.4113739728927612" class="EdgeLabel__text" fill="#738694" pointer-events="none" style="font-size: 5px; font-family: sans-serif;">Ownership</text></g></g><g class="edge"><path stroke="rgba(0,0,0,0)" stroke-width="4" fill="none" d="M-1040 -240 L -950 -130" style="cursor: pointer;"/><path stroke="#738694" stroke-width="1" fill="none" d="M-1040 -240 L -950 -130" stroke-dasharray="0" marker-end="" style="pointer-events: none;"/></g><g transform="translate(-995 -185)" class="EdgeLabel"><g class="edge-handle"><rect class="EdgeLabel__outline" x="-13.549086570739746" y="-4.3227479457855225" rx="3" stroke="#738694" stroke-width=".8px" fill="white" width="27.098173141479492" height="8.645495891571045"/><text text-anchor="middle" dy="1.4113739728927612" class="EdgeLabel__text" fill="#738694" pointer-events="none" style="font-size: 5px; font-family: sans-serif;">Ownership</text></g></g><g class="edge"><path stroke="rgba(0,0,0,0)" stroke-width="4" fill="none" d="M-920 -200 L -950 -130" style="cursor: pointer;"/><path stroke="#738694" stroke-width="1" fill="none" d="M-920 -200 L -950 -130" stroke-dasharray="0" marker-end="" style="pointer-events: none;"/></g><g transform="translate(-935 -165)" class="EdgeLabel"><g class="edge-handle"><rect class="EdgeLabel__outline" x="-13.549086570739746" y="-4.3227479457855225" rx="3" stroke="#738694" stroke-width=".8px" fill="white" width="27.098173141479492" height="8.645495891571045"/><text text-anchor="middle" dy="1.4113739728927612" class="EdgeLabel__text" fill="#738694" pointer-events="none" style="font-size: 5px; font-family: sans-serif;">Ownership</text></g></g><g class="edge"><path stroke="rgba(0,0,0,0)" stroke-width="4" fill="none" d="M-980 -200 L -950 -130" style="cursor: pointer;"/><path stroke="#738694" stroke-width="1" fill="none" d="M-980 -200 L -950 -130" stroke-dasharray="0" marker-end="" style="pointer-events: none;"/></g><g transform="translate(-965 -165)" class="EdgeLabel"><g class="edge-handle"><rect class="EdgeLabel__outline" x="-13.549086570739746" y="-4.3227479457855225" rx="3" stroke="#738694" stroke-width=".8px" fill="white" width="27.098173141479492" height="8.645495891571045"/><text text-anchor="middle" dy="1.4113739728927612" class="EdgeLabel__text" fill="#738694" pointer-events="none" style="font-size: 5px; font-family: sans-serif;">Ownership</text></g></g><g class="edge"><path stroke="rgba(0,0,0,0)" stroke-width="4" fill="none" d="M-840 -440 L -840 -580" style="cursor: pointer;"/><path stroke="#738694" stroke-width="1" fill="none" d="M-840 -440 L -840 -580" stroke-dasharray="0" marker-end="" style="pointer-events: none;"/></g><g transform="translate(-840 -510)" class="EdgeLabel"><g class="edge-handle"><rect class="EdgeLabel__outline" x="-15.353755950927734" y="-4.3227479457855225" rx="3" stroke="#738694" stroke-width=".8px" fill="white" width="30.70751190185547" height="8.645495891571045"/><text text-anchor="middle" dy="1.4113739728927612" class="EdgeLabel__text" fill="#738694" pointer-events="none" style="font-size: 5px; font-family: sans-serif;">Membership</text></g></g><g class="edge"><path stroke="rgba(0,0,0,0)" stroke-width="4" fill="none" d="M-750 -540 L -840 -580" style="cursor: pointer;"/><path stroke="#738694" stroke-width="1" fill="none" d="M-750 -540 L -840 -580" stroke-dasharray="0" marker-end="" style="pointer-events: none;"/></g><g transform="translate(-795 -560)" class="EdgeLabel"><g class="edge-handle"><rect class="EdgeLabel__outline" x="-15.353755950927734" y="-4.3227479457855225" rx="3" stroke="#738694" stroke-width=".8px" fill="white" width="30.70751190185547" height="8.645495891571045"/><text text-anchor="middle" dy="1.4113739728927612" class="EdgeLabel__text" fill="#738694" pointer-events="none" style="font-size: 5px; font-family: sans-serif;">Membership</text></g></g><g class="edge"><path stroke="rgba(0,0,0,0)" stroke-width="4" fill="none" d="M-660 -570 L -750 -540" style="cursor: pointer;"/><path stroke="#738694" stroke-width="1" fill="none" d="M-660 -570 L -750 -540" stroke-dasharray="0" marker-end="" style="pointer-events: none;"/></g><g transform="translate(-705 -555)" class="EdgeLabel"><g class="edge-handle"><rect class="EdgeLabel__outline" x="-13.549086570739746" y="-4.3227479457855225" rx="3" stroke="#738694" stroke-width=".8px" fill="white" width="27.098173141479492" height="8.645495891571045"/><text text-anchor="middle" dy="1.4113739728927612" class="EdgeLabel__text" fill="#738694" pointer-events="none" style="font-size: 5px; font-family: sans-serif;">Ownership</text></g></g><g class="edge"><path stroke="rgba(0,0,0,0)" stroke-width="4" fill="none" d="M-800 -500 L -840 -440" style="cursor: pointer;"/><path stroke="#738694" stroke-width="1" fill="none" d="M-800 -500 L -840 -440" stroke-dasharray="0" marker-end="" style="pointer-events: none;"/></g><g transform="translate(-820 -470)" class="EdgeLabel"><g class="edge-handle"><rect class="EdgeLabel__outline" x="-13.549086570739746" y="-4.3227479457855225" rx="3" stroke="#738694" stroke-width=".8px" fill="white" width="27.098173141479492" height="8.645495891571045"/><text text-anchor="middle" dy="1.4113739728927612" class="EdgeLabel__text" fill="#738694" pointer-events="none" style="font-size: 5px; font-family: sans-serif;">Ownership</text></g></g><g class="edge"><path stroke="rgba(0,0,0,0)" stroke-width="4" fill="none" d="M-840 -580 L -910 -540" style="cursor: pointer;"/><path stroke="#738694" stroke-width="1" fill="none" d="M-840 -580 L -910 -540" stroke-dasharray="0" marker-end="" style="pointer-events: none;"/></g><g transform="translate(-875 -560)" class="EdgeLabel"><g class="edge-handle"><rect class="EdgeLabel__outline" x="-15.353755950927734" y="-4.3227479457855225" rx="3" stroke="#738694" stroke-width=".8px" fill="white" width="30.70751190185547" height="8.645495891571045"/><text text-anchor="middle" dy="1.4113739728927612" class="EdgeLabel__text" fill="#738694" pointer-events="none" style="font-size: 5px; font-family: sans-serif;">Membership</text></g></g><g class="edge"><path stroke="rgba(0,0,0,0)" stroke-width="4" fill="none" d="M-840 -580 L -910 -510" style="cursor: pointer;"/><path stroke="#738694" stroke-width="1" fill="none" d="M-840 -580 L -910 -510" stroke-dasharray="0" marker-end="" style="pointer-events: none;"/></g><g transform="translate(-875 -545)" class="EdgeLabel"><g class="edge-handle"><rect class="EdgeLabel__outline" x="-15.353755950927734" y="-4.3227479457855225" rx="3" stroke="#738694" stroke-width=".8px" fill="white" width="30.70751190185547" height="8.645495891571045"/><text text-anchor="middle" dy="1.4113739728927612" class="EdgeLabel__text" fill="#738694" pointer-events="none" style="font-size: 5px; font-family: sans-serif;">Membership</text></g></g><g class="edge"><path stroke="rgba(0,0,0,0)" stroke-width="4" fill="none" d="M-910 -510 L -980 -460" style="cursor: pointer;"/><path stroke="#738694" stroke-width="1" fill="none" d="M-910 -510 L -980 -460" stroke-dasharray="0" marker-end="" style="pointer-events: none;"/></g><g transform="translate(-945 -485)" class="EdgeLabel"><g class="edge-handle"><rect class="EdgeLabel__outline" x="-13.549086570739746" y="-4.3227479457855225" rx="3" stroke="#738694" stroke-width=".8px" fill="white" width="27.098173141479492" height="8.645495891571045"/><text text-anchor="middle" dy="1.4113739728927612" class="EdgeLabel__text" fill="#738694" pointer-events="none" style="font-size: 5px; font-family: sans-serif;">Ownership</text></g></g><g class="edge"><path stroke="rgba(0,0,0,0)" stroke-width="4" fill="none" d="M-840 -440 L -820 -390" style="cursor: pointer;"/><path stroke="#738694" stroke-width="1" fill="none" d="M-840 -440 L -820 -390" stroke-dasharray="0" marker-end="" style="pointer-events: none;"/></g><g transform="translate(-830 -415)" class="EdgeLabel"><g class="edge-handle"><rect class="EdgeLabel__outline" x="-13.549086570739746" y="-4.3227479457855225" rx="3" stroke="#738694" stroke-width=".8px" fill="white" width="27.098173141479492" height="8.645495891571045"/><text text-anchor="middle" dy="1.4113739728927612" class="EdgeLabel__text" fill="#738694" pointer-events="none" style="font-size: 5px; font-family: sans-serif;">Ownership</text></g></g><g class="edge"><path stroke="rgba(0,0,0,0)" stroke-width="4" fill="none" d="M-980 -520 L -910 -540" style="cursor: pointer;"/><path stroke="#738694" stroke-width="1" fill="none" d="M-980 -520 L -910 -540" stroke-dasharray="0" marker-end="" style="pointer-events: none;"/></g><g transform="translate(-945 -530)" class="EdgeLabel"><g class="edge-handle"><rect class="EdgeLabel__outline" x="-13.549086570739746" y="-4.3227479457855225" rx="3" stroke="#738694" stroke-width=".8px" fill="white" width="27.098173141479492" height="8.645495891571045"/><text text-anchor="middle" dy="1.4113739728927612" class="EdgeLabel__text" fill="#738694" pointer-events="none" style="font-size: 5px; font-family: sans-serif;">Ownership</text></g></g><g class="edge"><path stroke="rgba(0,0,0,0)" stroke-width="4" fill="none" d="M-900 -420 L -840 -440" style="cursor: pointer;"/><path stroke="#738694" stroke-width="1" fill="none" d="M-900 -420 L -840 -440" stroke-dasharray="0" marker-end="" style="pointer-events: none;"/></g><g transform="translate(-870 -430)" class="EdgeLabel"><g class="edge-handle"><rect class="EdgeLabel__outline" x="-14.936450004577637" y="-4.3227479457855225" rx="3" stroke="#738694" stroke-width=".8px" fill="white" width="29.872900009155273" height="8.645495891571045"/><text text-anchor="middle" dy="1.4113739728927612" class="EdgeLabel__text" fill="#738694" pointer-events="none" style="font-size: 5px; font-family: sans-serif;">Directorship</text></g></g><g class="edge"><path stroke="rgba(0,0,0,0)" stroke-width="4" fill="none" d="M-650 -400 L -610 -350" style="cursor: pointer;"/><path stroke="#738694" stroke-width="1" fill="none" d="M-650 -400 L -610 -350" stroke-dasharray="0" marker-end="" style="pointer-events: none;"/></g><g transform="translate(-630 -375)" class="EdgeLabel"><g class="edge-handle"><rect class="EdgeLabel__outline" x="-13.549086570739746" y="-4.3227479457855225" rx="3" stroke="#738694" stroke-width=".8px" fill="white" width="27.098173141479492" height="8.645495891571045"/><text text-anchor="middle" dy="1.4113739728927612" class="EdgeLabel__text" fill="#738694" pointer-events="none" style="font-size: 5px; font-family: sans-serif;">Ownership</text></g></g><g class="edge"><path stroke="rgba(0,0,0,0)" stroke-width="4" fill="none" d="M-610 -420 L -610 -350" style="cursor: pointer;"/><path stroke="#738694" stroke-width="1" fill="none" d="M-610 -420 L -610 -350" stroke-dasharray="0" marker-end="" style="pointer-events: none;"/></g><g transform="translate(-610 -385)" class="EdgeLabel"><g class="edge-handle"><rect class="EdgeLabel__outline" x="-13.549086570739746" y="-4.3227479457855225" rx="3" stroke="#738694" stroke-width=".8px" fill="white" width="27.098173141479492" height="8.645495891571045"/><text text-anchor="middle" dy="1.4113739728927612" class="EdgeLabel__text" fill="#738694" pointer-events="none" style="font-size: 5px; font-family: sans-serif;">Ownership</text></g></g><g class="edge"><path stroke="rgba(0,0,0,0)" stroke-width="4" fill="none" d="M-650 -400 L -640 -270" style="cursor: pointer;"/><path stroke="#738694" stroke-width="1" fill="none" d="M-650 -400 L -640 -270" stroke-dasharray="0" marker-end="" style="pointer-events: none;"/></g><g transform="translate(-645 -335)" class="EdgeLabel"><g class="edge-handle"><rect class="EdgeLabel__outline" x="-13.549086570739746" y="-4.3227479457855225" rx="3" stroke="#738694" stroke-width=".8px" fill="white" width="27.098173141479492" height="8.645495891571045"/><text text-anchor="middle" dy="1.4113739728927612" class="EdgeLabel__text" fill="#738694" pointer-events="none" style="font-size: 5px; font-family: sans-serif;">Ownership</text></g></g><g class="edge"><path stroke="rgba(0,0,0,0)" stroke-width="4" fill="none" d="M-650 -400 L -750 -540" style="cursor: pointer;"/><path stroke="#738694" stroke-width="1" fill="none" d="M-650 -400 L -750 -540" stroke-dasharray="0" marker-end="" style="pointer-events: none;"/></g><g transform="translate(-700 -470)" class="EdgeLabel"><g class="edge-handle"><rect class="EdgeLabel__outline" x="-112.2581787109375" y="-4.3227479457855225" rx="3" stroke="#738694" stroke-width=".8px" fill="white" width="224.516357421875" height="8.645495891571045"/><text text-anchor="middle" dy="1.4113739728927612" class="EdgeLabel__text" fill="#738694" pointer-events="none" style="font-size: 5px; font-family: sans-serif;">Alexander's lawyer orders Wisefund to stop using his company in fake project. Copy Letter available</text></g></g><g class="edge"><path stroke="rgba(0,0,0,0)" stroke-width="4" fill="none" d="M-1030 -590 L -840 -580" style="cursor: pointer;"/><path stroke="#738694" stroke-width="1" fill="none" d="M-1030 -590 L -840 -580" stroke-dasharray="0" marker-end="" style="pointer-events: none;"/></g><g transform="translate(-935 -585)" class="EdgeLabel"><g class="edge-handle"><rect class="EdgeLabel__outline" x="-62.6405143737793" y="-4.3227479457855225" rx="3" stroke="#738694" stroke-width=".8px" fill="white" width="125.2810287475586" height="8.645495891571045"/><text text-anchor="middle" dy="1.4113739728927612" class="EdgeLabel__text" fill="#738694" pointer-events="none" style="font-size: 5px; font-family: sans-serif;">Wisefund Capital OU denies relation with Wisefund OU</text></g></g><g class="edge"><path stroke="rgba(0,0,0,0)" stroke-width="4" fill="none" d="M-650 -400 L -990 -290" style="cursor: pointer;"/><path stroke="#738694" stroke-width="1" fill="none" d="M-650 -400 L -990 -290" stroke-dasharray="0" marker-end="" style="pointer-events: none;"/></g><g transform="translate(-820 -345)" class="EdgeLabel"><g class="edge-handle"><rect class="EdgeLabel__outline" x="-13.549086570739746" y="-4.3227479457855225" rx="3" stroke="#738694" stroke-width=".8px" fill="white" width="27.098173141479492" height="8.645495891571045"/><text text-anchor="middle" dy="1.4113739728927612" class="EdgeLabel__text" fill="#738694" pointer-events="none" style="font-size: 5px; font-family: sans-serif;">Ownership</text></g></g><g class="vertex" transform="translate(-720 -90)" style="cursor: pointer; pointer-events: auto;"><circle class="handle" r="10" fill="#0A6640" stroke="none"/><text x="0" y="15" text-anchor="middle" alignment-baseline="middle" filter="url(#solid)" pointer-events="none" fill="#0A6640" style="font-size: 5px; font-family: sans-serif; font-weight: bold;">Envestio SI OU</text><g transform="scale(0.5)translate(-12 -12)" fill="#FFFFFF" pointer-events="none"><path d="M1 5v18h7V5H1zm0-1h8v20H1a1 1 0 01-1-1V5a1 1 0 011-1z"/><path d="M9 22v1h6v-1H9zm-1-1h8v3H8v-3z"/><path d="M9 1v20h6V1H9zm0-1h6a1 1 0 011 1v21H8V1a1 1 0 011-1z"/><path d="M11 3v1h2V3h-2zm0-1h2a1 1 0 011 1v1a1 1 0 01-1 1h-2a1 1 0 01-1-1V3a1 1 0 011-1zM11 7v1h2V7h-2zm0-1h2a1 1 0 011 1v1a1 1 0 01-1 1h-2a1 1 0 01-1-1V7a1 1 0 011-1zM11 11v1h2v-1h-2zm0-1h2a1 1 0 011 1v1a1 1 0 01-1 1h-2a1 1 0 01-1-1v-1a1 1 0 011-1zM3 8h1V7H3v1zm0-2h1a1 1 0 011 1v1a1 1 0 01-1 1H3a1 1 0 01-1-1V7a1 1 0 011-1zM7 8h1V7H7v1zm0-2h1a1 1 0 011 1v1a1 1 0 01-1 1H7a1 1 0 01-1-1V7a1 1 0 011-1zM3 12h1v-1H3v1zm0-2h1a1 1 0 011 1v1a1 1 0 01-1 1H3a1 1 0 01-1-1v-1a1 1 0 011-1zM7 12h1v-1H7v1zm0-2h1a1 1 0 011 1v1a1 1 0 01-1 1H7a1 1 0 01-1-1v-1a1 1 0 011-1zM3 16h1v-1H3v1zm0-2h1a1 1 0 011 1v1a1 1 0 01-1 1H3a1 1 0 01-1-1v-1a1 1 0 011-1zM7 16h1v-1H7v1zm0-2h1a1 1 0 011 1v1a1 1 0 01-1 1H7a1 1 0 01-1-1v-1a1 1 0 011-1zM3 20h1v-1H3v1zm0-2h1a1 1 0 011 1v1a1 1 0 01-1 1H3a1 1 0 01-1-1v-1a1 1 0 011-1zM7 20h1v-1H7v1zm0-2h1a1 1 0 011 1v1a1 1 0 01-1 1H7a1 1 0 01-1-1v-1a1 1 0 011-1zM16 20h1v-1h-1v1zm0-2h1a1 1 0 011 1v1a1 1 0 01-1 1h-1a1 1 0 01-1-1v-1a1 1 0 011-1zM20 20h1v-1h-1v1zm0-2h1a1 1 0 011 1v1a1 1 0 01-1 1h-1a1 1 0 01-1-1v-1a1 1 0 011-1zM20 16h1v-1h-1v1zm0-2h1a1 1 0 011 1v1a1 1 0 01-1 1h-1a1 1 0 01-1-1v-1a1 1 0 011-1zM16 16h1v-1h-1v1zm0-2h1a1 1 0 011 1v1a1 1 0 01-1 1h-1a1 1 0 01-1-1v-1a1 1 0 011-1zM16 12h1v-1h-1v1zm0-2h1a1 1 0 011 1v1a1 1 0 01-1 1h-1a1 1 0 01-1-1v-1a1 1 0 011-1zM20 12h1v-1h-1v1zm0-2h1a1 1 0 011 1v1a1 1 0 01-1 1h-1a1 1 0 01-1-1v-1a1 1 0 011-1zM20 8h1V7h-1v1zm0-2h1a1 1 0 011 1v1a1 1 0 01-1 1h-1a1 1 0 01-1-1V7a1 1 0 011-1zM16 8h1V7h-1v1zm0-2h1a1 1 0 011 1v1a1 1 0 01-1 1h-1a1 1 0 01-1-1V7a1 1 0 011-1zM11 15v1h2v-1h-2zm0-1h2a1 1 0 011 1v1a1 1 0 01-1 1h-2a1 1 0 01-1-1v-1a1 1 0 011-1zM11 19v2h2v-2h-2zm0-1h2a1 1 0 011 1v3h-4v-3a1 1 0 011-1z"/><path d="M16 5v18h7V5h-7zm0-1h7a1 1 0 011 1v18a1 1 0 01-1 1h-8V5a1 1 0 011-1z"/></g></g><g class="vertex" transform="translate(-840 -580)" style="cursor: pointer; pointer-events: auto;"><circle class="handle" r="10" fill="#0A6640" stroke="none"/><text x="0" y="15" text-anchor="middle" alignment-baseline="middle" filter="url(#solid)" pointer-events="none" fill="#0A6640" style="font-size: 5px; font-family: sans-serif; font-weight: bold;">Wisefund</text><g transform="scale(0.5)translate(-12 -12)" fill="#FFFFFF" pointer-events="none"><path d="M12.5 4a1.5 1.5 0 100-3 1.5 1.5 0 000 3zm0 1a2.5 2.5 0 110-5 2.5 2.5 0 010 5zM12.5 13a1.5 1.5 0 100-3 1.5 1.5 0 000 3zm0 1a2.5 2.5 0 110-5 2.5 2.5 0 010 5zM21.5 13a1.5 1.5 0 100-3 1.5 1.5 0 000 3zm0 1a2.5 2.5 0 110-5 2.5 2.5 0 010 5zM2.5 13a1.5 1.5 0 100-3 1.5 1.5 0 000 3zm0 1a2.5 2.5 0 110-5 2.5 2.5 0 010 5zM2.5 23a1.5 1.5 0 100-3 1.5 1.5 0 000 3zm0 1a2.5 2.5 0 110-5 2.5 2.5 0 010 5zM8.5 23a1.5 1.5 0 100-3 1.5 1.5 0 000 3zm0 1a2.5 2.5 0 110-5 2.5 2.5 0 010 5zM15.5 23a1.5 1.5 0 100-3 1.5 1.5 0 000 3zm0 1a2.5 2.5 0 110-5 2.5 2.5 0 010 5zM21.5 23a1.5 1.5 0 100-3 1.5 1.5 0 000 3zm0 1a2.5 2.5 0 110-5 2.5 2.5 0 010 5z"/><path d="M12 4h1v6h-1zM11 11v1H4v-1zM2 13h1v7H2zM8 16h1v4H8z"/><path d="M8 17v-1h8v1z"/><path d="M15 16h1v4h-1zM21 13h1v7h-1zM14 3V2h8v1z"/><path d="M21 2h1v8h-1zM12 13h1v4h-1z"/></g></g><g class="vertex" transform="translate(-1040 -240)" style="cursor: pointer; pointer-events: auto;"><circle class="handle" r="10" fill="#5C255C" stroke="none"/><text x="0" y="15" text-anchor="middle" alignment-baseline="middle" filter="url(#solid)" pointer-events="none" fill="#5C255C" style="font-size: 5px; font-family: sans-serif; font-weight: bold;">Eduard Slobins</text><g transform="scale(0.5)translate(-12 -12)" fill="#FFFFFF" pointer-events="none"><path d="M12 11a3 3 0 100-6 3 3 0 000 6zm0 1a4 4 0 110-8 4 4 0 010 8z"/><path d="M12 23c6.075 0 11-4.925 11-11S18.075 1 12 1 1 5.925 1 12s4.925 11 11 11zm0 1C5.373 24 0 18.627 0 12S5.373 0 12 0s12 5.373 12 12-5.373 12-12 12z"/><path d="M6.26 22.541L6 22.399V16a4 4 0 014-4h4a4 4 0 014 4v6.399l-.26.142A11.946 11.946 0 0112 24c-2.022 0-3.984-.5-5.74-1.459zm.74-.74C8.541 22.589 10.245 23 12 23s3.459-.41 5-1.2V16a3 3 0 00-3-3h-4a3 3 0 00-3 3v5.8z"/></g></g><g class="vertex" transform="translate(-650 -400)" style="cursor: pointer; pointer-events: auto;"><circle class="handle" r="10" fill="#5C255C" stroke="none"/><text x="0" y="15" text-anchor="middle" alignment-baseline="middle" filter="url(#solid)" pointer-events="none" fill="#5C255C" style="font-size: 5px; font-family: sans-serif; font-weight: bold;">Alexander Slobins</text><g transform="scale(0.5)translate(-12 -12)" fill="#FFFFFF" pointer-events="none"><path d="M12 11a3 3 0 100-6 3 3 0 000 6zm0 1a4 4 0 110-8 4 4 0 010 8z"/><path d="M12 23c6.075 0 11-4.925 11-11S18.075 1 12 1 1 5.925 1 12s4.925 11 11 11zm0 1C5.373 24 0 18.627 0 12S5.373 0 12 0s12 5.373 12 12-5.373 12-12 12z"/><path d="M6.26 22.541L6 22.399V16a4 4 0 014-4h4a4 4 0 014 4v6.399l-.26.142A11.946 11.946 0 0112 24c-2.022 0-3.984-.5-5.74-1.459zm.74-.74C8.541 22.589 10.245 23 12 23s3.459-.41 5-1.2V16a3 3 0 00-3-3h-4a3 3 0 00-3 3v5.8z"/></g></g><g class="vertex" transform="translate(-830 -200)" style="cursor: pointer; pointer-events: auto;"><circle class="handle" r="10" fill="#A66321" stroke="none"/><text x="0" y="15" text-anchor="middle" alignment-baseline="middle" filter="url(#solid)" pointer-events="none" fill="#A66321" style="font-size: 5px; font-family: sans-serif; font-weight: bold;">SIA Zelta Jumts</text><g transform="scale(0.5)translate(-12 -12)" fill="#FFFFFF" pointer-events="none"><path d="M1 5v18h7V5H1zm0-1h8v20H1a1 1 0 01-1-1V5a1 1 0 011-1z"/><path d="M9 22v1h6v-1H9zm-1-1h8v3H8v-3z"/><path d="M9 1v20h6V1H9zm0-1h6a1 1 0 011 1v21H8V1a1 1 0 011-1z"/><path d="M11 3v1h2V3h-2zm0-1h2a1 1 0 011 1v1a1 1 0 01-1 1h-2a1 1 0 01-1-1V3a1 1 0 011-1zM11 7v1h2V7h-2zm0-1h2a1 1 0 011 1v1a1 1 0 01-1 1h-2a1 1 0 01-1-1V7a1 1 0 011-1zM11 11v1h2v-1h-2zm0-1h2a1 1 0 011 1v1a1 1 0 01-1 1h-2a1 1 0 01-1-1v-1a1 1 0 011-1zM3 8h1V7H3v1zm0-2h1a1 1 0 011 1v1a1 1 0 01-1 1H3a1 1 0 01-1-1V7a1 1 0 011-1zM7 8h1V7H7v1zm0-2h1a1 1 0 011 1v1a1 1 0 01-1 1H7a1 1 0 01-1-1V7a1 1 0 011-1zM3 12h1v-1H3v1zm0-2h1a1 1 0 011 1v1a1 1 0 01-1 1H3a1 1 0 01-1-1v-1a1 1 0 011-1zM7 12h1v-1H7v1zm0-2h1a1 1 0 011 1v1a1 1 0 01-1 1H7a1 1 0 01-1-1v-1a1 1 0 011-1zM3 16h1v-1H3v1zm0-2h1a1 1 0 011 1v1a1 1 0 01-1 1H3a1 1 0 01-1-1v-1a1 1 0 011-1zM7 16h1v-1H7v1zm0-2h1a1 1 0 011 1v1a1 1 0 01-1 1H7a1 1 0 01-1-1v-1a1 1 0 011-1zM3 20h1v-1H3v1zm0-2h1a1 1 0 011 1v1a1 1 0 01-1 1H3a1 1 0 01-1-1v-1a1 1 0 011-1zM7 20h1v-1H7v1zm0-2h1a1 1 0 011 1v1a1 1 0 01-1 1H7a1 1 0 01-1-1v-1a1 1 0 011-1zM16 20h1v-1h-1v1zm0-2h1a1 1 0 011 1v1a1 1 0 01-1 1h-1a1 1 0 01-1-1v-1a1 1 0 011-1zM20 20h1v-1h-1v1zm0-2h1a1 1 0 011 1v1a1 1 0 01-1 1h-1a1 1 0 01-1-1v-1a1 1 0 011-1zM20 16h1v-1h-1v1zm0-2h1a1 1 0 011 1v1a1 1 0 01-1 1h-1a1 1 0 01-1-1v-1a1 1 0 011-1zM16 16h1v-1h-1v1zm0-2h1a1 1 0 011 1v1a1 1 0 01-1 1h-1a1 1 0 01-1-1v-1a1 1 0 011-1zM16 12h1v-1h-1v1zm0-2h1a1 1 0 011 1v1a1 1 0 01-1 1h-1a1 1 0 01-1-1v-1a1 1 0 011-1zM20 12h1v-1h-1v1zm0-2h1a1 1 0 011 1v1a1 1 0 01-1 1h-1a1 1 0 01-1-1v-1a1 1 0 011-1zM20 8h1V7h-1v1zm0-2h1a1 1 0 011 1v1a1 1 0 01-1 1h-1a1 1 0 01-1-1V7a1 1 0 011-1zM16 8h1V7h-1v1zm0-2h1a1 1 0 011 1v1a1 1 0 01-1 1h-1a1 1 0 01-1-1V7a1 1 0 011-1zM11 15v1h2v-1h-2zm0-1h2a1 1 0 011 1v1a1 1 0 01-1 1h-2a1 1 0 01-1-1v-1a1 1 0 011-1zM11 19v2h2v-2h-2zm0-1h2a1 1 0 011 1v3h-4v-3a1 1 0 011-1z"/><path d="M16 5v18h7V5h-7zm0-1h7a1 1 0 011 1v18a1 1 0 01-1 1h-8V5a1 1 0 011-1z"/></g></g><g class="vertex" transform="translate(-750 -200)" style="cursor: pointer; pointer-events: auto;"><circle class="handle" r="10" fill="#0E5A8A" stroke="none"/><text x="0" y="15" text-anchor="middle" alignment-baseline="middle" filter="url(#solid)" pointer-events="none" fill="#0E5A8A" style="font-size: 5px; font-family: sans-serif; font-weight: bold;">Diāna Maksimova</text><g transform="scale(0.5)translate(-12 -12)" fill="#FFFFFF" pointer-events="none"><path d="M12 11a3 3 0 100-6 3 3 0 000 6zm0 1a4 4 0 110-8 4 4 0 010 8z"/><path d="M12 23c6.075 0 11-4.925 11-11S18.075 1 12 1 1 5.925 1 12s4.925 11 11 11zm0 1C5.373 24 0 18.627 0 12S5.373 0 12 0s12 5.373 12 12-5.373 12-12 12z"/><path d="M6.26 22.541L6 22.399V16a4 4 0 014-4h4a4 4 0 014 4v6.399l-.26.142A11.946 11.946 0 0112 24c-2.022 0-3.984-.5-5.74-1.459zm.74-.74C8.541 22.589 10.245 23 12 23s3.459-.41 5-1.2V16a3 3 0 00-3-3h-4a3 3 0 00-3 3v5.8z"/></g></g><g class="vertex" transform="translate(-780 -150)" style="cursor: pointer; pointer-events: auto;"><circle class="handle" r="10" fill="#A82A2A" stroke="none"/><text x="0" y="15" text-anchor="middle" alignment-baseline="middle" filter="url(#solid)" pointer-events="none" fill="#A82A2A" style="font-size: 5px; font-family: sans-serif; font-weight: bold;">Construction of Modern “Slowfo…</text><g transform="scale(0.5)translate(-12 -12)" fill="#FFFFFF" pointer-events="none"><path d="M17 21v-6l1-1v7a1 1 0 01-1 1H3a1 1 0 01-1-1V1a1 1 0 011-1h14a1 1 0 011 1v9l-1 1V1H3v20h14z"/><path d="M4.917 3.5a.5.5 0 01.5-.5h9.166a.5.5 0 110 1H5.417a.5.5 0 01-.5-.5zM4.917 6.5a.5.5 0 01.5-.5h9.166a.5.5 0 110 1H5.417a.5.5 0 01-.5-.5zM4.917 9.5a.5.5 0 01.5-.5h9.166a.5.5 0 110 1H5.417a.5.5 0 01-.5-.5zM6.415 16.282c-.103.224-.21.464-.344.77l-.267.612a59.71 59.71 0 01-.058.13.497.497 0 01-.66.254.503.503 0 01-.253-.661l.055-.124.267-.613c.137-.311.246-.556.352-.786.437-.95.774-1.554 1.106-1.906.608-.645 1.326-.452 1.638.463.108.317.191.635.263.986.047.226.085.443.148.82.142.811.338.825 1.338.825h3.526c.262 0 .474.212.474.474a.49.49 0 01-.474.49c-2.675.092-4.107.138-4.296.138-1.002 0-1.336-.518-1.553-1.754-.184-1.057-.21-1.177-.372-1.656a3.157 3.157 0 00-.015-.042c-.225.268-.512.793-.875 1.58z"/><path d="M15 23v-2h1v2a1 1 0 01-1 1H1a1 1 0 01-1-1V3a1 1 0 011-1h2v1H1v20h14z"/><path d="M13.293 14l7.5-7.5a1 1 0 011.414 0L23.5 7.793a1 1 0 010 1.414l-7.5 7.5a1 1 0 01-.707.293H13v-2.293a1 1 0 01.293-.707zM14 16h1.293l7.5-7.5L21.5 7.207l-7.5 7.5V16z"/></g></g><g class="vertex" transform="translate(-980 -200)" style="cursor: pointer; pointer-events: auto;"><circle class="handle" r="10" fill="#0E5A8A" stroke="none"/><text x="0" y="15" text-anchor="middle" alignment-baseline="middle" filter="url(#solid)" pointer-events="none" fill="#0E5A8A" style="font-size: 5px; font-family: sans-serif; font-weight: bold;">Darja Slobine</text><g transform="scale(0.5)translate(-12 -12)" fill="#FFFFFF" pointer-events="none"><path d="M12 11a3 3 0 100-6 3 3 0 000 6zm0 1a4 4 0 110-8 4 4 0 010 8z"/><path d="M12 23c6.075 0 11-4.925 11-11S18.075 1 12 1 1 5.925 1 12s4.925 11 11 11zm0 1C5.373 24 0 18.627 0 12S5.373 0 12 0s12 5.373 12 12-5.373 12-12 12z"/><path d="M6.26 22.541L6 22.399V16a4 4 0 014-4h4a4 4 0 014 4v6.399l-.26.142A11.946 11.946 0 0112 24c-2.022 0-3.984-.5-5.74-1.459zm.74-.74C8.541 22.589 10.245 23 12 23s3.459-.41 5-1.2V16a3 3 0 00-3-3h-4a3 3 0 00-3 3v5.8z"/></g></g><g class="vertex" transform="translate(-920 -200)" style="cursor: pointer; pointer-events: auto;"><circle class="handle" r="10" fill="#0E5A8A" stroke="none"/><text x="0" y="15" text-anchor="middle" alignment-baseline="middle" filter="url(#solid)" pointer-events="none" fill="#0E5A8A" style="font-size: 5px; font-family: sans-serif; font-weight: bold;">Diāna Slobina</text><g transform="scale(0.5)translate(-12 -12)" fill="#FFFFFF" pointer-events="none"><path d="M12 11a3 3 0 100-6 3 3 0 000 6zm0 1a4 4 0 110-8 4 4 0 010 8z"/><path d="M12 23c6.075 0 11-4.925 11-11S18.075 1 12 1 1 5.925 1 12s4.925 11 11 11zm0 1C5.373 24 0 18.627 0 12S5.373 0 12 0s12 5.373 12 12-5.373 12-12 12z"/><path d="M6.26 22.541L6 22.399V16a4 4 0 014-4h4a4 4 0 014 4v6.399l-.26.142A11.946 11.946 0 0112 24c-2.022 0-3.984-.5-5.74-1.459zm.74-.74C8.541 22.589 10.245 23 12 23s3.459-.41 5-1.2V16a3 3 0 00-3-3h-4a3 3 0 00-3 3v5.8z"/></g></g><g class="vertex" transform="translate(-950 -130)" style="cursor: pointer; pointer-events: auto;"><circle class="handle" r="10" fill="#A66321" stroke="none"/><text x="0" y="15" text-anchor="middle" alignment-baseline="middle" filter="url(#solid)" pointer-events="none" fill="#A66321" style="font-size: 5px; font-family: sans-serif; font-weight: bold;">SRR Akciju sabiedrība</text><g transform="scale(0.5)translate(-12 -12)" fill="#FFFFFF" pointer-events="none"><path d="M1 5v18h7V5H1zm0-1h8v20H1a1 1 0 01-1-1V5a1 1 0 011-1z"/><path d="M9 22v1h6v-1H9zm-1-1h8v3H8v-3z"/><path d="M9 1v20h6V1H9zm0-1h6a1 1 0 011 1v21H8V1a1 1 0 011-1z"/><path d="M11 3v1h2V3h-2zm0-1h2a1 1 0 011 1v1a1 1 0 01-1 1h-2a1 1 0 01-1-1V3a1 1 0 011-1zM11 7v1h2V7h-2zm0-1h2a1 1 0 011 1v1a1 1 0 01-1 1h-2a1 1 0 01-1-1V7a1 1 0 011-1zM11 11v1h2v-1h-2zm0-1h2a1 1 0 011 1v1a1 1 0 01-1 1h-2a1 1 0 01-1-1v-1a1 1 0 011-1zM3 8h1V7H3v1zm0-2h1a1 1 0 011 1v1a1 1 0 01-1 1H3a1 1 0 01-1-1V7a1 1 0 011-1zM7 8h1V7H7v1zm0-2h1a1 1 0 011 1v1a1 1 0 01-1 1H7a1 1 0 01-1-1V7a1 1 0 011-1zM3 12h1v-1H3v1zm0-2h1a1 1 0 011 1v1a1 1 0 01-1 1H3a1 1 0 01-1-1v-1a1 1 0 011-1zM7 12h1v-1H7v1zm0-2h1a1 1 0 011 1v1a1 1 0 01-1 1H7a1 1 0 01-1-1v-1a1 1 0 011-1zM3 16h1v-1H3v1zm0-2h1a1 1 0 011 1v1a1 1 0 01-1 1H3a1 1 0 01-1-1v-1a1 1 0 011-1zM7 16h1v-1H7v1zm0-2h1a1 1 0 011 1v1a1 1 0 01-1 1H7a1 1 0 01-1-1v-1a1 1 0 011-1zM3 20h1v-1H3v1zm0-2h1a1 1 0 011 1v1a1 1 0 01-1 1H3a1 1 0 01-1-1v-1a1 1 0 011-1zM7 20h1v-1H7v1zm0-2h1a1 1 0 011 1v1a1 1 0 01-1 1H7a1 1 0 01-1-1v-1a1 1 0 011-1zM16 20h1v-1h-1v1zm0-2h1a1 1 0 011 1v1a1 1 0 01-1 1h-1a1 1 0 01-1-1v-1a1 1 0 011-1zM20 20h1v-1h-1v1zm0-2h1a1 1 0 011 1v1a1 1 0 01-1 1h-1a1 1 0 01-1-1v-1a1 1 0 011-1zM20 16h1v-1h-1v1zm0-2h1a1 1 0 011 1v1a1 1 0 01-1 1h-1a1 1 0 01-1-1v-1a1 1 0 011-1zM16 16h1v-1h-1v1zm0-2h1a1 1 0 011 1v1a1 1 0 01-1 1h-1a1 1 0 01-1-1v-1a1 1 0 011-1zM16 12h1v-1h-1v1zm0-2h1a1 1 0 011 1v1a1 1 0 01-1 1h-1a1 1 0 01-1-1v-1a1 1 0 011-1zM20 12h1v-1h-1v1zm0-2h1a1 1 0 011 1v1a1 1 0 01-1 1h-1a1 1 0 01-1-1v-1a1 1 0 011-1zM20 8h1V7h-1v1zm0-2h1a1 1 0 011 1v1a1 1 0 01-1 1h-1a1 1 0 01-1-1V7a1 1 0 011-1zM16 8h1V7h-1v1zm0-2h1a1 1 0 011 1v1a1 1 0 01-1 1h-1a1 1 0 01-1-1V7a1 1 0 011-1zM11 15v1h2v-1h-2zm0-1h2a1 1 0 011 1v1a1 1 0 01-1 1h-2a1 1 0 01-1-1v-1a1 1 0 011-1zM11 19v2h2v-2h-2zm0-1h2a1 1 0 011 1v3h-4v-3a1 1 0 011-1z"/><path d="M16 5v18h7V5h-7zm0-1h7a1 1 0 011 1v18a1 1 0 01-1 1h-8V5a1 1 0 011-1z"/></g></g><g class="vertex" transform="translate(-850 -110)" style="cursor: pointer; pointer-events: auto;"><circle class="handle" r="10" fill="#A82A2A" stroke="none"/><text x="0" y="15" text-anchor="middle" alignment-baseline="middle" filter="url(#solid)" pointer-events="none" fill="#A82A2A" style="font-size: 5px; font-family: sans-serif; font-weight: bold;">Renewal of freight containers …</text><g transform="scale(0.5)translate(-12 -12)" fill="#FFFFFF" pointer-events="none"><path d="M17 21v-6l1-1v7a1 1 0 01-1 1H3a1 1 0 01-1-1V1a1 1 0 011-1h14a1 1 0 011 1v9l-1 1V1H3v20h14z"/><path d="M4.917 3.5a.5.5 0 01.5-.5h9.166a.5.5 0 110 1H5.417a.5.5 0 01-.5-.5zM4.917 6.5a.5.5 0 01.5-.5h9.166a.5.5 0 110 1H5.417a.5.5 0 01-.5-.5zM4.917 9.5a.5.5 0 01.5-.5h9.166a.5.5 0 110 1H5.417a.5.5 0 01-.5-.5zM6.415 16.282c-.103.224-.21.464-.344.77l-.267.612a59.71 59.71 0 01-.058.13.497.497 0 01-.66.254.503.503 0 01-.253-.661l.055-.124.267-.613c.137-.311.246-.556.352-.786.437-.95.774-1.554 1.106-1.906.608-.645 1.326-.452 1.638.463.108.317.191.635.263.986.047.226.085.443.148.82.142.811.338.825 1.338.825h3.526c.262 0 .474.212.474.474a.49.49 0 01-.474.49c-2.675.092-4.107.138-4.296.138-1.002 0-1.336-.518-1.553-1.754-.184-1.057-.21-1.177-.372-1.656a3.157 3.157 0 00-.015-.042c-.225.268-.512.793-.875 1.58z"/><path d="M15 23v-2h1v2a1 1 0 01-1 1H1a1 1 0 01-1-1V3a1 1 0 011-1h2v1H1v20h14z"/><path d="M13.293 14l7.5-7.5a1 1 0 011.414 0L23.5 7.793a1 1 0 010 1.414l-7.5 7.5a1 1 0 01-.707.293H13v-2.293a1 1 0 01.293-.707zM14 16h1.293l7.5-7.5L21.5 7.207l-7.5 7.5V16z"/></g></g><g class="vertex" transform="translate(-930 -350)" style="cursor: pointer; pointer-events: auto;"><circle class="handle" r="10" fill="#A82A2A" stroke="none"/><text x="0" y="15" text-anchor="middle" alignment-baseline="middle" filter="url(#solid)" pointer-events="none" fill="#A82A2A" style="font-size: 5px; font-family: sans-serif; font-weight: bold;">HoReCa supplies purchase</text><g transform="scale(0.5)translate(-12 -12)" fill="#FFFFFF" pointer-events="none"><path d="M17 21v-6l1-1v7a1 1 0 01-1 1H3a1 1 0 01-1-1V1a1 1 0 011-1h14a1 1 0 011 1v9l-1 1V1H3v20h14z"/><path d="M4.917 3.5a.5.5 0 01.5-.5h9.166a.5.5 0 110 1H5.417a.5.5 0 01-.5-.5zM4.917 6.5a.5.5 0 01.5-.5h9.166a.5.5 0 110 1H5.417a.5.5 0 01-.5-.5zM4.917 9.5a.5.5 0 01.5-.5h9.166a.5.5 0 110 1H5.417a.5.5 0 01-.5-.5zM6.415 16.282c-.103.224-.21.464-.344.77l-.267.612a59.71 59.71 0 01-.058.13.497.497 0 01-.66.254.503.503 0 01-.253-.661l.055-.124.267-.613c.137-.311.246-.556.352-.786.437-.95.774-1.554 1.106-1.906.608-.645 1.326-.452 1.638.463.108.317.191.635.263.986.047.226.085.443.148.82.142.811.338.825 1.338.825h3.526c.262 0 .474.212.474.474a.49.49 0 01-.474.49c-2.675.092-4.107.138-4.296.138-1.002 0-1.336-.518-1.553-1.754-.184-1.057-.21-1.177-.372-1.656a3.157 3.157 0 00-.015-.042c-.225.268-.512.793-.875 1.58z"/><path d="M15 23v-2h1v2a1 1 0 01-1 1H1a1 1 0 01-1-1V3a1 1 0 011-1h2v1H1v20h14z"/><path d="M13.293 14l7.5-7.5a1 1 0 011.414 0L23.5 7.793a1 1 0 010 1.414l-7.5 7.5a1 1 0 01-.707.293H13v-2.293a1 1 0 01.293-.707zM14 16h1.293l7.5-7.5L21.5 7.207l-7.5 7.5V16z"/></g></g><g class="vertex" transform="translate(-990 -290)" style="cursor: pointer; pointer-events: auto;"><circle class="handle" r="10" fill="#A66321" stroke="none"/><text x="0" y="15" text-anchor="middle" alignment-baseline="middle" filter="url(#solid)" pointer-events="none" fill="#A66321" style="font-size: 5px; font-family: sans-serif; font-weight: bold;">SRR Deutschland GmbH</text><g transform="scale(0.5)translate(-12 -12)" fill="#FFFFFF" pointer-events="none"><path d="M1 5v18h7V5H1zm0-1h8v20H1a1 1 0 01-1-1V5a1 1 0 011-1z"/><path d="M9 22v1h6v-1H9zm-1-1h8v3H8v-3z"/><path d="M9 1v20h6V1H9zm0-1h6a1 1 0 011 1v21H8V1a1 1 0 011-1z"/><path d="M11 3v1h2V3h-2zm0-1h2a1 1 0 011 1v1a1 1 0 01-1 1h-2a1 1 0 01-1-1V3a1 1 0 011-1zM11 7v1h2V7h-2zm0-1h2a1 1 0 011 1v1a1 1 0 01-1 1h-2a1 1 0 01-1-1V7a1 1 0 011-1zM11 11v1h2v-1h-2zm0-1h2a1 1 0 011 1v1a1 1 0 01-1 1h-2a1 1 0 01-1-1v-1a1 1 0 011-1zM3 8h1V7H3v1zm0-2h1a1 1 0 011 1v1a1 1 0 01-1 1H3a1 1 0 01-1-1V7a1 1 0 011-1zM7 8h1V7H7v1zm0-2h1a1 1 0 011 1v1a1 1 0 01-1 1H7a1 1 0 01-1-1V7a1 1 0 011-1zM3 12h1v-1H3v1zm0-2h1a1 1 0 011 1v1a1 1 0 01-1 1H3a1 1 0 01-1-1v-1a1 1 0 011-1zM7 12h1v-1H7v1zm0-2h1a1 1 0 011 1v1a1 1 0 01-1 1H7a1 1 0 01-1-1v-1a1 1 0 011-1zM3 16h1v-1H3v1zm0-2h1a1 1 0 011 1v1a1 1 0 01-1 1H3a1 1 0 01-1-1v-1a1 1 0 011-1zM7 16h1v-1H7v1zm0-2h1a1 1 0 011 1v1a1 1 0 01-1 1H7a1 1 0 01-1-1v-1a1 1 0 011-1zM3 20h1v-1H3v1zm0-2h1a1 1 0 011 1v1a1 1 0 01-1 1H3a1 1 0 01-1-1v-1a1 1 0 011-1zM7 20h1v-1H7v1zm0-2h1a1 1 0 011 1v1a1 1 0 01-1 1H7a1 1 0 01-1-1v-1a1 1 0 011-1zM16 20h1v-1h-1v1zm0-2h1a1 1 0 011 1v1a1 1 0 01-1 1h-1a1 1 0 01-1-1v-1a1 1 0 011-1zM20 20h1v-1h-1v1zm0-2h1a1 1 0 011 1v1a1 1 0 01-1 1h-1a1 1 0 01-1-1v-1a1 1 0 011-1zM20 16h1v-1h-1v1zm0-2h1a1 1 0 011 1v1a1 1 0 01-1 1h-1a1 1 0 01-1-1v-1a1 1 0 011-1zM16 16h1v-1h-1v1zm0-2h1a1 1 0 011 1v1a1 1 0 01-1 1h-1a1 1 0 01-1-1v-1a1 1 0 011-1zM16 12h1v-1h-1v1zm0-2h1a1 1 0 011 1v1a1 1 0 01-1 1h-1a1 1 0 01-1-1v-1a1 1 0 011-1zM20 12h1v-1h-1v1zm0-2h1a1 1 0 011 1v1a1 1 0 01-1 1h-1a1 1 0 01-1-1v-1a1 1 0 011-1zM20 8h1V7h-1v1zm0-2h1a1 1 0 011 1v1a1 1 0 01-1 1h-1a1 1 0 01-1-1V7a1 1 0 011-1zM16 8h1V7h-1v1zm0-2h1a1 1 0 011 1v1a1 1 0 01-1 1h-1a1 1 0 01-1-1V7a1 1 0 011-1zM11 15v1h2v-1h-2zm0-1h2a1 1 0 011 1v1a1 1 0 01-1 1h-2a1 1 0 01-1-1v-1a1 1 0 011-1zM11 19v2h2v-2h-2zm0-1h2a1 1 0 011 1v3h-4v-3a1 1 0 011-1z"/><path d="M16 5v18h7V5h-7zm0-1h7a1 1 0 011 1v18a1 1 0 01-1 1h-8V5a1 1 0 011-1z"/></g></g><g class="vertex" transform="translate(-750 -540)" style="cursor: pointer; pointer-events: auto;"><circle class="handle" r="10" fill="#A66321" stroke="none"/><text x="0" y="15" text-anchor="middle" alignment-baseline="middle" filter="url(#solid)" pointer-events="none" fill="#A66321" style="font-size: 5px; font-family: sans-serif; font-weight: bold;">WiseFund Capital OU</text><g transform="scale(0.5)translate(-12 -12)" fill="#FFFFFF" pointer-events="none"><path d="M1 5v18h7V5H1zm0-1h8v20H1a1 1 0 01-1-1V5a1 1 0 011-1z"/><path d="M9 22v1h6v-1H9zm-1-1h8v3H8v-3z"/><path d="M9 1v20h6V1H9zm0-1h6a1 1 0 011 1v21H8V1a1 1 0 011-1z"/><path d="M11 3v1h2V3h-2zm0-1h2a1 1 0 011 1v1a1 1 0 01-1 1h-2a1 1 0 01-1-1V3a1 1 0 011-1zM11 7v1h2V7h-2zm0-1h2a1 1 0 011 1v1a1 1 0 01-1 1h-2a1 1 0 01-1-1V7a1 1 0 011-1zM11 11v1h2v-1h-2zm0-1h2a1 1 0 011 1v1a1 1 0 01-1 1h-2a1 1 0 01-1-1v-1a1 1 0 011-1zM3 8h1V7H3v1zm0-2h1a1 1 0 011 1v1a1 1 0 01-1 1H3a1 1 0 01-1-1V7a1 1 0 011-1zM7 8h1V7H7v1zm0-2h1a1 1 0 011 1v1a1 1 0 01-1 1H7a1 1 0 01-1-1V7a1 1 0 011-1zM3 12h1v-1H3v1zm0-2h1a1 1 0 011 1v1a1 1 0 01-1 1H3a1 1 0 01-1-1v-1a1 1 0 011-1zM7 12h1v-1H7v1zm0-2h1a1 1 0 011 1v1a1 1 0 01-1 1H7a1 1 0 01-1-1v-1a1 1 0 011-1zM3 16h1v-1H3v1zm0-2h1a1 1 0 011 1v1a1 1 0 01-1 1H3a1 1 0 01-1-1v-1a1 1 0 011-1zM7 16h1v-1H7v1zm0-2h1a1 1 0 011 1v1a1 1 0 01-1 1H7a1 1 0 01-1-1v-1a1 1 0 011-1zM3 20h1v-1H3v1zm0-2h1a1 1 0 011 1v1a1 1 0 01-1 1H3a1 1 0 01-1-1v-1a1 1 0 011-1zM7 20h1v-1H7v1zm0-2h1a1 1 0 011 1v1a1 1 0 01-1 1H7a1 1 0 01-1-1v-1a1 1 0 011-1zM16 20h1v-1h-1v1zm0-2h1a1 1 0 011 1v1a1 1 0 01-1 1h-1a1 1 0 01-1-1v-1a1 1 0 011-1zM20 20h1v-1h-1v1zm0-2h1a1 1 0 011 1v1a1 1 0 01-1 1h-1a1 1 0 01-1-1v-1a1 1 0 011-1zM20 16h1v-1h-1v1zm0-2h1a1 1 0 011 1v1a1 1 0 01-1 1h-1a1 1 0 01-1-1v-1a1 1 0 011-1zM16 16h1v-1h-1v1zm0-2h1a1 1 0 011 1v1a1 1 0 01-1 1h-1a1 1 0 01-1-1v-1a1 1 0 011-1zM16 12h1v-1h-1v1zm0-2h1a1 1 0 011 1v1a1 1 0 01-1 1h-1a1 1 0 01-1-1v-1a1 1 0 011-1zM20 12h1v-1h-1v1zm0-2h1a1 1 0 011 1v1a1 1 0 01-1 1h-1a1 1 0 01-1-1v-1a1 1 0 011-1zM20 8h1V7h-1v1zm0-2h1a1 1 0 011 1v1a1 1 0 01-1 1h-1a1 1 0 01-1-1V7a1 1 0 011-1zM16 8h1V7h-1v1zm0-2h1a1 1 0 011 1v1a1 1 0 01-1 1h-1a1 1 0 01-1-1V7a1 1 0 011-1zM11 15v1h2v-1h-2zm0-1h2a1 1 0 011 1v1a1 1 0 01-1 1h-2a1 1 0 01-1-1v-1a1 1 0 011-1zM11 19v2h2v-2h-2zm0-1h2a1 1 0 011 1v3h-4v-3a1 1 0 011-1z"/><path d="M16 5v18h7V5h-7zm0-1h7a1 1 0 011 1v18a1 1 0 01-1 1h-8V5a1 1 0 011-1z"/></g></g><g class="vertex" transform="translate(-660 -570)" style="cursor: pointer; pointer-events: auto;"><circle class="handle" r="10" fill="#0E5A8A" stroke="none"/><text x="0" y="15" text-anchor="middle" alignment-baseline="middle" filter="url(#solid)" pointer-events="none" fill="#0E5A8A" style="font-size: 5px; font-family: sans-serif; font-weight: bold;">Olga Bobrova</text><g transform="scale(0.5)translate(-12 -12)" fill="#FFFFFF" pointer-events="none"><path d="M12 11a3 3 0 100-6 3 3 0 000 6zm0 1a4 4 0 110-8 4 4 0 010 8z"/><path d="M12 23c6.075 0 11-4.925 11-11S18.075 1 12 1 1 5.925 1 12s4.925 11 11 11zm0 1C5.373 24 0 18.627 0 12S5.373 0 12 0s12 5.373 12 12-5.373 12-12 12z"/><path d="M6.26 22.541L6 22.399V16a4 4 0 014-4h4a4 4 0 014 4v6.399l-.26.142A11.946 11.946 0 0112 24c-2.022 0-3.984-.5-5.74-1.459zm.74-.74C8.541 22.589 10.245 23 12 23s3.459-.41 5-1.2V16a3 3 0 00-3-3h-4a3 3 0 00-3 3v5.8z"/></g></g><g class="vertex" transform="translate(-840 -440)" style="cursor: pointer; pointer-events: auto;"><circle class="handle" r="10" fill="#A66321" stroke="none"/><text x="0" y="15" text-anchor="middle" alignment-baseline="middle" filter="url(#solid)" pointer-events="none" fill="#A66321" style="font-size: 5px; font-family: sans-serif; font-weight: bold;">Wisefund Finance OU</text><g transform="scale(0.5)translate(-12 -12)" fill="#FFFFFF" pointer-events="none"><path d="M1 5v18h7V5H1zm0-1h8v20H1a1 1 0 01-1-1V5a1 1 0 011-1z"/><path d="M9 22v1h6v-1H9zm-1-1h8v3H8v-3z"/><path d="M9 1v20h6V1H9zm0-1h6a1 1 0 011 1v21H8V1a1 1 0 011-1z"/><path d="M11 3v1h2V3h-2zm0-1h2a1 1 0 011 1v1a1 1 0 01-1 1h-2a1 1 0 01-1-1V3a1 1 0 011-1zM11 7v1h2V7h-2zm0-1h2a1 1 0 011 1v1a1 1 0 01-1 1h-2a1 1 0 01-1-1V7a1 1 0 011-1zM11 11v1h2v-1h-2zm0-1h2a1 1 0 011 1v1a1 1 0 01-1 1h-2a1 1 0 01-1-1v-1a1 1 0 011-1zM3 8h1V7H3v1zm0-2h1a1 1 0 011 1v1a1 1 0 01-1 1H3a1 1 0 01-1-1V7a1 1 0 011-1zM7 8h1V7H7v1zm0-2h1a1 1 0 011 1v1a1 1 0 01-1 1H7a1 1 0 01-1-1V7a1 1 0 011-1zM3 12h1v-1H3v1zm0-2h1a1 1 0 011 1v1a1 1 0 01-1 1H3a1 1 0 01-1-1v-1a1 1 0 011-1zM7 12h1v-1H7v1zm0-2h1a1 1 0 011 1v1a1 1 0 01-1 1H7a1 1 0 01-1-1v-1a1 1 0 011-1zM3 16h1v-1H3v1zm0-2h1a1 1 0 011 1v1a1 1 0 01-1 1H3a1 1 0 01-1-1v-1a1 1 0 011-1zM7 16h1v-1H7v1zm0-2h1a1 1 0 011 1v1a1 1 0 01-1 1H7a1 1 0 01-1-1v-1a1 1 0 011-1zM3 20h1v-1H3v1zm0-2h1a1 1 0 011 1v1a1 1 0 01-1 1H3a1 1 0 01-1-1v-1a1 1 0 011-1zM7 20h1v-1H7v1zm0-2h1a1 1 0 011 1v1a1 1 0 01-1 1H7a1 1 0 01-1-1v-1a1 1 0 011-1zM16 20h1v-1h-1v1zm0-2h1a1 1 0 011 1v1a1 1 0 01-1 1h-1a1 1 0 01-1-1v-1a1 1 0 011-1zM20 20h1v-1h-1v1zm0-2h1a1 1 0 011 1v1a1 1 0 01-1 1h-1a1 1 0 01-1-1v-1a1 1 0 011-1zM20 16h1v-1h-1v1zm0-2h1a1 1 0 011 1v1a1 1 0 01-1 1h-1a1 1 0 01-1-1v-1a1 1 0 011-1zM16 16h1v-1h-1v1zm0-2h1a1 1 0 011 1v1a1 1 0 01-1 1h-1a1 1 0 01-1-1v-1a1 1 0 011-1zM16 12h1v-1h-1v1zm0-2h1a1 1 0 011 1v1a1 1 0 01-1 1h-1a1 1 0 01-1-1v-1a1 1 0 011-1zM20 12h1v-1h-1v1zm0-2h1a1 1 0 011 1v1a1 1 0 01-1 1h-1a1 1 0 01-1-1v-1a1 1 0 011-1zM20 8h1V7h-1v1zm0-2h1a1 1 0 011 1v1a1 1 0 01-1 1h-1a1 1 0 01-1-1V7a1 1 0 011-1zM16 8h1V7h-1v1zm0-2h1a1 1 0 011 1v1a1 1 0 01-1 1h-1a1 1 0 01-1-1V7a1 1 0 011-1zM11 15v1h2v-1h-2zm0-1h2a1 1 0 011 1v1a1 1 0 01-1 1h-2a1 1 0 01-1-1v-1a1 1 0 011-1zM11 19v2h2v-2h-2zm0-1h2a1 1 0 011 1v3h-4v-3a1 1 0 011-1z"/><path d="M16 5v18h7V5h-7zm0-1h7a1 1 0 011 1v18a1 1 0 01-1 1h-8V5a1 1 0 011-1z"/></g></g><g class="vertex" transform="translate(-800 -500)" style="cursor: pointer; pointer-events: auto;"><circle class="handle" r="10" fill="#5C255C" stroke="none"/><text x="0" y="15" text-anchor="middle" alignment-baseline="middle" filter="url(#solid)" pointer-events="none" fill="#5C255C" style="font-size: 5px; font-family: sans-serif; font-weight: bold;">Ingus Linkevics</text><g transform="scale(0.5)translate(-12 -12)" fill="#FFFFFF" pointer-events="none"><path d="M12 11a3 3 0 100-6 3 3 0 000 6zm0 1a4 4 0 110-8 4 4 0 010 8z"/><path d="M12 23c6.075 0 11-4.925 11-11S18.075 1 12 1 1 5.925 1 12s4.925 11 11 11zm0 1C5.373 24 0 18.627 0 12S5.373 0 12 0s12 5.373 12 12-5.373 12-12 12z"/><path d="M6.26 22.541L6 22.399V16a4 4 0 014-4h4a4 4 0 014 4v6.399l-.26.142A11.946 11.946 0 0112 24c-2.022 0-3.984-.5-5.74-1.459zm.74-.74C8.541 22.589 10.245 23 12 23s3.459-.41 5-1.2V16a3 3 0 00-3-3h-4a3 3 0 00-3 3v5.8z"/></g></g><g class="vertex" transform="translate(-1030 -590)" style="cursor: pointer; pointer-events: auto;"><circle class="handle" r="10" fill="#A66321" stroke="none"/><text x="0" y="15" text-anchor="middle" alignment-baseline="middle" filter="url(#solid)" pointer-events="none" fill="#A66321" style="font-size: 5px; font-family: sans-serif; font-weight: bold;">WiseFund OU</text><g transform="scale(0.5)translate(-12 -12)" fill="#FFFFFF" pointer-events="none"><path d="M1 5v18h7V5H1zm0-1h8v20H1a1 1 0 01-1-1V5a1 1 0 011-1z"/><path d="M9 22v1h6v-1H9zm-1-1h8v3H8v-3z"/><path d="M9 1v20h6V1H9zm0-1h6a1 1 0 011 1v21H8V1a1 1 0 011-1z"/><path d="M11 3v1h2V3h-2zm0-1h2a1 1 0 011 1v1a1 1 0 01-1 1h-2a1 1 0 01-1-1V3a1 1 0 011-1zM11 7v1h2V7h-2zm0-1h2a1 1 0 011 1v1a1 1 0 01-1 1h-2a1 1 0 01-1-1V7a1 1 0 011-1zM11 11v1h2v-1h-2zm0-1h2a1 1 0 011 1v1a1 1 0 01-1 1h-2a1 1 0 01-1-1v-1a1 1 0 011-1zM3 8h1V7H3v1zm0-2h1a1 1 0 011 1v1a1 1 0 01-1 1H3a1 1 0 01-1-1V7a1 1 0 011-1zM7 8h1V7H7v1zm0-2h1a1 1 0 011 1v1a1 1 0 01-1 1H7a1 1 0 01-1-1V7a1 1 0 011-1zM3 12h1v-1H3v1zm0-2h1a1 1 0 011 1v1a1 1 0 01-1 1H3a1 1 0 01-1-1v-1a1 1 0 011-1zM7 12h1v-1H7v1zm0-2h1a1 1 0 011 1v1a1 1 0 01-1 1H7a1 1 0 01-1-1v-1a1 1 0 011-1zM3 16h1v-1H3v1zm0-2h1a1 1 0 011 1v1a1 1 0 01-1 1H3a1 1 0 01-1-1v-1a1 1 0 011-1zM7 16h1v-1H7v1zm0-2h1a1 1 0 011 1v1a1 1 0 01-1 1H7a1 1 0 01-1-1v-1a1 1 0 011-1zM3 20h1v-1H3v1zm0-2h1a1 1 0 011 1v1a1 1 0 01-1 1H3a1 1 0 01-1-1v-1a1 1 0 011-1zM7 20h1v-1H7v1zm0-2h1a1 1 0 011 1v1a1 1 0 01-1 1H7a1 1 0 01-1-1v-1a1 1 0 011-1zM16 20h1v-1h-1v1zm0-2h1a1 1 0 011 1v1a1 1 0 01-1 1h-1a1 1 0 01-1-1v-1a1 1 0 011-1zM20 20h1v-1h-1v1zm0-2h1a1 1 0 011 1v1a1 1 0 01-1 1h-1a1 1 0 01-1-1v-1a1 1 0 011-1zM20 16h1v-1h-1v1zm0-2h1a1 1 0 011 1v1a1 1 0 01-1 1h-1a1 1 0 01-1-1v-1a1 1 0 011-1zM16 16h1v-1h-1v1zm0-2h1a1 1 0 011 1v1a1 1 0 01-1 1h-1a1 1 0 01-1-1v-1a1 1 0 011-1zM16 12h1v-1h-1v1zm0-2h1a1 1 0 011 1v1a1 1 0 01-1 1h-1a1 1 0 01-1-1v-1a1 1 0 011-1zM20 12h1v-1h-1v1zm0-2h1a1 1 0 011 1v1a1 1 0 01-1 1h-1a1 1 0 01-1-1v-1a1 1 0 011-1zM20 8h1V7h-1v1zm0-2h1a1 1 0 011 1v1a1 1 0 01-1 1h-1a1 1 0 01-1-1V7a1 1 0 011-1zM16 8h1V7h-1v1zm0-2h1a1 1 0 011 1v1a1 1 0 01-1 1h-1a1 1 0 01-1-1V7a1 1 0 011-1zM11 15v1h2v-1h-2zm0-1h2a1 1 0 011 1v1a1 1 0 01-1 1h-2a1 1 0 01-1-1v-1a1 1 0 011-1zM11 19v2h2v-2h-2zm0-1h2a1 1 0 011 1v3h-4v-3a1 1 0 011-1z"/><path d="M16 5v18h7V5h-7zm0-1h7a1 1 0 011 1v18a1 1 0 01-1 1h-8V5a1 1 0 011-1z"/></g></g><g class="vertex" transform="translate(-910 -540)" style="cursor: pointer; pointer-events: auto;"><circle class="handle" r="10" fill="#A66321" stroke="none"/><text x="0" y="15" text-anchor="middle" alignment-baseline="middle" filter="url(#solid)" pointer-events="none" fill="#A66321" style="font-size: 5px; font-family: sans-serif; font-weight: bold;">Wisefund Capital Kft</text><g transform="scale(0.5)translate(-12 -12)" fill="#FFFFFF" pointer-events="none"><path d="M1 5v18h7V5H1zm0-1h8v20H1a1 1 0 01-1-1V5a1 1 0 011-1z"/><path d="M9 22v1h6v-1H9zm-1-1h8v3H8v-3z"/><path d="M9 1v20h6V1H9zm0-1h6a1 1 0 011 1v21H8V1a1 1 0 011-1z"/><path d="M11 3v1h2V3h-2zm0-1h2a1 1 0 011 1v1a1 1 0 01-1 1h-2a1 1 0 01-1-1V3a1 1 0 011-1zM11 7v1h2V7h-2zm0-1h2a1 1 0 011 1v1a1 1 0 01-1 1h-2a1 1 0 01-1-1V7a1 1 0 011-1zM11 11v1h2v-1h-2zm0-1h2a1 1 0 011 1v1a1 1 0 01-1 1h-2a1 1 0 01-1-1v-1a1 1 0 011-1zM3 8h1V7H3v1zm0-2h1a1 1 0 011 1v1a1 1 0 01-1 1H3a1 1 0 01-1-1V7a1 1 0 011-1zM7 8h1V7H7v1zm0-2h1a1 1 0 011 1v1a1 1 0 01-1 1H7a1 1 0 01-1-1V7a1 1 0 011-1zM3 12h1v-1H3v1zm0-2h1a1 1 0 011 1v1a1 1 0 01-1 1H3a1 1 0 01-1-1v-1a1 1 0 011-1zM7 12h1v-1H7v1zm0-2h1a1 1 0 011 1v1a1 1 0 01-1 1H7a1 1 0 01-1-1v-1a1 1 0 011-1zM3 16h1v-1H3v1zm0-2h1a1 1 0 011 1v1a1 1 0 01-1 1H3a1 1 0 01-1-1v-1a1 1 0 011-1zM7 16h1v-1H7v1zm0-2h1a1 1 0 011 1v1a1 1 0 01-1 1H7a1 1 0 01-1-1v-1a1 1 0 011-1zM3 20h1v-1H3v1zm0-2h1a1 1 0 011 1v1a1 1 0 01-1 1H3a1 1 0 01-1-1v-1a1 1 0 011-1zM7 20h1v-1H7v1zm0-2h1a1 1 0 011 1v1a1 1 0 01-1 1H7a1 1 0 01-1-1v-1a1 1 0 011-1zM16 20h1v-1h-1v1zm0-2h1a1 1 0 011 1v1a1 1 0 01-1 1h-1a1 1 0 01-1-1v-1a1 1 0 011-1zM20 20h1v-1h-1v1zm0-2h1a1 1 0 011 1v1a1 1 0 01-1 1h-1a1 1 0 01-1-1v-1a1 1 0 011-1zM20 16h1v-1h-1v1zm0-2h1a1 1 0 011 1v1a1 1 0 01-1 1h-1a1 1 0 01-1-1v-1a1 1 0 011-1zM16 16h1v-1h-1v1zm0-2h1a1 1 0 011 1v1a1 1 0 01-1 1h-1a1 1 0 01-1-1v-1a1 1 0 011-1zM16 12h1v-1h-1v1zm0-2h1a1 1 0 011 1v1a1 1 0 01-1 1h-1a1 1 0 01-1-1v-1a1 1 0 011-1zM20 12h1v-1h-1v1zm0-2h1a1 1 0 011 1v1a1 1 0 01-1 1h-1a1 1 0 01-1-1v-1a1 1 0 011-1zM20 8h1V7h-1v1zm0-2h1a1 1 0 011 1v1a1 1 0 01-1 1h-1a1 1 0 01-1-1V7a1 1 0 011-1zM16 8h1V7h-1v1zm0-2h1a1 1 0 011 1v1a1 1 0 01-1 1h-1a1 1 0 01-1-1V7a1 1 0 011-1zM11 15v1h2v-1h-2zm0-1h2a1 1 0 011 1v1a1 1 0 01-1 1h-2a1 1 0 01-1-1v-1a1 1 0 011-1zM11 19v2h2v-2h-2zm0-1h2a1 1 0 011 1v3h-4v-3a1 1 0 011-1z"/><path d="M16 5v18h7V5h-7zm0-1h7a1 1 0 011 1v18a1 1 0 01-1 1h-8V5a1 1 0 011-1z"/></g></g><g class="vertex" transform="translate(-910 -510)" style="cursor: pointer; pointer-events: auto;"><circle class="handle" r="10" fill="#A66321" stroke="none"/><text x="0" y="15" text-anchor="middle" alignment-baseline="middle" filter="url(#solid)" pointer-events="none" fill="#A66321" style="font-size: 5px; font-family: sans-serif; font-weight: bold;">Wisefund Finance Kft</text><g transform="scale(0.5)translate(-12 -12)" fill="#FFFFFF" pointer-events="none"><path d="M1 5v18h7V5H1zm0-1h8v20H1a1 1 0 01-1-1V5a1 1 0 011-1z"/><path d="M9 22v1h6v-1H9zm-1-1h8v3H8v-3z"/><path d="M9 1v20h6V1H9zm0-1h6a1 1 0 011 1v21H8V1a1 1 0 011-1z"/><path d="M11 3v1h2V3h-2zm0-1h2a1 1 0 011 1v1a1 1 0 01-1 1h-2a1 1 0 01-1-1V3a1 1 0 011-1zM11 7v1h2V7h-2zm0-1h2a1 1 0 011 1v1a1 1 0 01-1 1h-2a1 1 0 01-1-1V7a1 1 0 011-1zM11 11v1h2v-1h-2zm0-1h2a1 1 0 011 1v1a1 1 0 01-1 1h-2a1 1 0 01-1-1v-1a1 1 0 011-1zM3 8h1V7H3v1zm0-2h1a1 1 0 011 1v1a1 1 0 01-1 1H3a1 1 0 01-1-1V7a1 1 0 011-1zM7 8h1V7H7v1zm0-2h1a1 1 0 011 1v1a1 1 0 01-1 1H7a1 1 0 01-1-1V7a1 1 0 011-1zM3 12h1v-1H3v1zm0-2h1a1 1 0 011 1v1a1 1 0 01-1 1H3a1 1 0 01-1-1v-1a1 1 0 011-1zM7 12h1v-1H7v1zm0-2h1a1 1 0 011 1v1a1 1 0 01-1 1H7a1 1 0 01-1-1v-1a1 1 0 011-1zM3 16h1v-1H3v1zm0-2h1a1 1 0 011 1v1a1 1 0 01-1 1H3a1 1 0 01-1-1v-1a1 1 0 011-1zM7 16h1v-1H7v1zm0-2h1a1 1 0 011 1v1a1 1 0 01-1 1H7a1 1 0 01-1-1v-1a1 1 0 011-1zM3 20h1v-1H3v1zm0-2h1a1 1 0 011 1v1a1 1 0 01-1 1H3a1 1 0 01-1-1v-1a1 1 0 011-1zM7 20h1v-1H7v1zm0-2h1a1 1 0 011 1v1a1 1 0 01-1 1H7a1 1 0 01-1-1v-1a1 1 0 011-1zM16 20h1v-1h-1v1zm0-2h1a1 1 0 011 1v1a1 1 0 01-1 1h-1a1 1 0 01-1-1v-1a1 1 0 011-1zM20 20h1v-1h-1v1zm0-2h1a1 1 0 011 1v1a1 1 0 01-1 1h-1a1 1 0 01-1-1v-1a1 1 0 011-1zM20 16h1v-1h-1v1zm0-2h1a1 1 0 011 1v1a1 1 0 01-1 1h-1a1 1 0 01-1-1v-1a1 1 0 011-1zM16 16h1v-1h-1v1zm0-2h1a1 1 0 011 1v1a1 1 0 01-1 1h-1a1 1 0 01-1-1v-1a1 1 0 011-1zM16 12h1v-1h-1v1zm0-2h1a1 1 0 011 1v1a1 1 0 01-1 1h-1a1 1 0 01-1-1v-1a1 1 0 011-1zM20 12h1v-1h-1v1zm0-2h1a1 1 0 011 1v1a1 1 0 01-1 1h-1a1 1 0 01-1-1v-1a1 1 0 011-1zM20 8h1V7h-1v1zm0-2h1a1 1 0 011 1v1a1 1 0 01-1 1h-1a1 1 0 01-1-1V7a1 1 0 011-1zM16 8h1V7h-1v1zm0-2h1a1 1 0 011 1v1a1 1 0 01-1 1h-1a1 1 0 01-1-1V7a1 1 0 011-1zM11 15v1h2v-1h-2zm0-1h2a1 1 0 011 1v1a1 1 0 01-1 1h-2a1 1 0 01-1-1v-1a1 1 0 011-1zM11 19v2h2v-2h-2zm0-1h2a1 1 0 011 1v3h-4v-3a1 1 0 011-1z"/><path d="M16 5v18h7V5h-7zm0-1h7a1 1 0 011 1v18a1 1 0 01-1 1h-8V5a1 1 0 011-1z"/></g></g><g class="vertex" transform="translate(-980 -520)" style="cursor: pointer; pointer-events: auto;"><circle class="handle" r="10" fill="#0E5A8A" stroke="none"/><text x="0" y="15" text-anchor="middle" alignment-baseline="middle" filter="url(#solid)" pointer-events="none" fill="#0E5A8A" style="font-size: 5px; font-family: sans-serif; font-weight: bold;">Dmittrijs Gamajunovs</text><g transform="scale(0.5)translate(-12 -12)" fill="#FFFFFF" pointer-events="none"><path d="M12 11a3 3 0 100-6 3 3 0 000 6zm0 1a4 4 0 110-8 4 4 0 010 8z"/><path d="M12 23c6.075 0 11-4.925 11-11S18.075 1 12 1 1 5.925 1 12s4.925 11 11 11zm0 1C5.373 24 0 18.627 0 12S5.373 0 12 0s12 5.373 12 12-5.373 12-12 12z"/><path d="M6.26 22.541L6 22.399V16a4 4 0 014-4h4a4 4 0 014 4v6.399l-.26.142A11.946 11.946 0 0112 24c-2.022 0-3.984-.5-5.74-1.459zm.74-.74C8.541 22.589 10.245 23 12 23s3.459-.41 5-1.2V16a3 3 0 00-3-3h-4a3 3 0 00-3 3v5.8z"/></g></g><g class="vertex" transform="translate(-820 -390)" style="cursor: pointer; pointer-events: auto;"><circle class="handle" r="10" fill="#008075" stroke="none"/><text x="0" y="15" text-anchor="middle" alignment-baseline="middle" filter="url(#solid)" pointer-events="none" fill="#008075" style="font-size: 5px; font-family: sans-serif; font-weight: bold;">LT59 3500 0100 0660 9133</text><g transform="scale(0.5)translate(-12 -12)" fill="#FFFFFF" pointer-events="none"><path d="M10.086 20.739v-.945c.64.267 1.185.4 1.638.4.528 0 .793-.18.793-.54 0-.232-.218-.435-.654-.61l-.435-.174c-.474-.191-.812-.398-1.015-.618a1.163 1.163 0 01-.305-.82c0-.452.173-.804.518-1.055.346-.251.83-.377 1.45-.377.39 0 .853.057 1.39.17v.906c-.517-.18-.945-.27-1.285-.27-.534 0-.801.165-.801.496 0 .218.197.402.592.553l.375.144c.56.212.95.427 1.17.645.218.217.328.498.328.84 0 .45-.187.816-.56 1.096-.373.28-.858.42-1.457.42a6.095 6.095 0 01-1.742-.261z"/><path d="M12 15a.5.5 0 01.5.5v.5a.5.5 0 01-1 0v-.5a.5.5 0 01.5-.5zM12 20.5a.5.5 0 01.5.5v.5a.5.5 0 01-1 0V21a.5.5 0 01.5-.5z"/><path d="M23 23h1v1H0v-1h1V12H0V9h3V6h5a4.002 4.002 0 012.983-3.87L12 0l1.017 2.13A4.002 4.002 0 0116 6h5v3h3v3h-1v11zm-1 0V12h-3.342l2.05 2H19v9h3zm-4 0v-9h-1v9h1zm-2 0v-9H8v9h8zm-9 0v-9H6v9h1zm-2 0v-9H3.293l2.049-2H2v11h3zM9 6h2.488L12 5.5l.512.5H15a3 3 0 00-6 0zm6 1h-1.463l2.048 2H20V7h-5zM8 7H4v2h4.415l2.048-2H8zm13 3h-1v1h1v-1zM3 10v1h1v-1H3zm19 1h1v-1h-1v1zM2 11v-1H1v1h1zm17 0v-1h-2.39l1.024 1H19zM5 11h1.366l1.024-1H5v1zm11.67 2h1.623L12 7l-6.293 6h1.624L12 8.5l4.67 4.5zm-7.963 0h6.586L12 10l-3.293 3zM3 15h1v3H3v-3zm17 0h1v3h-1v-3z"/></g></g><g class="vertex" transform="translate(-980 -460)" style="cursor: pointer; pointer-events: auto;"><circle class="handle" r="10" fill="#008075" stroke="none"/><text x="0" y="15" text-anchor="middle" alignment-baseline="middle" filter="url(#solid)" pointer-events="none" fill="#008075" style="font-size: 5px; font-family: sans-serif; font-weight: bold;">HU 33 1176 3213 1339 4886 0000…</text><g transform="scale(0.5)translate(-12 -12)" fill="#FFFFFF" pointer-events="none"><path d="M10.086 20.739v-.945c.64.267 1.185.4 1.638.4.528 0 .793-.18.793-.54 0-.232-.218-.435-.654-.61l-.435-.174c-.474-.191-.812-.398-1.015-.618a1.163 1.163 0 01-.305-.82c0-.452.173-.804.518-1.055.346-.251.83-.377 1.45-.377.39 0 .853.057 1.39.17v.906c-.517-.18-.945-.27-1.285-.27-.534 0-.801.165-.801.496 0 .218.197.402.592.553l.375.144c.56.212.95.427 1.17.645.218.217.328.498.328.84 0 .45-.187.816-.56 1.096-.373.28-.858.42-1.457.42a6.095 6.095 0 01-1.742-.261z"/><path d="M12 15a.5.5 0 01.5.5v.5a.5.5 0 01-1 0v-.5a.5.5 0 01.5-.5zM12 20.5a.5.5 0 01.5.5v.5a.5.5 0 01-1 0V21a.5.5 0 01.5-.5z"/><path d="M23 23h1v1H0v-1h1V12H0V9h3V6h5a4.002 4.002 0 012.983-3.87L12 0l1.017 2.13A4.002 4.002 0 0116 6h5v3h3v3h-1v11zm-1 0V12h-3.342l2.05 2H19v9h3zm-4 0v-9h-1v9h1zm-2 0v-9H8v9h8zm-9 0v-9H6v9h1zm-2 0v-9H3.293l2.049-2H2v11h3zM9 6h2.488L12 5.5l.512.5H15a3 3 0 00-6 0zm6 1h-1.463l2.048 2H20V7h-5zM8 7H4v2h4.415l2.048-2H8zm13 3h-1v1h1v-1zM3 10v1h1v-1H3zm19 1h1v-1h-1v1zM2 11v-1H1v1h1zm17 0v-1h-2.39l1.024 1H19zM5 11h1.366l1.024-1H5v1zm11.67 2h1.623L12 7l-6.293 6h1.624L12 8.5l4.67 4.5zm-7.963 0h6.586L12 10l-3.293 3zM3 15h1v3H3v-3zm17 0h1v3h-1v-3z"/></g></g><g class="vertex" transform="translate(-900 -420)" style="cursor: pointer; pointer-events: auto;"><circle class="handle" r="10" fill="#0E5A8A" stroke="none"/><text x="0" y="15" text-anchor="middle" alignment-baseline="middle" filter="url(#solid)" pointer-events="none" fill="#0E5A8A" style="font-size: 5px; font-family: sans-serif; font-weight: bold;">Rinalds Ters</text><g transform="scale(0.5)translate(-12 -12)" fill="#FFFFFF" pointer-events="none"><path d="M12 11a3 3 0 100-6 3 3 0 000 6zm0 1a4 4 0 110-8 4 4 0 010 8z"/><path d="M12 23c6.075 0 11-4.925 11-11S18.075 1 12 1 1 5.925 1 12s4.925 11 11 11zm0 1C5.373 24 0 18.627 0 12S5.373 0 12 0s12 5.373 12 12-5.373 12-12 12z"/><path d="M6.26 22.541L6 22.399V16a4 4 0 014-4h4a4 4 0 014 4v6.399l-.26.142A11.946 11.946 0 0112 24c-2.022 0-3.984-.5-5.74-1.459zm.74-.74C8.541 22.589 10.245 23 12 23s3.459-.41 5-1.2V16a3 3 0 00-3-3h-4a3 3 0 00-3 3v5.8z"/></g></g><g class="vertex" transform="translate(-470 -290)" style="cursor: pointer; pointer-events: auto;"><circle class="handle" r="10" fill="#A66321" stroke="none"/><text x="0" y="15" text-anchor="middle" alignment-baseline="middle" filter="url(#solid)" pointer-events="none" fill="#A66321" style="font-size: 5px; font-family: sans-serif; font-weight: bold;">Crowdestor OU</text><g transform="scale(0.5)translate(-12 -12)" fill="#FFFFFF" pointer-events="none"><path d="M1 5v18h7V5H1zm0-1h8v20H1a1 1 0 01-1-1V5a1 1 0 011-1z"/><path d="M9 22v1h6v-1H9zm-1-1h8v3H8v-3z"/><path d="M9 1v20h6V1H9zm0-1h6a1 1 0 011 1v21H8V1a1 1 0 011-1z"/><path d="M11 3v1h2V3h-2zm0-1h2a1 1 0 011 1v1a1 1 0 01-1 1h-2a1 1 0 01-1-1V3a1 1 0 011-1zM11 7v1h2V7h-2zm0-1h2a1 1 0 011 1v1a1 1 0 01-1 1h-2a1 1 0 01-1-1V7a1 1 0 011-1zM11 11v1h2v-1h-2zm0-1h2a1 1 0 011 1v1a1 1 0 01-1 1h-2a1 1 0 01-1-1v-1a1 1 0 011-1zM3 8h1V7H3v1zm0-2h1a1 1 0 011 1v1a1 1 0 01-1 1H3a1 1 0 01-1-1V7a1 1 0 011-1zM7 8h1V7H7v1zm0-2h1a1 1 0 011 1v1a1 1 0 01-1 1H7a1 1 0 01-1-1V7a1 1 0 011-1zM3 12h1v-1H3v1zm0-2h1a1 1 0 011 1v1a1 1 0 01-1 1H3a1 1 0 01-1-1v-1a1 1 0 011-1zM7 12h1v-1H7v1zm0-2h1a1 1 0 011 1v1a1 1 0 01-1 1H7a1 1 0 01-1-1v-1a1 1 0 011-1zM3 16h1v-1H3v1zm0-2h1a1 1 0 011 1v1a1 1 0 01-1 1H3a1 1 0 01-1-1v-1a1 1 0 011-1zM7 16h1v-1H7v1zm0-2h1a1 1 0 011 1v1a1 1 0 01-1 1H7a1 1 0 01-1-1v-1a1 1 0 011-1zM3 20h1v-1H3v1zm0-2h1a1 1 0 011 1v1a1 1 0 01-1 1H3a1 1 0 01-1-1v-1a1 1 0 011-1zM7 20h1v-1H7v1zm0-2h1a1 1 0 011 1v1a1 1 0 01-1 1H7a1 1 0 01-1-1v-1a1 1 0 011-1zM16 20h1v-1h-1v1zm0-2h1a1 1 0 011 1v1a1 1 0 01-1 1h-1a1 1 0 01-1-1v-1a1 1 0 011-1zM20 20h1v-1h-1v1zm0-2h1a1 1 0 011 1v1a1 1 0 01-1 1h-1a1 1 0 01-1-1v-1a1 1 0 011-1zM20 16h1v-1h-1v1zm0-2h1a1 1 0 011 1v1a1 1 0 01-1 1h-1a1 1 0 01-1-1v-1a1 1 0 011-1zM16 16h1v-1h-1v1zm0-2h1a1 1 0 011 1v1a1 1 0 01-1 1h-1a1 1 0 01-1-1v-1a1 1 0 011-1zM16 12h1v-1h-1v1zm0-2h1a1 1 0 011 1v1a1 1 0 01-1 1h-1a1 1 0 01-1-1v-1a1 1 0 011-1zM20 12h1v-1h-1v1zm0-2h1a1 1 0 011 1v1a1 1 0 01-1 1h-1a1 1 0 01-1-1v-1a1 1 0 011-1zM20 8h1V7h-1v1zm0-2h1a1 1 0 011 1v1a1 1 0 01-1 1h-1a1 1 0 01-1-1V7a1 1 0 011-1zM16 8h1V7h-1v1zm0-2h1a1 1 0 011 1v1a1 1 0 01-1 1h-1a1 1 0 01-1-1V7a1 1 0 011-1zM11 15v1h2v-1h-2zm0-1h2a1 1 0 011 1v1a1 1 0 01-1 1h-2a1 1 0 01-1-1v-1a1 1 0 011-1zM11 19v2h2v-2h-2zm0-1h2a1 1 0 011 1v3h-4v-3a1 1 0 011-1z"/><path d="M16 5v18h7V5h-7zm0-1h7a1 1 0 011 1v18a1 1 0 01-1 1h-8V5a1 1 0 011-1z"/></g></g><g class="vertex" transform="translate(-560 -270)" style="cursor: pointer; pointer-events: auto;"><circle class="handle" r="10" fill="#A82A2A" stroke="none"/><text x="0" y="15" text-anchor="middle" alignment-baseline="middle" filter="url(#solid)" pointer-events="none" fill="#A82A2A" style="font-size: 5px; font-family: sans-serif; font-weight: bold;">The Catch</text><g transform="scale(0.5)translate(-12 -12)" fill="#FFFFFF" pointer-events="none"><path d="M17 21v-6l1-1v7a1 1 0 01-1 1H3a1 1 0 01-1-1V1a1 1 0 011-1h14a1 1 0 011 1v9l-1 1V1H3v20h14z"/><path d="M4.917 3.5a.5.5 0 01.5-.5h9.166a.5.5 0 110 1H5.417a.5.5 0 01-.5-.5zM4.917 6.5a.5.5 0 01.5-.5h9.166a.5.5 0 110 1H5.417a.5.5 0 01-.5-.5zM4.917 9.5a.5.5 0 01.5-.5h9.166a.5.5 0 110 1H5.417a.5.5 0 01-.5-.5zM6.415 16.282c-.103.224-.21.464-.344.77l-.267.612a59.71 59.71 0 01-.058.13.497.497 0 01-.66.254.503.503 0 01-.253-.661l.055-.124.267-.613c.137-.311.246-.556.352-.786.437-.95.774-1.554 1.106-1.906.608-.645 1.326-.452 1.638.463.108.317.191.635.263.986.047.226.085.443.148.82.142.811.338.825 1.338.825h3.526c.262 0 .474.212.474.474a.49.49 0 01-.474.49c-2.675.092-4.107.138-4.296.138-1.002 0-1.336-.518-1.553-1.754-.184-1.057-.21-1.177-.372-1.656a3.157 3.157 0 00-.015-.042c-.225.268-.512.793-.875 1.58z"/><path d="M15 23v-2h1v2a1 1 0 01-1 1H1a1 1 0 01-1-1V3a1 1 0 011-1h2v1H1v20h14z"/><path d="M13.293 14l7.5-7.5a1 1 0 011.414 0L23.5 7.793a1 1 0 010 1.414l-7.5 7.5a1 1 0 01-.707.293H13v-2.293a1 1 0 01.293-.707zM14 16h1.293l7.5-7.5L21.5 7.207l-7.5 7.5V16z"/></g></g><g class="vertex" transform="translate(-530 -340)" style="cursor: pointer; pointer-events: auto;"><circle class="handle" r="10" fill="#A82A2A" stroke="none"/><text x="0" y="15" text-anchor="middle" alignment-baseline="middle" filter="url(#solid)" pointer-events="none" fill="#A82A2A" style="font-size: 5px; font-family: sans-serif; font-weight: bold;">Kabuki restaurant Salaris</text><g transform="scale(0.5)translate(-12 -12)" fill="#FFFFFF" pointer-events="none"><path d="M17 21v-6l1-1v7a1 1 0 01-1 1H3a1 1 0 01-1-1V1a1 1 0 011-1h14a1 1 0 011 1v9l-1 1V1H3v20h14z"/><path d="M4.917 3.5a.5.5 0 01.5-.5h9.166a.5.5 0 110 1H5.417a.5.5 0 01-.5-.5zM4.917 6.5a.5.5 0 01.5-.5h9.166a.5.5 0 110 1H5.417a.5.5 0 01-.5-.5zM4.917 9.5a.5.5 0 01.5-.5h9.166a.5.5 0 110 1H5.417a.5.5 0 01-.5-.5zM6.415 16.282c-.103.224-.21.464-.344.77l-.267.612a59.71 59.71 0 01-.058.13.497.497 0 01-.66.254.503.503 0 01-.253-.661l.055-.124.267-.613c.137-.311.246-.556.352-.786.437-.95.774-1.554 1.106-1.906.608-.645 1.326-.452 1.638.463.108.317.191.635.263.986.047.226.085.443.148.82.142.811.338.825 1.338.825h3.526c.262 0 .474.212.474.474a.49.49 0 01-.474.49c-2.675.092-4.107.138-4.296.138-1.002 0-1.336-.518-1.553-1.754-.184-1.057-.21-1.177-.372-1.656a3.157 3.157 0 00-.015-.042c-.225.268-.512.793-.875 1.58z"/><path d="M15 23v-2h1v2a1 1 0 01-1 1H1a1 1 0 01-1-1V3a1 1 0 011-1h2v1H1v20h14z"/><path d="M13.293 14l7.5-7.5a1 1 0 011.414 0L23.5 7.793a1 1 0 010 1.414l-7.5 7.5a1 1 0 01-.707.293H13v-2.293a1 1 0 01.293-.707zM14 16h1.293l7.5-7.5L21.5 7.207l-7.5 7.5V16z"/></g></g><g class="vertex" transform="translate(-610 -350)" style="cursor: pointer; pointer-events: auto;"><circle class="handle" r="10" fill="#A66321" stroke="none"/><text x="0" y="15" text-anchor="middle" alignment-baseline="middle" filter="url(#solid)" pointer-events="none" fill="#A66321" style="font-size: 5px; font-family: sans-serif; font-weight: bold;">SIA SVP</text><g transform="scale(0.5)translate(-12 -12)" fill="#FFFFFF" pointer-events="none"><path d="M1 5v18h7V5H1zm0-1h8v20H1a1 1 0 01-1-1V5a1 1 0 011-1z"/><path d="M9 22v1h6v-1H9zm-1-1h8v3H8v-3z"/><path d="M9 1v20h6V1H9zm0-1h6a1 1 0 011 1v21H8V1a1 1 0 011-1z"/><path d="M11 3v1h2V3h-2zm0-1h2a1 1 0 011 1v1a1 1 0 01-1 1h-2a1 1 0 01-1-1V3a1 1 0 011-1zM11 7v1h2V7h-2zm0-1h2a1 1 0 011 1v1a1 1 0 01-1 1h-2a1 1 0 01-1-1V7a1 1 0 011-1zM11 11v1h2v-1h-2zm0-1h2a1 1 0 011 1v1a1 1 0 01-1 1h-2a1 1 0 01-1-1v-1a1 1 0 011-1zM3 8h1V7H3v1zm0-2h1a1 1 0 011 1v1a1 1 0 01-1 1H3a1 1 0 01-1-1V7a1 1 0 011-1zM7 8h1V7H7v1zm0-2h1a1 1 0 011 1v1a1 1 0 01-1 1H7a1 1 0 01-1-1V7a1 1 0 011-1zM3 12h1v-1H3v1zm0-2h1a1 1 0 011 1v1a1 1 0 01-1 1H3a1 1 0 01-1-1v-1a1 1 0 011-1zM7 12h1v-1H7v1zm0-2h1a1 1 0 011 1v1a1 1 0 01-1 1H7a1 1 0 01-1-1v-1a1 1 0 011-1zM3 16h1v-1H3v1zm0-2h1a1 1 0 011 1v1a1 1 0 01-1 1H3a1 1 0 01-1-1v-1a1 1 0 011-1zM7 16h1v-1H7v1zm0-2h1a1 1 0 011 1v1a1 1 0 01-1 1H7a1 1 0 01-1-1v-1a1 1 0 011-1zM3 20h1v-1H3v1zm0-2h1a1 1 0 011 1v1a1 1 0 01-1 1H3a1 1 0 01-1-1v-1a1 1 0 011-1zM7 20h1v-1H7v1zm0-2h1a1 1 0 011 1v1a1 1 0 01-1 1H7a1 1 0 01-1-1v-1a1 1 0 011-1zM16 20h1v-1h-1v1zm0-2h1a1 1 0 011 1v1a1 1 0 01-1 1h-1a1 1 0 01-1-1v-1a1 1 0 011-1zM20 20h1v-1h-1v1zm0-2h1a1 1 0 011 1v1a1 1 0 01-1 1h-1a1 1 0 01-1-1v-1a1 1 0 011-1zM20 16h1v-1h-1v1zm0-2h1a1 1 0 011 1v1a1 1 0 01-1 1h-1a1 1 0 01-1-1v-1a1 1 0 011-1zM16 16h1v-1h-1v1zm0-2h1a1 1 0 011 1v1a1 1 0 01-1 1h-1a1 1 0 01-1-1v-1a1 1 0 011-1zM16 12h1v-1h-1v1zm0-2h1a1 1 0 011 1v1a1 1 0 01-1 1h-1a1 1 0 01-1-1v-1a1 1 0 011-1zM20 12h1v-1h-1v1zm0-2h1a1 1 0 011 1v1a1 1 0 01-1 1h-1a1 1 0 01-1-1v-1a1 1 0 011-1zM20 8h1V7h-1v1zm0-2h1a1 1 0 011 1v1a1 1 0 01-1 1h-1a1 1 0 01-1-1V7a1 1 0 011-1zM16 8h1V7h-1v1zm0-2h1a1 1 0 011 1v1a1 1 0 01-1 1h-1a1 1 0 01-1-1V7a1 1 0 011-1zM11 15v1h2v-1h-2zm0-1h2a1 1 0 011 1v1a1 1 0 01-1 1h-2a1 1 0 01-1-1v-1a1 1 0 011-1zM11 19v2h2v-2h-2zm0-1h2a1 1 0 011 1v3h-4v-3a1 1 0 011-1z"/><path d="M16 5v18h7V5h-7zm0-1h7a1 1 0 011 1v18a1 1 0 01-1 1h-8V5a1 1 0 011-1z"/></g></g><g class="vertex" transform="translate(-640 -270)" style="cursor: pointer; pointer-events: auto;"><circle class="handle" r="10" fill="#A66321" stroke="none"/><text x="0" y="15" text-anchor="middle" alignment-baseline="middle" filter="url(#solid)" pointer-events="none" fill="#A66321" style="font-size: 5px; font-family: sans-serif; font-weight: bold;">The Catch GmbH</text><g transform="scale(0.5)translate(-12 -12)" fill="#FFFFFF" pointer-events="none"><path d="M1 5v18h7V5H1zm0-1h8v20H1a1 1 0 01-1-1V5a1 1 0 011-1z"/><path d="M9 22v1h6v-1H9zm-1-1h8v3H8v-3z"/><path d="M9 1v20h6V1H9zm0-1h6a1 1 0 011 1v21H8V1a1 1 0 011-1z"/><path d="M11 3v1h2V3h-2zm0-1h2a1 1 0 011 1v1a1 1 0 01-1 1h-2a1 1 0 01-1-1V3a1 1 0 011-1zM11 7v1h2V7h-2zm0-1h2a1 1 0 011 1v1a1 1 0 01-1 1h-2a1 1 0 01-1-1V7a1 1 0 011-1zM11 11v1h2v-1h-2zm0-1h2a1 1 0 011 1v1a1 1 0 01-1 1h-2a1 1 0 01-1-1v-1a1 1 0 011-1zM3 8h1V7H3v1zm0-2h1a1 1 0 011 1v1a1 1 0 01-1 1H3a1 1 0 01-1-1V7a1 1 0 011-1zM7 8h1V7H7v1zm0-2h1a1 1 0 011 1v1a1 1 0 01-1 1H7a1 1 0 01-1-1V7a1 1 0 011-1zM3 12h1v-1H3v1zm0-2h1a1 1 0 011 1v1a1 1 0 01-1 1H3a1 1 0 01-1-1v-1a1 1 0 011-1zM7 12h1v-1H7v1zm0-2h1a1 1 0 011 1v1a1 1 0 01-1 1H7a1 1 0 01-1-1v-1a1 1 0 011-1zM3 16h1v-1H3v1zm0-2h1a1 1 0 011 1v1a1 1 0 01-1 1H3a1 1 0 01-1-1v-1a1 1 0 011-1zM7 16h1v-1H7v1zm0-2h1a1 1 0 011 1v1a1 1 0 01-1 1H7a1 1 0 01-1-1v-1a1 1 0 011-1zM3 20h1v-1H3v1zm0-2h1a1 1 0 011 1v1a1 1 0 01-1 1H3a1 1 0 01-1-1v-1a1 1 0 011-1zM7 20h1v-1H7v1zm0-2h1a1 1 0 011 1v1a1 1 0 01-1 1H7a1 1 0 01-1-1v-1a1 1 0 011-1zM16 20h1v-1h-1v1zm0-2h1a1 1 0 011 1v1a1 1 0 01-1 1h-1a1 1 0 01-1-1v-1a1 1 0 011-1zM20 20h1v-1h-1v1zm0-2h1a1 1 0 011 1v1a1 1 0 01-1 1h-1a1 1 0 01-1-1v-1a1 1 0 011-1zM20 16h1v-1h-1v1zm0-2h1a1 1 0 011 1v1a1 1 0 01-1 1h-1a1 1 0 01-1-1v-1a1 1 0 011-1zM16 16h1v-1h-1v1zm0-2h1a1 1 0 011 1v1a1 1 0 01-1 1h-1a1 1 0 01-1-1v-1a1 1 0 011-1zM16 12h1v-1h-1v1zm0-2h1a1 1 0 011 1v1a1 1 0 01-1 1h-1a1 1 0 01-1-1v-1a1 1 0 011-1zM20 12h1v-1h-1v1zm0-2h1a1 1 0 011 1v1a1 1 0 01-1 1h-1a1 1 0 01-1-1v-1a1 1 0 011-1zM20 8h1V7h-1v1zm0-2h1a1 1 0 011 1v1a1 1 0 01-1 1h-1a1 1 0 01-1-1V7a1 1 0 011-1zM16 8h1V7h-1v1zm0-2h1a1 1 0 011 1v1a1 1 0 01-1 1h-1a1 1 0 01-1-1V7a1 1 0 011-1zM11 15v1h2v-1h-2zm0-1h2a1 1 0 011 1v1a1 1 0 01-1 1h-2a1 1 0 01-1-1v-1a1 1 0 011-1zM11 19v2h2v-2h-2zm0-1h2a1 1 0 011 1v3h-4v-3a1 1 0 011-1z"/><path d="M16 5v18h7V5h-7zm0-1h7a1 1 0 011 1v18a1 1 0 01-1 1h-8V5a1 1 0 011-1z"/></g></g><g class="vertex" transform="translate(-610 -420)" style="cursor: pointer; pointer-events: auto;"><circle class="handle" r="10" fill="#0E5A8A" stroke="none"/><text x="0" y="15" text-anchor="middle" alignment-baseline="middle" filter="url(#solid)" pointer-events="none" fill="#0E5A8A" style="font-size: 5px; font-family: sans-serif; font-weight: bold;">Andrejs Čepjolkins</text><g transform="scale(0.5)translate(-12 -12)" fill="#FFFFFF" pointer-events="none"><path d="M12 11a3 3 0 100-6 3 3 0 000 6zm0 1a4 4 0 110-8 4 4 0 010 8z"/><path d="M12 23c6.075 0 11-4.925 11-11S18.075 1 12 1 1 5.925 1 12s4.925 11 11 11zm0 1C5.373 24 0 18.627 0 12S5.373 0 12 0s12 5.373 12 12-5.373 12-12 12z"/><path d="M6.26 22.541L6 22.399V16a4 4 0 014-4h4a4 4 0 014 4v6.399l-.26.142A11.946 11.946 0 0112 24c-2.022 0-3.984-.5-5.74-1.459zm.74-.74C8.541 22.589 10.245 23 12 23s3.459-.41 5-1.2V16a3 3 0 00-3-3h-4a3 3 0 00-3 3v5.8z"/></g></g><rect id="selection" stroke="black" stroke-width="0.5px" stroke-dasharray="2" fill-opacity="0"/></g><defs><pattern id="grid" width="10" height="10" patternUnits="userSpaceOnUse"><path d="M 10 0 L 0 0 0 10" fill="none" stroke="#E1E8ED" stroke-width="0.5"/></pattern><marker id="arrow" viewBox="0 0 10 10" refX="29" refY="5" markerWidth="5" markerHeight="5" orient="auto-start-reverse" fill="#738694"><path d="M 0 0 L 10 5 L 0 10 z"/></marker><marker id="arrow-unselected" viewBox="0 0 10 10" refX="29" refY="5" markerWidth="5" markerHeight="5" orient="auto-start-reverse" fill="#BFCCD6"><path d="M 0 0 L 10 5 L 0 10 z"/></marker><filter x="0" y="0" width="1" height="1" id="solid"><feFlood flood-color="#ffffff"/><feComposite in="SourceGraphic"/></filter></defs></svg>